<?xml version="1.0" standalone="no"?><!DOCTYPE svg PUBLIC "-//W3C//DTD SVG 1.1//EN" "http://www.w3.org/Graphics/SVG/1.1/DTD/svg11.dtd"><svg xmlns:xlink="http://www.w3.org/1999/xlink" version="1.1" class="highcharts-root" style="font-family: &quot;Helvetica Neue&quot;, Helvetica, Arial, sans-serif; font-size: 12px;" xmlns="http://www.w3.org/2000/svg" width="750" height="520" viewBox="0 0 750 520"><desc>Created with Highcharts 10.1.0</desc><defs><linearGradient x1="0" y1="0" x2="500" y2="500" gradientUnits="userSpaceOnUse" id="highcharts-uup03ro-3758"><stop offset="0" stop-color="rgb(35, 35, 35)" stop-opacity="1"></stop></linearGradient><clipPath id="highcharts-uup03ro-3759-"><rect x="0" y="0" width="679" height="416" fill="none"></rect></clipPath><clipPath id="highcharts-uup03ro-4871-"><rect x="0" y="0" width="679" height="416" fill="none"></rect></clipPath><clipPath id="highcharts-uup03ro-5988-"><rect x="8" y="40" width="679" height="416" fill="none"></rect></clipPath></defs><rect fill="url(#highcharts-uup03ro-3758)" class="highcharts-background" x="0" y="0" width="750" height="520" rx="0" ry="0"></rect><rect fill="none" class="highcharts-plot-background" x="8" y="40" width="679" height="416"></rect><g class="highcharts-grid highcharts-xaxis-grid" data-z-index="1"><path fill="none" stroke="#333333" stroke-width="1" stroke-dasharray="none" data-z-index="1" class="highcharts-grid-line" d="M 22.5 40 L 22.5 456" opacity="1"></path><path fill="none" stroke="#333333" stroke-width="1" stroke-dasharray="none" data-z-index="1" class="highcharts-grid-line" d="M 176.5 40 L 176.5 456" opacity="1"></path><path fill="none" stroke="#333333" stroke-width="1" stroke-dasharray="none" data-z-index="1" class="highcharts-grid-line" d="M 330.5 40 L 330.5 456" opacity="1"></path><path fill="none" stroke="#333333" stroke-width="1" stroke-dasharray="none" data-z-index="1" class="highcharts-grid-line" d="M 483.5 40 L 483.5 456" opacity="1"></path><path fill="none" stroke="#333333" stroke-width="1" stroke-dasharray="none" data-z-index="1" class="highcharts-grid-line" d="M 636.5 40 L 636.5 456" opacity="1"></path></g><g class="highcharts-grid highcharts-yaxis-grid" data-z-index="1"><path fill="none" stroke="#333333" stroke-width="1" stroke-dasharray="none" data-z-index="1" class="highcharts-grid-line" d="M 8 456.5 L 687 456.5" opacity="1"></path><path fill="none" stroke="#333333" stroke-width="1" stroke-dasharray="none" data-z-index="1" class="highcharts-grid-line" d="M 8 397.5 L 687 397.5" opacity="1"></path><path fill="none" stroke="#333333" stroke-width="1" stroke-dasharray="none" data-z-index="1" class="highcharts-grid-line" d="M 8 337.5 L 687 337.5" opacity="1"></path><path fill="none" stroke="#333333" stroke-width="1" stroke-dasharray="none" data-z-index="1" class="highcharts-grid-line" d="M 8 278.5 L 687 278.5" opacity="1"></path><path fill="none" stroke="#333333" stroke-width="1" stroke-dasharray="none" data-z-index="1" class="highcharts-grid-line" d="M 8 218.5 L 687 218.5" opacity="1"></path><path fill="none" stroke="#333333" stroke-width="1" stroke-dasharray="none" data-z-index="1" class="highcharts-grid-line" d="M 8 159.5 L 687 159.5" opacity="1"></path><path fill="none" stroke="#333333" stroke-width="1" stroke-dasharray="none" data-z-index="1" class="highcharts-grid-line" d="M 8 99.5 L 687 99.5" opacity="1"></path><path fill="none" stroke="#333333" stroke-width="1" stroke-dasharray="none" data-z-index="1" class="highcharts-grid-line" d="M 8 39.5 L 687 39.5" opacity="1"></path></g><g class="highcharts-grid highcharts-yaxis-grid" data-z-index="1"></g><g class="highcharts-grid highcharts-yaxis-grid" data-z-index="1"></g><rect fill="none" class="highcharts-plot-border" data-z-index="1" x="8" y="40" width="679" height="416"></rect><g class="highcharts-axis highcharts-xaxis" data-z-index="2"><path fill="none" class="highcharts-axis-line" stroke="#616161" stroke-width="1" data-z-index="7" d="M 8 456.5 L 687 456.5"></path></g><g class="highcharts-axis highcharts-yaxis" data-z-index="2"><path fill="none" class="highcharts-axis-line" data-z-index="7" d="M 712 40 L 712 456"></path></g><g class="highcharts-axis highcharts-yaxis" data-z-index="2"><path fill="none" class="highcharts-axis-line" data-z-index="7" d="M 6.5 40 L 6.5 456"></path></g><g class="highcharts-series-group" data-z-index="3"><g class="highcharts-series highcharts-series-0 highcharts-line-series" data-z-index="90" opacity="1" transform="translate(8,40) scale(1 1)" clip-path="url(#highcharts-uup03ro-4871-)"><path fill="none" d="M 0 303.08571428570997 L 0.60896860986577 303.97714285714 L 1.2179372197304 306.05714285714 L 1.8269058295961 304.27428571429 L 2.4358744394619 315.14971428571 L 3.0448430493277 327.986285714286 L 3.6538116591923 310.51428571429 L 4.262780269058 308.96914285714 L 4.8717488789238 315.56571428571 L 5.4807174887896 319.072 L 6.0896860986542 325.014857142857 L 6.69865470852 327.154285714286 L 7.3076233183857 326.441142857143 L 7.9165919282515 327.035428571429 L 8.5255605381161 325.728 L 9.1345291479819 321.211428571429 L 9.7434977578476 313.18857142857 L 10.352466367713 314.08 L 10.961434977578 314.02057142857 L 11.570403587444 313.72342857143 L 12.17937219731 308.96914285714 L 12.788340807175 310.98971428570997 L 13.39730941704 301.54057142857 L 14.006278026906 299.69828571429 L 14.615246636771 299.69828571429 L 15.224215246637 299.04457142857 L 15.833183856502 303.14514285714 L 16.442152466368 304.27428571429 L 17.051121076233 305.22514285714 L 17.660089686099 310.39542857143 L 18.269058295964 315.03085714286 L 18.87802690583 317.942857142857 L 19.486995515695 318.358857142857 L 20.095964125561 311.40571428571 L 20.704932735426 308.55314285714 L 21.313901345291 309.86057142857 L 21.922869955157 315.68457142857 L 22.531838565023 317.051428571429 L 23.140807174888 312.65371428571 L 23.749775784753 310.45485714286 L 24.358744394619 308.31542857143 L 24.967713004485 307.12685714286 L 25.576681614349 308.90971428571 L 26.185650224215 306.176 L 26.794618834081 304.39314285714 L 27.403587443946 302.31314285714 L 28.012556053811 300.11428571429 L 28.621524663677 289.71428571429 L 29.230493273543 288.46628571429 L 29.839461883408 297.73714285714 L 30.448430493273 296.84571428571 L 31.057399103139 293.33942857143 L 31.666367713005 287.57485714285997 L 32.275336322869 287.456 L 32.884304932735 299.34171428571 L 33.493273542601 299.52 L 34.102242152467 307.008 L 34.711210762331 306.53257142857 L 35.320179372197 295.71657142857 L 35.929147982063 293.75542857143 L 36.538116591929 295.59771428571 L 37.147085201793 293.696 L 37.756053811659 295.41942857143 L 38.365022421525 302.78857142857 L 38.973991031391 302.96685714286 L 39.582959641255 304.69028571429 L 40.191928251121 302.07542857143 L 40.800896860987 298.86628571429003 L 41.409865470852 301.18399999999997 L 42.018834080717 307.66171428571 L 42.627802690583 306.47314285714003 L 43.236771300449 306.29485714286 L 43.845739910314 306.71085714286 L 44.454708520179 304.57142857143003 L 45.063677130045 305.70057142857 L 45.672645739911 301.48114285714 L 46.281614349776 297.73714285714 L 46.890582959641 296.42971428571 L 47.499551569507 300.70857142857 L 48.108520179372 303.20457142857003 L 48.717488789238 302.19428571429 L 49.326457399103 302.25371428571 L 49.935426008969 303.56114285714 L 50.544394618834 303.79885714286 L 51.1533632287 307.60228571429 L 51.762331838565 307.84000000000003 L 52.37130044843 311.168 L 52.980269058296 310.21714285714 L 53.589237668162 309.02857142857 L 54.198206278027 311.70285714286 L 54.807174887892 315.328 L 55.416143497758 315.68457142857 L 56.025112107623 321.568 L 56.634080717489 320.914285714286 L 57.243049327354 319.606857142857 L 57.85201793722 319.904 L 58.460986547085 322.518857142857 L 59.06995515695 316.992 L 59.678923766816 318.953142857143 L 60.287892376682 316.75428571428597 L 60.896860986547 315.744 L 61.505829596412 316.33828571428603 L 62.114798206278 320.676571428571 L 62.723766816144 323.885714285714 L 63.332735426008 321.033142857143 L 63.941704035874 323.23199999999997 L 64.55067264574 318.715428571429 L 65.159641255606 316.576 L 65.76860986547 316.33828571428603 L 66.377578475336 316.278857142857 L 66.986547085202 312.11885714286 L 67.595515695068 318.656 L 68.204484304932 319.844571428571 L 68.813452914798 322.459428571429 L 69.422421524664 322.934857142857 L 70.03139013453 320.141714285714 L 70.640358744394 320.022857142857 L 71.24932735426 319.725714285714 L 71.858295964126 316.516571428571 L 72.467264573992 316.635428571429 L 73.076233183856 322.578285714286 L 73.685201793722 318.656 L 74.294170403588 324.004571428571 L 74.903139013453 324.004571428571 L 75.512107623318 322.69714285714304 L 76.121076233184 326.976 L 76.73004484305 326.203428571429 L 77.339013452915 323.648 L 77.94798206278 321.330285714286 L 78.556950672646 321.627428571429 L 79.165919282511 320.617142857143 L 79.774887892377 320.795428571429 L 80.383856502242 325.787428571429 L 80.992825112108 328.937142857143 L 81.601793721973 327.808 L 82.210762331838 327.926857142857 L 82.819730941704 325.312 L 83.42869955157 322.281142857143 L 84.037668161435 321.686857142857 L 84.6466367713 319.725714285714 L 85.255605381166 315.09028571429 L 85.864573991031 318.002285714286 L 86.473542600897 311.70285714286 L 87.082511210762 316.33828571428603 L 87.691479820628 310.09828571429 L 88.300448430493 310.752 L 88.909417040359 307.95885714286 L 89.518385650224 305.10628571429 L 90.127354260089 304.21485714286 L 90.736322869955 301.95657142857 L 91.345291479821 302.25371428571 L 91.954260089686 303.91771428571 L 92.563228699551 299.75771428571 L 93.172197309417 304.63085714286 L 93.781165919283 306.65142857143 L 94.390134529148 306.88914285714 L 94.999103139013 306.23542857143 L 95.608071748879 304.86857142857 L 96.217040358745 304.69028571429 L 96.826008968609 306.94857142857 L 97.434977578475 305.58171428571 L 98.043946188341 305.22514285714 L 98.652914798207 304.98742857143 L 99.261883408071 301.77828571429 L 99.870852017937 307.24571428571 L 100.4798206278 310.09828571429 L 101.08878923767 308.07771428571 L 101.69775784753 306.35428571429 L 102.3067264574 309.32571428571 L 102.91569506726 314.02057142857 L 103.52466367713 311.64342857143 L 104.133632287 310.21714285714 L 104.74260089686 301.65942857143 L 105.35156950673 303.56114285714 L 105.96053811659 296.42971428571 L 106.56950672646 291.49714285714003 L 107.17847533632 286.98057142857 L 107.78744394619 287.69371428571003 L 108.39641255605 290.96228571429003 L 109.00538116592 293.57714285714 L 109.61434977578 294.11199999999997 L 110.22331838565 291.55657142857 L 110.83228699552 293.57714285714 L 111.44125560538 292.92342857143 L 112.05022421525 288.82285714286 L 112.65919282511 288.10971428570997 L 113.26816143498 287.81257142857 L 113.87713004484 289.89257142857 L 114.48609865471 293.22057142857 L 115.09506726457 306.77028571429 L 115.70403587444 306.05714285714 L 116.3130044843 313.248 L 116.92197309417 313.78285714286 L 117.53094170404 307.60228571429 L 118.1399103139 309.504 L 118.74887892377 303.68 L 119.35784753363 313.12914285714 L 119.9668161435 325.074285714286 L 120.57578475336 338.32685714285697 L 121.18475336323 321.449142857143 L 121.79372197309 326.857142857143 L 122.40269058296 342.665142857143 L 123.01165919282 327.926857142857 L 123.62062780269 352.173714285714 L 124.22959641256 340.704 L 124.83856502242 347.241142857143 L 125.44753363229 337.197714285714 L 126.05650224215 341.536 L 126.66547085202 345.161142857143 L 127.27443946188 342.724571428571 L 127.88340807175 336.36571428571403 L 128.49237668161 331.968 L 129.10134529148 337.494857142857 L 129.71031390135 332.265142857143 L 130.31928251121 335.771428571429 L 130.92825112108 341.654857142857 L 131.53721973094 343.259428571429 L 132.14618834081 341.001142857143 L 132.75515695067 331.254857142857 L 133.36412556054 329.650285714286 L 133.9730941704 320.617142857143 L 134.58206278027 309.44457142857 L 135.19103139013 317.586285714286 L 135.8 318.299428571429 L 136.40896860987 323.826285714286 L 137.01793721973 325.906285714286 L 137.6269058296 323.826285714286 L 138.23587443946 329.056 L 138.84484304933 331.19542857142903 L 139.45381165919 327.213714285714 L 140.06278026906 324.48 L 140.67174887892 319.309714285714 L 141.28071748879 323.52914285714303 L 141.88968609865 319.785142857143 L 142.49865470852 314.67428571429 L 143.10762331839 319.785142857143 L 143.71659192825 323.94514285714297 L 144.32556053812 324.361142857143 L 144.93452914798 319.844571428571 L 145.54349775785 326.797714285714 L 146.15246636771 318.24 L 146.76143497758 321.033142857143 L 147.37040358744 330.54171428571397 L 147.97937219731 337.257142857143 L 148.58834080718 337.138285714286 L 149.19730941704 336.841142857143 L 149.80627802691 340.109714285714 L 150.41524663677 332.740571428571 L 151.02421524664 332.859428571429 L 151.6331838565 326.322285714286 L 152.24215246637 329.531428571429 L 152.85112107623 329.590857142857 L 153.4600896861 323.053714285714 L 154.06905829596 322.10285714285703 L 154.67802690583 315.03085714286 L 155.2869955157 313.12914285714 L 155.89596412556 316.041142857143 L 156.50493273543 308.96914285714 L 157.11390134529 306.05714285714 L 157.72286995516 296.13257142857003 L 158.33183856502 293.28 L 158.94080717489 297.08342857143 L 159.54977578475 299.57942857143 L 160.15874439462 302.25371428571 L 160.76771300448 314.37714285714003 L 161.37668161435 311.76228571429 L 161.98565022422 316.33828571428603 L 162.59461883408 310.09828571429 L 163.20358744395 312.89142857142997 L 163.81255605381 312.11885714286 L 164.42152466368 314.19885714286 L 165.03049327354 311.52457142856997 L 165.63946188341 312.47542857143003 L 166.24843049327 320.498285714286 L 166.85739910314 319.725714285714 L 167.466367713 321.38971428571404 L 168.07533632287 320.082285714286 L 168.68430493274 316.21942857142903 L 169.2932735426 314.73371428571 L 169.90224215247 311.584 L 170.51121076233 311.82171428571 L 171.1201793722 314.13942857143 L 171.72914798206 321.746285714286 L 172.33811659193 322.4 L 172.94708520179 317.229714285714 L 173.55605381166 315.92228571429 L 174.16502242152 314.496 L 174.77399103139 309.38514285714 L 175.38295964126 309.504 L 175.99192825112 306.94857142857 L 176.60089686099 310.69257142857 L 177.20986547085 306.94857142857 L 177.81883408072 305.10628571429 L 178.42780269058 305.04685714286 L 179.03677130045 305.93828571429003 L 179.64573991031 304.21485714286 L 180.25470852018 307.89942857143 L 180.86367713004 304.21485714286 L 181.47264573991 306.176 L 182.08161434978 305.70057142857 L 182.69058295964 305.93828571429003 L 183.29955156951 304.80914285714 L 183.90852017937 305.76 L 184.51748878924 324.361142857143 L 185.1264573991 324.955428571429 L 185.73542600897 324.361142857143 L 186.34439461883 316.278857142857 L 186.9533632287 318.774857142857 L 187.56233183856 315.44685714286 L 188.17130044843 309.80114285714 L 188.7802690583 310.39542857143 L 189.38923766816 306.65142857143 L 189.99820627803 305.70057142857 L 190.60717488789 304.27428571429 L 191.21614349776 306.41371428571 L 191.82511210762 305.81942857142997 L 192.43408071749 305.16571428571 L 193.04304932735 301.71885714286 L 193.65201793722 301.36228571429 L 194.26098654708 299.99542857143 L 194.86995515695 305.76 L 195.47892376682 300.47085714286 L 196.08789237668 296.37028571429 L 196.69686098655 300.64914285714 L 197.30582959641 301.18399999999997 L 197.91479820628 307.24571428571 L 198.52376681614 304.63085714286 L 199.13273542601 302.25371428571 L 199.74170403587 302.96685714286 L 200.35067264574 303.264 L 200.95964125561 300.41142857143 L 201.56860986547 301.71885714286 L 202.17757847534 299.63885714286 L 202.7865470852 303.14514285714 L 203.39551569507 307.72114285713997 L 204.00448430493 308.49371428571 L 204.6134529148 312.23771428571 L 205.22242152466 311.22742857143 L 205.83139013453 306.77028571429 L 206.44035874439 303.264 L 207.04932735426 305.52228571429 L 207.65829596413 304.21485714286 L 208.26726457399 304.98742857143 L 208.87623318386 300.88685714286 L 209.48520179372 296.48914285714 L 210.09417040359 296.608 L 210.70313901345 293.99314285714 L 211.31210762332 283.296 L 211.92107623318 276.75885714286 L 212.53004484305 275.808 L 213.13901345292 275.15428571429004 L 213.74798206278 274.44114285714 L 214.35695067265 273.43085714285996 L 214.96591928251 272.89599999999996 L 215.57488789238 276.224 L 216.18385650224 278.89828571429 L 216.79282511211 279.90857142857 L 217.40179372197 278.54171428571 L 218.01076233184 278.304 L 218.6197309417 281.03771428570997 L 219.22869955157 283.23657142856996 L 219.83766816144 286.08914285714 L 220.4466367713 282.28571428571 L 221.05560538117 279.43314285714 L 221.66457399103 276.46171428571 L 222.2735426009 279.73028571429 L 222.88251121076 280.62171428571 L 223.49147982063 273.728 L 224.10044843049 275.15428571429004 L 224.70941704036 269.568 L 225.31838565022 260.11885714286 L 225.92735426009 257.74171428571003 L 226.53632286996 267.072 L 227.14529147982 261.42628571429 L 227.75426008969 252.98742857143 L 228.36322869955 255.424 L 228.97219730942 257.38514285714 L 229.58116591928 255.78057142857 L 230.19013452915 254.592 L 230.79910313901 250.848 L 231.40807174888 244.25142857143 L 232.01704035874 246.15314285714 L 232.62600896861 247.16342857143 L 233.23497757848 247.69828571429 L 233.84394618834 247.75771428571 L 234.45291479821 247.99542857143 L 235.06188340807 248.352 L 235.67085201794 245.73714285714 L 236.2798206278 249.95657142857 L 236.88878923767 247.104 L 237.49775784753 243.59771428571 L 238.1067264574 245.20228571429 L 238.71569506726 247.28228571429 L 239.32466367713 245.08342857143 L 239.933632287 242.34971428571 L 240.54260089686 243.18171428571 L 241.15156950673 239.616 L 241.76053811659 241.22057142857 L 242.36950672646 240.38857142857 L 242.97847533632 243.776 L 243.58744394619 242.58742857143 L 244.19641255605 240.68571428571 L 244.80538116592 247.52 L 245.41434977578 249.95657142857 L 246.02331838565 246.98514285714 L 246.63228699552 245.32114285714 L 247.24125560538 247.52 L 247.85022421525 244.72685714286 L 248.45919282511 231.35542857143 L 249.06816143498 227.01714285714 L 249.67713004484 218.4 L 250.28609865471 216.20114285714 L 250.89506726457 210.496 L 251.50403587444 213.17028571429 L 252.1130044843 212.69485714286 L 252.72197309417 215.42857142857 L 253.33094170404 216.736 L 253.9399103139 215.96342857143 L 254.54887892377 227.90857142857 L 255.15784753363 225.472 L 255.7668161435 229.98857142857 L 256.37578475336 240.80457142857 L 256.98475336323 245.49942857143 L 257.59372197309 235.99085714286 L 258.20269058296 238.54628571429 L 258.81165919282 233.49485714286 L 259.42062780269 228.85942857143 L 260.02959641256 226.66057142857 L 260.63856502242 221.90628571429 L 261.24753363229 214.53714285714 L 261.85650224215 216.26057142857 L 262.46547085202 217.33028571429 L 263.07443946188 219.648 L 263.68340807175 216.67657142857 L 264.29237668161 211.744 L 264.90134529148 206.336 L 265.51031390135 208.11885714286 L 266.11928251121 212.75428571429 L 266.72825112108 205.20685714286 L 267.33721973094 198.016 L 267.94618834081 199.50171428571 L 268.55515695067 199.62057142857 L 269.16412556054 205.86057142857 L 269.7730941704 207.10857142857 L 270.38206278027 200.45257142857 L 270.99103139013 203.36457142857 L 271.6 205.97942857143 L 272.20896860987 214.83428571429 L 272.81793721973 208.95085714286 L 273.4269058296 208.59428571429 L 274.03587443946 209.72342857143 L 274.64484304933 196.11428571429 L 275.25381165919 196.94628571429 L 275.86278026906 196.70857142857 L 276.47174887892 197.12457142857 L 277.08071748879 201.04685714286 L 277.68968609865 194.56914285714 L 278.29865470852 196.352 L 278.90762331839 195.69828571429 L 279.51659192825 194.33142857143 L 280.12556053812 202.94857142857 L 280.73452914798 200.928 L 281.34349775785 197.42171428571 L 281.95246636771 190.70628571429 L 282.56143497758 191.53828571429 L 283.17040358744 196.47085714286 L 283.77937219731 198.37257142857 L 284.38834080718 197.65942857143 L 284.99730941704 195.87657142857 L 285.60627802691 191.71657142857 L 286.21524663677 197.6 L 286.82421524664 196.53028571429 L 287.4331838565 195.34171428571 L 288.04215246637 195.52 L 288.65112107623 196.88685714286 L 289.2600896861 194.80685714286 L 289.86905829596 193.024 L 290.47802690583 193.14285714286 L 291.0869955157 193.024 L 291.69596412556 196.352 L 292.30493273543 188.50742857143 L 292.91390134529 189.696 L 293.52286995516 186.42742857143 L 294.13183856502 185.00114285714 L 294.74080717489 183.27771428571 L 295.34977578475 183.09942857143 L 295.95874439462 180.90057142857 L 296.56771300448 185.65485714286 L 297.17668161435 179.89028571429 L 297.78565022422 179.53371428571 L 298.39461883408 192.07314285714 L 299.00358744395 187.73485714286 L 299.61255605381 185.06057142857 L 300.22152466368 196.17371428571 L 300.83049327354 195.57942857143 L 301.43946188341 206.93028571429 L 302.04843049327 202.53257142857 L 302.65739910314 200.15542857143 L 303.266367713 200.74971428571 L 303.87533632287 203.36457142857 L 304.48430493274 209.06971428571 L 305.0932735426 213.17028571429 L 305.70224215247 209.78285714286 L 306.31121076233 207.10857142857 L 306.9201793722 210.37714285714 L 307.52914798206 209.30742857143 L 308.13811659193 206.93028571429 L 308.74708520179 205.02857142857 L 309.35605381166 202.23542857143 L 309.96502242152 204.07771428571 L 310.57399103139 202.176 L 311.18295964126 202.29485714286 L 311.79192825112 202.47314285714 L 312.40089686099 202.65142857143 L 313.00986547085 205.088 L 313.61883408072 210.61485714286 L 314.22780269058 210.73371428571 L 314.83677130045 214.18057142857 L 315.44573991031 212.10057142857 L 316.05470852018 215.72571428571 L 316.66367713004 216.85485714286 L 317.27264573991 221.60914285714 L 317.88161434978 217.44914285714 L 318.49058295964 216.97371428571 L 319.09955156951 216.49828571429 L 319.70852017937 211.86285714286 L 320.31748878924 212.992 L 320.9264573991 211.92228571429 L 321.53542600897 212.27885714286 L 322.14439461883 211.86285714286 L 322.7533632287 210.25828571429 L 323.36233183856 210.97142857143 L 323.97130044843 213.408 L 324.5802690583 217.62742857143 L 325.18923766816 220.48 L 325.79820627803 217.21142857143 L 326.40717488789 215.13142857143 L 327.01614349776 219.58857142857 L 327.62511210762 221.84685714286 L 328.23408071749 223.33257142857 L 328.84304932735 226.95771428571 L 329.45201793722 232.18742857143 L 330.06098654708 227.43314285714 L 330.66995515695 224.58057142857 L 331.27892376682 224.224 L 331.88789237668 225.056 L 332.49686098655 223.74857142857 L 333.10582959641 222.67885714286 L 333.71479820628 220.95542857143 L 334.32376681614 218.57828571429 L 334.93273542601 221.19314285714 L 335.54170403587 222.976 L 336.15067264574 219.46971428571 L 336.75964125561 224.224 L 337.36860986547 229.15657142857 L 337.97757847534 209.42628571429 L 338.5865470852 206.93028571429 L 339.19551569507 204.256 L 339.80448430493 203.60228571429 L 340.4134529148 201.70057142857 L 341.02242152466 202.11657142857 L 341.63139013453 206.98971428571 L 342.24035874439 207.584 L 342.84932735426 214.29942857143 L 343.45829596413 222.56 L 344.06726457399 226.18514285714 L 344.67623318386 226.12571428571 L 345.28520179372 222.56 L 345.89417040359 215.25028571429 L 346.50313901345 214.00228571429 L 347.11210762332 212.87314285714 L 347.72107623318 215.36914285714 L 348.33004484305 214.12114285714 L 348.93901345292 211.68457142857 L 349.54798206278 208.47542857143 L 350.15695067265 208.47542857143 L 350.76591928251 211.98171428571 L 351.37488789238 213.11085714286 L 351.98385650224 216.43885714286 L 352.59282511211 217.38971428571 L 353.20179372197 219.05371428571 L 353.81076233184 224.28342857143 L 354.4197309417 220.064 L 355.02869955157 222.38171428571 L 355.63766816144 226.60114285714 L 356.2466367713 228.85942857143 L 356.85560538117 229.39428571429 L 357.46457399103 226.18514285714 L 358.0735426009 223.392 L 358.68251121076 223.98628571429 L 359.29147982063 217.152 L 359.90044843049 219.648 L 360.50941704036 220.71771428571 L 361.11838565022 225.35314285714 L 361.72735426009 216.91428571429 L 362.33632286996 222.56 L 362.94529147982 217.152 L 363.55426008969 225.82857142857 L 364.16322869955 222.91657142857 L 364.77219730942 221.19314285714 L 365.38116591928 223.09485714286 L 365.99013452915 226.12571428571 L 366.59910313901 224.40228571429 L 367.20807174888 217.68685714286 L 367.81704035874 216.85485714286 L 368.42600896861 218.22171428571 L 369.03497757848 216.14171428571 L 369.64394618834 213.17028571429 L 370.25291479821 221.60914285714 L 370.86188340807 221.37142857143 L 371.47085201794 222.73828571429 L 372.0798206278 221.60914285714 L 372.68878923767 225.17485714286 L 373.29775784753 219.648 L 373.9067264574 218.99428571429 L 374.51569506726 219.82628571429 L 375.12466367713 220.83657142857 L 375.733632287 209.12914285714 L 376.34260089686 193.73714285714 L 376.95156950673 192.54857142857 L 377.56053811659 198.848 L 378.16950672646 191.06285714286 L 378.77847533632 192.07314285714 L 379.38744394619 192.01371428571 L 379.99641255605 186.01142857143 L 380.60538116592 187.97257142857 L 381.21434977578 187.616 L 381.82331838565 188.09142857143 L 382.43228699552 186.18971428571 L 383.04125560538 191.30057142857 L 383.65022421525 192.84571428571 L 384.25919282511 190.76571428571 L 384.86816143498 192.72685714286 L 385.47713004484 197.12457142857 L 386.08609865471 198.55085714286 L 386.69506726457 208 L 387.30403587444 210.02057142857 L 387.9130044843 200.928 L 388.52197309417 201.81942857143 L 389.13094170404 195.52 L 389.7399103139 191.65714285714 L 390.34887892377 189.51771428571 L 390.95784753363 189.99314285714 L 391.5668161435 190.40914285714 L 392.17578475336 198.31314285714 L 392.78475336323 200.21485714286 L 393.39372197309 201.52228571429 L 394.00269058296 196.23314285714 L 394.61165919282 201.58171428571 L 395.22062780269 209.42628571429 L 395.82959641256 203.12685714286 L 396.43856502242 202.47314285714 L 397.04753363229 199.44228571429 L 397.65650224215 196.05485714286 L 398.26547085202 193.856 L 398.87443946188 194.03428571429 L 399.48340807175 195.40114285714 L 400.09237668161 194.45028571429 L 400.70134529148 196.70857142857 L 401.31031390135 191.53828571429 L 401.91928251121 194.688 L 402.52825112108 190.76571428571 L 403.13721973094 187.67542857143 L 403.74618834081 193.79657142857 L 404.35515695067 187.73485714286 L 404.96412556054 185.06057142857 L 405.5730941704 184.82285714286 L 406.18206278027 186.60571428571 L 406.79103139013 189.33942857143 L 407.4 194.80685714286 L 408.00896860987 198.848 L 408.61793721973 205.38514285714 L 409.2269058296 201.64114285714 L 409.83587443946 201.76 L 410.44484304933 201.99771428571 L 411.05381165919 197.06514285714 L 411.66278026906 193.38057142857 L 412.27174887892 189.696 L 412.88071748879 190.58742857143 L 413.48968609865 189.39885714286 L 414.09865470852 187.02171428571 L 414.70762331839 176.8 L 415.31659192825 180.96 L 415.92556053812 176.08685714286 L 416.53452914798 169.13371428571 L 417.14349775785 172.64 L 417.75246636771 172.04571428571 L 418.36143497758 172.93714285714 L 418.97040358744 172.99657142857 L 419.57937219731 169.60914285714 L 420.18834080718 170.73828571429 L 420.79730941704 174.12571428571 L 421.40627802691 174.304 L 422.01524663677 175.78971428571 L 422.62421524664 177.98857142857 L 423.2331838565 167.35085714286 L 423.84215246637 166.22171428571 L 424.45112107623 176.08685714286 L 425.0600896861 170.56 L 425.66905829596 169.25257142857 L 426.27802690583 169.49028571429 L 426.8869955157 171.03542857143 L 427.49596412556 177.81028571429 L 428.10493273543 169.19314285714 L 428.71390134529 156.95085714286 L 429.32286995516 156.59428571428998 L 429.93183856502 153.26628571429 L 430.54080717489 148.63085714286 L 431.14977578475 149.99771428571 L 431.75874439462 143.87657142857 L 432.36771300448 143.51999999999998 L 432.97668161435 136.98285714285998 L 433.58565022422 139.776 L 434.19461883408 134.24914285714 L 434.80358744395 127.83085714286 L 435.41255605381 120.10514285713998 L 436.02152466368 124.62171428571003 L 436.63049327354 130.56457142857 L 437.23946188341 128.54399999999998 L 437.84843049327 133.83314285714 L 438.45739910314 129.01942857143 L 439.066367713 126.76114285713999 L 439.67533632287 129.07885714286 L 440.28430493274 130.44571428570998 L 440.8932735426 127.83085714286 L 441.50224215247 120.99657142857001 L 442.11121076233 120.34285714286 L 442.7201793722 115.11314285714002 L 443.32914798206 113.21142857143002 L 443.93811659193 112.85485714286 L 444.54708520179 113.21142857143002 L 445.15605381166 112.08228571428998 L 445.76502242152 111.01257142857003 L 446.37399103139 117.60914285714 L 446.98295964126 132.64457142856998 L 447.59192825112 134.90285714286 L 448.20089686099 138.88457142856998 L 448.80986547085 135.37828571428997 L 449.41883408072 131.81257142856998 L 450.02780269058 132.58514285714 L 450.63677130045 134.66514285713998 L 451.24573991031 135.14057142857 L 451.85470852018 123.96800000000002 L 452.46367713004 130.50514285714002 L 453.07264573991 144.17371428571 L 453.68161434978 159.98171428570998 L 454.29058295964 161.52685714286 L 454.89955156951 156.89142857143003 L 455.50852017937 154.21714285714 L 456.11748878924 145.77828571429 L 456.7264573991 139.41942857143 L 457.33542600897 133.06057142856997 L 457.94439461883 136.15085714286 L 458.5533632287 124.80000000000001 L 459.16233183856 123.43314285714001 L 459.77130044843 113.44914285713998 L 460.3802690583 106.43657142857 L 460.98923766816 106.91199999999998 L 461.59820627803 100.01828571429002 L 462.20717488789 101.56342857143 L 462.81614349776 103.28685714286001 L 463.42511210762 105.01028571428998 L 464.03408071749 103.76228571428999 L 464.64304932735 106.97142857143001 L 465.25201793722 108.63542857143 L 465.86098654708 104.71314285713999 L 466.46995515695 106.97142857143001 L 467.07892376682 112.43885714286 L 467.68789237668 130.86171428570998 L 468.29686098655 141.20228571428999 L 468.90582959641 140.31085714286002 L 469.51479820628 145.42171428570998 L 470.12376681614 154.27657142856998 L 470.73273542601 159.14971428571 L 471.34170403587 146.37257142856998 L 471.95067264574 157.90171428571 L 472.55964125561 172.75885714286 L 473.16860986547 157.12914285713998 L 473.77757847534 153.08800000000002 L 474.3865470852 152.90971428570998 L 474.99551569507 151.36457142857 L 475.60448430493 153.68228571429 L 476.2134529148 153.80114285714 L 476.82242152466 165.80571428571 L 477.43139013453 166.16228571429 L 478.04035874439 161.34857142857 L 478.64932735426 162.06171428571 L 479.25829596413 160.992 L 479.86726457399 163.072 L 480.47623318386 166.57828571429 L 481.08520179372 169.43085714286 L 481.69417040359 166.4 L 482.30313901345 164.97371428571 L 482.91210762332 156.05942857142998 L 483.52107623318 154.39542857143 L 484.13004484305 155.22742857142998 L 484.73901345291 154.45485714286002 L 485.34798206278 145.77828571429 L 485.95695067265 145.83771428570998 L 486.56591928251 139.00342857143 L 487.17488789238 136.92342857143 L 487.78385650224 133.41714285714 L 488.39282511211 137.27999999999997 L 489.00179372197 144.17371428571 L 489.61076233184 144.41142857143 L 490.2197309417 147.264 L 490.82869955157 131.33714285714 L 491.43766816144 124.26514285714 L 492.0466367713 120.52114285713998 L 492.65560538117 118.32228571428999 L 493.26457399103 117.25257142856998 L 493.8735426009 108.39771428570998 L 494.48251121076 109.28914285714 L 495.09147982063 106.37714285713997 L 495.70044843049 107.74400000000003 L 496.30941704036 104.77257142857002 L 496.91838565022 110.95314285714 L 497.52735426009 112.67657142857001 L 498.13632286996 108.33828571429001 L 498.74529147982 107.56571428570999 L 499.35426008969 99.60228571429002 L 499.96322869955 105.06971428571 L 500.57219730942 107.50628571429002 L 501.18116591928 108.33828571429001 L 501.79013452915 110.35885714286002 L 502.39910313901 114.04342857143001 L 503.00807174888 111.488 L 503.61704035874 116.95542857142999 L 504.22600896861 108.04114285714002 L 504.83497757848 106.73371428571 L 505.44394618834 103.88114285713999 L 506.05291479821 106.31771428571 L 506.66188340807 103.10857142856997 L 507.27085201794 96.21485714286001 L 507.8798206278 106.25828571429003 L 508.48878923767 110.83428571428999 L 509.09775784753 110.41828571429 L 509.7067264574 110.53714285714 L 510.31569506726 123.43314285714001 L 510.92466367713 120.28342857143002 L 511.533632287 131.21828571429 L 512.14260089686 133.06057142856997 L 512.75156950673 135.14057142857 L 513.36053811659 128.48457142857 L 513.96950672646 135.43771428571 L 514.57847533632 135.79428571429003 L 515.18744394619 123.73028571429 L 515.79641255605 108.39771428570998 L 516.40538116592 109.82400000000001 L 517.01434977578 113.56799999999998 L 517.62331838565 113.92457142857 L 518.23228699552 112.61714285713998 L 518.84125560538 114.34057142857 L 519.45022421525 114.16228571429002 L 520.05919282511 101.32571428570998 L 520.66816143498 126.40457142857002 L 521.27713004484 116.71771428570997 L 521.88609865471 109.22971428570997 L 522.49506726457 108.16000000000003 L 523.10403587444 107.38742857143001 L 523.7130044843 101.74171428570997 L 524.32197309417 98.88914285713997 L 524.93094170404 89.38057142857002 L 525.5399103139 83.97257142857 L 526.14887892377 83.37828571428997 L 526.75784753363 83.08114285713998 L 527.3668161435 87.12228571429 L 527.97578475336 76.60342857143002 L 528.58475336323 77.79199999999997 L 529.19372197309 77.37599999999998 L 529.80269058296 86.94400000000002 L 530.41165919282 82.96228571428998 L 531.02062780269 76.12799999999999 L 531.62959641256 76.95999999999998 L 532.23856502242 76.00914285713998 L 532.84753363229 90.50971428571 L 533.45650224215 78.86171428570998 L 534.06547085202 78.92114285714001 L 534.67443946188 87.06285714286003 L 535.28340807175 86.58742857143 L 535.89237668161 87.95428571429 L 536.50134529148 88.25142857142998 L 537.11031390135 82.66514285713998 L 537.71928251121 84.38857142857 L 538.32825112108 81.23885714286001 L 538.93721973094 89.55885714286 L 539.54618834081 85.75542857143 L 540.15515695067 76.30628571429003 L 540.76412556054 81.71428571428999 L 541.3730941704 75.41485714286 L 541.98206278027 92.94628571429001 L 542.59103139013 97.10628571428998 L 543.2 96.512 L 543.80896860987 96.63085714286001 L 544.41793721973 101.08800000000002 L 545.0269058296 105.24799999999999 L 545.63587443946 103.168 L 546.24484304933 108.75428571429 L 546.85381165919 117.49028571429 L 547.46278026906 120.16457142857001 L 548.07174887892 128.95999999999998 L 548.68071748879 125.45371428571002 L 549.28968609865 122.48228571429001 L 549.89865470852 125.39428571428999 L 550.50762331839 122.54171428570999 L 551.11659192825 120.28342857143002 L 551.72556053812 126.99885714286 L 552.33452914798 124.91885714286002 L 552.94349775785 126.10742857142998 L 553.55246636771 125.21600000000001 L 554.16143497758 120.69942857143002 L 554.77040358744 124.56228571429 L 555.37937219731 112.85485714286 L 555.98834080718 112.26057142857002 L 556.59730941704 108.45714285714001 L 557.20627802691 106.49599999999998 L 557.81524663677 103.52457142857003 L 558.42421524664 102.69257142856998 L 559.0331838565 102.81142857142999 L 559.64215246637 109.88342857142999 L 560.25112107623 105.66399999999999 L 560.8600896861 104.832 L 561.46905829596 107.56571428570999 L 562.07802690583 103.94057142857002 L 562.6869955157 100.25599999999997 L 563.29596412556 100.25599999999997 L 563.90493273543 96.096 L 564.51390134529 103.82171428571002 L 565.12286995516 92.41142857143001 L 565.73183856502 92.23314285714002 L 566.34080717489 106.97142857143001 L 566.94977578475 109.94285714286002 L 567.55874439462 114.69714285714002 L 568.16771300448 114.63771428570999 L 568.77668161435 107.68457142857 L 569.38565022422 103.40571428571002 L 569.99461883408 92.29257142857 L 570.60358744395 104.17828571428998 L 571.21255605381 105.90171428571 L 571.82152466368 106.31771428571 L 572.43049327354 102.51428571429 L 573.03946188341 108.10057142856999 L 573.64843049327 118.50057142857003 L 574.25739910314 107.32799999999997 L 574.866367713 106.97142857143001 L 575.47533632287 108.87314285714001 L 576.08430493274 106.31771428571 L 576.6932735426 105.24799999999999 L 577.30224215247 106.07999999999998 L 577.91121076233 97.75999999999999 L 578.5201793722 96.86857142857002 L 579.12914798206 99.54285714285999 L 579.73811659193 101.20685714285997 L 580.34708520179 105.78285714286 L 580.95605381166 119.33257142857002 L 581.56502242152 125.45371428571002 L 582.17399103139 127.05828571428998 L 582.78295964126 125.27542857142998 L 583.39192825112 137.57714285714002 L 584.00089686099 136.92342857143 L 584.60986547085 139.00342857143 L 585.21883408072 133.00114285714 L 585.82780269058 127.71199999999999 L 586.43677130045 134.07085714286 L 587.04573991031 137.81485714285998 L 587.65470852018 137.63657142857 L 588.26367713004 132.52571428571002 L 588.87264573991 130.14857142857 L 589.48161434978 119.21371428571001 L 590.09058295964 119.15428571428998 L 590.69955156951 117.01485714286002 L 591.30852017937 112.91428571428997 L 591.91748878924 116.48000000000002 L 592.5264573991 114.57828571429002 L 593.13542600897 120.04571428571 L 593.74439461883 117.13371428571003 L 594.3533632287 113.33028571429003 L 594.96233183856 108.21942857143 L 595.57130044843 102.69257142856998 L 596.1802690583 106.19885714285999 L 596.78923766816 102.39542857142999 L 597.39820627803 101.20685714285997 L 598.00717488789 105.48571428571 L 598.61614349776 107.62514285714002 L 599.22511210762 110.06171428571002 L 599.83408071749 109.88342857142999 L 600.44304932735 115.70742857143 L 601.05201793722 120.99657142857001 L 601.66098654708 114.87542857143 L 602.26995515695 112.20114285713998 L 602.87892376682 110.18057142856998 L 603.48789237668 115.05371428570999 L 604.09686098655 118.85714285713999 L 604.70582959641 137.39885714285998 L 605.31479820628 129.25714285714002 L 605.92376681614 133.17942857142998 L 606.53273542601 136.09142857143001 L 607.14170403587 133.29828571429 L 607.75067264574 137.69600000000003 L 608.35964125561 136.56685714286 L 608.96860986547 131.33714285714 L 609.57757847534 136.86399999999998 L 610.1865470852 142.86628571428997 L 610.79551569507 141.49942857142997 L 611.40448430493 136.86399999999998 L 612.0134529148 137.51771428570999 L 612.62242152466 142.45028571428998 L 613.23139013453 147.08571428571003 L 613.84035874439 149.46285714286 L 614.44932735426 147.56114285714 L 615.05829596413 148.74971428571 L 615.66726457399 157.54514285713998 L 616.27623318386 155.34628571429 L 616.88520179372 143.10399999999998 L 617.49417040359 141.44 L 618.10313901345 133.00114285714 L 618.71210762332 130.20800000000003 L 619.32107623318 131.75314285714 L 619.93004484305 140.01371428571002 L 620.53901345291 136.68571428571 L 621.14798206278 132.52571428571002 L 621.75695067265 136.50742857143 L 622.36591928251 132.64457142856998 L 622.97488789238 135.31885714286 L 623.58385650224 139.41942857143 L 624.19282511211 127.35542857143002 L 624.80179372197 131.39657142856998 L 625.41076233184 135.31885714286 L 626.0197309417 130.68342857143 L 626.62869955157 134.72457142857002 L 627.23766816144 137.04228571429002 L 627.8466367713 132.52571428571002 L 628.45560538117 134.90285714286 L 629.06457399103 130.74285714285998 L 629.6735426009 139.36 L 630.28251121076 138.94400000000002 L 630.89147982063 134.90285714286 L 631.50044843049 153.97942857143 L 632.10941704036 151.42399999999998 L 632.71838565022 154.336 L 633.32735426009 150.88914285713997 L 633.93632286996 153.02857142857 L 634.54529147982 151.00799999999998 L 635.15426008969 147.97714285714 L 635.76322869955 141.49942857142997 L 636.37219730942 138.94400000000002 L 636.98116591928 140.54857142857003 L 637.59013452915 138.46857142857 L 638.19910313901 141.26171428571 L 638.80807174888 143.87657142857 L 639.41704035874 145.06514285714002 L 640.02600896861 141.79657142857002 L 640.63497757848 140.07314285714 L 641.24394618834 142.98514285713998 L 641.85291479821 143.22285714286 L 642.46188340807 144.47085714285998 L 643.07085201794 142.50971428571 L 643.6798206278 151.12685714286 L 644.28878923767 153.44457142857 L 644.89775784753 158.25828571429003 L 645.5067264574 165.152 L 646.11569506726 163.96342857143 L 646.72466367713 166.4 L 647.333632287 174.42285714286 L 647.94260089686 178.22628571429 L 648.55156950673 175.73028571429 L 649.16053811659 173.76914285714 L 649.76950672646 177.03771428571 L 650.37847533632 181.97028571429 L 650.98744394619 183.75314285714 L 651.59641255605 180.36571428571 L 652.20538116592 178.64228571429 L 652.81434977578 172.75885714286 L 653.42331838565 170.50057142857 L 654.03228699552 170.79771428571 L 654.64125560538 175.25485714286 L 655.25022421525 171.68914285714 L 655.85919282511 172.58057142857 L 656.46816143498 175.31428571429 L 657.07713004484 180.90057142857 L 657.68609865471 180.78171428571 L 658.29506726457 179.41485714286 L 658.90403587444 168.59885714286 L 659.5130044843 166.45942857143 L 660.12197309417 162.77485714286 L 660.73094170404 163.13142857143 L 661.3399103139 167.17257142857 L 661.94887892377 163.19085714286 L 662.55784753363 167.76685714286 L 663.1668161435 169.19314285714 L 663.77578475336 169.84685714286 L 664.38475336323 170.73828571429 L 664.99372197309 173.59085714286 L 665.60269058296 173.82857142857 L 666.21165919282 172.87771428571 L 666.82062780269 171.392 L 667.42959641256 177.98857142857 L 668.03856502242 176.26514285714 L 668.64753363229 175.61142857143 L 669.25650224215 179.296 L 669.86547085202 177.98857142857 L 670.47443946188 174.77942857143 L 671.08340807175 175.19542857143 L 671.69237668161 178.99885714286 L 672.30134529148 181.61371428571 L 672.91031390134 180.96 L 673.51928251121 179.41485714286 L 674.12825112108 169.01485714286 L 674.73721973094 170.976 L 675.34618834081 172.58057142857 L 675.95515695067 174.00685714286" class="highcharts-graph" data-z-index="1" stroke="#2962FF" stroke-width="2" stroke-linejoin="round" stroke-linecap="round"></path></g><g class="highcharts-markers highcharts-series-0 highcharts-line-series" data-z-index="90" opacity="1" transform="translate(8,40) scale(1 1)" clip-path="none"></g></g><text x="740" text-anchor="end" class="highcharts-title" data-z-index="4" style="color: rgb(211, 211, 211); font-size: 15px; fill: rgb(211, 211, 211);" y="512"></text><text x="14" text-anchor="start" class="highcharts-subtitle" data-z-index="4" style="color: rgb(51, 51, 51); fill: rgb(51, 51, 51); font-size: 15px;" y="25"><tspan style="color: rgb(211, 211, 211); fill: rgb(211, 211, 211);">Corteva Inc</tspan></text><text x="0" text-anchor="start" class="highcharts-caption" data-z-index="4" style="color: rgb(102, 102, 102); fill: rgb(102, 102, 102);" y="527"></text><g class="highcharts-axis-labels highcharts-xaxis-labels" data-z-index="7"><text x="23.224215246637" text-anchor="middle" transform="translate(0,0)" style="color: rgb(227, 225, 225); cursor: default; font-size: 15px; font-weight: 400; fill: rgb(227, 225, 225);" y="476" opacity="1">Jul</text><text x="177.2932735426" text-anchor="middle" transform="translate(0,0)" style="color: rgb(227, 225, 225); cursor: default; font-size: 15px; font-weight: 400; fill: rgb(227, 225, 225);" y="476" opacity="1">2020</text><text x="330.7533632287" text-anchor="middle" transform="translate(0,0)" style="color: rgb(227, 225, 225); cursor: default; font-size: 15px; font-weight: 400; fill: rgb(227, 225, 225);" y="476" opacity="1">2021</text><text x="484.2134529148" text-anchor="middle" transform="translate(0,0)" style="color: rgb(227, 225, 225); cursor: default; font-size: 15px; font-weight: 400; fill: rgb(227, 225, 225);" y="476" opacity="1">2022</text><text x="636.65859491779" text-anchor="middle" transform="translate(0,0)" style="color: rgb(227, 225, 225); cursor: default; font-size: 15px; font-weight: 400; fill: rgb(227, 225, 225);" y="476" opacity="1">2023</text></g><g class="highcharts-axis-labels highcharts-yaxis-labels" data-z-index="7"><text x="0" text-anchor="start" transform="translate(0,0)" style="color: rgb(227, 225, 225); cursor: default; font-size: 15px; fill: rgb(227, 225, 225);" visibility="hidden">10</text><text x="695" text-anchor="start" transform="translate(0,0)" style="color: rgb(227, 225, 225); cursor: default; font-size: 15px; fill: rgb(227, 225, 225);" y="401" opacity="1">20</text><text x="695" text-anchor="start" transform="translate(0,0)" style="color: rgb(227, 225, 225); cursor: default; font-size: 15px; fill: rgb(227, 225, 225);" y="342" opacity="1">30</text><text x="695" text-anchor="start" transform="translate(0,0)" style="color: rgb(227, 225, 225); cursor: default; font-size: 15px; fill: rgb(227, 225, 225);" y="282" opacity="1">40</text><text x="695" text-anchor="start" transform="translate(0,0)" style="color: rgb(227, 225, 225); cursor: default; font-size: 15px; fill: rgb(227, 225, 225);" y="223" opacity="1">50</text><text x="695" text-anchor="start" transform="translate(0,0)" style="color: rgb(227, 225, 225); cursor: default; font-size: 15px; fill: rgb(227, 225, 225);" y="163" opacity="1">60</text><text x="695" text-anchor="start" transform="translate(0,0)" style="color: rgb(227, 225, 225); cursor: default; font-size: 15px; fill: rgb(227, 225, 225);" y="104" opacity="1">70</text><text x="0" text-anchor="start" transform="translate(0,0)" style="color: rgb(227, 225, 225); cursor: default; font-size: 15px; fill: rgb(227, 225, 225);" visibility="hidden">80</text></g><g class="highcharts-axis-labels highcharts-yaxis-labels" data-z-index="7"></g><g class="highcharts-axis-labels highcharts-yaxis-labels" data-z-index="7"></g><g class="highcharts-control-points" data-z-index="99" clip-path="url(#highcharts-uup03ro-5988-)"></g><g class="highcharts-axis highcharts-yaxis" data-z-index="9999"><path fill="none" class="highcharts-tick" stroke="#333333" stroke-width="1" d="M 688 456.5 L 693 456.5" opacity="1"></path><path fill="none" class="highcharts-tick" stroke="#333333" stroke-width="1" d="M 688 397.5 L 693 397.5" opacity="1"></path><path fill="none" class="highcharts-tick" stroke="#333333" stroke-width="1" d="M 688 337.5 L 693 337.5" opacity="1"></path><path fill="none" class="highcharts-tick" stroke="#333333" stroke-width="1" d="M 688 278.5 L 693 278.5" opacity="1"></path><path fill="none" class="highcharts-tick" stroke="#333333" stroke-width="1" d="M 688 218.5 L 693 218.5" opacity="1"></path><path fill="none" class="highcharts-tick" stroke="#333333" stroke-width="1" d="M 688 159.5 L 693 159.5" opacity="1"></path><path fill="none" class="highcharts-tick" stroke="#333333" stroke-width="1" d="M 688 99.5 L 693 99.5" opacity="1"></path><path fill="none" class="highcharts-tick" stroke="#333333" stroke-width="1" d="M 688 39.5 L 693 39.5" opacity="1"></path><path fill="none" class="highcharts-axis-line" stroke="#616161" stroke-width="1" data-z-index="7" d="M 688.5 40 L 688.5 456"></path></g><path fill="none" d="M 8 0 L 1800 0" stroke="#757575" stroke-width="1" stroke-dasharray="8,3" data-z-index="6" visibility="hidden" class="crosshair-fix-horizontal"></path><path fill="none" d="M 0 40 L 0 1160" stroke="#757575" stroke-width="1" stroke-dasharray="8,3" data-z-index="6" visibility="hidden" class="crosshair-fix-vertical"></path></svg>