<svg viewBox="0 0 750 520" height="520" width="750" xmlns="http://www.w3.org/2000/svg" style="font-family: &quot;Helvetica Neue&quot;, Helvetica, Arial, sans-serif; font-size: 12px;" class="highcharts-root" version="1.1" xmlns:xlink="http://www.w3.org/1999/xlink"><desc>Created with Highcharts 10.1.0</desc><defs><linearGradient id="highcharts-4bv7lvs-1062" gradientUnits="userSpaceOnUse" y2="500" x2="500" y1="0" x1="0"><stop stop-opacity="1" stop-color="rgb(35, 35, 35)" offset="0"></stop></linearGradient><clipPath id="highcharts-4bv7lvs-1063-"><rect fill="none" height="416" width="679" y="0" x="0"></rect></clipPath><clipPath id="highcharts-4bv7lvs-1335-"><rect fill="none" height="416" width="679" y="0" x="0"></rect></clipPath><clipPath id="highcharts-4bv7lvs-1612-"><rect fill="none" height="416" width="679" y="40" x="8"></rect></clipPath></defs><rect ry="0" rx="0" height="520" width="750" y="0" x="0" class="highcharts-background" fill="url(#highcharts-4bv7lvs-1062)"></rect><rect height="416" width="679" y="40" x="8" class="highcharts-plot-background" fill="none"></rect><g data-z-index="1" class="highcharts-grid highcharts-xaxis-grid"><path opacity="1" d="M 82.5 40 L 82.5 456" class="highcharts-grid-line" data-z-index="1" stroke-dasharray="none" stroke-width="1" stroke="#333333" fill="none"></path><path opacity="1" d="M 211.5 40 L 211.5 456" class="highcharts-grid-line" data-z-index="1" stroke-dasharray="none" stroke-width="1" stroke="#333333" fill="none"></path><path opacity="1" d="M 340.5 40 L 340.5 456" class="highcharts-grid-line" data-z-index="1" stroke-dasharray="none" stroke-width="1" stroke="#333333" fill="none"></path><path opacity="1" d="M 468.5 40 L 468.5 456" class="highcharts-grid-line" data-z-index="1" stroke-dasharray="none" stroke-width="1" stroke="#333333" fill="none"></path><path opacity="1" d="M 597.5 40 L 597.5 456" class="highcharts-grid-line" data-z-index="1" stroke-dasharray="none" stroke-width="1" stroke="#333333" fill="none"></path></g><g data-z-index="1" class="highcharts-grid highcharts-yaxis-grid"><path opacity="1" d="M 8 456.5 L 687 456.5" class="highcharts-grid-line" data-z-index="1" stroke-dasharray="none" stroke-width="1" stroke="#333333" fill="none"></path><path opacity="1" d="M 8 387.5 L 687 387.5" class="highcharts-grid-line" data-z-index="1" stroke-dasharray="none" stroke-width="1" stroke="#333333" fill="none"></path><path opacity="1" d="M 8 317.5 L 687 317.5" class="highcharts-grid-line" data-z-index="1" stroke-dasharray="none" stroke-width="1" stroke="#333333" fill="none"></path><path opacity="1" d="M 8 248.5 L 687 248.5" class="highcharts-grid-line" data-z-index="1" stroke-dasharray="none" stroke-width="1" stroke="#333333" fill="none"></path><path opacity="1" d="M 8 179.5 L 687 179.5" class="highcharts-grid-line" data-z-index="1" stroke-dasharray="none" stroke-width="1" stroke="#333333" fill="none"></path><path opacity="1" d="M 8 109.5 L 687 109.5" class="highcharts-grid-line" data-z-index="1" stroke-dasharray="none" stroke-width="1" stroke="#333333" fill="none"></path><path opacity="1" d="M 8 39.5 L 687 39.5" class="highcharts-grid-line" data-z-index="1" stroke-dasharray="none" stroke-width="1" stroke="#333333" fill="none"></path></g><g data-z-index="1" class="highcharts-grid highcharts-yaxis-grid"></g><g data-z-index="1" class="highcharts-grid highcharts-yaxis-grid"></g><rect height="416" width="679" y="40" x="8" data-z-index="1" class="highcharts-plot-border" fill="none"></rect><g data-z-index="2" class="highcharts-axis highcharts-xaxis"><path d="M 8 456.5 L 687 456.5" data-z-index="7" stroke-width="1" stroke="#616161" class="highcharts-axis-line" fill="none"></path></g><g data-z-index="2" class="highcharts-axis highcharts-yaxis"><path d="M 712 40 L 712 456" data-z-index="7" class="highcharts-axis-line" fill="none"></path></g><g data-z-index="2" class="highcharts-axis highcharts-yaxis"><path d="M 6.5 40 L 6.5 456" data-z-index="7" class="highcharts-axis-line" fill="none"></path></g><g data-z-index="3" class="highcharts-series-group"><g clip-path="url(#highcharts-4bv7lvs-1335-)" transform="translate(8,40) scale(1 1)" opacity="1" data-z-index="90" class="highcharts-series highcharts-series-0 highcharts-line-series"><path stroke-linecap="round" stroke-linejoin="round" stroke-width="2" stroke="#2962FF" data-z-index="1" class="highcharts-graph" d="M 0 372.25066666666703 L 2.4690909090909 380.016 L 4.9381818181818 366.010666666667 L 7.4072727272727 349.648 L 9.8763636363636 356.096 L 12.345454545455 363.306666666667 L 14.814545454545 364.762666666667 L 17.283636363636 357.205333333333 L 19.752727272727 336.544 L 22.221818181818 335.365333333333 L 24.690909090909 345.002666666667 L 27.16 353.253333333333 L 29.629090909091 351.38133333333303 L 32.098181818182 357.829333333333 L 34.567272727273 345.834666666667 L 37.036363636364 354.154666666667 L 39.505454545455 361.92 L 41.974545454545 375.162666666667 L 44.443636363636 369.824 L 46.912727272727 374.122666666667 L 49.381818181818 369.338666666667 L 51.850909090909 373.152 L 54.32 373.013333333333 L 56.789090909091 378.005333333333 L 59.258181818182 377.589333333333 L 61.727272727273 374.261333333333 L 64.196363636364 379.530666666667 L 66.665454545455 371.002666666667 L 69.134545454545 359.285333333333 L 71.603636363636 352.629333333333 L 74.072727272727 357.76 L 76.541818181818 358.106666666667 L 79.010909090909 358.453333333333 L 81.48 360.88 L 83.949090909091 354.154666666667 L 86.418181818182 339.456 L 88.887272727273 341.744 L 91.356363636364 338.20799999999997 L 93.825454545455 366.08 L 96.294545454545 379.253333333333 L 98.763636363636 382.581333333333 L 101.23272727273 398.458666666667 L 103.70181818182 393.744 L 106.17090909091 397.834666666667 L 108.64 361.018666666667 L 111.10909090909 377.797333333333 L 113.57818181818 372.528 L 116.04727272727 377.936 L 118.51636363636 374.538666666667 L 120.98545454545 396.794666666667 L 123.45454545455 384.522666666667 L 125.92363636364 365.317333333333 L 128.39272727273 342.15999999999997 L 130.86181818182 363.722666666667 L 133.33090909091 366.565333333333 L 135.8 374.954666666667 L 138.26909090909 363.514666666667 L 140.73818181818 370.101333333333 L 143.20727272727 358.106666666667 L 145.67636363636 356.928 L 148.14545454545 356.650666666667 L 150.61454545455 379.114666666667 L 153.08363636364 361.434666666667 L 155.55272727273 357.482666666667 L 158.02181818182 349.994666666667 L 160.49090909091 351.38133333333303 L 162.96 353.461333333333 L 165.42909090909 353.669333333333 L 167.89818181818 357.898666666667 L 170.36727272727 351.034666666667 L 172.83636363636 322.885333333333 L 175.30545454545 318.378666666667 L 177.77454545455 324.688 L 180.24363636364 326.005333333333 L 182.71272727273 321.013333333333 L 185.18181818182 304.99733333333 L 187.65090909091 297.024 L 190.12 288.35733333333 L 192.58909090909 286.69333333333 L 195.05818181818 288.496 L 197.52727272727 281.424 L 199.99636363636 280.8 L 202.46545454545 286.20799999999997 L 204.93454545455 254.8 L 207.40363636364 251.33333333333 L 209.87272727273 263.05066666667 L 212.34181818182 278.304 L 214.81090909091 250.29333333333 L 217.28 247.03466666667 L 219.74909090909 239.408 L 222.21818181818 241.62666666667 L 224.68727272727 243.776 L 227.15636363636 229.49333333333 L 229.62545454545 228.31466666667 L 232.09454545455 222.49066666667 L 234.56363636364 230.60266666667 L 237.03272727273 227.89866666667 L 239.50181818182 225.33333333333 L 241.97090909091 217.49866666667 L 244.44 216.59733333333 L 246.90909090909 215.904 L 249.37818181818 233.51466666667 L 251.84727272727 244.74666666667 L 254.31636363636 239.2 L 256.78545454545 236.01066666667 L 259.25454545455 245.856 L 261.72363636364 258.544 L 264.19272727273 248.49066666667 L 266.66181818182 246.13333333333 L 269.13090909091 253.41333333333 L 271.6 264.784 L 274.06909090909 262.56533333333 L 276.53818181818 258.05866666667 L 279.00727272727 244.33066666667 L 281.47636363636 235.80266666667 L 283.94545454545 263.88266666667 L 286.41454545455 248.352 L 288.88363636364 243.22133333333 L 291.35272727273 253.62133333333 L 293.82181818182 264.368 L 296.29090909091 261.31733333333 L 298.76 253.06666666667 L 301.22909090909 258.05866666667 L 303.69818181818 252.99733333333 L 306.16727272727 258.26666666667 L 308.63636363636 255.49333333333 L 311.10545454545 224.64 L 313.57454545455 217.01333333333 L 316.04363636364 223.184 L 318.51272727273 229.97866666667 L 320.98181818182 235.456 L 323.45090909091 222.144 L 325.92 235.17866666667 L 328.38909090909 232.68266666667 L 330.85818181818 226.85866666667 L 333.32727272727 218.95466666667 L 335.79636363636 217.70666666667 L 338.26545454545 239.616 L 340.73454545455 225.61066666667 L 343.20363636364 206.26666666667 L 345.67272727273 200.72 L 348.14181818182 203.14666666667 L 350.61090909091 195.24266666667 L 353.08 197.73866666667 L 355.54909090909 182.69333333333 L 358.01818181818 167.44 L 360.48727272727 140.12266666667 L 362.95636363636 150.52266666666998 L 365.42545454545 141.16266666667002 L 367.89454545455 131.664 L 370.36363636364 154.752 L 372.83272727273 154.68266666667 L 375.30181818182 168.20266666667 L 377.77090909091 170.07466666667 L 380.24 144.00533333333 L 382.70909090909 118.49066666667 L 385.17818181818 124.80000000000001 L 387.64727272727 152.67200000000003 L 390.11636363636 185.67466666667 L 392.58545454545 183.31733333333 L 395.05454545455 179.43466666667 L 397.52363636364 189.072 L 399.99272727273 194.13333333333 L 402.46181818182 180.19733333333 L 404.93090909091 155.65333333333 L 407.4 153.22666666666998 L 409.86909090909 126.464 L 412.33818181818 129.44533333332998 L 414.80727272727 122.58133333333001 L 417.27636363636 130.06933333333 L 419.74545454545 121.19466666667 L 422.21454545455 129.30666666667003 L 424.68363636364 153.08800000000002 L 427.15272727273 158.42666666666997 L 429.62181818182 132.91199999999998 L 432.09090909091 147.47199999999998 L 434.56 118.69866666667002 L 437.02909090909 96.928 L 439.49818181818 101.43466666667001 L 441.96727272727 105.59466666666998 L 444.43636363636 102.61333333332999 L 446.90545454545 94.77866666667 L 449.37454545455 87.98399999999998 L 451.84363636364 117.93599999999998 L 454.31272727273 140.192 L 456.78181818182 142.96533333333002 L 459.25090909091 147.12533333333 L 461.72 131.664 L 464.18909090909 119.80799999999999 L 466.65818181818 122.30399999999997 L 469.12727272727 112.11200000000002 L 471.59636363636 128.26666666667 L 474.06545454545 107.67466666667002 L 476.53454545455 126.11733333333001 L 479.00363636364 127.01866666667001 L 481.47272727273 113.01333333333002 L 483.94181818182 146.36266666667 L 486.41090909091 162.17066666667 L 488.88 160.576 L 491.34909090909 136.51733333333 L 493.81818181818 140.05333333333 L 496.28727272727 123.89866666667001 L 498.75636363636 128.40533333333002 L 501.22545454545 130.90133333333 L 503.69454545455 150.8 L 506.16363636364 159.32799999999997 L 508.63272727273 159.67466666667002 L 511.10181818182 172.15466666667 L 513.57090909091 166.95466666667 L 516.04 163.34933333333 L 518.50909090909 157.872 L 520.97818181818 157.872 L 523.44727272727 157.38666666667 L 525.91636363636 157.38666666667 L 528.38545454545 178.53333333333 L 530.85454545455 163.97333333333 L 533.32363636364 165.42933333333 L 535.79272727273 166.26133333333 L 538.26181818182 191.29066666667 L 540.73090909091 202.73066666667 L 543.2 208.416 L 545.66909090909 200.304 L 548.13818181818 210.912 L 550.60727272727 190.32 L 553.07636363636 198.15466666667 L 555.54545454545 199.95733333333 L 558.01454545455 207.65333333333 L 560.48363636364 211.12 L 562.95272727273 206.19733333333 L 565.42181818182 223.11466666667 L 567.89090909091 206.40533333333 L 570.36 252.72 L 572.82909090909 226.58133333333 L 575.29818181818 231.088 L 577.76727272727 234.34666666667 L 580.23636363636 241.62666666667 L 582.70545454545 231.92 L 585.17454545455 225.61066666667 L 587.64363636364 222.42133333333 L 590.11272727273 226.512 L 592.58181818182 234.97066666667 L 595.05090909091 238.50666666667 L 597.52 236.704 L 599.98909090909 186.92266666667 L 602.45818181818 183.04 L 604.92727272727 174.72 L 607.39636363636 174.02666666667 L 609.86545454545 182.624 L 612.33454545455 175.552 L 614.80363636364 172.70933333333 L 617.27272727273 172.848 L 619.74181818182 154.82133333333002 L 622.21090909091 160.50666666667 L 624.68 181.93066666667 L 627.14909090909 174.72 L 629.61818181818 173.888 L 632.08727272727 158.35733333333002 L 634.55636363636 156.13866666667002 L 637.02545454545 163.28 L 639.49454545455 169.79733333333 L 641.96363636364 166.816 L 644.43272727273 187.89333333333 L 646.90181818182 199.81866666667 L 649.37090909091 187.75466666667 L 651.84 180.68266666667 L 654.30909090909 191.08266666667 L 656.77818181818 186.50666666667 L 659.24727272727 174.85866666667 L 661.71636363636 170.62933333333 L 664.18545454545 197.04533333333 L 666.65454545455 195.58933333333" fill="none"></path></g><g clip-path="none" transform="translate(8,40) scale(1 1)" opacity="1" data-z-index="90" class="highcharts-markers highcharts-series-0 highcharts-line-series"></g></g><text y="512" style="color: rgb(211, 211, 211); font-size: 15px; fill: rgb(211, 211, 211);" data-z-index="4" class="highcharts-title" text-anchor="end" x="740"></text><text y="25" style="color: rgb(51, 51, 51); fill: rgb(51, 51, 51); font-size: 15px;" data-z-index="4" class="highcharts-subtitle" text-anchor="start" x="14"><tspan style="color: rgb(211, 211, 211); fill: rgb(211, 211, 211);">Corteva Inc</tspan></text><text y="527" style="color: rgb(102, 102, 102); fill: rgb(102, 102, 102);" data-z-index="4" class="highcharts-caption" text-anchor="start" x="0"></text><g data-z-index="7" class="highcharts-axis-labels highcharts-xaxis-labels"><text opacity="1" y="476" style="color: rgb(227, 225, 225); cursor: default; font-size: 15px; font-weight: 400; fill: rgb(227, 225, 225);" transform="translate(0,0)" text-anchor="middle" x="82.778181818182">2020</text><text opacity="1" y="476" style="color: rgb(227, 225, 225); cursor: default; font-size: 15px; font-weight: 400; fill: rgb(227, 225, 225);" transform="translate(0,0)" text-anchor="middle" x="211.87636363636">2021</text><text opacity="1" y="476" style="color: rgb(227, 225, 225); cursor: default; font-size: 15px; font-weight: 400; fill: rgb(227, 225, 225);" transform="translate(0,0)" text-anchor="middle" x="340.62181818182">2022</text><text opacity="1" y="476" style="color: rgb(227, 225, 225); cursor: default; font-size: 15px; font-weight: 400; fill: rgb(227, 225, 225);" transform="translate(0,0)" text-anchor="middle" x="469.36727272727">2023</text><text opacity="1" y="476" style="color: rgb(227, 225, 225); cursor: default; font-size: 15px; font-weight: 400; fill: rgb(227, 225, 225);" transform="translate(0,0)" text-anchor="middle" x="598.11272727273">2024</text></g><g data-z-index="7" class="highcharts-axis-labels highcharts-yaxis-labels"><text visibility="hidden" style="color: rgb(227, 225, 225); cursor: default; font-size: 15px; fill: rgb(227, 225, 225);" transform="translate(0,0)" text-anchor="start" x="0">20</text><text opacity="1" y="391" style="color: rgb(227, 225, 225); cursor: default; font-size: 15px; fill: rgb(227, 225, 225);" transform="translate(0,0)" text-anchor="start" x="695">30</text><text opacity="1" y="322" style="color: rgb(227, 225, 225); cursor: default; font-size: 15px; fill: rgb(227, 225, 225);" transform="translate(0,0)" text-anchor="start" x="695">40</text><text opacity="1" y="253" style="color: rgb(227, 225, 225); cursor: default; font-size: 15px; fill: rgb(227, 225, 225);" transform="translate(0,0)" text-anchor="start" x="695">50</text><text opacity="1" y="183" style="color: rgb(227, 225, 225); cursor: default; font-size: 15px; fill: rgb(227, 225, 225);" transform="translate(0,0)" text-anchor="start" x="695">60</text><text opacity="1" y="114" style="color: rgb(227, 225, 225); cursor: default; font-size: 15px; fill: rgb(227, 225, 225);" transform="translate(0,0)" text-anchor="start" x="695">70</text><text visibility="hidden" style="color: rgb(227, 225, 225); cursor: default; font-size: 15px; fill: rgb(227, 225, 225);" transform="translate(0,0)" text-anchor="start" x="0">80</text></g><g data-z-index="7" class="highcharts-axis-labels highcharts-yaxis-labels"></g><g data-z-index="7" class="highcharts-axis-labels highcharts-yaxis-labels"></g><g clip-path="url(#highcharts-4bv7lvs-1612-)" data-z-index="99" class="highcharts-control-points"></g><g data-z-index="9999" class="highcharts-axis highcharts-yaxis"><path opacity="1" d="M 688 456.5 L 693 456.5" stroke-width="1" stroke="#333333" class="highcharts-tick" fill="none"></path><path opacity="1" d="M 688 387.5 L 693 387.5" stroke-width="1" stroke="#333333" class="highcharts-tick" fill="none"></path><path opacity="1" d="M 688 317.5 L 693 317.5" stroke-width="1" stroke="#333333" class="highcharts-tick" fill="none"></path><path opacity="1" d="M 688 248.5 L 693 248.5" stroke-width="1" stroke="#333333" class="highcharts-tick" fill="none"></path><path opacity="1" d="M 688 179.5 L 693 179.5" stroke-width="1" stroke="#333333" class="highcharts-tick" fill="none"></path><path opacity="1" d="M 688 109.5 L 693 109.5" stroke-width="1" stroke="#333333" class="highcharts-tick" fill="none"></path><path opacity="1" d="M 688 39.5 L 693 39.5" stroke-width="1" stroke="#333333" class="highcharts-tick" fill="none"></path><path d="M 688.5 40 L 688.5 456" data-z-index="7" stroke-width="1" stroke="#616161" class="highcharts-axis-line" fill="none"></path></g><path class="crosshair-fix-horizontal" visibility="hidden" data-z-index="6" stroke-dasharray="8,3" stroke-width="1" stroke="#757575" d="M 8 0 L 1800 0" fill="none"></path><path class="crosshair-fix-vertical" visibility="hidden" data-z-index="6" stroke-dasharray="8,3" stroke-width="1" stroke="#757575" d="M 0 40 L 0 1160" fill="none"></path></svg>