<?xml version="1.0" standalone="no"?><!DOCTYPE svg PUBLIC "-//W3C//DTD SVG 1.1//EN" "http://www.w3.org/Graphics/SVG/1.1/DTD/svg11.dtd"><svg xmlns:xlink="http://www.w3.org/1999/xlink" version="1.1" class="highcharts-root" style="font-family: &quot;Helvetica Neue&quot;, Helvetica, Arial, sans-serif; font-size: 12px;" xmlns="http://www.w3.org/2000/svg" width="750" height="520" viewBox="0 0 750 520"><desc>Created with Highcharts 10.1.0</desc><defs><linearGradient x1="0" y1="0" x2="500" y2="500" gradientUnits="userSpaceOnUse" id="highcharts-y2u6r9a-4622"><stop offset="0" stop-color="rgb(35, 35, 35)" stop-opacity="1"></stop></linearGradient><clipPath id="highcharts-y2u6r9a-4623-"><rect x="0" y="0" width="679" height="416" fill="none"></rect></clipPath><clipPath id="highcharts-y2u6r9a-6167-"><rect x="0" y="0" width="679" height="416" fill="none"></rect></clipPath><clipPath id="highcharts-y2u6r9a-7716-"><rect x="8" y="40" width="679" height="416" fill="none"></rect></clipPath></defs><rect fill="url(#highcharts-y2u6r9a-4622)" class="highcharts-background" x="0" y="0" width="750" height="520" rx="0" ry="0"></rect><rect fill="none" class="highcharts-plot-background" x="8" y="40" width="679" height="416"></rect><g class="highcharts-grid highcharts-xaxis-grid" data-z-index="1"><path fill="none" stroke="#333333" stroke-width="1" stroke-dasharray="none" data-z-index="1" class="highcharts-grid-line" d="M 43.5 40 L 43.5 456" opacity="1"></path><path fill="none" stroke="#333333" stroke-width="1" stroke-dasharray="none" data-z-index="1" class="highcharts-grid-line" d="M 153.5 40 L 153.5 456" opacity="1"></path><path fill="none" stroke="#333333" stroke-width="1" stroke-dasharray="none" data-z-index="1" class="highcharts-grid-line" d="M 264.5 40 L 264.5 456" opacity="1"></path><path fill="none" stroke="#333333" stroke-width="1" stroke-dasharray="none" data-z-index="1" class="highcharts-grid-line" d="M 374.5 40 L 374.5 456" opacity="1"></path><path fill="none" stroke="#333333" stroke-width="1" stroke-dasharray="none" data-z-index="1" class="highcharts-grid-line" d="M 485.5 40 L 485.5 456" opacity="1"></path><path fill="none" stroke="#333333" stroke-width="1" stroke-dasharray="none" data-z-index="1" class="highcharts-grid-line" d="M 595.5 40 L 595.5 456" opacity="1"></path></g><g class="highcharts-grid highcharts-yaxis-grid" data-z-index="1"><path fill="none" stroke="#333333" stroke-width="1" stroke-dasharray="none" data-z-index="1" class="highcharts-grid-line" d="M 8 456.5 L 687 456.5" opacity="1"></path><path fill="none" stroke="#333333" stroke-width="1" stroke-dasharray="none" data-z-index="1" class="highcharts-grid-line" d="M 8 418.5 L 687 418.5" opacity="1"></path><path fill="none" stroke="#333333" stroke-width="1" stroke-dasharray="none" data-z-index="1" class="highcharts-grid-line" d="M 8 380.5 L 687 380.5" opacity="1"></path><path fill="none" stroke="#333333" stroke-width="1" stroke-dasharray="none" data-z-index="1" class="highcharts-grid-line" d="M 8 343.5 L 687 343.5" opacity="1"></path><path fill="none" stroke="#333333" stroke-width="1" stroke-dasharray="none" data-z-index="1" class="highcharts-grid-line" d="M 8 305.5 L 687 305.5" opacity="1"></path><path fill="none" stroke="#333333" stroke-width="1" stroke-dasharray="none" data-z-index="1" class="highcharts-grid-line" d="M 8 267.5 L 687 267.5" opacity="1"></path><path fill="none" stroke="#333333" stroke-width="1" stroke-dasharray="none" data-z-index="1" class="highcharts-grid-line" d="M 8 229.5 L 687 229.5" opacity="1"></path><path fill="none" stroke="#333333" stroke-width="1" stroke-dasharray="none" data-z-index="1" class="highcharts-grid-line" d="M 8 191.5 L 687 191.5" opacity="1"></path><path fill="none" stroke="#333333" stroke-width="1" stroke-dasharray="none" data-z-index="1" class="highcharts-grid-line" d="M 8 153.5 L 687 153.5" opacity="1"></path><path fill="none" stroke="#333333" stroke-width="1" stroke-dasharray="none" data-z-index="1" class="highcharts-grid-line" d="M 8 116.5 L 687 116.5" opacity="1"></path><path fill="none" stroke="#333333" stroke-width="1" stroke-dasharray="none" data-z-index="1" class="highcharts-grid-line" d="M 8 78.5 L 687 78.5" opacity="1"></path><path fill="none" stroke="#333333" stroke-width="1" stroke-dasharray="none" data-z-index="1" class="highcharts-grid-line" d="M 8 39.5 L 687 39.5" opacity="1"></path></g><g class="highcharts-grid highcharts-yaxis-grid" data-z-index="1"></g><g class="highcharts-grid highcharts-yaxis-grid" data-z-index="1"></g><rect fill="none" class="highcharts-plot-border" data-z-index="1" x="8" y="40" width="679" height="416"></rect><g class="highcharts-axis highcharts-xaxis" data-z-index="2"><path fill="none" class="highcharts-axis-line" stroke="#616161" stroke-width="1" data-z-index="7" d="M 8 456.5 L 687 456.5"></path></g><g class="highcharts-axis highcharts-yaxis" data-z-index="2"><path fill="none" class="highcharts-axis-line" data-z-index="7" d="M 720 40 L 720 456"></path></g><g class="highcharts-axis highcharts-yaxis" data-z-index="2"><path fill="none" class="highcharts-axis-line" data-z-index="7" d="M 6.5 40 L 6.5 456"></path></g><g class="highcharts-series-group" data-z-index="3"><g class="highcharts-series highcharts-series-0 highcharts-line-series" data-z-index="90" opacity="1" transform="translate(8,40) scale(1 1)" clip-path="url(#highcharts-y2u6r9a-6167-)"><path fill="none" d="M 0 130.13727999999998 L 0.4389140271494 141.97550545455 L 0.87782805429879 142.56773818182 L 1.3167420814482 143.58996363635998 L 1.7556561085976 142.67514181818 L 2.194570135747 131.91322181817998 L 2.6334841628955 122.92686545455001 L 3.0723981900449 117.65349818182 L 3.5113122171943 114.85533090909001 L 3.9502262443437 115.71607272726999 L 4.3891402714931 116.20052363636 L 4.8280542986425 114.69384727273001 L 5.2669683257919 112.75642181818 L 5.7058823529413 113.24087272727002 L 6.1447963800907 115.17791999999997 L 6.5837104072401 113.13309090909001 L 7.0226244343895 118.46053818182003 L 7.4615384615389 121.42018909091001 L 7.9004524886874 120.02091636364003 L 8.3393665158368 119.10609454544999 L 8.7782805429862 112.70272 L 9.2171945701356 113.02568727273001 L 9.656108597285 112.54123636364 L 10.095022624434 109.74306909091001 L 10.533936651584 108.39787636364002 L 10.972850678733 105.92267636364 L 11.411764705883 106.51453090909001 L 11.850678733032 106.24564363636 L 12.289592760181 107.42935272726999 L 12.72850678733 107.26786909090998 L 13.167420814479 109.95825454545002 L 13.606334841629 110.22752000000003 L 14.045248868778 110.76567272726999 L 14.484162895927 110.17381818182002 L 14.923076923077 108.61306181817997 L 15.361990950226 106.62231272727001 L 15.800904977376 104.95415272727001 L 16.239819004525 109.09751272726999 L 16.678733031674 98.55077818182002 L 17.117647058824 101.29486545455 L 17.556561085973 105.92267636364 L 17.995475113122 102.53265454544999 L 18.434389140271 97.09780363636003 L 18.873303167421 103.98562909090998 L 19.31221719457 108.72084363635997 L 19.751131221719 113.67124363635997 L 20.190045248869 108.82824727272998 L 20.628959276018 110.60418909090998 L 21.067873303168 113.72532363635997 L 21.506787330317 115.12421818182003 L 21.945701357466 112.48753454544999 L 22.384615384616 122.6576 L 22.823529411764 120.50536727272998 L 23.262443438914 111.30382545455001 L 23.701357466063 110.98085818182 L 24.140271493212 110.38900363635997 L 24.579185520362 108.18269090909001 L 25.018099547511 111.73419636364002 L 25.457013574661 108.72084363635997 L 25.89592760181 114.26309818182 L 26.334841628959 109.09751272726999 L 26.773755656109 105.38452363635997 L 27.212669683258 104.416 L 27.651583710408 109.52788363636 L 28.090497737556 103.50117818182002 L 28.529411764706 106.67601454545002 L 28.968325791855 109.15121454544999 L 29.407239819004 107.59083636364 L 29.846153846154 111.03456 L 30.285067873303 110.60418909090998 L 30.723981900453 110.71197090908998 L 31.162895927602 111.94938181817997 L 31.601809954751 113.24087272727002 L 32.040723981901 114.96273454545002 L 32.47963800905 107.48305454544999 L 32.918552036199 107.32157090908998 L 33.357466063348 108.12898909091001 L 33.796380090498 106.13786181818 L 34.235294117647 103.60896000000002 L 34.674208144796 107.21416727272998 L 35.113122171946 107.21416727272998 L 35.552036199095 106.83749818182002 L 35.990950226244 108.39787636364002 L 36.429864253394 104.73896727273001 L 36.868778280543 98.55077818182002 L 37.307692307693 91.01701818181999 L 37.746606334841 85.79735272726998 L 38.185520361991 87.19662545454997 L 38.62443438914 86.22810181818 L 39.063348416289 92.36221090908998 L 39.502262443439 86.87365818182002 L 39.941176470588 85.85143272726998 L 40.380090497738 88.32663272727001 L 40.819004524887 83.91400727272998 L 41.257918552036 82.51511272726998 L 41.696832579186 82.62251636363999 L 42.135746606335 81.70807272727001 L 42.574660633485 81.92325818182002 L 43.013574660633 82.62251636363999 L 43.452488687782 79.17879272726998 L 43.891402714932 77.18766545454997 L 44.330316742081 83.37623272727001 L 44.769230769231 87.35810909090998 L 45.20814479638 84.93661090909 L 45.647058823529 96.12928 L 46.085972850679 110.17381818182002 L 46.524886877828 126.58577454545002 L 46.963800904978 104.79266909091001 L 47.402714932127 111.73419636364002 L 47.841628959276 124.59502545455001 L 48.280542986425 117.76090181818 L 48.719457013574 105.06155636364002 L 49.158371040724 110.92715636364 L 49.597285067873 107.80602181818 L 50.036199095023 105.00785454545002 L 50.475113122172 104.46970181818 L 50.914027149321 106.24564363636 L 51.352941176471 109.79714909091001 L 51.79185520362 104.57748363636 L 52.23076923077 97.42077090908998 L 52.669683257919 93.11592727273 L 53.108597285067 102.26338909090998 L 53.547511312217 113.34865454545002 L 53.986425339366 121.63537454545002 L 54.425339366516 123.41093818181997 L 54.864253393665 116.79237818182003 L 55.303167420814 110.71197090908998 L 55.742081447964 114.04791272726999 L 56.180995475113 111.84197818182002 L 56.619909502263 102.96302545455 L 57.058823529412 107.75232 L 57.497737556561 111.89568000000003 L 57.93665158371 120.39758545454998 L 58.375565610859 126.37058909091002 L 58.814479638009 125.94021818182 L 59.253393665158 133.47359999999998 L 59.692307692308 134.38842181818 L 60.131221719457 128.79208727273 L 60.570135746606 138.53178181817998 L 61.009049773756 152.30743272727 L 61.447963800905 144.66626909091002 L 61.886877828055 149.18629818182 L 62.325791855204 155.80485818182 L 62.764705882353 148.80962909091 L 63.203619909502 157.79598545455002 L 63.642533936651 150.90816 L 64.081447963801 148.91741090909 L 64.52036199095 139.50030545455002 L 64.959276018099 148.80962909091 L 65.398190045249 148.91741090909 L 65.837104072398 137.07880727273 L 66.276018099548 143.32107636363997 L 66.714932126697 133.95805090909 L 67.153846153846 135.57213090909 L 67.592760180996 131.05210181818 L 68.031674208144 128.14653090909002 L 68.470588235294 125.40206545454998 L 68.909502262443 133.63508363635998 L 69.348416289593 136.27176727273002 L 69.787330316742 138.63956363635998 L 70.226244343891 151.66149818181998 L 70.665158371041 149.18629818182 L 71.10407239819 147.03368727273 L 71.54298642534 145.52701090909 L 71.981900452489 151.33853090909003 L 72.420814479638 152.30743272727 L 72.859728506788 149.99333818181998 L 73.298642533936 150.10111999999998 L 73.737556561086 144.71997090909002 L 74.176470588235 142.29847272727 L 74.615384615384 146.01146181818 L 75.054298642534 136.32546909091002 L 75.493212669683 131.37506909091002 L 75.932126696833 131.48247272727002 L 76.371040723982 128.25393454545002 L 76.809954751131 130.29876363635998 L 77.248868778281 125.56354909090999 L 77.68778280543 124.86391272727002 L 78.126696832579 128.03874909091002 L 78.565610859728 122.33501090908999 L 79.004524886878 128.57690181817998 L 79.443438914027 130.89061818182 L 79.882352941176 134.44212363636 L 80.321266968326 138.04770909091002 L 80.760180995475 147.57184 L 81.199095022625 142.99810909091002 L 81.638009049774 146.65701818181998 L 82.076923076923 135.57213090909 L 82.515837104073 130.40654545454998 L 82.954751131221 126.31688727273001 L 83.393665158371 114.74754909091001 L 83.83257918552 118.08386909091001 L 84.271493212669 117.7072 L 84.710407239819 117.7072 L 85.149321266968 116.14682181818 L 85.588235294118 122.6576 L 86.027149321267 123.68020363635998 L 86.466063348416 127.07022545454998 L 86.904977375566 126.85503999999997 L 87.343891402715 134.54990545455001 L 87.782805429865 137.07880727273 L 88.221719457013 140.36142545455 L 88.660633484163 131.10580363636 L 89.099547511312 136.59473454545002 L 89.538461538461 134.81879272727002 L 89.977375565611 138.58548363635998 L 90.41628959276 135.67991272727 L 90.85520361991 136.91732363635998 L 91.294117647059 137.72474181818 L 91.733031674208 141.06106181818 L 92.171945701358 136.11028363636 L 92.610859728507 136.86362181817998 L 93.049773755657 132.45137454545 L 93.488687782805 126.74725818181997 L 93.927601809954 134.87287272727002 L 94.366515837104 135.14175999999998 L 94.805429864253 134.54990545455001 L 95.244343891403 137.99362909091002 L 95.683257918552 130.78321454545 L 96.122171945701 133.31211636363997 L 96.561085972851 135.73361454545 L 97 137.45547636364 L 97.43891402715 138.10141090909002 L 97.877828054299 131.53655272727002 L 98.316742081448 128.25393454545002 L 98.755656108597 124.37984 L 99.194570135746 123.73390545454998 L 99.633484162896 125.45576727272999 L 100.07239819005 121.58167272727002 L 100.51131221719 125.94021818182 L 100.95022624434 134.11953454545 L 101.38914027149 132.07470545454999 L 101.82805429864 127.01652363635998 L 102.26696832579 124.97169454545002 L 102.70588235294 127.55429818182 L 103.14479638009 120.23610181817997 L 103.58371040724 127.12392727272999 L 104.02262443439 133.31211636363997 L 104.46153846154 128.09245090909002 L 104.90045248869 134.01175272727 L 105.33936651584 130.67543272727 L 105.77828054299 126.85503999999997 L 106.21719457014 123.14205090909002 L 106.65610859729 121.25870545455001 L 107.09502262443 121.63537454545002 L 107.53393665158 125.13317818182003 L 107.97285067873 119.21387636364 L 108.41176470588 110.60418909090998 L 108.85067873303 110.98085818182 L 109.28959276018 107.21416727272998 L 109.72850678733 113.88642909090999 L 110.16742081448 114.26309818182 L 110.60633484163 116.46941090909002 L 111.04524886878 114.69384727273001 L 111.48416289593 114.53236363636 L 111.92307692308 114.96273454545002 L 112.36199095023 114.63976727273001 L 112.80090497738 114.53236363636 L 113.23981900452 119.05239272726999 L 113.67873303167 120.77425454544999 L 114.11764705882 122.60389818182 L 114.55656108597 121.31240727273001 L 114.99547511312 125.56354909090999 L 115.43438914027 121.79685818182003 L 115.87330316742 114.80125090909002 L 116.31221719457 116.63089454545002 L 116.75113122172 124.64872727273001 L 117.19004524887 125.99392 L 117.62895927602 131.69803636364003 L 118.06787330317 140.09215999999998 L 118.50678733032 145.58109090909 L 118.94570135747 142.83662545455002 L 119.38461538462 142.83662545455002 L 119.82352941176 145.15034181817998 L 120.26244343891 147.19517090909 L 120.70135746606 151.60779636363998 L 121.14027149321 151.76927999999998 L 121.57918552036 164.25306181818 L 122.01809954751 172.43237818182 L 122.45701357466 174.26202181818 L 122.89592760181 170.60273454545 L 123.33484162896 174.47720727273 L 123.77375565611 167.37419636364 L 124.21266968326 171.08718545455 L 124.65158371041 176.41425454545 L 125.09049773756 182.27985454545 L 125.52941176471 189.92101818182 L 125.96832579186 197.40069818182 L 126.407239819 208.16261818182 L 126.84615384615 206.87112727273 L 127.2850678733 211.82190545455 L 127.72398190045 211.44523636364 L 128.1628959276 208.43150545455 L 128.60180995475 201.48997818182 L 129.0407239819 178.08241454545 L 129.47963800905 180.98836363636 L 129.9185520362 181.52651636364 L 130.35746606335 179.42798545455 L 130.7963800905 169.68791272727 L 131.23529411765 171.78682181818 L 131.6742081448 175.87648 L 132.11312217195 181.14984727273 L 132.5520361991 182.38725818182 L 132.99095022624 179.64317090909 L 133.42986425339 175.60721454545 L 133.86877828054 173.13201454545 L 134.30769230769 180.61169454545 L 134.74660633484 188.30656 L 135.18552036199 185.07802181818 L 135.62443438914 187.98359272727 L 136.06334841629 181.36503272727 L 136.50226244344 183.94801454545 L 136.94117647059 183.73282909091 L 137.38009049774 183.62504727273 L 137.81900452489 180.34242909091 L 138.25791855204 173.29349818182 L 138.69683257919 187.66062545455 L 139.13574660633 190.72805818182 L 139.57466063348 202.4048 L 140.01357466063 202.13591272727 L 140.45248868778 205.04148363636 L 140.89140271493 199.17626181818 L 141.33031674208 202.24331636364 L 141.76923076923 207.62446545455 L 142.20814479638 213.54376727273 L 142.64705882353 210.26114909091 L 143.08597285068 210.96078545455 L 143.52488687783 216.98749090909 L 143.96380090498 219.40898909091 L 144.40271493213 227.48052363636 L 144.84162895928 210.58411636364 L 145.28054298643 204.66481454545 L 145.71945701357 206.33297454545 L 146.15837104072 203.85777454545 L 146.59728506787 198.26144 L 147.03619909502 209.07744 L 147.47511312217 197.13143272727 L 147.91402714932 196.96994909091 L 148.35294117647 193.57992727273 L 148.79185520362 192.34213818182 L 149.23076923077 192.01954909091 L 149.66968325792 194.17178181818 L 150.10859728507 193.63362909091 L 150.54751131222 195.62475636364 L 150.98642533937 193.52622545455 L 151.42533936652 184.70135272727 L 151.86425339367 179.21242181818 L 152.30316742081 189.00619636364 L 152.74208144796 187.98359272727 L 153.18099547511 188.52174545455 L 153.61990950226 180.82688 L 154.05882352941 178.83575272727 L 154.49773755656 176.73722181818 L 154.93665158371 172.64756363636 L 155.37556561086 202.08221090909 L 155.81447963801 203.91147636364 L 156.25339366516 205.74112 L 156.69230769231 199.66071272727 L 157.13122171946 205.31074909091 L 157.57013574661 210.85300363636 L 158.00904977376 213.38228363636 L 158.44796380091 211.82190545455 L 158.88687782805 204.50333090909 L 159.3257918552 205.68741818182 L 159.76470588235 208.2704 L 160.2036199095 199.76811636364 L 160.64253393665 197.88477090909 L 161.0814479638 189.00619636364 L 161.52036199095 194.27956363636 L 161.9592760181 195.83994181818 L 162.39819004525 189.86693818182 L 162.8371040724 190.94324363636 L 163.27601809955 197.18513454545 L 163.7149321267 205.20296727273 L 164.15384615385 204.61111272727 L 164.592760181 199.71441454545 L 165.03167420814 202.78146909091 L 165.47058823529 198.53070545455 L 165.90950226244 198.26144 L 166.34841628959 197.40069818182 L 166.78733031674 192.55770181818 L 167.22624434389 192.61140363636 L 167.66515837104 190.83546181818 L 168.10407239819 195.51697454545 L 168.54298642534 194.17178181818 L 168.98190045249 194.54845090909 L 169.42081447964 195.24808727273 L 169.85972850679 195.62475636364 L 170.29864253394 190.72805818182 L 170.73755656109 201.48997818182 L 171.17647058824 204.98778181818 L 171.61538461538 205.47223272727 L 172.05429864253 208.2704 L 172.49321266968 207.94743272727 L 172.93212669683 204.77259636364 L 173.37104072398 198.79959272727 L 173.80995475113 199.58772363636 L 174.24886877828 192.70481454545 L 174.68778280543 189.26298181818 L 175.12669683258 188.30277818182 L 175.56561085973 186.38199272727 L 176.00452488688 185.74173090909 L 176.44343891403 183.50062545455 L 176.88235294118 180.37911272727 L 177.32126696833 175.73730909091 L 177.76018099548 180.29931636364 L 178.19909502262 178.29835636364 L 178.63800904977 177.89824 L 179.07692307692 179.49870545455 L 179.51583710407 184.94112 L 179.95475113122 185.26144 L 180.39366515837 185.18126545455 L 180.83257918552 190.70385454545 L 181.27149321267 187.50254545455 L 181.71040723982 187.82248727273 L 182.14932126697 183.90074181818 L 182.58823529412 193.02475636364 L 183.02714932127 214.15415272727 L 183.46606334842 212.39333818182 L 183.90497737557 222.55773090909 L 184.34389140271 234.40314181818 L 184.78280542986 238.08474181818 L 185.22171945701 243.60695272727 L 185.66063348416 239.68520727273 L 186.09954751131 249.60983272727 L 186.53846153846 245.44794181818 L 186.97737556561 250.73038545455 L 187.41628959276 245.12762181818 L 187.85520361991 243.76730181818 L 188.29411764706 243.28701090909 L 188.73303167421 235.60349090909 L 189.17194570136 237.76442181818 L 189.61085972851 244.00744727273 L 190.04977375566 242.88689454545 L 190.48868778281 245.36776727273 L 190.92760180995 242.80672 L 191.3665158371 242.16645818182 L 191.80542986425 247.36872727273 L 192.2443438914 203.84 L 192.68325791855 211.36581818182 L 193.1221719457 208.52945454545 L 193.56108597285 216.84945454545 L 194 213.14327272727 L 194.43891402715 212.72727272727 L 194.8778280543 212.80290909091 L 195.31674208145 213.824 L 195.7556561086 208.64290909091 L 196.19457013575 207.69745454545 L 196.6334841629 208.94545454545 L 197.07239819005 210.83636363636 L 197.51131221719 215.67709090909 L 197.95022624434 208.07563636364 L 198.38914027149 209.36145454545 L 198.82805429864 209.13454545455 L 199.26696832579 211.29018181818 L 199.70588235294 212.38690909091 L 200.14479638009 212.42472727273 L 200.58371040724 207.73527272727 L 201.02262443439 204.89890909091 L 201.46153846154 208.60509090909 L 201.90045248869 211.10109090909 L 202.33936651584 212.76509090909 L 202.77828054299 218.92945454545 L 203.21719457014 226.90909090909 L 203.65610859729 228.23272727273 L 204.09502262443 228.8 L 204.53393665158 221.16072727273 L 204.97285067873 219.57236363636 L 205.41176470588 218.13527272727 L 205.85067873303 221.99272727273 L 206.28959276018 220.93381818182 L 206.72850678733 220.97163636364 L 207.16742081448 219.45890909091 L 207.60633484163 214.656 L 208.04524886878 210.912 L 208.48416289593 214.99636363636 L 208.92307692308 214.76945454545 L 209.36199095023 215.22327272727 L 209.80090497738 214.05090909091 L 210.23981900452 218.74036363636 L 210.67873303167 220.51781818182 L 211.11764705882 230.50181818182 L 211.55656108597 241.80945454545 L 211.99547511312 232.46836363636 L 212.43438914027 227.77890909091 L 212.87330316742 224.03490909091 L 213.31221719457 230.53963636364 L 213.75113122172 234.69963636364 L 214.19004524887 232.65745454545 L 214.62895927602 242.86836363636 L 215.06787330317 245.17527272727 L 215.50678733032 241.58254545455 L 215.94570135747 236.62836363636 L 216.38461538462 237.87636363636 L 216.82352941176 235.38036363636 L 217.26244343891 235.72072727273 L 217.70135746606 242.03636363636 L 218.14027149321 248.61672727273 L 218.57918552036 249.75127272727 L 219.01809954751 249.37309090909 L 219.45701357466 242.90618181818 L 219.89592760181 234.73745454545 L 220.33484162896 236.55272727273 L 220.77375565611 232.65745454545 L 221.21266968326 230.91781818182 L 221.65158371041 229.85890909091 L 222.09049773756 224.98036363636 L 222.52941176471 221.61454545455 L 222.96832579186 221.04727272727 L 223.407239819 222.03054545455 L 223.84615384615 213.52145454545 L 224.2850678733 218.816 L 224.72398190045 222.18181818182 L 225.1628959276 219.38327272727 L 225.60180995475 222.90036363636 L 226.0407239819 220.85818181818 L 226.47963800905 223.42981818182 L 226.9185520362 225.69890909091 L 227.35746606335 223.46763636364 L 227.7963800905 226.53090909091 L 228.23529411765 225.96363636364 L 228.6742081448 221.95490909091 L 229.11312217195 234.66181818182 L 229.55203619909 237.34690909091 L 229.99095022624 234.01890909091 L 230.42986425339 233.90545454545 L 230.86877828054 239.38909090909 L 231.30769230769 246.12072727273 L 231.74660633484 246.53672727273 L 232.18552036199 252.85236363636 L 232.62443438914 245.21309090909 L 233.06334841629 246.57454545455 L 233.50226244344 243.70036363636 L 233.94117647059 239.72945454545 L 234.38009049774 241.16654545455 L 234.81900452489 243.81381818182 L 235.25791855204 242.26327272727 L 235.69683257919 242.528 L 236.13574660633 239.616 L 236.57466063348 241.05309090909 L 237.01357466063 238.82181818182 L 237.45248868778 236.02327272727 L 237.89140271493 236.96872727273 L 238.33031674208 243.58690909091 L 238.76923076923 242.37672727273 L 239.20814479638 228.27054545455 L 239.64705882353 221.99272727273 L 240.08597285068 217.90836363636 L 240.52488687783 225.66109090909 L 240.96380090498 220.82036363636 L 241.40271493213 222.63563636364 L 241.84162895928 218.66472727273 L 242.28054298643 217.07636363636 L 242.71945701357 227.09818181818 L 243.15837104072 226.90909090909 L 243.59728506787 235.83418181818 L 244.03619909502 238.82181818182 L 244.47511312217 241.99854545455 L 244.91402714932 245.62909090909 L 245.35294117647 243.20872727273 L 245.79185520362 242.67927272727 L 246.23076923077 245.06181818182 L 246.66968325792 245.55345454545 L 247.10859728507 243.51127272727 L 247.54751131222 246.53672727273 L 247.98642533937 246.34763636364 L 248.42533936652 255.008 L 248.86425339367 254.25163636364 L 249.30316742081 257.20145454545 L 249.74208144796 251.15054545455 L 250.18099547511 250.20509090909 L 250.61990950226 249.44872727273 L 251.05882352941 248.352 L 251.49773755656 241.31781818182 L 251.93665158371 246.57454545455 L 252.37556561086 246.23418181818 L 252.81447963801 248.768 L 253.25339366516 249.94036363636 L 253.69230769231 249.78909090909 L 254.13122171946 251.30181818182 L 254.57013574661 249.90254545455 L 255.00904977376 250.432 L 255.4479638009 250.62109090909 L 255.88687782805 250.62109090909 L 256.3257918552 256.06690909091003 L 256.76470588235 248.84363636364 L 257.2036199095 251.49090909091 L 257.64253393665 256.55854545454997 L 258.0814479638 258.22254545454996 L 258.52036199095 261.81527272727 L 258.9592760181 259.05454545455 L 259.39819004525 261.13454545455 L 259.8371040724 265.824 L 260.27601809955 263.21454545455003 L 260.7149321267 264.08436363635997 L 261.15384615385 260.416 L 261.592760181 258.29818181818 L 262.03167420814 258.82763636364 L 262.47058823529 257.99563636363996 L 262.90950226244 261.77745454545004 L 263.34841628959 262.68509090909004 L 263.78733031674 267.03418181818 L 264.22624434389 274.59781818182 L 264.66515837104 272.51781818181996 L 265.10407239819 273.46327272727 L 265.54298642534 292.25890909091 L 265.98190045249 298.08290909091 L 266.42081447964 295.70036363636 L 266.85972850679 292.33454545455 L 267.29864253394 287.11563636363996 L 267.73755656109 288.13672727273 L 268.17647058824 292.90181818182 L 268.61538461538 295.81381818182 L 269.05429864253 292.37236363636 L 269.49321266968 289.12 L 269.93212669683 290.17890909091 L 270.37104072398 290.82181818182 L 270.80995475113 289.536 L 271.24886877828 289.30909090909 L 271.68778280543 292.90181818182 L 272.12669683258 293.35563636364 L 272.56561085973 300.84363636364003 L 273.00452488688 312.11345454545 L 273.44343891403 312.90763636364 L 273.88235294118 321.189818181818 L 274.32126696833 329.396363636364 L 274.76018099547 321.643636363636 L 275.19909502262 326.597818181818 L 275.63800904977 324.631272727273 L 276.07692307692 331.211636363636 L 276.51583710407 338.472727272727 L 276.95475113122 358.705454545455 L 277.39366515837 347.473454545455 L 277.83257918552 352.994909090909 L 278.27149321267 365.777454545455 L 278.71040723982 351.330909090909 L 279.14932126697 362.109090909091 L 279.58823529412 355.453090909091 L 280.02714932127 370.391272727273 L 280.46606334842 371.904 L 280.90497737557 372.622545454545 L 281.34389140271 384.005818181818 L 281.78280542986 368.878545454545 L 282.22171945701 355.68 L 282.66063348416 363.697454545455 L 283.09954751131 364.491636363636 L 283.53846153846 362.676363636364 L 283.97737556561 368.651636363636 L 284.41628959276 368.689454545455 L 284.85520361991 371.109818181818 L 285.29411764706 357.797818181818 L 285.73303167421 350.725818181818 L 286.17194570136 344.674909090909 L 286.61085972851 337.413818181818 L 287.04977375566 346.717090909091 L 287.48868778281 346.301090909091 L 287.92760180995 357.117090909091 L 288.3665158371 354.658909090909 L 288.80542986425 346.56581818181803 L 289.2443438914 341.422545454545 L 289.68325791855 343.880727272727 L 290.1221719457 340.855272727273 L 290.56108597285 335.825454545455 L 291 333.178181818182 L 291.43891402715 325.91709090909103 L 291.8778280543 316.122181818182 L 292.31674208145 309.46618181818 L 292.7556561086 313.81527272727 L 293.19457013575 321.189818181818 L 293.6334841629 322.51345454545503 L 294.07239819005 322.626909090909 L 294.51131221719 325.085090909091 L 294.95022624434 322.36218181818197 L 295.38914027149 314.15563636364 L 295.82805429864 316.916363636364 L 296.26696832579 318.882909090909 L 296.70588235294 325.614545454545 L 297.14479638009 320.509090909091 L 297.58371040724 319.752727272727 L 298.02262443439 309.73090909091 L 298.46153846154 310.94109090909 L 298.90045248869 306.81890909091 L 299.33936651584 306.81890909091 L 299.77828054299 307.49963636364 L 300.21719457014 301.14618181818 L 300.65610859728 304.58763636364 L 301.09502262443 300.65454545455 L 301.53393665158 299.78472727273 L 301.97285067873 299.21745454545 L 302.41176470588 292.52363636364 L 302.85067873303 285.22472727273 L 303.28959276018 283.712 L 303.72850678733 279.32509090909 L 304.16742081448 275.92145454545 L 304.60633484163 280.11927272726996 L 305.04524886878 288.62836363636 L 305.48416289593 302.62109090909 L 305.92307692308 298.72581818182 L 306.36199095023 295.01963636364 L 306.80090497738 290.70836363636 L 307.23981900452 292.06981818182 L 307.67873303167 292.78836363636003 L 308.11764705882 292.71272727273004 L 308.55656108597 291.27563636364 L 308.99547511312 291.54036363636 L 309.43438914027 296.72145454545 L 309.87330316742 290.85963636364 L 310.31221719457 297.17527272727 L 310.75113122172 293.20436363636 L 311.19004524887 290.70836363636 L 311.62895927602 293.77163636364 L 312.06787330317 288.47709090909 L 312.50678733032 285.11127272727003 L 312.94570135747 288.89309090909 L 313.38461538462 294.03636363635997 L 313.82352941177 299.104 L 314.26244343891 294.07418181818 L 314.70135746606 293.01527272727003 L 315.14027149321 288.74181818182 L 315.57918552036 284.16581818182 L 316.01809954751 284.46836363636 L 316.45701357466 285.45163636364 L 316.89592760181 290.63272727273 L 317.33484162896 287.68290909091 L 317.77375565611 285.79200000000003 L 318.21266968326 282.31272727273 L 318.65158371041 285.33818181818003 L 319.09049773756 282.31272727273 L 319.52941176471 287.34254545454996 L 319.96832579185 281.66981818182 L 320.407239819 288.32581818182 L 320.84615384615 289.38472727273 L 321.2850678733 293.24218181818003 L 321.72398190045 290.59490909091 L 322.1628959276 284.65745454545004 L 322.60180995475 284.73309090909004 L 323.0407239819 280.34618181818 L 323.47963800905 273.53890909091 L 323.9185520362 274.93818181818 L 324.35746606335 270.96727272727003 L 324.7963800905 272.21527272726996 L 325.23529411765 271.68581818181997 L 325.6742081448 274.33309090909 L 326.11312217195 276.07272727273 L 326.55203619909 278.83345454544997 L 326.99095022624 279.43854545454997 L 327.42986425339 283.10690909091 L 327.86877828054 276.48872727273 L 328.30769230769 279.09818181818 L 328.74660633484 276.41309090909 L 329.18552036199 277.66109090909003 L 329.62443438914 275.392 L 330.06334841629 280.76218181818 L 330.50226244344 275.08945454545 L 330.94117647059 264.12218181818 L 331.38009049774 271.87490909091 L 331.81900452489 269.26545454545 L 332.25791855204 276.75345454545004 L 332.69683257919 272.55563636364 L 333.13574660634 273.312 L 333.57466063348 270.13527272727003 L 334.01357466063 266.88290909091 L 334.45248868778 266.42909090909 L 334.89140271493 264.08436363635997 L 335.33031674208 261.81527272727 L 335.76923076923 267.41236363636 L 336.20814479638 279.17381818182 L 336.64705882353 280.76218181818 L 337.08597285068 286.01890909091003 L 337.52488687783 286.28363636363997 L 337.96380090498 283.48509090909 L 338.40271493213 277.77454545455 L 338.84162895928 282.91781818182 L 339.28054298643 281.82109090909 L 339.71945701357 285.41381818182003 L 340.15837104072 284.50618181818004 L 340.59728506787 279.552 L 341.03619909502 279.32509090909 L 341.47511312217 273.57672727273 L 341.91402714932 267.488 L 342.35294117647 267.33672727273 L 342.79185520362 270.66472727273003 L 343.23076923077 271.08072727273 L 343.66968325792 269.37890909091004 L 344.10859728507 267.45018181818 L 344.54751131222 267.86618181818 L 344.98642533937 270.62690909091 L 345.42533936652 266.69381818182 L 345.86425339366 269.79490909091 L 346.30316742081 266.69381818182 L 346.74208144796 265.408 L 347.18099547511 270.4 L 347.61990950226 274.74909090909 L 348.05882352941 280.19490909090996 L 348.49773755656 272.44218181817996 L 348.93665158371 276.52654545455 L 349.37556561086 269.26545454545 L 349.81447963801 266.27781818182 L 350.25339366516 271.68581818181997 L 350.69230769231 263.97090909091 L 351.13122171946 266.16436363636 L 351.57013574661 258.44945454545 L 352.00904977376 258.07127272727 L 352.44796380091 263.55490909091 L 352.88687782805 264.80290909091 L 353.3257918552 258.56290909091 L 353.76470588235 251.79345454545 L 354.2036199095 252.77672727273 L 354.64253393665 256.59636363636 L 355.0814479638 256.97454545455 L 355.52036199095 255.08363636364 L 355.9592760181 251.15054545455 L 356.39819004525 242.64145454545 L 356.8371040724 246.23418181818 L 357.27601809955 247.55781818182 L 357.7149321267 251.71781818182 L 358.15384615385 251.37745454545 L 358.592760181 249.75127272727 L 359.03167420815 248.88145454545 L 359.47058823529 241.96072727273 L 359.90950226244 244.192 L 360.34841628959 238.97309090909 L 360.78733031674 236.09890909091 L 361.22624434389 239.88072727273 L 361.66515837104 240.52363636364 L 362.10407239819 242.944 L 362.54298642534 234.35927272727 L 362.98190045249 233.03563636364 L 363.42081447964 228.83781818182 L 363.85972850679 221.87927272727 L 364.29864253394 225.20727272727 L 364.73755656109 225.32072727273 L 365.17647058823 230.01018181818 L 365.61538461538 228.61090909091 L 366.05429864253 232.01454545455 L 366.49321266968 229.51854545455 L 366.93212669683 225.77454545455 L 367.37104072398 222.71127272727 L 367.80995475113 225.69890909091 L 368.24886877828 212.61381818182 L 368.68778280543 197.6 L 369.12669683258 185.76290909091 L 369.56561085973 182.32145454545 L 370.00452488688 174.03927272727 L 370.44343891403 165.03854545455 L 370.88235294118 175.89236363636 L 371.32126696833 179.22036363636 L 371.76018099548 180.24145454545 L 372.19909502262 172.224 L 372.63800904977 172.86690909091 L 373.07692307692 185.38472727273 L 373.51583710407 184.96872727273 L 373.95475113122 183.98545454545 L 374.39366515837 189.73381818182 L 374.83257918552 197.03272727273 L 375.27149321267 184.85527272727 L 375.71040723982 191.17090909091 L 376.14932126697 215.03418181818 L 376.58823529412 202.51636363636 L 377.02714932127 208.22690909091 L 377.46606334842 200.512 L 377.90497737557 204.82327272727 L 378.34389140272 205.12581818182 L 378.78280542986 213.78618181818 L 379.22171945701 225.69890909091 L 379.66063348416 223.27854545455 L 380.09954751131 221.34981818182 L 380.53846153846 223.16509090909 L 380.97737556561 226.94690909091 L 381.41628959276 231.296 L 381.85520361991 227.70327272727 L 382.29411764706 229.17818181818 L 382.73303167421 231.86327272727 L 383.17194570136 220.55563636364 L 383.61085972851 227.85454545455 L 384.04977375566 225.69890909091 L 384.48868778281 213.55927272727 L 384.92760180995 215.63927272727 L 385.3665158371 209.58836363636 L 385.80542986425 216.84945454545 L 386.2443438914 211.66836363636 L 386.68325791855 207.24363636364 L 387.1221719457 205.57963636364 L 387.56108597285 201.60872727273 L 388 200.85236363636 L 388.43891402715 200.20945454545 L 388.8778280543 201.53309090909 L 389.31674208145 201.60872727273 L 389.7556561086 195.21745454545 L 390.19457013575 195.25527272727 L 390.6334841629 200.05818181818 L 391.07239819005 198.31854545455 L 391.51131221719 206.78981818182 L 391.95022624434 201.64654545455 L 392.38914027149 199.75563636364 L 392.82805429864 194.87709090909 L 393.26696832579 196.27636363636 L 393.70588235294 195.44436363636 L 394.14479638009 199.37745454545 L 394.58371040724 196.16290909091 L 395.02262443439 198.05381818182 L 395.46153846154 200.24727272727 L 395.90045248869 205.73090909091 L 396.33936651584 206.63854545455 L 396.77828054299 204.74763636364 L 397.21719457014 203.46181818182 L 397.65610859729 203.49963636364 L 398.09502262443 202.06254545455 L 398.53393665158 200.05818181818 L 398.97285067873 200.36072727273 L 399.41176470588 200.54981818182 L 399.85067873303 207.50836363636 L 400.28959276018 198.58327272727 L 400.72850678733 205.92 L 401.16742081448 201.15490909091 L 401.60633484163 200.70109090909 L 402.04524886878 200.13381818182 L 402.48416289593 200.24727272727 L 402.92307692308 196.95709090909 L 403.36199095023 200.02036363636 L 403.80090497738 195.59563636364 L 404.23981900453 190.98181818182 L 404.67873303167 185.61163636364 L 405.11764705882 183.79636363636 L 405.55656108597 178.31272727273 L 405.99547511312 182.73745454545 L 406.43438914027 178.38836363636 L 406.87330316742 187.91854545455 L 407.31221719457 182.96436363636 L 407.75113122172 176.83781818182 L 408.19004524887 169.04727272727 L 408.62895927602 169.76581818182 L 409.06787330317 173.056 L 409.50678733032 173.66109090909 L 409.94570135747 173.50981818182 L 410.38461538462 169.19854545455 L 410.82352941176 176.23272727273 L 411.26244343891 175.66545454545 L 411.70135746606 171.24072727273 L 412.14027149321 171.73236363636 L 412.57918552036 168.55563636364 L 413.01809954751 171.58109090909 L 413.45701357466 168.78254545455 L 413.89592760181 168.02618181818 L 414.33484162896 170.29527272727 L 414.77375565611 170.74909090909 L 415.21266968326 173.32072727273 L 415.65158371041 178.464 L 416.09049773756 179.52290909091 L 416.52941176471 183.22909090909 L 416.96832579186 183.19127272727 L 417.407239819 188.37236363636 L 417.84615384615 197.48654545455 L 418.2850678733 202.592 L 418.72398190045 199.22618181818 L 419.1628959276 201.04145454545 L 419.60180995475 203.34836363636 L 420.0407239819 202.70545454545 L 420.47963800905 202.176 L 420.9185520362 199.98254545455 L 421.35746606335 199.94472727273 L 421.7963800905 198.88581818182 L 422.23529411765 194.38545454545 L 422.6742081448 193.66690909091 L 423.11312217195 200.13381818182 L 423.5520361991 197.6 L 423.99095022624 201.87345454545 L 424.42986425339 194.83927272727 L 424.86877828054 191.28436363636 L 425.30769230769 192.57018181818 L 425.74660633484 190.944 L 426.18552036199 190.79272727273 L 426.62443438914 203.424 L 427.06334841629 216.28218181818 L 427.50226244344 212.87854545455 L 427.94117647059 208.49163636364 L 428.38009049774 210.11781818182 L 428.81900452489 210.94981818182 L 429.25791855204 209.32363636364 L 429.69683257919 211.78181818182 L 430.13574660633 210.83636363636 L 430.57466063348 207.65963636364 L 431.01357466063 207.81090909091 L 431.45248868778 209.32363636364 L 431.89140271493 210.30690909091 L 432.33031674208 210.79854545455 L 432.76923076923 210.98763636364 L 433.20814479638 203.95345454545 L 433.64705882353 205.95781818182 L 434.08597285068 199.56654545455 L 434.52488687783 195.52 L 434.96380090498 196.65454545455 L 435.40271493213 200.13381818182 L 435.84162895928 201.49527272727 L 436.28054298643 206.90327272727 L 436.71945701357 212.12218181818 L 437.15837104072 215.86618181818 L 437.59728506787 216.13090909091 L 438.03619909502 212.84072727273 L 438.47511312217 208.94545454545 L 438.91402714932 207.88654545455 L 439.35294117647 210.64727272727 L 439.79185520362 207.43272727273 L 440.23076923077 212.12218181818 L 440.66968325792 211.70618181818 L 441.10859728507 213.89963636364 L 441.54751131222 212.12218181818 L 441.98642533937 219.04290909091 L 442.42533936652 221.53890909091 L 442.86425339367 224.56436363636 L 443.30316742081 225.77454545455 L 443.74208144796 225.056 L 444.18099547511 224.37527272727 L 444.61990950226 232.69527272727 L 445.05882352941 226.87127272727 L 445.49773755656 224.48872727273 L 445.93665158371 231.03127272727 L 446.37556561086 234.73745454545 L 446.81447963801 236.93090909091 L 447.25339366516 233.45163636364 L 447.69230769231 231.06909090909 L 448.13122171946 233.52727272727 L 448.57013574661 226.49309090909 L 449.00904977376 230.50181818182 L 449.44796380091 230.12363636364 L 449.88687782805 234.51054545455 L 450.3257918552 230.19927272727 L 450.76470588235 226.22836363636 L 451.2036199095 223.24072727273 L 451.64253393665 227.66545454545 L 452.0814479638 224.86690909091 L 452.52036199095 225.32072727273 L 452.9592760181 227.81672727273 L 453.39819004525 229.85890909091 L 453.8371040724 228.19490909091 L 454.27601809955 220.44218181818 L 454.7149321267 219.08072727273 L 455.15384615385 219.91272727273 L 455.592760181 218.43781818182 L 456.03167420814 214.58036363636 L 456.47058823529 218.43781818182 L 456.90950226244 218.92945454545 L 457.34841628959 219.61018181818 L 457.78733031674 219.61018181818 L 458.22624434389 230.12363636364 L 458.66515837104 227.81672727273 L 459.10407239819 228.42181818182 L 459.54298642534 222.25745454545 L 459.98190045249 198.58327272727 L 460.42081447964 188.52363636364 L 460.85972850679 190.944 L 461.29864253394 187.57818181818 L 461.73755656109 190.90618181818 L 462.17647058824 185.23345454545 L 462.61538461538 189.20436363636 L 463.05429864253 185.38472727273 L 463.49321266968 186.368 L 463.93212669683 193.74254545455 L 464.37104072398 198.20509090909 L 464.80995475113 191.776 L 465.24886877828 190.90618181818 L 465.68778280543 189.01527272727 L 466.12669683258 192.04072727273 L 466.56561085973 190.944 L 467.00452488688 194.00727272727 L 467.44343891403 200.58763636364 L 467.88235294118 200.28509090909 L 468.32126696833 211.93309090909 L 468.76018099548 212.576 L 469.19909502262 206.94109090909 L 469.63800904977 206.18472727273 L 470.07692307692 202.74327272727 L 470.51583710407 198.39418181818 L 470.95475113122 195.67127272727 L 471.39366515837 194.23418181818 L 471.83257918552 188.93963636364 L 472.27149321267 198.05381818182 L 472.71040723982 198.016 L 473.14932126697 195.36872727273 L 473.58823529412 193.96945454545 L 474.02714932127 202.28945454545 L 474.46606334842 207.20581818182 L 474.90497737557 202.36509090909 L 475.34389140271 200.43636363636 L 475.78280542986 194.61236363636 L 476.22171945701 189.80945454545 L 476.66063348416 187.38909090909 L 477.09954751131 186.85963636364 L 477.53846153846 188.59927272727 L 477.97737556561 186.14109090909 L 478.41628959276 186.59490909091 L 478.85520361991 179.48509090909 L 479.29411764706 182.32145454545 L 479.73303167421 181.56509090909 L 480.17194570136 177.02690909091 L 480.61085972851 181.64072727273 L 481.04977375566 177.632 L 481.48868778281 175.02254545455 L 481.92760180995 173.92581818182 L 482.3665158371 170.29527272727 L 482.80542986425 174.83345454545 L 483.2443438914 183.11563636364 L 483.68325791855 192.192 L 484.1221719457 198.65890909091 L 484.56108597285 199.86909090909 L 485 201.07927272727 L 485.43891402715 201.41963636364 L 485.8778280543 202.36509090909 L 486.31674208145 203.95345454545 L 486.7556561086 201.94909090909 L 487.19457013575 197.07054545455 L 487.6334841629 192.30545454545 L 488.07239819005 197.71345454545 L 488.51131221719 203.99127272727 L 488.95022624434 206.60072727273 L 489.38914027149 188.59927272727 L 489.82805429864 183.456 L 490.26696832579 187.84290909091 L 490.70588235294 191.81381818182 L 491.14479638009 191.66254545455 L 491.58371040724 182.77527272727 L 492.02262443439 181.07345454545 L 492.46153846154 190.112 L 492.90045248869 193.74254545455 L 493.33936651584 196.80581818182 L 493.77828054299 207.81090909091 L 494.21719457014 205.84436363636 L 494.65610859729 196.38981818182 L 495.09502262443 199.03709090909 L 495.53393665158 205.65527272727 L 495.97285067873 200.05818181818 L 496.41176470588 200.85236363636 L 496.85067873303 210.30690909091 L 497.28959276018 230.42618181818 L 497.72850678733 231.40945454545 L 498.16742081448 217.49236363636 L 498.60633484163 219.04290909091 L 499.04524886878 217.49236363636 L 499.48416289593 220.32872727273 L 499.92307692308 219.83709090909 L 500.36199095023 210.87418181818 L 500.80090497738 204.93672727273 L 501.23981900452 201.53309090909 L 501.67873303167 201.38181818182 L 502.11764705882 200.32290909091 L 502.55656108597 204.44509090909 L 502.99547511312 203.08363636364 L 503.43438914027 200.096 L 503.87330316742 202.93236363636 L 504.31221719457 196.65454545455 L 504.75113122172 202.176 L 505.19004524887 213.37018181818 L 505.62895927602 208.94545454545 L 506.06787330317 208.45381818182 L 506.50678733032 215.56363636364 L 506.94570135747 226.22836363636 L 507.38461538462 228.00581818182 L 507.82352941176 231.296 L 508.26244343891 232.65745454545 L 508.70135746606 232.73309090909 L 509.14027149321 230.80436363636 L 509.57918552036 231.82545454545 L 510.01809954751 232.20363636364 L 510.45701357466 229.66981818182 L 510.89592760181 224.79127272727 L 511.33484162896 228.15709090909 L 511.77375565611 237.15781818182 L 512.21266968326 235.22909090909 L 512.65158371041 241.39345454545 L 513.09049773756 241.31781818182 L 513.52941176471 236.06109090909 L 513.96832579186 242.30109090909 L 514.407239819 242.41454545455 L 514.84615384615 240.59927272727 L 515.2850678733 231.52290909091 L 515.72398190045 241.50690909091 L 516.1628959276 244.22981818182 L 516.60180995475 248.352 L 517.0407239819 252.17163636364 L 517.47963800905 251.94472727273 L 517.9185520362 252.43636363636 L 518.35746606335 249.07054545455 L 518.7963800905 249.10836363636 L 519.23529411765 240.48581818182 L 519.6742081448 248.54109090909 L 520.11312217195 248.38981818182 L 520.55203619909 250.16727272727 L 520.99095022624 244.04072727273 L 521.42986425339 247.17963636364 L 521.86877828054 244.26763636364 L 522.30769230769 236.85527272727 L 522.74660633484 233.11127272727 L 523.18552036199 235.04 L 523.62443438914 236.66618181818 L 524.06334841629 231.37163636364 L 524.50226244344 238.55709090909 L 524.94117647059 235.72072727273 L 525.38009049774 234.58618181818 L 525.81900452489 235.83418181818 L 526.25791855204 241.58254545455 L 526.69683257919 251.37745454545 L 527.13574660633 261.43709090909 L 527.57466063348 263.328 L 528.01357466063 263.40363636364 L 528.45248868778 276.90472727273004 L 528.89140271493 278.75781818181997 L 529.33031674208 276.60218181818 L 529.76923076923 280.19490909090996 L 530.20814479638 282.31272727273 L 530.64705882353 270.21090909091004 L 531.08597285068 273.91709090909 L 531.52488687783 274.82472727273 L 531.96380090498 278.60654545455 L 532.40271493213 281.44290909091 L 532.84162895928 284.58181818182004 L 533.28054298643 286.73745454544996 L 533.71945701357 283.712 L 534.15837104072 278.49309090909003 L 534.59728506787 281.97236363636 L 535.03619909502 284.05236363636004 L 535.47511312217 281.59418181818 L 535.91402714932 284.16581818182 L 536.35294117647 289.34690909091 L 536.79185520362 285.14909090909 L 537.23076923077 286.05672727273 L 537.66968325792 277.73672727273004 L 538.10859728507 275.65672727273 L 538.54751131222 273.27418181818 L 538.98642533937 275.08945454545 L 539.42533936652 272.17745454545 L 539.86425339367 273.50109090909 L 540.30316742081 266.88290909091 L 540.74208144796 264.23563636363997 L 541.18099547511 260.07563636364 L 541.61990950226 263.97090909091 L 542.05882352941 270.13527272727003 L 542.49773755656 271.72363636364 L 542.93665158371 270.13527272727003 L 543.37556561086 268.96290909091 L 543.81447963801 267.26109090909 L 544.25339366516 269.87054545455 L 544.69230769231 261.92872727273 L 545.13122171946 256.48290909090997 L 545.57013574661 254.51636363636 L 546.00904977376 254.51636363636 L 546.4479638009 254.592 L 546.88687782805 257.35272727273 L 547.3257918552 257.35272727273 L 547.76470588235 262.91200000000003 L 548.2036199095 271.30763636364 L 548.64253393665 267.10981818182 L 549.0814479638 267.22327272727 L 549.52036199095 262.496 L 549.9592760181 272.97163636363996 L 550.39819004525 272.51781818181996 L 550.8371040724 275.69454545455 L 551.27601809955 281.216 L 551.7149321267 282.76654545455 L 552.15384615385 284.544 L 552.592760181 286.47272727273 L 553.03167420814 278.87127272727 L 553.47058823529 274.44654545455 L 553.90950226244 270.81600000000003 L 554.34841628959 266.42909090909 L 554.78733031674 277.39636363636 L 555.22624434389 280.57309090909 L 555.66515837104 283.14472727273 L 556.10407239819 287.49381818181996 L 556.54298642534 282.38836363636 L 556.98190045249 286.47272727273 L 557.42081447964 290.63272727273 L 557.85972850679 293.12872727273 L 558.29864253394 299.74690909091 L 558.73755656109 302.35636363636 L 559.17647058824 302.20509090909 L 559.61538461538 297.81818181818 L 560.05429864253 300.08727272727003 L 560.49321266968 301.03272727272997 L 560.93212669683 293.35563636364 L 561.37104072398 284.69527272727 L 561.80995475113 285.67854545455 L 562.24886877828 290.51927272727 L 562.68778280543 293.62036363636 L 563.12669683258 296.00290909091 L 563.56561085973 295.73818181818 L 564.00452488688 296.57018181818 L 564.44343891403 290.02763636364 L 564.88235294118 294.60363636364 L 565.32126696833 290.368 L 565.76018099547 282.99345454545 L 566.19909502262 287.03999999999996 L 566.63800904977 288.32581818182 L 567.07692307692 281.44290909091 L 567.51583710407 279.81672727272996 L 567.95475113122 276.224 L 568.39366515837 275.73236363636 L 568.83257918552 276.94254545455 L 569.27149321267 273.95490909091 L 569.71040723982 275.31636363636 L 570.14932126697 269.64363636364 L 570.58823529412 262.68509090909004 L 571.02714932127 266.20218181818 L 571.46606334842 257.42836363636 L 571.90497737557 258.14690909090996 L 572.34389140271 240.97745454545 L 572.78280542986 238.14109090909 L 573.22171945701 228.23272727273 L 573.66063348416 223.84581818182 L 574.09954751131 224.75345454545 L 574.53846153846 224.37527272727 L 574.97737556561 230.19927272727 L 575.41628959276 229.40509090909 L 575.85520361991 229.25381818182 L 576.29411764706 227.77890909091 L 576.73303167421 222.59781818182 L 577.17194570136 220.064 L 577.61085972851 222.18181818182 L 578.04977375566 229.36727272727 L 578.48868778281 228.95127272727 L 578.92760180995 224.98036363636 L 579.3665158371 225.32072727273 L 579.80542986425 221.00945454545 L 580.2443438914 225.32072727273 L 580.68325791855 227.02254545455 L 581.1221719457 228.04363636364 L 581.56108597285 227.47636363636 L 582 231.10690909091 L 582.43891402715 227.40072727273 L 582.8778280543 223.65672727273 L 583.31674208145 228.27054545455 L 583.7556561086 235.19127272727 L 584.19457013575 234.81309090909 L 584.6334841629 236.13672727273 L 585.07239819005 236.32581818182 L 585.51131221719 233.26254545455 L 585.95022624434 236.17454545455 L 586.38914027149 231.712 L 586.82805429864 231.52290909091 L 587.26696832579 235.22909090909 L 587.70588235294 232.27927272727 L 588.14479638009 232.09018181818 L 588.58371040724 231.22036363636 L 589.02262443439 224.90472727273 L 589.46153846154 223.61890909091 L 589.90045248869 217.568 L 590.33936651584 213.74836363636 L 590.77828054299 212.08436363636 L 591.21719457014 208.37818181818 L 591.65610859728 208.94545454545 L 592.09502262443 207.24363636364 L 592.53393665158 210.53381818182 L 592.97285067873 214.88290909091 L 593.41176470588 216.32 L 593.85067873303 211.89527272727 L 594.28959276018 206.86545454545 L 594.72850678733 208.22690909091 L 595.16742081448 213.55927272727 L 595.60633484163 212.80290909091 L 596.04524886878 213.48363636364 L 596.48416289593 216.88727272727 L 596.92307692308 211.97090909091 L 597.36199095023 211.25236363636 L 597.80090497738 209.73963636364 L 598.23981900452 215.63927272727 L 598.67873303167 217.984 L 599.11764705882 197.44872727273 L 599.55656108597 200.81454545455 L 599.99547511312 205.12581818182 L 600.43438914027 204.93672727273 L 600.87330316742 202.81890909091 L 601.31221719457 202.47854545455 L 601.75113122172 202.93236363636 L 602.19004524887 206.22254545455 L 602.62895927602 207.69745454545 L 603.06787330317 215.71490909091 L 603.50678733032 215.904 L 603.94570135747 216.16872727273 L 604.38461538462 215.86618181818 L 604.82352941176 215.45018181818 L 605.26244343891 215.45018181818 L 605.70135746606 213.02981818182 L 606.14027149321 208.34036363636 L 606.57918552036 209.32363636364 L 607.01809954751 216.32 L 607.45701357466 222.63563636364 L 607.89592760181 218.96727272727 L 608.33484162896 223.808 L 608.77375565611 225.62327272727 L 609.21266968326 229.74545454545 L 609.65158371041 225.77454545455 L 610.09049773756 235.07781818182 L 610.52941176471 229.85890909091 L 610.96832579185 236.17454545455 L 611.407239819 230.95563636364 L 611.84615384615 228.15709090909 L 612.2850678733 233.71636363636 L 612.72398190045 233.11127272727 L 613.1628959276 232.20363636364 L 613.60180995475 230.91781818182 L 614.0407239819 228.49745454545 L 614.47963800905 223.77018181818 L 614.9185520362 224.52654545455 L 615.35746606335 220.21527272727 L 615.7963800905 219.76145454545 L 616.23529411765 226.07709090909 L 616.6742081448 225.54763636364 L 617.11312217195 228.27054545455 L 617.55203619909 227.62763636364 L 617.99095022624 224.33745454545 L 618.42986425339 223.77018181818 L 618.86877828054 222.10618181818 L 619.30769230769 225.16945454545 L 619.74660633484 222.56 L 620.18552036199 220.74472727273 L 620.62443438914 222.33309090909 L 621.06334841629 225.81236363636 L 621.50226244344 227.32509090909 L 621.94117647059 224.82909090909 L 622.38009049774 234.51054545455 L 622.81900452489 236.85527272727 L 623.25791855204 231.82545454545 L 623.69683257919 227.968 L 624.13574660633 229.25381818182 L 624.57466063348 245.70472727273 L 625.01357466063 248.08727272727 L 625.45248868778 249.37309090909 L 625.89140271493 243.88945454545 L 626.33031674208 246.688 L 626.76923076923 248.57890909091 L 627.20814479638 249.07054545455 L 627.64705882353 250.12945454545 L 628.08597285068 250.46981818182 L 628.52488687783 243.47345454545 L 628.96380090498 245.81818181818 L 629.40271493213 243.54909090909 L 629.84162895928 238.67054545455 L 630.28054298643 239.2 L 630.71945701358 237.952 L 631.15837104072 236.77963636364 L 631.59728506787 241.01527272727 L 632.03619909502 240.032 L 632.47511312217 235.98545454545 L 632.91402714932 231.74981818182 L 633.35294117647 237.536 L 633.79185520362 236.59054545455 L 634.23076923077 217.94618181818 L 634.66968325792 220.97163636364 L 635.10859728507 222.976 L 635.54751131222 223.01381818182 L 635.98642533937 225.24509090909 L 636.42533936652 228.15709090909 L 636.86425339366 227.968 L 637.30316742081 223.99709090909 L 637.74208144796 227.136 L 638.18099547511 228.00581818182 L 638.61990950226 229.14036363636 L 639.05882352941 231.82545454545 L 639.49773755656 232.88436363636 L 639.93665158371 235.07781818182 L 640.37556561086 235.30472727273 L 640.81447963801 235.22909090909 L 641.25339366516 229.93454545455 L 641.69230769231 228.15709090909 L 642.13122171946 223.65672727273 L 642.57013574661 221.46327272727 L 643.00904977376 220.97163636364 L 643.4479638009 227.70327272727 L 643.88687782805 228.53527272727 L 644.3257918552 225.35854545455 L 644.76470588235 225.69890909091 L 645.2036199095 221.84145454545 L 645.64253393665 216.96290909091 L 646.0814479638 214.80727272727 L 646.52036199095 217.03854545455 L 646.9592760181 217.152 L 647.39819004525 209.70181818182 L 647.8371040724 207.39490909091 L 648.27601809955 206.41163636364 L 648.7149321267 207.50836363636 L 649.15384615385 206.14690909091 L 649.592760181 201.19272727273 L 650.03167420814 201.83563636364 L 650.47058823529 197.37309090909 L 650.90950226244 199.30181818182 L 651.34841628959 198.05381818182 L 651.78733031674 200.28509090909 L 652.22624434389 202.78109090909 L 652.66515837104 199.94472727273 L 653.10407239819 200.32290909091 L 653.54298642534 196.352 L 653.98190045249 198.20509090909 L 654.42081447964 202.78109090909 L 654.85972850679 203.68872727273 L 655.29864253394 203.008 L 655.73755656109 201.60872727273 L 656.17647058823 207.05454545455 L 656.61538461538 208.90763636364 L 657.05429864253 208.64290909091 L 657.49321266968 206.48727272727 L 657.93212669683 208.75636363636 L 658.37104072398 212.19781818182 L 658.80995475113 209.81527272727 L 659.24886877828 210.83636363636 L 659.68778280543 209.36145454545 L 660.12669683258 206.14690909091 L 660.56561085973 201.53309090909 L 661.00452488688 200.47418181818 L 661.44343891403 200.85236363636 L 661.88235294118 196.768 L 662.32126696833 206.52509090909 L 662.76018099547 204.36945454545 L 663.19909502262 205.88218181818 L 663.63800904977 206.44945454545 L 664.07692307692 206.37381818182 L 664.51583710407 207.28145454545 L 664.95475113122 211.10109090909 L 665.39366515837 207.35709090909 L 665.83257918552 209.664 L 666.27149321267 208.832 L 666.71040723982 210.00436363636 L 667.14932126697 211.78181818182 L 667.58823529412 216.09309090909 L 668.02714932127 216.16872727273 L 668.46606334842 214.20218181818 L 668.90497737557 216.39563636364 L 669.34389140272 213.78618181818 L 669.78280542986 209.73963636364 L 670.22171945701 209.55054545455 L 670.66063348416 214.35345454545 L 671.09954751131 213.71054545455 L 671.53846153846 212.992 L 671.97737556561 213.10545454545 L 672.41628959276 206.86545454545 L 672.85520361991 206.97890909091 L 673.29411764706 203.34836363636 L 673.73303167421 202.62981818182 L 674.17194570136 204.70981818182 L 674.61085972851 206.52509090909 L 675.04977375566 206.90327272727 L 675.48868778281 205.46618181818 L 675.92760180996 210.94981818182 L 676.3665158371 211.85745454545 L 676.80542986425 214.54254545455" class="highcharts-graph" data-z-index="1" stroke="#2962FF" stroke-width="2" stroke-linejoin="round" stroke-linecap="round"></path></g><g class="highcharts-markers highcharts-series-0 highcharts-line-series" data-z-index="90" opacity="1" transform="translate(8,40) scale(1 1)" clip-path="none"></g></g><text x="740" text-anchor="end" class="highcharts-title" data-z-index="4" style="color: rgb(211, 211, 211); font-size: 15px; fill: rgb(211, 211, 211);" y="512"></text><text x="14" text-anchor="start" class="highcharts-subtitle" data-z-index="4" style="color: rgb(51, 51, 51); fill: rgb(51, 51, 51); font-size: 15px;" y="25"><tspan style="color: rgb(211, 211, 211); fill: rgb(211, 211, 211);">Dupont De Nemours Inc</tspan></text><text x="0" text-anchor="start" class="highcharts-caption" data-z-index="4" style="color: rgb(102, 102, 102); fill: rgb(102, 102, 102);" y="527"></text><g class="highcharts-axis-labels highcharts-xaxis-labels" data-z-index="7"><text x="44.320135746607" text-anchor="middle" transform="translate(0,0)" style="color: rgb(227, 225, 225); cursor: default; font-size: 15px; font-weight: 400; fill: rgb(227, 225, 225);" y="476" opacity="1">Jan</text><text x="154.3778280543" text-anchor="middle" transform="translate(0,0)" style="color: rgb(227, 225, 225); cursor: default; font-size: 15px; font-weight: 400; fill: rgb(227, 225, 225);" y="476" opacity="1">2019</text><text x="264.98416289593" text-anchor="middle" transform="translate(0,0)" style="color: rgb(227, 225, 225); cursor: default; font-size: 15px; font-weight: 400; fill: rgb(227, 225, 225);" y="476" opacity="1">2020</text><text x="375.48076923077" text-anchor="middle" transform="translate(0,0)" style="color: rgb(227, 225, 225); cursor: default; font-size: 15px; font-weight: 400; fill: rgb(227, 225, 225);" y="476" opacity="1">2021</text><text x="486.12368024133" text-anchor="middle" transform="translate(0,0)" style="color: rgb(227, 225, 225); cursor: default; font-size: 15px; font-weight: 400; fill: rgb(227, 225, 225);" y="476" opacity="1">2022</text><text x="596.36425339367" text-anchor="middle" transform="translate(0,0)" style="color: rgb(227, 225, 225); cursor: default; font-size: 15px; font-weight: 400; fill: rgb(227, 225, 225);" y="476" opacity="1">2023</text></g><g class="highcharts-axis-labels highcharts-yaxis-labels" data-z-index="7"><text x="0" text-anchor="start" transform="translate(0,0)" style="color: rgb(227, 225, 225); cursor: default; font-size: 15px; fill: rgb(227, 225, 225);" visibility="hidden">20</text><text x="695" text-anchor="start" transform="translate(0,0)" style="color: rgb(227, 225, 225); cursor: default; font-size: 15px; fill: rgb(227, 225, 225);" y="423" opacity="1">30</text><text x="695" text-anchor="start" transform="translate(0,0)" style="color: rgb(227, 225, 225); cursor: default; font-size: 15px; fill: rgb(227, 225, 225);" y="385" opacity="1">40</text><text x="695" text-anchor="start" transform="translate(0,0)" style="color: rgb(227, 225, 225); cursor: default; font-size: 15px; fill: rgb(227, 225, 225);" y="347" opacity="1">50</text><text x="695" text-anchor="start" transform="translate(0,0)" style="color: rgb(227, 225, 225); cursor: default; font-size: 15px; fill: rgb(227, 225, 225);" y="309" opacity="1">60</text><text x="695" text-anchor="start" transform="translate(0,0)" style="color: rgb(227, 225, 225); cursor: default; font-size: 15px; fill: rgb(227, 225, 225);" y="271" opacity="1">70</text><text x="695" text-anchor="start" transform="translate(0,0)" style="color: rgb(227, 225, 225); cursor: default; font-size: 15px; fill: rgb(227, 225, 225);" y="234" opacity="1">80</text><text x="695" text-anchor="start" transform="translate(0,0)" style="color: rgb(227, 225, 225); cursor: default; font-size: 15px; fill: rgb(227, 225, 225);" y="196" opacity="1">90</text><text x="695" text-anchor="start" transform="translate(0,0)" style="color: rgb(227, 225, 225); cursor: default; font-size: 15px; fill: rgb(227, 225, 225);" y="158" opacity="1">100</text><text x="695" text-anchor="start" transform="translate(0,0)" style="color: rgb(227, 225, 225); cursor: default; font-size: 15px; fill: rgb(227, 225, 225);" y="120" opacity="1">110</text><text x="695" text-anchor="start" transform="translate(0,0)" style="color: rgb(227, 225, 225); cursor: default; font-size: 15px; fill: rgb(227, 225, 225);" y="82" opacity="1">120</text><text x="0" text-anchor="start" transform="translate(0,0)" style="color: rgb(227, 225, 225); cursor: default; font-size: 15px; fill: rgb(227, 225, 225);" visibility="hidden">130</text></g><g class="highcharts-axis-labels highcharts-yaxis-labels" data-z-index="7"></g><g class="highcharts-axis-labels highcharts-yaxis-labels" data-z-index="7"></g><g class="highcharts-control-points" data-z-index="99" clip-path="url(#highcharts-y2u6r9a-7716-)"></g><g class="highcharts-axis highcharts-yaxis" data-z-index="9999"><path fill="none" class="highcharts-tick" stroke="#333333" stroke-width="1" d="M 688 456.5 L 693 456.5" opacity="1"></path><path fill="none" class="highcharts-tick" stroke="#333333" stroke-width="1" d="M 688 418.5 L 693 418.5" opacity="1"></path><path fill="none" class="highcharts-tick" stroke="#333333" stroke-width="1" d="M 688 380.5 L 693 380.5" opacity="1"></path><path fill="none" class="highcharts-tick" stroke="#333333" stroke-width="1" d="M 688 343.5 L 693 343.5" opacity="1"></path><path fill="none" class="highcharts-tick" stroke="#333333" stroke-width="1" d="M 688 305.5 L 693 305.5" opacity="1"></path><path fill="none" class="highcharts-tick" stroke="#333333" stroke-width="1" d="M 688 267.5 L 693 267.5" opacity="1"></path><path fill="none" class="highcharts-tick" stroke="#333333" stroke-width="1" d="M 688 229.5 L 693 229.5" opacity="1"></path><path fill="none" class="highcharts-tick" stroke="#333333" stroke-width="1" d="M 688 191.5 L 693 191.5" opacity="1"></path><path fill="none" class="highcharts-tick" stroke="#333333" stroke-width="1" d="M 688 153.5 L 693 153.5" opacity="1"></path><path fill="none" class="highcharts-tick" stroke="#333333" stroke-width="1" d="M 688 116.5 L 693 116.5" opacity="1"></path><path fill="none" class="highcharts-tick" stroke="#333333" stroke-width="1" d="M 688 78.5 L 693 78.5" opacity="1"></path><path fill="none" class="highcharts-tick" stroke="#333333" stroke-width="1" d="M 688 39.5 L 693 39.5" opacity="1"></path><path fill="none" class="highcharts-axis-line" stroke="#616161" stroke-width="1" data-z-index="7" d="M 688.5 40 L 688.5 456"></path></g><path fill="none" d="M 8 0 L 1800 0" stroke="#757575" stroke-width="1" stroke-dasharray="8,3" data-z-index="6" visibility="hidden" class="crosshair-fix-horizontal"></path><path fill="none" d="M 0 40 L 0 1160" stroke="#757575" stroke-width="1" stroke-dasharray="8,3" data-z-index="6" visibility="hidden" class="crosshair-fix-vertical"></path></svg>