<?xml version="1.0" standalone="no"?><!DOCTYPE svg PUBLIC "-//W3C//DTD SVG 1.1//EN" "http://www.w3.org/Graphics/SVG/1.1/DTD/svg11.dtd"><svg xmlns:xlink="http://www.w3.org/1999/xlink" version="1.1" class="highcharts-root" style="font-family: &quot;Helvetica Neue&quot;, Helvetica, Arial, sans-serif; font-size: 12px;" xmlns="http://www.w3.org/2000/svg" width="750" height="520" viewBox="0 0 750 520"><desc>Created with Highcharts 10.1.0</desc><defs><linearGradient x1="0" y1="0" x2="500" y2="500" gradientUnits="userSpaceOnUse" id="highcharts-k2t418u-3612"><stop offset="0" stop-color="rgb(35, 35, 35)" stop-opacity="1"></stop></linearGradient><clipPath id="highcharts-k2t418u-3613-"><rect x="0" y="0" width="679" height="416" fill="none"></rect></clipPath><clipPath id="highcharts-k2t418u-4652-"><rect x="0" y="0" width="679" height="416" fill="none"></rect></clipPath><clipPath id="highcharts-k2t418u-5696-"><rect x="8" y="40" width="679" height="416" fill="none"></rect></clipPath></defs><rect fill="url(#highcharts-k2t418u-3612)" class="highcharts-background" x="0" y="0" width="750" height="520" rx="0" ry="0"></rect><rect fill="none" class="highcharts-plot-background" x="8" y="40" width="679" height="416"></rect><g class="highcharts-grid highcharts-xaxis-grid" data-z-index="1"><path fill="none" stroke="#333333" stroke-width="1" stroke-dasharray="none" data-z-index="1" class="highcharts-grid-line" d="M 65.5 40 L 65.5 456" opacity="1"></path><path fill="none" stroke="#333333" stroke-width="1" stroke-dasharray="none" data-z-index="1" class="highcharts-grid-line" d="M 146.5 40 L 146.5 456" opacity="1"></path><path fill="none" stroke="#333333" stroke-width="1" stroke-dasharray="none" data-z-index="1" class="highcharts-grid-line" d="M 224.5 40 L 224.5 456" opacity="1"></path><path fill="none" stroke="#333333" stroke-width="1" stroke-dasharray="none" data-z-index="1" class="highcharts-grid-line" d="M 305.5 40 L 305.5 456" opacity="1"></path><path fill="none" stroke="#333333" stroke-width="1" stroke-dasharray="none" data-z-index="1" class="highcharts-grid-line" d="M 388.5 40 L 388.5 456" opacity="1"></path><path fill="none" stroke="#333333" stroke-width="1" stroke-dasharray="none" data-z-index="1" class="highcharts-grid-line" d="M 469.5 40 L 469.5 456" opacity="1"></path><path fill="none" stroke="#333333" stroke-width="1" stroke-dasharray="none" data-z-index="1" class="highcharts-grid-line" d="M 551.5 40 L 551.5 456" opacity="1"></path><path fill="none" stroke="#333333" stroke-width="1" stroke-dasharray="none" data-z-index="1" class="highcharts-grid-line" d="M 632.5 40 L 632.5 456" opacity="1"></path></g><g class="highcharts-grid highcharts-yaxis-grid" data-z-index="1"><path fill="none" stroke="#333333" stroke-width="1" stroke-dasharray="none" data-z-index="1" class="highcharts-grid-line" d="M 8 456.5 L 687 456.5" opacity="1"></path><path fill="none" stroke="#333333" stroke-width="1" stroke-dasharray="none" data-z-index="1" class="highcharts-grid-line" d="M 8 397.5 L 687 397.5" opacity="1"></path><path fill="none" stroke="#333333" stroke-width="1" stroke-dasharray="none" data-z-index="1" class="highcharts-grid-line" d="M 8 337.5 L 687 337.5" opacity="1"></path><path fill="none" stroke="#333333" stroke-width="1" stroke-dasharray="none" data-z-index="1" class="highcharts-grid-line" d="M 8 278.5 L 687 278.5" opacity="1"></path><path fill="none" stroke="#333333" stroke-width="1" stroke-dasharray="none" data-z-index="1" class="highcharts-grid-line" d="M 8 218.5 L 687 218.5" opacity="1"></path><path fill="none" stroke="#333333" stroke-width="1" stroke-dasharray="none" data-z-index="1" class="highcharts-grid-line" d="M 8 159.5 L 687 159.5" opacity="1"></path><path fill="none" stroke="#333333" stroke-width="1" stroke-dasharray="none" data-z-index="1" class="highcharts-grid-line" d="M 8 99.5 L 687 99.5" opacity="1"></path><path fill="none" stroke="#333333" stroke-width="1" stroke-dasharray="none" data-z-index="1" class="highcharts-grid-line" d="M 8 39.5 L 687 39.5" opacity="1"></path></g><g class="highcharts-grid highcharts-yaxis-grid" data-z-index="1"></g><g class="highcharts-grid highcharts-yaxis-grid" data-z-index="1"></g><rect fill="none" class="highcharts-plot-border" data-z-index="1" x="8" y="40" width="679" height="416"></rect><g class="highcharts-axis highcharts-xaxis" data-z-index="2"><path fill="none" class="highcharts-axis-line" stroke="#616161" stroke-width="1" data-z-index="7" d="M 8 456.5 L 687 456.5"></path></g><g class="highcharts-axis highcharts-yaxis" data-z-index="2"><path fill="none" class="highcharts-axis-line" data-z-index="7" d="M 712 40 L 712 456"></path></g><g class="highcharts-axis highcharts-yaxis" data-z-index="2"><path fill="none" class="highcharts-axis-line" data-z-index="7" d="M 6.5 40 L 6.5 456"></path></g><g class="highcharts-series-group" data-z-index="3"><g class="highcharts-series highcharts-series-0 highcharts-line-series" data-z-index="90" opacity="1" transform="translate(8,40) scale(1 1)" clip-path="url(#highcharts-k2t418u-4652-)"><path fill="none" d="M 0 232.84114285714 L 0.65163147792653 230.76114285714 L 1.3032629558543 222.73828571429 L 1.9548944337808 223.62971428571 L 2.6065259117086 222.08457142857 L 3.2581573896352 227.01714285714 L 3.9097888675629 222.61942857143 L 4.5614203454895 217.74628571429 L 5.213051823416 218.45942857143 L 5.8646833013438 211.26857142857 L 6.5163147792703 200.15542857143 L 7.1679462571981 196.82742857143 L 7.8195777351246 196.29257142857 L 8.4712092130524 188.98285714286 L 9.1228406909789 184.16914285714 L 9.7744721689055 190.17142857143 L 10.426103646833 193.08342857143 L 11.07773512476 192.31085714286 L 11.729366602688 188.92342857143 L 12.380998080614 190.70628571429 L 13.032629558542 198.49142857143 L 13.684261036468 192.07314285714 L 14.335892514395 194.74742857143 L 14.987523992323 195.69828571429 L 15.639155470249 192.25142857143 L 16.290786948177 202.23542857143 L 16.942418426104 208.416 L 17.594049904031 206.15771428571 L 18.245681381958 205.97942857143 L 18.897312859884 206.98971428571 L 19.548944337812 214.83428571429 L 20.200575815739 213.88342857143 L 20.852207293666 208.47542857143 L 21.503838771593 195.34171428571 L 22.15547024952 197.184 L 22.807101727447 194.92571428571 L 23.458733205374 195.40114285714 L 24.110364683302 191.30057142857 L 24.761996161228 190.40914285714 L 25.413627639156 195.40114285714 L 26.065259117082 197.184 L 26.716890595009 194.74742857143 L 27.368522072937 181.43542857143 L 28.020153550863 175.43314285714 L 28.671785028791 171.09485714286 L 29.323416506718 169.43085714286 L 29.975047984645 172.16457142857 L 30.626679462572 175.37371428571 L 31.278310940498 164.55771428571 L 31.929942418426 153.50400000000002 L 32.581573896353 153.32571428570998 L 33.233205374281 152.85028571429 L 33.884836852207 143.81714285714003 L 34.536468330135 142.688 L 35.188099808061 143.75771428571 L 35.839731285988 147.62057142856997 L 36.491362763916 156.53485714286 L 37.142994241842 154.81142857142999 L 37.79462571977 149.40342857143003 L 38.446257197697 152.61257142857 L 39.097888675624 158.13942857143002 L 39.749520153551 162.41828571429 L 40.401151631477 155.22742857142998 L 41.052783109405 153.32571428570998 L 41.704414587332 147.38285714286002 L 42.356046065259 146.37257142856998 L 43.007677543186 152.85028571429 L 43.659309021114 158.25828571429003 L 44.31094049904 159.50628571429002 L 44.962571976967 167.46971428571 L 45.614203454895 164.736 L 46.265834932821 166.4 L 46.917466410749 159.14971428571 L 47.569097888675 158.85257142857 L 48.220729366603 159.68457142857 L 48.87236084453 159.86285714285998 L 49.523992322456 151.83999999999997 L 50.175623800384 158.79314285714003 L 50.827255278311 153.50400000000002 L 51.478886756238 150.59199999999998 L 52.130518234165 153.02857142857 L 52.782149712093 151.42399999999998 L 53.433781190019 150.88914285713997 L 54.085412667946 148.98742857142997 L 54.737044145874 149.16571428571 L 55.3886756238 147.264 L 56.040307101728 149.58171428571 L 56.691938579654 152.49371428570998 L 57.343570057581 150.176 L 57.995201535509 156 L 58.646833013435 163.904 L 59.298464491363 165.152 L 59.95009596929 165.27085714286 L 60.601727447217 162.06171428571 L 61.253358925144 165.27085714286 L 61.90499040307 169.37142857143 L 62.556621880998 164.32 L 63.208253358925 164.97371428571 L 63.859884836853 164.79542857143 L 64.511516314779 163.54742857143 L 65.163147792707 158.43657142857 L 65.814779270633 162.83428571429 L 66.46641074856 173.11542857143 L 67.118042226488 176.8 L 67.769673704414 187.25942857143 L 68.421305182342 195.04457142857 L 69.072936660269 195.16342857143 L 69.724568138196 180.24685714286 L 70.376199616123 187.37828571429 L 71.027831094049 201.64114285714 L 71.679462571977 197.65942857143 L 72.331094049904 189.87428571429 L 72.982725527831 180.60342857143 L 73.634357005758 183.04 L 74.285988483686 189.99314285714 L 74.937619961612 189.04228571429 L 75.589251439539 185.47657142857 L 76.240882917467 181.97028571429 L 76.892514395393 188.38857142857 L 77.544145873321 186.42742857143 L 78.195777351247 191.71657142857 L 78.847408829175 192.78628571429 L 79.499040307102 185.65485714286 L 80.150671785028 188.38857142857 L 80.802303262956 200.63085714286 L 81.453934740883 214.24 L 82.10556621881 219.58857142857 L 82.757197696737 240.38857142857 L 83.408829174665 235.27771428571 L 84.060460652591 229.27542857143 L 84.712092130518 234.38628571429 L 85.363723608446 226.36342857143 L 86.015355086372 237.12 L 86.6669865643 243.83542857143 L 87.318618042226 293.99314285714 L 87.970249520154 288.82285714286 L 88.621880998081 309.08799999999997 L 89.273512476007 334.761142857143 L 89.925143953935 322.75657142857096 L 90.576775431862 344.68571428571397 L 91.228406909789 317.348571428571 L 91.880038387716 318.299428571429 L 92.531669865642 308.31542857143 L 93.18330134357 312.35657142857 L 93.834932821497 317.46742857142897 L 94.486564299424 306.23542857143 L 95.138195777351 294.88457142857 L 95.789827255279 299.04457142857 L 96.441458733205 305.70057142857 L 97.093090211132 305.16571428571 L 97.74472168906 301.65942857143 L 98.396353166986 314.73371428571 L 99.047984644914 308.85028571429 L 99.69961612284 309.20685714286003 L 100.35124760077 293.93371428571 L 101.00287907869 283.296 L 101.65451055662 268.67657142857 L 102.30614203455 258.15771428571 L 102.95777351248 266.06171428570997 L 103.6094049904 265.22971428571 L 104.26103646833 283.89028571429003 L 104.91266794626 287.456 L 105.56429942418 276.81828571429 L 106.21593090211 288.05028571429 L 106.86756238004 291.91314285714 L 107.51919385797 286.20799999999997 L 108.17082533589 281.92914285714 L 108.82245681382 278.60114285713996 L 109.47408829175 270.75657142857 L 110.12571976967 262.25828571428997 L 110.7773512476 252.74971428571 L 111.42898272553 257.38514285714 L 112.08061420345 273.78742857143004 L 112.73224568138 278.95771428571004 L 113.38387715931 277.11542857143 L 114.03550863724 285.49485714286004 L 114.68714011516 280.20571428571 L 115.33877159309 271.41028571429 L 115.99040307102 273.96571428570996 L 116.64203454894 274.61942857143003 L 117.29366602687 283.17714285714 L 117.9452975048 276.28342857143 L 118.59692898273 275.98628571429003 L 119.24856046065 257.08799999999997 L 119.90019193858 263.62514285713996 L 120.55182341651 260.416 L 121.20345489443 262.55542857143 L 121.85508637236 260.77257142857 L 122.50671785029 244.90514285714 L 123.15834932822 238.784 L 123.80998080614 245.38057142857 L 124.46161228407 246.03428571429 L 125.113243762 245.97485714286 L 125.76487523992 234.14857142857 L 126.41650671785 228.02742857143 L 127.06813819578 221.60914285714 L 127.71976967371 214.12114285714 L 128.37140115163 202.65142857143 L 129.02303262956 211.50628571429 L 129.67466410749 216.43885714286 L 130.32629558541 242.112 L 130.97792706334 230.40457142857 L 131.62955854127 225.94742857143 L 132.28119001919 224.34285714286 L 132.93282149712 230.76114285714 L 133.58445297505 228.32457142857 L 134.23608445298 227.90857142857 L 134.8877159309 227.37371428571 L 135.53934740883 229.69142857143 L 136.19097888676 246.92571428571 L 136.84261036468 237.83314285714 L 137.49424184261 238.90285714286 L 138.14587332054 231.89028571429 L 138.79750479846 233.19771428571 L 139.44913627639 233.25714285714 L 140.10076775432 228.26514285714 L 140.75239923225 223.15428571429 L 141.40403071017 227.67085714286 L 142.0556621881 235.63428571429 L 142.70729366603 241.04228571429 L 143.35892514395 233.19771428571 L 144.01055662188 230.34514285714 L 144.66218809981 223.21371428571 L 145.31381957774 217.92457142857 L 145.96545105566 214.95314285714 L 146.61708253359 215.904 L 147.26871401152 224.04571428571 L 147.92034548944 219.648 L 148.57197696737 211.92228571429 L 149.2236084453 220.95542857143 L 149.87523992322 222.20342857143 L 150.52687140115 213.94285714286 L 151.17850287908 222.144 L 151.83013435701 216.79542857143 L 152.48176583493 227.43314285714 L 153.13339731286 231.41485714286 L 153.78502879079 237.17942857143 L 154.43666026871 229.86971428571 L 155.08829174664 225.888 L 155.73992322457 225.53142857143 L 156.39155470249 222.08457142857 L 157.04318618042 209.18857142857 L 157.69481765835 210.97142857143 L 158.34644913628 212.27885714286 L 158.9980806142 211.38742857143 L 159.64971209213 208.77257142857 L 160.30134357006 211.20914285714 L 160.95297504798 209.72342857143 L 161.60460652591 210.13942857143 L 162.25623800384 215.78514285714 L 162.90786948177 216.37942857143 L 163.55950095969 201.58171428571 L 164.21113243762 204.31542857143 L 164.86276391555 200.06628571429 L 165.51439539347 200.90185142857 L 166.1660268714 201.344 L 166.81765834933 206.81142857143 L 167.46928982726 195.40114285714 L 168.12092130518 183.04 L 168.77255278311 187.97257142857 L 169.42418426104 186.48685714286 L 170.07581573896 190.37942857143 L 170.72744721689 182.74285714286 L 171.37907869482 186.21942857143 L 172.03071017274 179.23657142857 L 172.68234165067 177.55771428571 L 173.3339731286 171.51085714286 L 173.98560460653 179.65257142857 L 174.63723608445 172.46171428571 L 175.28886756238 176.11657142857 L 175.94049904031 190.76571428571 L 176.59213051823 191.50857142857 L 177.24376199616 197.65942857143 L 177.89539347409 199.85828571429 L 178.54702495202 201.70057142857 L 179.19865642994 179.1712 L 179.85028790787 186.96228571429 L 180.5019193858 190.88457142857 L 181.15355086372 185.536 L 181.80518234165 183.81257142857 L 182.45681381958 182.208 L 183.10844529751 185.328 L 183.76007677543 181.97028571429 L 184.41170825336 185.952 L 185.06333973129 185.47657142857 L 185.71497120921 187.46742857143 L 186.36660268714 195.22285714286 L 187.01823416507 198.66971428571 L 187.66986564299 206.93028571429 L 188.32149712092 200.57142857143 L 188.97312859885 205.088 L 189.62476007678 191.24114285714 L 190.2763915547 185.83314285714 L 190.92802303263 199.38285714286 L 191.57965451056 184.40685714286 L 192.23128598848 188.80457142857 L 192.88291746641 165.68685714286 L 193.53454894434 157.72342857143002 L 194.18618042226 165.152 L 194.83781190019 172.10514285714 L 195.48944337812 166.57828571429 L 196.14107485605 154.93028571429 L 196.79270633397 151.66171428571 L 197.4443378119 146.78857142856998 L 198.09596928983 146.55085714286002 L 198.74760076775 150.176 L 199.39923224568 142.98514285713998 L 200.05086372361 132.34742857143 L 200.70249520154 140.07314285714 L 201.35412667946 146.19428571429 L 202.00575815739 160.39771428571 L 202.65738963532 157.30742857143002 L 203.30902111324 159.26857142857 L 203.96065259117 156.89142857143003 L 204.6122840691 148.27428571429 L 205.26391554702 159.20914285714002 L 205.91554702495 151.24571428571 L 206.56717850288 150.59199999999998 L 207.21880998081 151.95885714285998 L 207.87044145873 154.51428571429 L 208.52207293666 160.10057142857 L 209.17370441459 153.74171428570997 L 209.82533589251 155.52457142857003 L 210.47696737044 155.52457142857003 L 211.12859884837 144.64914285714002 L 211.78023032629 148.096 L 212.43186180422 150.53257142857 L 213.08349328215 150.05714285713998 L 213.73512476008 149.81942857143002 L 214.386756238 152.79085714285998 L 215.03838771593 152.55314285714002 L 215.69001919386 145.77828571429 L 216.34165067178 145.60000000000002 L 216.99328214971 154.27657142856998 L 217.64491362764 143.81714285714003 L 218.29654510557 128.18742857143002 L 218.94817658349 127.71199999999999 L 219.59980806142 129.49485714285998 L 220.25143953935 125.632 L 220.90307101727 112.67657142857001 L 221.5547024952 118.67885714286001 L 222.20633397313 120.93714285713997 L 222.85796545106 134.84342857143002 L 223.50959692898 133.41714285714 L 224.16122840691 127.35542857143002 L 224.81285988484 133.35771428571002 L 225.46449136276 133.71428571428999 L 226.11612284069 135.31885714286 L 226.76775431862 144.17371428571 L 227.41938579655 152.19657142857 L 228.07101727447 152.25599999999997 L 228.7226487524 166.99428571429 L 229.37428023033 161.94285714286 L 230.02591170825 150.88914285713997 L 230.67754318618 146.49142857143 L 231.32917466411 140.608 L 231.98080614203 135.25942857143002 L 232.63243761996 134.60571428571 L 233.28406909789 139.06285714286003 L 233.93570057582 132.704 L 234.58733205374 132.704 L 235.23896353167 129.85142857143 L 235.8905950096 126.28571428571001 L 236.54222648752 127.53371428571 L 237.19385796545 133.35771428571002 L 237.84548944338 116.53942857143 L 238.49712092131 104.11885714286001 L 239.14875239923 106.25828571429003 L 239.80038387716 96.928 L 240.45201535509 110.83428571428999 L 241.10364683301 122.95771428570998 L 241.75527831094 109.70514285714 L 242.40690978887 102.63314285714 L 243.05854126679 105.48571428571 L 243.71017274472 111.72571428571001 L 244.36180422265 101.56342857143 L 245.01343570058 98.41371428571 L 245.6650671785 105.42628571428997 L 246.31669865643 94.55085714286002 L 246.96833013436 93.18400000000003 L 247.61996161228 93.06514285714002 L 248.27159309021 101.62285714286003 L 248.92322456814 99.95885714285998 L 249.57485604607 83.14057142857001 L 250.22648752399 90.80685714286 L 250.87811900192 95.62057142856997 L 251.52975047985 97.99771428571 L 252.18138195777 114.39999999999998 L 252.8330134357 106.73371428571 L 253.48464491363 99.60228571429002 L 254.13627639155 95.14514285714 L 254.78790786948 95.68 L 255.43953934741 91.46057142857 L 256.09117082534 95.44228571429 L 256.74280230326 91.51999999999998 L 257.39443378119 91.57942857143001 L 258.04606525912 91.51999999999998 L 258.69769673704 95.14514285714 L 259.34932821497 99.89942857143001 L 260.0009596929 100.19657142857 L 260.65259117082 96.33371428571002 L 261.30422264875 99.18628571429002 L 261.95585412668 93.65942857143 L 262.60748560461 91.69828571429002 L 263.25911708253 91.04457142857001 L 263.91074856046 91.81714285714003 L 264.56238003839 104.11885714286001 L 265.21401151631 90.21257142857002 L 265.86564299424 113.33028571429003 L 266.51727447217 106.31771428571 L 267.1689059501 105.78285714286 L 267.82053742802 103.10857142856997 L 268.47216890595 99.18628571429002 L 269.12380038388 94.72914285714 L 269.7754318618 104 L 270.42706333973 91.81714285714003 L 271.07869481766 81.89257142857002 L 271.73032629559 70.89828571429001 L 272.38195777351 65.13371428571003 L 273.03358925144 65.13371428571003 L 273.68522072937 66.976 L 274.33685220729 67.92685714286 L 274.98848368522 73.69142857142998 L 275.64011516315 70.83885714285998 L 276.29174664108 60.43885714286 L 276.943378119 54.02057142857001 L 277.59500959693 62.22171428570999 L 278.24664107486 68.04571428571 L 278.89827255278 69.76914285714003 L 279.54990403071 66.38171428571002 L 280.20153550864 62.10285714285999 L 280.85316698656 65.13371428571003 L 281.50479846449 61.98399999999998 L 282.15642994242 67.392 L 282.80806142035 68.81828571429003 L 283.45969289827 56.99200000000002 L 284.1113243762 65.66857142856998 L 284.76295585413 55.803428571430004 L 285.41458733205 57.229714285709974 L 286.06621880998 63.94514285714001 L 286.71785028791 63.11314285714002 L 287.36948176584 66.32228571428999 L 288.02111324376 71.37371428570998 L 288.67274472169 71.31428571429001 L 289.32437619962 77.49485714285998 L 289.97600767754 75.94971428571 L 290.62763915547 85.63657142857 L 291.2792706334 97.81942857143002 L 291.93090211132 107.09028571429002 L 292.58253358925 100.37485714285998 L 293.23416506718 98.05714285713998 L 293.88579654511 100.13714285714002 L 294.53742802303 100.37485714285998 L 295.18905950096 99.30514285714003 L 295.84069097889 101.62285714286003 L 296.49232245681 101.14742857143 L 297.14395393474 99.36457142857 L 297.79558541267 98.05714285713998 L 298.44721689059 97.99771428571 L 299.09884836852 107.38742857143001 L 299.75047984645 105.48571428571 L 300.40211132438 110.47771428571002 L 301.0537428023 100.55314285714002 L 301.70537428023 99.72114285714002 L 302.35700575816 102.81142857142999 L 303.00863723608 105.06971428571 L 303.66026871401 107.50628571429002 L 304.31190019194 118.79771428571001 L 304.96353166987 131.99085714286002 L 305.61516314779 127.05828571428998 L 306.26679462572 120.46171428571 L 306.91842610365 116.00457142856999 L 307.57005758157 118.20342857142998 L 308.2216890595 106.91199999999998 L 308.87332053743 107.26857142857 L 309.52495201535 107.74400000000003 L 310.17658349328 103.40571428571002 L 310.82821497121 106.02057142857001 L 311.47984644914 111.60685714286001 L 312.13147792706 105.60457142857001 L 312.78310940499 112.97371428571 L 313.43474088292 112.91428571428997 L 314.08637236084 106.97142857143001 L 314.73800383877 108.04114285714002 L 315.3896353167 100.31542857143 L 316.04126679463 93.65942857143 L 316.69289827255 95.02628571429 L 317.34452975048 96.928 L 317.99616122841 99.12685714285999 L 318.64779270633 105.12914285713998 L 319.29942418426 107.68457142857 L 319.95105566219 115.58857142856999 L 320.60268714012 113.56799999999998 L 321.25431861804 106.61485714285999 L 321.90595009597 99.48342857143001 L 322.5575815739 95.85828571428999 L 323.20921305182 97.16571428571001 L 323.86084452975 86.88457142856998 L 324.51247600768 95.20457142856998 L 325.16410748561 101.62285714286003 L 325.81573896353 103.76228571428999 L 326.46737044146 103.28685714286001 L 327.11900191939 106.25828571429003 L 327.77063339731 107.74400000000003 L 328.42226487524 114.75657142857 L 329.07389635317 117.19314285714 L 329.72552783109 116.42057142856999 L 330.37715930902 114.57828571429002 L 331.02879078695 120.93714285713997 L 331.68042226488 117.66857142856998 L 332.3320537428 122.00685714285999 L 332.98368522073 132.22857142856998 L 333.63531669866 141.55885714286 L 334.28694817658 145.42171428570998 L 334.93857965451 140.84571428571002 L 335.59021113244 134.13028571428998 L 336.24184261036 137.81485714285998 L 336.89347408829 120.69942857143002 L 337.54510556622 122.06628571429002 L 338.19673704415 125.86971428571002 L 338.84836852207 133.35771428571002 L 339.5 127.29599999999999 L 340.15163147793 129.31657142857 L 340.80326295585 124.20571428570997 L 341.45489443378 135.73485714286 L 342.10652591171 127.71199999999999 L 342.75815738964 126.52342857142997 L 343.40978886756 129.37599999999998 L 344.06142034549 132.288 L 344.71305182342 137.22057142857 L 345.36468330134 126.34514285713999 L 346.01631477927 125.03771428571002 L 346.6679462572 125.09714285714 L 347.31957773512 123.67085714285997 L 347.97120921305 119.51085714286 L 348.62284069098 123.25485714285998 L 349.27447216891 128.36571428571 L 349.92610364683 126.52342857142997 L 350.57773512476 126.52342857142997 L 351.22936660269 142.62857142857 L 351.88099808061 139.24114285714 L 352.53262955854 142.80685714286 L 353.18426103647 134.07085714286 L 353.83589251439 127.94971428571 L 354.48752399232 124.50285714286002 L 355.13915547025 135.67542857143002 L 355.79078694818 128.90057142857 L 356.4424184261 127.35542857143002 L 357.09404990403 126.048 L 357.74568138196 126.22628571428999 L 358.39731285988 120.75885714286 L 359.04894433781 118.50057142857003 L 359.70057581574 119.33257142857002 L 360.35220729367 125.632 L 361.00383877159 128.72228571429002 L 361.65547024952 130.86171428570998 L 362.30710172745 134.66514285713998 L 362.95873320537 126.048 L 363.6103646833 123.73028571429 L 364.26199616123 126.99885714286 L 364.91362763916 133.12 L 365.56525911708 137.51771428570999 L 366.21689059501 148.98742857142997 L 366.86852207294 161.88342857143 L 367.52015355086 159.38742857143 L 368.17178502879 160.04114285714 L 368.82341650672 155.22742857142998 L 369.47504798465 149.40342857143003 L 370.12667946257 149.10628571428998 L 370.7783109405 152.19657142857 L 371.42994241843 150.47314285713998 L 372.08157389635 158.55542857143 L 372.73320537428 155.22742857142998 L 373.38483685221 154.27657142856998 L 374.03646833013 150.94857142857 L 374.68809980806 153.92000000000002 L 375.33973128599 157.42628571428997 L 375.99136276392 153.32571428570998 L 376.64299424184 153.14742857143 L 377.29462571977 147.73942857142998 L 377.9462571977 143.40114285713997 L 378.59788867562 138.88457142856998 L 379.24952015355 136.32914285714003 L 379.90115163148 137.99314285714001 L 380.55278310941 138.34971428570998 L 381.20441458733 137.45828571429 L 381.85604606526 128.30628571429003 L 382.50767754319 128.66285714286 L 383.15930902111 129.31657142857 L 383.81094049904 124.20571428570997 L 384.46257197697 128.36571428571 L 385.11420345489 123.73028571429 L 385.76583493282 123.25485714285998 L 386.41746641075 119.21371428571001 L 387.06909788868 114.45942857143001 L 387.7207293666 117.66857142856998 L 388.37236084453 119.80799999999999 L 389.02399232246 131.872 L 389.67562380038 138.34971428570998 L 390.32725527831 138.94400000000002 L 390.97888675624 135.61599999999999 L 391.63051823416 135.37828571428997 L 392.28214971209 117.78742857142998 L 392.93378119002 118.61942857142998 L 393.58541266795 120.46171428571 L 394.23704414587 108.10057142856999 L 394.8886756238 108.99200000000002 L 395.54030710173 111.66628571428998 L 396.19193857965 115.29142857143 L 396.84357005758 119.392 L 397.49520153551 112.37942857143003 L 398.14683301344 107.03085714285999 L 398.79846449136 113.21142857143002 L 399.45009596929 112.37942857143003 L 400.10172744722 113.92457142857 L 400.75335892514 107.80342857143 L 401.40499040307 106.49599999999998 L 402.056621881 111.904 L 402.70825335892 115.35085714285998 L 403.35988483685 117.07428571429 L 404.01151631478 119.03542857142997 L 404.66314779271 126.464 L 405.31477927063 120.93714285713997 L 405.96641074856 125.03771428571002 L 406.61804222649 135.91314285713997 L 407.26967370441 123.61142857143 L 407.92130518234 120.81828571429003 L 408.57293666027 125.66171428570999 L 409.2245681382 130.62400000000002 L 409.87619961612 131.57485714286003 L 410.52783109405 120.10514285713998 L 411.17946257198 116.45028571428998 L 411.8310940499 113.33028571429003 L 412.48272552783 117.01485714286002 L 413.13435700576 125.80969142856998 L 413.78598848369 121.50171428571002 L 414.43761996161 102.69257142856998 L 415.08925143954 104.68342857143 L 415.74088291747 99.00799999999998 L 416.39251439539 98.14628571429 L 417.04414587332 99.15657142856998 L 417.69577735125 94.61028571429 L 418.34740882918 91.81714285714003 L 418.9990403071 94.78857142856998 L 419.65067178503 93.89714285714001 L 420.30230326296 93.51085714286 L 420.95393474088 96.15542857142998 L 421.60556621881 94.22399999999999 L 422.25719769674 95.50171428571002 L 422.90882917466 97.84914285714001 L 423.56046065259 108.90285714286 L 424.21209213052 111.84457142857002 L 424.86372360845 109.58628571429 L 425.51535508637 107.38742857143001 L 426.1669865643 99.12685714285999 L 426.81861804223 94.04571428571 L 427.47024952015 86.05257142856999 L 428.12188099808 84.38857142857 L 428.77351247601 77.49485714285998 L 429.42514395393 74.19657142857 L 430.07677543186 63.202285714289985 L 430.72840690979 68.95259428571 L 431.38003838772 71.07657142856999 L 432.03166986564 74.31542857143 L 432.68330134357 75.62285714286003 L 433.3349328215 72.77028571429003 L 433.98656429942 81.00114285714 L 434.63819577735 77.168 L 435.28982725528 70.24457142857 L 435.94145873321 55.684571428569996 L 436.59309021113 68.66971428570997 L 437.24472168906 71.87885714286 L 437.89635316699 78.98057142856999 L 438.54798464491 84.74514285714002 L 439.19961612284 78.17828571428998 L 439.85124760077 77.34628571428999 L 440.50287907869 74.58285714286001 L 441.15451055662 71.75999999999999 L 441.80614203455 60.17142857143 L 442.45777351248 66.21828571429 L 443.1094049904 66.44114285714 L 443.76103646833 70.69028571428998 L 444.41266794626 74.49371428570998 L 445.06429942418 77.13828571429002 L 445.71593090211 75.56342857143 L 446.36756238004 72.26514285714 L 447.01919385797 65.01485714286002 L 447.67082533589 71.43314285714001 L 448.32245681382 67.83771428570998 L 448.97408829175 70.72000000000003 L 449.62571976967 77.07885714285999 L 450.2773512476 76.84114285714003 L 450.92898272553 75.05828571428998 L 451.58061420345 75.83085714286 L 452.23224568138 84.03199999999998 L 452.88387715931 107.74400000000003 L 453.53550863724 126.96914285714001 L 454.18714011516 127.56342857143 L 454.83877159309 134.60571428571 L 455.49040307102 146.07542857143 L 456.14203454894 149.93828571428998 L 456.79366602687 148.86857142857002 L 457.4452975048 164.37942857143 L 458.09692898273 171.98628571429 L 458.74856046065 159.62514285714002 L 459.40019193858 165.09257142857 L 460.05182341651 163.25028571429 L 460.70345489443 166.51885714286 L 461.35508637236 168.71771428571 L 462.00671785029 168.24228571429 L 462.65834932821 173.94742857143 L 463.30998080614 171.27314285714 L 463.96161228407 164.736 L 464.613243762 170.08457142857 L 465.26487523992 172.28342857143 L 465.91650671785 175.78971428571 L 466.56813819578 180.24685714286 L 467.21976967371 184.82285714286 L 467.87140115163 180.96 L 468.52303262956 175.49257142857 L 469.17466410749 164.112 L 469.82629558541 163.072 L 470.47792706334 170.41142857143 L 471.12955854127 173.472 L 471.78119001919 168.74742857143 L 472.43282149712 170.53028571429 L 473.08445297505 164.26057142857 L 473.73608445298 164.34971428571 L 474.3877159309 159.06057142856997 L 475.03934740883 164.02285714286 L 475.69097888676 168.688 L 476.34261036468 169.43085714286 L 476.99424184261 172.58057142857 L 477.64587332054 169.60914285714 L 478.29750479846 165.36 L 478.94913627639 162.15085714286 L 479.60076775432 154.66285714286 L 480.25239923225 147.35314285714003 L 480.90403071017 143.46057142857 L 481.5556621881 146.75885714286 L 482.20729366603 141.91542857143003 L 482.85892514395 145.83771428570998 L 483.51055662188 142.86628571428997 L 484.16218809981 145.60000000000002 L 484.81381957774 152.55314285714002 L 485.46545105566 144.70857142857 L 486.11708253359 153.32571428570998 L 486.76871401152 144.32228571429 L 487.42034548944 151.78057142857 L 488.07197696737 157.06971428571 L 488.7236084453 170.08457142857 L 489.37523992322 172.34285714286 L 490.02687140115 178.52342857143 L 490.67850287908 182.38628571429 L 491.33013435701 186.66514285714 L 491.98176583493 184.40685714286 L 492.63339731286 181.85142857143 L 493.28502879079 175.25485714286 L 493.93666026871 172.75885714286 L 494.58829174664 190.944 L 495.23992322457 195.69828571429 L 495.89155470249 196.64914285714 L 496.54318618042 199.56114285714 L 497.19481765835 197.65942857143 L 497.84644913628 201.52228571429 L 498.4980806142 208.11885714286 L 499.14971209213 209.36685714286 L 499.80134357006 214.53714285714 L 500.45297504798 217.568 L 501.10460652591 215.19085714286 L 501.75623800384 207.70285714286 L 502.40786948177 212.992 L 503.05950095969 214.35885714286 L 503.71113243762 206.336 L 504.36276391555 198.37257142857 L 505.01439539347 201.70057142857 L 505.6660268714 204.90971428571 L 506.31765834933 211.50628571429 L 506.96928982726 208.71314285714 L 507.62092130518 214.24 L 508.27255278311 215.072 L 508.92418426104 202.53257142857 L 509.57581573896 207.28685714286 L 510.22744721689 206.45485714286 L 510.87907869482 199.79885714286 L 511.53071017274 207.22742857143 L 512.18234165067 208.416 L 512.8339731286 196.88685714286 L 513.48560460653 195.87657142857 L 514.13723608445 191.12228571429 L 514.78886756238 190.32 L 515.44049904031 192.42971428571 L 516.09213051823 193.26171428571 L 516.74376199616 197.65942857143 L 517.39539347409 196.53028571429 L 518.04702495202 196.53028571429 L 518.69865642994 199.14514285714 L 519.35028790787 184.05028571429 L 520.0019193858 181.25714285714 L 520.65355086372 180.36571428571 L 521.30518234165 192.07314285714 L 521.95681381958 178.52342857143 L 522.60844529751 159.62514285714002 L 523.26007677543 166.69714285714 L 523.91170825336 168.77714285714 L 524.56333973129 175.25485714286 L 525.21497120921 177.51314285714 L 525.86660268714 177.86971428571 L 526.51823416507 177.09714285714 L 527.16986564299 168.53942857143 L 527.82149712092 169.01485714286 L 528.47312859885 169.01485714286 L 529.12476007678 176.8 L 529.7763915547 174.33371428571 L 530.42802303263 172.99657142857 L 531.07965451056 171.83771428571 L 531.73128598848 168.95542857143 L 532.38291746641 170.352 L 533.03454894434 172.016 L 533.68618042226 174.12571428571 L 534.33781190019 175.16571428571 L 534.98944337812 177.39428571429 L 535.64107485605 171.98628571429 L 536.29270633397 169.312 L 536.9443378119 170.352 L 537.59596928983 181.34034285714 L 538.24760076775 179.05828571429 L 538.89923224568 182.35657142857 L 539.55086372361 180.45485714286 L 540.20249520154 174.39314285714 L 540.85412667946 177.632 L 541.50575815739 173.08571428571 L 542.15738963532 171.392 L 542.80902111324 178.34514285714 L 543.46065259117 174.42285714286 L 544.1122840691 175.968 L 544.76391554702 172.10514285714 L 545.41554702495 164.43885714286 L 546.06717850288 160.992 L 546.71880998081 148.45257142857002 L 547.37044145873 146.90742857143 L 548.02207293666 139.83542857143 L 548.67370441459 133.23885714286 L 549.32533589251 127.65257142857001 L 549.97696737044 126.70171428571001 L 550.62859884837 134.30857142857002 L 551.28023032629 137.63657142857 L 551.93186180422 139.06285714286003 L 552.58349328215 134.07085714286 L 553.23512476008 130.50514285714002 L 553.886756238 129.55428571429002 L 554.53838771593 131.39657142856998 L 555.19001919386 130.02971428570999 L 555.84165067178 124.97828571429 L 556.49328214971 131.04000000000002 L 557.14491362764 122.72000000000003 L 557.79654510557 117.54971428571002 L 558.44817658349 119.15428571428998 L 559.09980806142 118.85714285713999 L 559.75143953935 118.32228571428999 L 560.40307101727 115.82628571429001 L 561.0547024952 119.98628571428998 L 561.70633397313 124.32457142856998 L 562.35796545106 119.92685714286 L 563.00959692898 116.95542857142999 L 563.66122840691 120.28342857143002 L 564.31285988484 120.28342857143002 L 564.96449136276 126.70171428571001 L 565.61612284069 129.97028571429001 L 566.26775431862 137.63657142857 L 566.91938579655 136.62628571429002 L 567.57101727447 135.55657142857 L 568.2226487524 131.99085714286002 L 568.87428023033 136.74514285714002 L 569.52591170825 135.49714285713998 L 570.17754318618 130.62400000000002 L 570.82917466411 128.128 L 571.48080614203 128.84114285714003 L 572.13243761996 136.03199999999998 L 572.78406909789 143.81714285714003 L 573.43570057582 141.08342857142998 L 574.08733205374 147.97714285714 L 574.73896353167 155.22742857142998 L 575.3905950096 164.02285714286 L 576.04222648752 164.67657142857 L 576.69385796545 175.43314285714 L 577.34548944338 172.87771428571 L 577.99712092131 178.16685714286 L 578.64875239923 170.79771428571 L 579.30038387716 166.04342857143 L 579.95201535509 170.08457142857 L 580.60364683301 168.48 L 581.25527831094 167.70742857143 L 581.90690978887 166.4 L 582.55854126679 160.992 L 583.21017274472 156.89142857143003 L 583.86180422265 154.51428571429 L 584.51343570058 149.64114285713998 L 585.1650671785 146.61028571429 L 585.81669865643 152.96914285714 L 586.46833013436 150.71085714286 L 587.11996161228 150.59199999999998 L 587.77159309021 143.75771428571 L 588.42322456814 141.49942857142997 L 589.07485604607 137.33942857143 L 589.72648752399 137.16114285714002 L 590.37811900192 139.65714285714 L 591.02975047985 137.27999999999997 L 591.68138195777 137.99314285714001 L 592.3330134357 140.01371428571002 L 592.98464491363 144.41142857143 L 593.63627639155 149.344 L 594.28790786948 146.25371428570998 L 594.93953934741 163.42857142857 L 595.59117082534 162.95314285714 L 596.24280230326 157.48571428571 L 596.89443378119 152.13714285714002 L 597.54606525912 153.86057142856998 L 598.19769673704 155.82171428571002 L 598.84932821497 160.45714285714 L 599.5009596929 158.31771428571 L 600.15259117082 152.07771428571 L 600.80422264875 153.62285714286003 L 601.45585412668 156.47542857142997 L 602.10748560461 157.78285714286 L 602.75911708253 164.37942857143 L 603.41074856046 164.55771428571 L 604.06238003839 164.85485714286 L 604.71401151631 171.98628571429 L 605.36564299424 169.49028571429 L 606.01727447217 167.17257142857 L 606.6689059501 166.69714285714 L 607.32053742802 167.76685714286 L 607.97216890595 166.63771428571 L 608.62380038388 170.44114285714 L 609.2754318618 176.08685714286 L 609.92706333973 176.26514285714 L 610.57869481766 181.25714285714 L 611.23032629559 185.536 L 611.88195777351 184.22857142857 L 612.53358925144 168.71771428571 L 613.18522072937 169.37142857143 L 613.83685220729 162.89371428571 L 614.48848368522 155.28685714286001 L 615.14011516315 161.76457142857 L 615.79174664108 167.94514285714 L 616.443378119 167.58857142857 L 617.09500959693 159.62514285714002 L 617.74664107486 161.58628571429 L 618.39827255278 157.60457142857 L 619.04990403071 159.50628571429002 L 619.70153550864 166.87542857143 L 620.35316698656 167.11314285714 L 621.00479846449 170.02514285714 L 621.65642994242 170.20342857143 L 622.30806142035 166.69714285714 L 622.95969289827 163.01257142857 L 623.6113243762 160.69485714286 L 624.26295585413 159.03085714286 L 624.91458733205 158.91199999999998 L 625.56621880998 155.82171428571002 L 626.21785028791 161.408 L 626.86948176584 161.824 L 627.52111324376 159.86285714285998 L 628.17274472169 158.85257142857 L 628.82437619962 157.96114285713998 L 629.47600767754 153.86057142856998 L 630.12763915547 153.26628571429 L 630.7792706334 160.93257142857 L 631.43090211132 163.84457142857 L 632.08253358925 160.576 L 632.73416506718 161.52685714286 L 633.38579654511 160.16 L 634.03742802303 160.16 L 634.68905950096 163.13142857143 L 635.34069097889 157.60457142857 L 635.99232245681 156.29714285714 L 636.64395393474 148.928 L 637.29558541267 145.83771428570998 L 637.94721689059 139.83542857143 L 638.59884836852 143.93599999999998 L 639.25047984645 150.35428571428997 L 639.90211132438 149.16571428571 L 640.5537428023 151.48342857143 L 641.20537428023 145.48114285714001 L 641.85700575816 148.512 L 642.50863723608 145.36228571429 L 643.16026871401 142.74742857143002 L 643.81190019194 145.89714285714 L 644.46353166987 146.31314285714 L 645.11516314779 157.30742857143002 L 645.76679462572 158.55542857143 L 646.41842610365 155.34628571429 L 647.07005758157 154.39542857143 L 647.7216890595 153.50400000000002 L 648.37332053743 155.76228571429 L 649.02495201535 158.07999999999998 L 649.67658349328 157.248 L 650.32821497121 154.63314285714 L 650.97984644914 150.94857142857 L 651.63147792706 147.14514285714 L 652.28310940499 150.05714285713998 L 652.93474088292 151.18628571429002 L 653.58637236084 146.848 L 654.23800383877 153.38514285714 L 654.8896353167 149.22514285713999 L 655.54126679463 153.92000000000002 L 656.19289827255 156.23771428571 L 656.84452975048 156.47542857142997 L 657.49616122841 156.71314285713999 L 658.14779270633 161.52685714286 L 658.79942418426 154.27657142856998 L 659.45105566219 155.46514285714 L 660.10268714012 158.19885714286 L 660.75431861804 161.05142857143 L 661.40595009597 163.66628571429 L 662.0575815739 172.34285714286 L 662.70921305182 176.8 L 663.36084452975 171.808 L 664.01247600768 175.43314285714 L 664.66410748561 172.34285714286 L 665.31573896353 172.75885714286 L 665.96737044146 169.01485714286 L 666.61900191939 170.56 L 667.27063339731 172.224 L 667.92226487524 171.68914285714 L 668.57389635317 179.11771428571 L 669.22552783109 176.62171428571 L 669.87715930902 173.472 L 670.52879078695 170.50057142857 L 671.18042226488 172.99657142857 L 671.8320537428 176.8 L 672.48368522073 179.89028571429 L 673.13531669866 177.15657142857 L 673.78694817658 173.94742857143 L 674.43857965451 177.81028571429 L 675.09021113244 181.55428571429 L 675.74184261036 183.78285714286" class="highcharts-graph" data-z-index="1" stroke="#2962FF" stroke-width="2" stroke-linejoin="round" stroke-linecap="round"></path></g><g class="highcharts-markers highcharts-series-0 highcharts-line-series" data-z-index="90" opacity="1" transform="translate(8,40) scale(1 1)" clip-path="none"></g></g><text x="740" text-anchor="end" class="highcharts-title" data-z-index="4" style="color: rgb(211, 211, 211); font-size: 15px; fill: rgb(211, 211, 211);" y="512"></text><text x="14" text-anchor="start" class="highcharts-subtitle" data-z-index="4" style="color: rgb(51, 51, 51); fill: rgb(51, 51, 51); font-size: 15px;" y="25"><tspan style="color: rgb(211, 211, 211); fill: rgb(211, 211, 211);">Dow Inc</tspan></text><text x="0" text-anchor="start" class="highcharts-caption" data-z-index="4" style="color: rgb(102, 102, 102); fill: rgb(102, 102, 102);" y="527"></text><g class="highcharts-axis-labels highcharts-xaxis-labels" data-z-index="7"><text x="65.669385796545" text-anchor="middle" transform="translate(0,0)" style="color: rgb(227, 225, 225); cursor: default; font-size: 15px; font-weight: 400; fill: rgb(227, 225, 225);" y="476" opacity="1">Jan</text><text x="147.44913627639" text-anchor="middle" transform="translate(0,0)" style="color: rgb(227, 225, 225); cursor: default; font-size: 15px; font-weight: 400; fill: rgb(227, 225, 225);" y="476" opacity="1">Jul</text><text x="224.50455854127" text-anchor="middle" transform="translate(0,0)" style="color: rgb(227, 225, 225); cursor: default; font-size: 15px; font-weight: 400; fill: rgb(227, 225, 225);" y="476" opacity="1">2021</text><text x="305.79558541267" text-anchor="middle" transform="translate(0,0)" style="color: rgb(227, 225, 225); cursor: default; font-size: 15px; font-weight: 400; fill: rgb(227, 225, 225);" y="476" opacity="1">Jul</text><text x="388.76999360205" text-anchor="middle" transform="translate(0,0)" style="color: rgb(227, 225, 225); cursor: default; font-size: 15px; font-weight: 400; fill: rgb(227, 225, 225);" y="476" opacity="1">2022</text><text x="470.00671785029" text-anchor="middle" transform="translate(0,0)" style="color: rgb(227, 225, 225); cursor: default; font-size: 15px; font-weight: 400; fill: rgb(227, 225, 225);" y="476" opacity="1">Jul</text><text x="552.43809980806" text-anchor="middle" transform="translate(0,0)" style="color: rgb(227, 225, 225); cursor: default; font-size: 15px; font-weight: 400; fill: rgb(227, 225, 225);" y="476" opacity="1">2023</text><text x="633.1317978247" text-anchor="middle" transform="translate(0,0)" style="color: rgb(227, 225, 225); cursor: default; font-size: 15px; font-weight: 400; fill: rgb(227, 225, 225);" y="476" opacity="1">Jul</text></g><g class="highcharts-axis-labels highcharts-yaxis-labels" data-z-index="7"><text x="0" text-anchor="start" transform="translate(0,0)" style="color: rgb(227, 225, 225); cursor: default; font-size: 15px; fill: rgb(227, 225, 225);" visibility="hidden">10</text><text x="695" text-anchor="start" transform="translate(0,0)" style="color: rgb(227, 225, 225); cursor: default; font-size: 15px; fill: rgb(227, 225, 225);" y="401" opacity="1">20</text><text x="695" text-anchor="start" transform="translate(0,0)" style="color: rgb(227, 225, 225); cursor: default; font-size: 15px; fill: rgb(227, 225, 225);" y="342" opacity="1">30</text><text x="695" text-anchor="start" transform="translate(0,0)" style="color: rgb(227, 225, 225); cursor: default; font-size: 15px; fill: rgb(227, 225, 225);" y="282" opacity="1">40</text><text x="695" text-anchor="start" transform="translate(0,0)" style="color: rgb(227, 225, 225); cursor: default; font-size: 15px; fill: rgb(227, 225, 225);" y="223" opacity="1">50</text><text x="695" text-anchor="start" transform="translate(0,0)" style="color: rgb(227, 225, 225); cursor: default; font-size: 15px; fill: rgb(227, 225, 225);" y="163" opacity="1">60</text><text x="695" text-anchor="start" transform="translate(0,0)" style="color: rgb(227, 225, 225); cursor: default; font-size: 15px; fill: rgb(227, 225, 225);" y="104" opacity="1">70</text><text x="0" text-anchor="start" transform="translate(0,0)" style="color: rgb(227, 225, 225); cursor: default; font-size: 15px; fill: rgb(227, 225, 225);" visibility="hidden">80</text></g><g class="highcharts-axis-labels highcharts-yaxis-labels" data-z-index="7"></g><g class="highcharts-axis-labels highcharts-yaxis-labels" data-z-index="7"></g><g class="highcharts-control-points" data-z-index="99" clip-path="url(#highcharts-k2t418u-5696-)"></g><g class="highcharts-axis highcharts-yaxis" data-z-index="9999"><path fill="none" class="highcharts-tick" stroke="#333333" stroke-width="1" d="M 688 456.5 L 693 456.5" opacity="1"></path><path fill="none" class="highcharts-tick" stroke="#333333" stroke-width="1" d="M 688 397.5 L 693 397.5" opacity="1"></path><path fill="none" class="highcharts-tick" stroke="#333333" stroke-width="1" d="M 688 337.5 L 693 337.5" opacity="1"></path><path fill="none" class="highcharts-tick" stroke="#333333" stroke-width="1" d="M 688 278.5 L 693 278.5" opacity="1"></path><path fill="none" class="highcharts-tick" stroke="#333333" stroke-width="1" d="M 688 218.5 L 693 218.5" opacity="1"></path><path fill="none" class="highcharts-tick" stroke="#333333" stroke-width="1" d="M 688 159.5 L 693 159.5" opacity="1"></path><path fill="none" class="highcharts-tick" stroke="#333333" stroke-width="1" d="M 688 99.5 L 693 99.5" opacity="1"></path><path fill="none" class="highcharts-tick" stroke="#333333" stroke-width="1" d="M 688 39.5 L 693 39.5" opacity="1"></path><path fill="none" class="highcharts-axis-line" stroke="#616161" stroke-width="1" data-z-index="7" d="M 688.5 40 L 688.5 456"></path></g><path fill="none" d="M 8 0 L 1800 0" stroke="#757575" stroke-width="1" stroke-dasharray="8,3" data-z-index="6" visibility="hidden" class="crosshair-fix-horizontal"></path><path fill="none" d="M 0 40 L 0 1160" stroke="#757575" stroke-width="1" stroke-dasharray="8,3" data-z-index="6" visibility="hidden" class="crosshair-fix-vertical"></path></svg>