<svg viewBox="0 0 750 520" height="520" width="750" xmlns="http://www.w3.org/2000/svg" style="font-family: &quot;Helvetica Neue&quot;, Helvetica, Arial, sans-serif; font-size: 12px;" class="highcharts-root" version="1.1" xmlns:xlink="http://www.w3.org/1999/xlink"><desc>Created with Highcharts 10.1.0</desc><defs><linearGradient id="highcharts-u3w13ix-2990" gradientUnits="userSpaceOnUse" y2="500" x2="500" y1="0" x1="0"><stop stop-opacity="1" stop-color="rgb(35, 35, 35)" offset="0"></stop></linearGradient><clipPath id="highcharts-u3w13ix-2991-"><rect fill="none" height="416" width="679" y="0" x="0"></rect></clipPath><clipPath id="highcharts-u3w13ix-4227-"><rect fill="none" height="416" width="679" y="0" x="0"></rect></clipPath><clipPath id="highcharts-u3w13ix-5468-"><rect fill="none" height="416" width="679" y="40" x="8"></rect></clipPath></defs><rect ry="0" rx="0" height="520" width="750" y="0" x="0" class="highcharts-background" fill="url(#highcharts-u3w13ix-2990)"></rect><rect height="416" width="679" y="40" x="8" class="highcharts-plot-background" fill="none"></rect><g data-z-index="1" class="highcharts-grid highcharts-xaxis-grid"><path opacity="1" d="M 189.5 40 L 189.5 456" class="highcharts-grid-line" data-z-index="1" stroke-dasharray="none" stroke-width="1" stroke="#333333" fill="none"></path><path opacity="1" d="M 327.5 40 L 327.5 456" class="highcharts-grid-line" data-z-index="1" stroke-dasharray="none" stroke-width="1" stroke="#333333" fill="none"></path><path opacity="1" d="M 465.5 40 L 465.5 456" class="highcharts-grid-line" data-z-index="1" stroke-dasharray="none" stroke-width="1" stroke="#333333" fill="none"></path><path opacity="1" d="M 602.5 40 L 602.5 456" class="highcharts-grid-line" data-z-index="1" stroke-dasharray="none" stroke-width="1" stroke="#333333" fill="none"></path></g><g data-z-index="1" class="highcharts-grid highcharts-yaxis-grid"><path opacity="1" d="M 8 456.5 L 687 456.5" class="highcharts-grid-line" data-z-index="1" stroke-dasharray="none" stroke-width="1" stroke="#333333" fill="none"></path><path opacity="1" d="M 8 397.5 L 687 397.5" class="highcharts-grid-line" data-z-index="1" stroke-dasharray="none" stroke-width="1" stroke="#333333" fill="none"></path><path opacity="1" d="M 8 337.5 L 687 337.5" class="highcharts-grid-line" data-z-index="1" stroke-dasharray="none" stroke-width="1" stroke="#333333" fill="none"></path><path opacity="1" d="M 8 278.5 L 687 278.5" class="highcharts-grid-line" data-z-index="1" stroke-dasharray="none" stroke-width="1" stroke="#333333" fill="none"></path><path opacity="1" d="M 8 218.5 L 687 218.5" class="highcharts-grid-line" data-z-index="1" stroke-dasharray="none" stroke-width="1" stroke="#333333" fill="none"></path><path opacity="1" d="M 8 159.5 L 687 159.5" class="highcharts-grid-line" data-z-index="1" stroke-dasharray="none" stroke-width="1" stroke="#333333" fill="none"></path><path opacity="1" d="M 8 99.5 L 687 99.5" class="highcharts-grid-line" data-z-index="1" stroke-dasharray="none" stroke-width="1" stroke="#333333" fill="none"></path><path opacity="1" d="M 8 39.5 L 687 39.5" class="highcharts-grid-line" data-z-index="1" stroke-dasharray="none" stroke-width="1" stroke="#333333" fill="none"></path></g><g data-z-index="1" class="highcharts-grid highcharts-yaxis-grid"></g><g data-z-index="1" class="highcharts-grid highcharts-yaxis-grid"></g><rect height="416" width="679" y="40" x="8" data-z-index="1" class="highcharts-plot-border" fill="none"></rect><g data-z-index="2" class="highcharts-axis highcharts-xaxis"><path d="M 8 456.5 L 687 456.5" data-z-index="7" stroke-width="1" stroke="#616161" class="highcharts-axis-line" fill="none"></path></g><g data-z-index="2" class="highcharts-axis highcharts-yaxis"><path d="M 712 40 L 712 456" data-z-index="7" class="highcharts-axis-line" fill="none"></path></g><g data-z-index="2" class="highcharts-axis highcharts-yaxis"><path d="M 6.5 40 L 6.5 456" data-z-index="7" class="highcharts-axis-line" fill="none"></path></g><g data-z-index="3" class="highcharts-series-group"><g clip-path="url(#highcharts-u3w13ix-4227-)" transform="translate(8,40) scale(1 1)" opacity="1" data-z-index="90" class="highcharts-series highcharts-series-0 highcharts-line-series"><path stroke-linecap="round" stroke-linejoin="round" stroke-width="2" stroke="#2962FF" data-z-index="1" class="highcharts-graph" d="M 0 232.84114285714 L 0.54802259886962 230.76114285714 L 1.0960451977403 222.73828571429 L 1.6440677966099 223.62971428571 L 2.1920903954806 222.08457142857 L 2.7401129943502 227.01714285714 L 3.2881355932198 222.61942857143 L 3.8361581920905 217.74628571429 L 4.3841807909601 218.45942857143 L 4.9322033898308 211.26857142857 L 5.4802259887004 200.15542857143 L 6.0282485875711 196.82742857143 L 6.5762711864407 196.29257142857 L 7.1242937853104 188.98285714286 L 7.672316384181 184.16914285714 L 8.2203389830507 190.17142857143 L 8.7683615819213 193.08342857143 L 9.316384180791 192.31085714286 L 9.8644067796606 188.92342857143 L 10.412429378531 190.70628571429 L 10.960451977401 198.49142857143 L 11.508474576272 192.07314285714 L 12.056497175141 194.74742857143 L 12.604519774011 195.69828571429 L 13.152542372881 192.25142857143 L 13.700564971751 202.23542857143 L 14.248587570622 208.416 L 14.796610169491 206.15771428571 L 15.344632768362 205.97942857143 L 15.892655367232 206.98971428571 L 16.440677966101 214.83428571429 L 16.988700564972 213.88342857143 L 17.536723163842 208.47542857143 L 18.084745762712 195.34171428571 L 18.632768361582 197.184 L 19.180790960452 194.92571428571 L 19.728813559322 195.40114285714 L 20.276836158192 191.30057142857 L 20.824858757063 190.40914285714 L 21.372881355932 195.40114285714 L 21.920903954802 197.184 L 22.468926553672 194.74742857143 L 23.016949152542 181.43542857143 L 23.564971751413 175.43314285714 L 24.112994350282 171.09485714286 L 24.661016949153 169.43085714286 L 25.209039548023 172.16457142857 L 25.757062146892 175.37371428571 L 26.305084745763 164.55771428571 L 26.853107344633 153.50400000000002 L 27.401129943503 153.32571428570998 L 27.949152542373 152.85028571429 L 28.497175141243 143.81714285714003 L 29.045197740113 142.688 L 29.593220338983 143.75771428571 L 30.141242937853 147.62057142856997 L 30.689265536723 156.53485714286 L 31.237288135593 154.81142857142999 L 31.785310734463 149.40342857143003 L 32.333333333333 152.61257142857 L 32.881355932204 158.13942857143002 L 33.429378531073 162.41828571429 L 33.977401129944 155.22742857142998 L 34.525423728814 153.32571428570998 L 35.073446327683 147.38285714286002 L 35.621468926554 146.37257142856998 L 36.169491525424 152.85028571429 L 36.717514124294 158.25828571429003 L 37.265536723164 159.50628571429002 L 37.813559322033 167.46971428571 L 38.361581920904 164.736 L 38.909604519774 166.4 L 39.457627118644 159.14971428571 L 40.005649717514 158.85257142857 L 40.553672316384 159.68457142857 L 41.101694915254 159.86285714285998 L 41.649717514124 151.83999999999997 L 42.197740112995 158.79314285714003 L 42.745762711864 153.50400000000002 L 43.293785310735 150.59199999999998 L 43.841807909605 153.02857142857 L 44.389830508474 151.42399999999998 L 44.937853107345 150.88914285713997 L 45.485875706215 148.98742857142997 L 46.033898305085 149.16571428571 L 46.581920903955 147.264 L 47.129943502824 149.58171428571 L 47.677966101695 152.49371428570998 L 48.225988700565 150.176 L 48.774011299435 156 L 49.322033898305 163.904 L 49.870056497175 165.152 L 50.418079096045 165.27085714286 L 50.966101694915 162.06171428571 L 51.514124293786 165.27085714286 L 52.062146892655 169.37142857143 L 52.610169491526 164.32 L 53.158192090396 164.97371428571 L 53.706214689265 164.79542857143 L 54.254237288136 163.54742857143 L 54.802259887005 158.43657142857 L 55.350282485876 162.83428571429 L 55.898305084746 173.11542857143 L 56.446327683615 176.8 L 56.994350282486 187.25942857143 L 57.542372881356 195.04457142857 L 58.090395480226 195.16342857143 L 58.638418079096 180.24685714286 L 59.186440677966 187.37828571429 L 59.734463276836 201.64114285714 L 60.282485875706 197.65942857143 L 60.830508474577 189.87428571429 L 61.378531073446 180.60342857143 L 61.926553672317 183.04 L 62.474576271187 189.99314285714 L 63.022598870056 189.04228571429 L 63.570621468927 185.47657142857 L 64.118644067796 181.97028571429 L 64.666666666667 188.38857142857 L 65.214689265537 186.42742857143 L 65.762711864406 191.71657142857 L 66.310734463277 192.78628571429 L 66.858757062147 185.65485714286 L 67.406779661017 188.38857142857 L 67.954802259887 200.63085714286 L 68.502824858757 214.24 L 69.050847457627 219.58857142857 L 69.598870056497 240.38857142857 L 70.146892655368 235.27771428571 L 70.694915254237 229.27542857143 L 71.242937853108 234.38628571429 L 71.790960451977 226.36342857143 L 72.338983050847 237.12 L 72.887005649718 243.83542857143 L 73.435028248587 293.99314285714 L 73.983050847458 288.82285714286 L 74.531073446328 309.08799999999997 L 75.079096045197 334.761142857143 L 75.627118644068 322.75657142857096 L 76.175141242938 344.68571428571397 L 76.723163841808 317.348571428571 L 77.271186440678 318.299428571429 L 77.819209039548 308.31542857143 L 78.367231638418 312.35657142857 L 78.915254237288 317.46742857142897 L 79.463276836159 306.23542857143 L 80.011299435028 294.88457142857 L 80.559322033899 299.04457142857 L 81.107344632768 305.70057142857 L 81.655367231638 305.16571428571 L 82.203389830509 301.65942857143 L 82.751412429378 314.73371428571 L 83.299435028249 308.85028571429 L 83.847457627119 309.20685714286003 L 84.395480225988 293.93371428571 L 84.943502824859 283.296 L 85.491525423729 268.67657142857 L 86.039548022599 258.15771428571 L 86.587570621469 266.06171428570997 L 87.135593220339 265.22971428571 L 87.683615819209 283.89028571429003 L 88.231638418079 287.456 L 88.779661016949 276.81828571429 L 89.327683615819 288.05028571429 L 89.87570621469 291.91314285714 L 90.423728813559 286.20799999999997 L 90.971751412429 281.92914285714 L 91.5197740113 278.60114285713996 L 92.067796610169 270.75657142857 L 92.61581920904 262.25828571428997 L 93.16384180791 252.74971428571 L 93.711864406779 257.38514285714 L 94.25988700565 273.78742857143004 L 94.80790960452 278.95771428571004 L 95.35593220339 277.11542857143 L 95.90395480226 285.49485714286004 L 96.451977401129 280.20571428571 L 97 271.41028571429 L 97.54802259887 273.96571428570996 L 98.09604519774 274.61942857143003 L 98.64406779661 283.17714285714 L 99.19209039548 276.28342857143 L 99.74011299435 275.98628571429003 L 100.28813559322 257.08799999999997 L 100.83615819209 263.62514285713996 L 101.38418079096 260.416 L 101.93220338983 262.55542857143 L 102.4802259887 260.77257142857 L 103.02824858757 244.90514285714 L 103.57627118644 238.784 L 104.12429378531 245.38057142857 L 104.67231638418 246.03428571429 L 105.22033898305 245.97485714286 L 105.76836158192 234.14857142857 L 106.31638418079 228.02742857143 L 106.86440677966 221.60914285714 L 107.41242937853 214.12114285714 L 107.9604519774 202.65142857143 L 108.50847457627 211.50628571429 L 109.05649717514 216.43885714286 L 109.60451977401 242.112 L 110.15254237288 230.40457142857 L 110.70056497175 225.94742857143 L 111.24858757062 224.34285714286 L 111.79661016949 230.76114285714 L 112.34463276836 228.32457142857 L 112.89265536723 227.90857142857 L 113.4406779661 227.37371428571 L 113.98870056497 229.69142857143 L 114.53672316384 246.92571428571 L 115.08474576271 237.83314285714 L 115.63276836158 238.90285714286 L 116.18079096045 231.89028571429 L 116.72881355932 233.19771428571 L 117.27683615819 233.25714285714 L 117.82485875706 228.26514285714 L 118.37288135593 223.15428571429 L 118.9209039548 227.67085714286 L 119.46892655367 235.63428571429 L 120.01694915254 241.04228571429 L 120.56497175141 233.19771428571 L 121.11299435028 230.34514285714 L 121.66101694915 223.21371428571 L 122.20903954802 217.92457142857 L 122.75706214689 214.95314285714 L 123.30508474576 215.904 L 123.85310734463 224.04571428571 L 124.4011299435 219.648 L 124.94915254237 211.92228571429 L 125.49717514124 220.95542857143 L 126.04519774011 222.20342857143 L 126.59322033898 213.94285714286 L 127.14124293785 222.144 L 127.68926553672 216.79542857143 L 128.23728813559 227.43314285714 L 128.78531073446 231.41485714286 L 129.33333333333 237.17942857143 L 129.8813559322 229.86971428571 L 130.42937853107 225.888 L 130.97740112994 225.53142857143 L 131.52542372881 222.08457142857 L 132.07344632768 209.18857142857 L 132.62146892655 210.97142857143 L 133.16949152542 212.27885714286 L 133.71751412429 211.38742857143 L 134.26553672316 208.77257142857 L 134.81355932203 211.20914285714 L 135.3615819209 209.72342857143 L 135.90960451977 210.13942857143 L 136.45762711864 215.78514285714 L 137.00564971751 216.37942857143 L 137.55367231638 201.58171428571 L 138.10169491525 204.31542857143 L 138.64971751412 200.06628571429 L 139.19774011299 200.90185142857 L 139.74576271186 201.344 L 140.29378531073 206.81142857143 L 140.8418079096 195.40114285714 L 141.38983050847 183.04 L 141.93785310735 187.97257142857 L 142.48587570621 186.48685714286 L 143.03389830508 190.37942857143 L 143.58192090395 182.74285714286 L 144.12994350282 186.21942857143 L 144.6779661017 179.23657142857 L 145.22598870056 177.55771428571 L 145.77401129943 171.51085714286 L 146.32203389831 179.65257142857 L 146.87005649717 172.46171428571 L 147.41807909605 176.11657142857 L 147.96610169492 190.76571428571 L 148.51412429379 191.50857142857 L 149.06214689266 197.65942857143 L 149.61016949153 199.85828571429 L 150.1581920904 201.70057142857 L 150.70621468927 179.1712 L 151.25423728814 186.96228571429 L 151.80225988701 190.88457142857 L 152.35028248588 185.536 L 152.89830508475 183.81257142857 L 153.44632768362 182.208 L 153.99435028249 185.328 L 154.54237288136 181.97028571429 L 155.09039548023 185.952 L 155.6384180791 185.47657142857 L 156.18644067797 187.46742857143 L 156.73446327684 195.22285714286 L 157.28248587571 198.66971428571 L 157.83050847458 206.93028571429 L 158.37853107345 200.57142857143 L 158.92655367232 205.088 L 159.47457627119 191.24114285714 L 160.02259887006 185.83314285714 L 160.57062146893 199.38285714286 L 161.1186440678 184.40685714286 L 161.66666666667 188.80457142857 L 162.21468926554 165.68685714286 L 162.76271186441 157.72342857143002 L 163.31073446328 165.152 L 163.85875706215 172.10514285714 L 164.40677966102 166.57828571429 L 164.95480225989 154.93028571429 L 165.50282485876 151.66171428571 L 166.05084745763 146.78857142856998 L 166.5988700565 146.55085714286002 L 167.14689265537 150.176 L 167.69491525424 142.98514285713998 L 168.24293785311 132.34742857143 L 168.79096045198 140.07314285714 L 169.33898305085 146.19428571429 L 169.88700564972 160.39771428571 L 170.43502824859 157.30742857143002 L 170.98305084746 159.26857142857 L 171.53107344633 156.89142857143003 L 172.0790960452 148.27428571429 L 172.62711864407 159.20914285714002 L 173.17514124294 151.24571428571 L 173.72316384181 150.59199999999998 L 174.27118644068 151.95885714285998 L 174.81920903955 154.51428571429 L 175.36723163842 160.10057142857 L 175.91525423729 153.74171428570997 L 176.46327683616 155.52457142857003 L 177.01129943503 155.52457142857003 L 177.5593220339 144.64914285714002 L 178.10734463277 148.096 L 178.65536723164 150.53257142857 L 179.20338983051 150.05714285713998 L 179.75141242938 149.81942857143002 L 180.29943502825 152.79085714285998 L 180.84745762712 152.55314285714002 L 181.39548022599 145.77828571429 L 181.94350282486 145.60000000000002 L 182.49152542373 154.27657142856998 L 183.0395480226 143.81714285714003 L 183.58757062147 128.18742857143002 L 184.13559322034 127.71199999999999 L 184.68361581921 129.49485714285998 L 185.23163841808 125.632 L 185.77966101695 112.67657142857001 L 186.32768361582 118.67885714286001 L 186.87570621469 120.93714285713997 L 187.42372881356 134.84342857143002 L 187.97175141243 133.41714285714 L 188.5197740113 127.35542857143002 L 189.06779661017 133.35771428571002 L 189.61581920904 133.71428571428999 L 190.16384180791 135.31885714286 L 190.71186440678 144.17371428571 L 191.25988700565 152.19657142857 L 191.80790960452 152.25599999999997 L 192.35593220339 166.99428571429 L 192.90395480226 161.94285714286 L 193.45197740113 150.88914285713997 L 194 146.49142857143 L 194.54802259887 140.608 L 195.09604519774 135.25942857143002 L 195.64406779661 134.60571428571 L 196.19209039548 139.06285714286003 L 196.74011299435 132.704 L 197.28813559322 132.704 L 197.83615819209 129.85142857143 L 198.38418079096 126.28571428571001 L 198.93220338983 127.53371428571 L 199.4802259887 133.35771428571002 L 200.02824858757 116.53942857143 L 200.57627118644 104.11885714286001 L 201.12429378531 106.25828571429003 L 201.67231638418 96.928 L 202.22033898305 110.83428571428999 L 202.76836158192 122.95771428570998 L 203.31638418079 109.70514285714 L 203.86440677966 102.63314285714 L 204.41242937853 105.48571428571 L 204.9604519774 111.72571428571001 L 205.50847457627 101.56342857143 L 206.05649717514 98.41371428571 L 206.60451977401 105.42628571428997 L 207.15254237288 94.55085714286002 L 207.70056497175 93.18400000000003 L 208.24858757062 93.06514285714002 L 208.79661016949 101.62285714286003 L 209.34463276836 99.95885714285998 L 209.89265536723 83.14057142857001 L 210.4406779661 90.80685714286 L 210.98870056497 95.62057142856997 L 211.53672316384 97.99771428571 L 212.08474576271 114.39999999999998 L 212.63276836158 106.73371428571 L 213.18079096045 99.60228571429002 L 213.72881355932 95.14514285714 L 214.27683615819 95.68 L 214.82485875706 91.46057142857 L 215.37288135593 95.44228571429 L 215.9209039548 91.51999999999998 L 216.46892655367 91.57942857143001 L 217.01694915254 91.51999999999998 L 217.56497175141 95.14514285714 L 218.11299435028 99.89942857143001 L 218.66101694915 100.19657142857 L 219.20903954802 96.33371428571002 L 219.75706214689 99.18628571429002 L 220.30508474576 93.65942857143 L 220.85310734463 91.69828571429002 L 221.4011299435 91.04457142857001 L 221.94915254237 91.81714285714003 L 222.49717514124 104.11885714286001 L 223.04519774011 90.21257142857002 L 223.59322033898 113.33028571429003 L 224.14124293785 106.31771428571 L 224.68926553672 105.78285714286 L 225.23728813559 103.10857142856997 L 225.78531073446 99.18628571429002 L 226.33333333333 94.72914285714 L 226.8813559322 104 L 227.42937853107 91.81714285714003 L 227.97740112994 81.89257142857002 L 228.52542372881 70.89828571429001 L 229.07344632768 65.13371428571003 L 229.62146892655 65.13371428571003 L 230.16949152542 66.976 L 230.71751412429 67.92685714286 L 231.26553672316 73.69142857142998 L 231.81355932203 70.83885714285998 L 232.3615819209 60.43885714286 L 232.90960451977 54.02057142857001 L 233.45762711864 62.22171428570999 L 234.00564971751 68.04571428571 L 234.55367231638 69.76914285714003 L 235.10169491525 66.38171428571002 L 235.64971751412 62.10285714285999 L 236.19774011299 65.13371428571003 L 236.74576271186 61.98399999999998 L 237.29378531073 67.392 L 237.8418079096 68.81828571429003 L 238.38983050847 56.99200000000002 L 238.93785310734 65.66857142856998 L 239.48587570621 55.803428571430004 L 240.03389830508 57.229714285709974 L 240.58192090396 63.94514285714001 L 241.12994350282 63.11314285714002 L 241.6779661017 66.32228571428999 L 242.22598870057 71.37371428570998 L 242.77401129943 71.31428571429001 L 243.32203389831 77.49485714285998 L 243.87005649717 75.94971428571 L 244.41807909605 85.63657142857 L 244.96610169492 97.81942857143002 L 245.51412429378 107.09028571429002 L 246.06214689266 100.37485714285998 L 246.61016949153 98.05714285713998 L 247.1581920904 100.13714285714002 L 247.70621468927 100.37485714285998 L 248.25423728814 99.30514285714003 L 248.80225988701 101.62285714286003 L 249.35028248588 101.14742857143 L 249.89830508475 99.36457142857 L 250.44632768362 98.05714285713998 L 250.99435028249 97.99771428571 L 251.54237288136 107.38742857143001 L 252.09039548023 105.48571428571 L 252.6384180791 110.47771428571002 L 253.18644067797 100.55314285714002 L 253.73446327684 99.72114285714002 L 254.28248587571 102.81142857142999 L 254.83050847458 105.06971428571 L 255.37853107345 107.50628571429002 L 255.92655367232 118.79771428571001 L 256.47457627119 131.99085714286002 L 257.02259887006 127.05828571428998 L 257.57062146893 120.46171428571 L 258.1186440678 116.00457142856999 L 258.66666666667 118.20342857142998 L 259.21468926554 106.91199999999998 L 259.76271186441 107.26857142857 L 260.31073446328 107.74400000000003 L 260.85875706215 103.40571428571002 L 261.40677966102 106.02057142857001 L 261.95480225989 111.60685714286001 L 262.50282485876 105.60457142857001 L 263.05084745763 112.97371428571 L 263.5988700565 112.91428571428997 L 264.14689265537 106.97142857143001 L 264.69491525424 108.04114285714002 L 265.24293785311 100.31542857143 L 265.79096045198 93.65942857143 L 266.33898305085 95.02628571429 L 266.88700564972 96.928 L 267.43502824859 99.12685714285999 L 267.98305084746 105.12914285713998 L 268.53107344633 107.68457142857 L 269.0790960452 115.58857142856999 L 269.62711864407 113.56799999999998 L 270.17514124294 106.61485714285999 L 270.72316384181 99.48342857143001 L 271.27118644068 95.85828571428999 L 271.81920903955 97.16571428571001 L 272.36723163842 86.88457142856998 L 272.91525423729 95.20457142856998 L 273.46327683616 101.62285714286003 L 274.01129943503 103.76228571428999 L 274.5593220339 103.28685714286001 L 275.10734463277 106.25828571429003 L 275.65536723164 107.74400000000003 L 276.20338983051 114.75657142857 L 276.75141242938 117.19314285714 L 277.29943502825 116.42057142856999 L 277.84745762712 114.57828571429002 L 278.39548022599 120.93714285713997 L 278.94350282486 117.66857142856998 L 279.49152542373 122.00685714285999 L 280.0395480226 132.22857142856998 L 280.58757062147 141.55885714286 L 281.13559322034 145.42171428570998 L 281.68361581921 140.84571428571002 L 282.23163841808 134.13028571428998 L 282.77966101695 137.81485714285998 L 283.32768361582 120.69942857143002 L 283.87570621469 122.06628571429002 L 284.42372881356 125.86971428571002 L 284.97175141243 133.35771428571002 L 285.5197740113 127.29599999999999 L 286.06779661017 129.31657142857 L 286.61581920904 124.20571428570997 L 287.16384180791 135.73485714286 L 287.71186440678 127.71199999999999 L 288.25988700565 126.52342857142997 L 288.80790960452 129.37599999999998 L 289.35593220339 132.288 L 289.90395480226 137.22057142857 L 290.45197740113 126.34514285713999 L 291 125.03771428571002 L 291.54802259887 125.09714285714 L 292.09604519774 123.67085714285997 L 292.64406779661 119.51085714286 L 293.19209039548 123.25485714285998 L 293.74011299435 128.36571428571 L 294.28813559322 126.52342857142997 L 294.83615819209 126.52342857142997 L 295.38418079096 142.62857142857 L 295.93220338983 139.24114285714 L 296.4802259887 142.80685714286 L 297.02824858757 134.07085714286 L 297.57627118644 127.94971428571 L 298.12429378531 124.50285714286002 L 298.67231638418 135.67542857143002 L 299.22033898305 128.90057142857 L 299.76836158192 127.35542857143002 L 300.31638418079 126.048 L 300.86440677966 126.22628571428999 L 301.41242937853 120.75885714286 L 301.9604519774 118.50057142857003 L 302.50847457627 119.33257142857002 L 303.05649717514 125.632 L 303.60451977401 128.72228571429002 L 304.15254237288 130.86171428570998 L 304.70056497175 134.66514285713998 L 305.24858757062 126.048 L 305.79661016949 123.73028571429 L 306.34463276836 126.99885714286 L 306.89265536723 133.12 L 307.4406779661 137.51771428570999 L 307.98870056497 148.98742857142997 L 308.53672316384 161.88342857143 L 309.08474576271 159.38742857143 L 309.63276836158 160.04114285714 L 310.18079096045 155.22742857142998 L 310.72881355932 149.40342857143003 L 311.27683615819 149.10628571428998 L 311.82485875706 152.19657142857 L 312.37288135593 150.47314285713998 L 312.9209039548 158.55542857143 L 313.46892655367 155.22742857142998 L 314.01694915254 154.27657142856998 L 314.56497175141 150.94857142857 L 315.11299435028 153.92000000000002 L 315.66101694915 157.42628571428997 L 316.20903954802 153.32571428570998 L 316.75706214689 153.14742857143 L 317.30508474576 147.73942857142998 L 317.85310734463 143.40114285713997 L 318.4011299435 138.88457142856998 L 318.94915254237 136.32914285714003 L 319.49717514124 137.99314285714001 L 320.04519774011 138.34971428570998 L 320.59322033898 137.45828571429 L 321.14124293785 128.30628571429003 L 321.68926553672 128.66285714286 L 322.23728813559 129.31657142857 L 322.78531073446 124.20571428570997 L 323.33333333333 128.36571428571 L 323.8813559322 123.73028571429 L 324.42937853107 123.25485714285998 L 324.97740112994 119.21371428571001 L 325.52542372881 114.45942857143001 L 326.07344632768 117.66857142856998 L 326.62146892655 119.80799999999999 L 327.16949152542 131.872 L 327.71751412429 138.34971428570998 L 328.26553672316 138.94400000000002 L 328.81355932203 135.61599999999999 L 329.3615819209 135.37828571428997 L 329.90960451977 117.78742857142998 L 330.45762711864 118.61942857142998 L 331.00564971751 120.46171428571 L 331.55367231638 108.10057142856999 L 332.10169491525 108.99200000000002 L 332.64971751412 111.66628571428998 L 333.19774011299 115.29142857143 L 333.74576271186 119.392 L 334.29378531073 112.37942857143003 L 334.84180790961 107.03085714285999 L 335.38983050847 113.21142857143002 L 335.93785310734 112.37942857143003 L 336.48587570621 113.92457142857 L 337.03389830508 107.80342857143 L 337.58192090396 106.49599999999998 L 338.12994350282 111.904 L 338.67796610169 115.35085714285998 L 339.22598870057 117.07428571429 L 339.77401129943 119.03542857142997 L 340.32203389831 126.464 L 340.87005649718 120.93714285713997 L 341.41807909604 125.03771428571002 L 341.96610169492 135.91314285713997 L 342.51412429379 123.61142857143 L 343.06214689266 120.81828571429003 L 343.61016949153 125.66171428570999 L 344.15819209039 130.62400000000002 L 344.70621468927 131.57485714286003 L 345.25423728814 120.10514285713998 L 345.80225988701 116.45028571428998 L 346.35028248588 113.33028571429003 L 346.89830508475 117.01485714286002 L 347.44632768362 125.80969142856998 L 347.99435028249 121.50171428571002 L 348.54237288136 102.69257142856998 L 349.09039548023 104.68342857143 L 349.6384180791 99.00799999999998 L 350.18644067797 98.14628571429 L 350.73446327684 99.15657142856998 L 351.28248587571 94.61028571429 L 351.83050847458 91.81714285714003 L 352.37853107345 94.78857142856998 L 352.92655367232 93.89714285714001 L 353.47457627119 93.51085714286 L 354.02259887006 96.15542857142998 L 354.57062146893 94.22399999999999 L 355.1186440678 95.50171428571002 L 355.66666666667 97.84914285714001 L 356.21468926554 108.90285714286 L 356.76271186441 111.84457142857002 L 357.31073446328 109.58628571429 L 357.85875706215 107.38742857143001 L 358.40677966102 99.12685714285999 L 358.95480225989 94.04571428571 L 359.50282485876 86.05257142856999 L 360.05084745763 84.38857142857 L 360.5988700565 77.49485714285998 L 361.14689265537 74.19657142857 L 361.69491525424 63.202285714289985 L 362.24293785311 68.95259428571 L 362.79096045198 71.07657142856999 L 363.33898305085 74.31542857143 L 363.88700564972 75.62285714286003 L 364.43502824859 72.77028571429003 L 364.98305084746 81.00114285714 L 365.53107344633 77.168 L 366.0790960452 70.24457142857 L 366.62711864407 55.684571428569996 L 367.17514124294 68.66971428570997 L 367.72316384181 71.87885714286 L 368.27118644068 78.98057142856999 L 368.81920903955 84.74514285714002 L 369.36723163842 78.17828571428998 L 369.91525423729 77.34628571428999 L 370.46327683616 74.58285714286001 L 371.01129943503 71.75999999999999 L 371.5593220339 60.17142857143 L 372.10734463277 66.21828571429 L 372.65536723164 66.44114285714 L 373.20338983051 70.69028571428998 L 373.75141242938 74.49371428570998 L 374.29943502825 77.13828571429002 L 374.84745762712 75.56342857143 L 375.39548022599 72.26514285714 L 375.94350282486 65.01485714286002 L 376.49152542373 71.43314285714001 L 377.0395480226 67.83771428570998 L 377.58757062147 70.72000000000003 L 378.13559322034 77.07885714285999 L 378.68361581921 76.84114285714003 L 379.23163841808 75.05828571428998 L 379.77966101695 75.83085714286 L 380.32768361582 84.03199999999998 L 380.87570621469 107.74400000000003 L 381.42372881356 126.96914285714001 L 381.97175141243 127.56342857143 L 382.5197740113 134.60571428571 L 383.06779661017 146.07542857143 L 383.61581920904 149.93828571428998 L 384.16384180791 148.86857142857002 L 384.71186440678 164.37942857143 L 385.25988700565 171.98628571429 L 385.80790960452 159.62514285714002 L 386.35593220339 165.09257142857 L 386.90395480226 163.25028571429 L 387.45197740113 166.51885714286 L 388 168.71771428571 L 388.54802259887 168.24228571429 L 389.09604519774 173.94742857143 L 389.64406779661 171.27314285714 L 390.19209039548 164.736 L 390.74011299435 170.08457142857 L 391.28813559322 172.28342857143 L 391.83615819209 175.78971428571 L 392.38418079096 180.24685714286 L 392.93220338983 184.82285714286 L 393.4802259887 180.96 L 394.02824858757 175.49257142857 L 394.57627118644 164.112 L 395.12429378531 163.072 L 395.67231638418 170.41142857143 L 396.22033898305 173.472 L 396.76836158192 168.74742857143 L 397.31638418079 170.53028571429 L 397.86440677966 164.26057142857 L 398.41242937853 164.34971428571 L 398.9604519774 159.06057142856997 L 399.50847457627 164.02285714286 L 400.05649717514 168.688 L 400.60451977401 169.43085714286 L 401.15254237288 172.58057142857 L 401.70056497175 169.60914285714 L 402.24858757062 165.36 L 402.79661016949 162.15085714286 L 403.34463276836 154.66285714286 L 403.89265536723 147.35314285714003 L 404.4406779661 143.46057142857 L 404.98870056497 146.75885714286 L 405.53672316384 141.91542857143003 L 406.08474576271 145.83771428570998 L 406.63276836158 142.86628571428997 L 407.18079096045 145.60000000000002 L 407.72881355932 152.55314285714002 L 408.27683615819 144.70857142857 L 408.82485875706 153.32571428570998 L 409.37288135593 144.32228571429 L 409.9209039548 151.78057142857 L 410.46892655367 157.06971428571 L 411.01694915254 170.08457142857 L 411.56497175141 172.34285714286 L 412.11299435028 178.52342857143 L 412.66101694915 182.38628571429 L 413.20903954802 186.66514285714 L 413.75706214689 184.40685714286 L 414.30508474576 181.85142857143 L 414.85310734463 175.25485714286 L 415.4011299435 172.75885714286 L 415.94915254237 190.944 L 416.49717514124 195.69828571429 L 417.04519774011 196.64914285714 L 417.59322033898 199.56114285714 L 418.14124293785 197.65942857143 L 418.68926553672 201.52228571429 L 419.23728813559 208.11885714286 L 419.78531073446 209.36685714286 L 420.33333333333 214.53714285714 L 420.8813559322 217.568 L 421.42937853107 215.19085714286 L 421.97740112994 207.70285714286 L 422.52542372881 212.992 L 423.07344632768 214.35885714286 L 423.62146892655 206.336 L 424.16949152542 198.37257142857 L 424.71751412429 201.70057142857 L 425.26553672316 204.90971428571 L 425.81355932203 211.50628571429 L 426.3615819209 208.71314285714 L 426.90960451977 214.24 L 427.45762711864 215.072 L 428.00564971751 202.53257142857 L 428.55367231638 207.28685714286 L 429.10169491525 206.45485714286 L 429.64971751412 199.79885714286 L 430.19774011299 207.22742857143 L 430.74576271186 208.416 L 431.29378531073 196.88685714286 L 431.8418079096 195.87657142857 L 432.38983050847 191.12228571429 L 432.93785310734 190.32 L 433.48587570622 192.42971428571 L 434.03389830508 193.26171428571 L 434.58192090395 197.65942857143 L 435.12994350283 196.53028571429 L 435.67796610169 196.53028571429 L 436.22598870057 199.14514285714 L 436.77401129943 184.05028571429 L 437.3220338983 181.25714285714 L 437.87005649718 180.36571428571 L 438.41807909604 192.07314285714 L 438.96610169492 178.52342857143 L 439.51412429379 159.62514285714002 L 440.06214689266 166.69714285714 L 440.61016949153 168.77714285714 L 441.1581920904 175.25485714286 L 441.70621468927 177.51314285714 L 442.25423728814 177.86971428571 L 442.80225988701 177.09714285714 L 443.35028248588 168.53942857143 L 443.89830508475 169.01485714286 L 444.44632768362 169.01485714286 L 444.99435028249 176.8 L 445.54237288136 174.33371428571 L 446.09039548023 172.99657142857 L 446.6384180791 171.83771428571 L 447.18644067797 168.95542857143 L 447.73446327684 170.352 L 448.28248587571 172.016 L 448.83050847458 174.12571428571 L 449.37853107345 175.16571428571 L 449.92655367232 177.39428571429 L 450.47457627119 171.98628571429 L 451.02259887006 169.312 L 451.57062146893 170.352 L 452.1186440678 181.34034285714 L 452.66666666667 179.05828571429 L 453.21468926554 182.35657142857 L 453.76271186441 180.45485714286 L 454.31073446328 174.39314285714 L 454.85875706215 177.632 L 455.40677966102 173.08571428571 L 455.95480225989 171.392 L 456.50282485876 178.34514285714 L 457.05084745763 174.42285714286 L 457.5988700565 175.968 L 458.14689265537 172.10514285714 L 458.69491525424 164.43885714286 L 459.24293785311 160.992 L 459.79096045198 148.45257142857002 L 460.33898305085 146.90742857143 L 460.88700564972 139.83542857143 L 461.43502824859 133.23885714286 L 461.98305084746 127.65257142857001 L 462.53107344633 126.70171428571001 L 463.0790960452 134.30857142857002 L 463.62711864407 137.63657142857 L 464.17514124294 139.06285714286003 L 464.72316384181 134.07085714286 L 465.27118644068 130.50514285714002 L 465.81920903955 129.55428571429002 L 466.36723163842 131.39657142856998 L 466.91525423729 130.02971428570999 L 467.46327683616 124.97828571429 L 468.01129943503 131.04000000000002 L 468.5593220339 122.72000000000003 L 469.10734463277 117.54971428571002 L 469.65536723164 119.15428571428998 L 470.20338983051 118.85714285713999 L 470.75141242938 118.32228571428999 L 471.29943502825 115.82628571429001 L 471.84745762712 119.98628571428998 L 472.39548022599 124.32457142856998 L 472.94350282486 119.92685714286 L 473.49152542373 116.95542857142999 L 474.0395480226 120.28342857143002 L 474.58757062147 120.28342857143002 L 475.13559322034 126.70171428571001 L 475.68361581921 129.97028571429001 L 476.23163841808 137.63657142857 L 476.77966101695 136.62628571429002 L 477.32768361582 135.55657142857 L 477.87570621469 131.99085714286002 L 478.42372881356 136.74514285714002 L 478.97175141243 135.49714285713998 L 479.5197740113 130.62400000000002 L 480.06779661017 128.128 L 480.61581920904 128.84114285714003 L 481.16384180791 136.03199999999998 L 481.71186440678 143.81714285714003 L 482.25988700565 141.08342857142998 L 482.80790960452 147.97714285714 L 483.35593220339 155.22742857142998 L 483.90395480226 164.02285714286 L 484.45197740113 164.67657142857 L 485 175.43314285714 L 485.54802259887 172.87771428571 L 486.09604519774 178.16685714286 L 486.64406779661 170.79771428571 L 487.19209039548 166.04342857143 L 487.74011299435 170.08457142857 L 488.28813559322 168.48 L 488.83615819209 167.70742857143 L 489.38418079096 166.4 L 489.93220338983 160.992 L 490.4802259887 156.89142857143003 L 491.02824858757 154.51428571429 L 491.57627118644 149.64114285713998 L 492.12429378531 146.61028571429 L 492.67231638418 152.96914285714 L 493.22033898305 150.71085714286 L 493.76836158192 150.59199999999998 L 494.31638418079 143.75771428571 L 494.86440677966 141.49942857142997 L 495.41242937853 137.33942857143 L 495.9604519774 137.16114285714002 L 496.50847457627 139.65714285714 L 497.05649717514 137.27999999999997 L 497.60451977401 137.99314285714001 L 498.15254237288 140.01371428571002 L 498.70056497175 144.41142857143 L 499.24858757062 149.344 L 499.79661016949 146.25371428570998 L 500.34463276836 163.42857142857 L 500.89265536723 162.95314285714 L 501.4406779661 157.48571428571 L 501.98870056497 152.13714285714002 L 502.53672316384 153.86057142856998 L 503.08474576271 155.82171428571002 L 503.63276836158 160.45714285714 L 504.18079096045 158.31771428571 L 504.72881355932 152.07771428571 L 505.27683615819 153.62285714286003 L 505.82485875706 156.47542857142997 L 506.37288135593 157.78285714286 L 506.9209039548 164.37942857143 L 507.46892655367 164.55771428571 L 508.01694915254 164.85485714286 L 508.56497175141 171.98628571429 L 509.11299435028 169.49028571429 L 509.66101694915 167.17257142857 L 510.20903954802 166.69714285714 L 510.75706214689 167.76685714286 L 511.30508474576 166.63771428571 L 511.85310734463 170.44114285714 L 512.4011299435 176.08685714286 L 512.94915254237 176.26514285714 L 513.49717514124 181.25714285714 L 514.04519774011 185.536 L 514.59322033898 184.22857142857 L 515.14124293785 168.71771428571 L 515.68926553672 169.37142857143 L 516.23728813559 162.89371428571 L 516.78531073446 155.28685714286001 L 517.33333333333 161.76457142857 L 517.8813559322 167.94514285714 L 518.42937853107 167.58857142857 L 518.97740112994 159.62514285714002 L 519.52542372881 161.58628571429 L 520.07344632768 157.60457142857 L 520.62146892655 159.50628571429002 L 521.16949152542 166.87542857143 L 521.71751412429 167.11314285714 L 522.26553672316 170.02514285714 L 522.81355932203 170.20342857143 L 523.3615819209 166.69714285714 L 523.90960451977 163.01257142857 L 524.45762711864 160.69485714286 L 525.00564971751 159.03085714286 L 525.55367231638 158.91199999999998 L 526.10169491525 155.82171428571002 L 526.64971751412 161.408 L 527.19774011299 161.824 L 527.74576271186 159.86285714285998 L 528.29378531073 158.85257142857 L 528.8418079096 157.96114285713998 L 529.38983050848 153.86057142856998 L 529.93785310734 153.26628571429 L 530.48587570621 160.93257142857 L 531.03389830508 163.84457142857 L 531.58192090395 160.576 L 532.12994350283 161.52685714286 L 532.67796610169 160.16 L 533.22598870056 160.16 L 533.77401129944 163.13142857143 L 534.3220338983 157.60457142857 L 534.87005649718 156.29714285714 L 535.41807909605 148.928 L 535.96610169492 145.83771428570998 L 536.51412429379 139.83542857143 L 537.06214689265 143.93599999999998 L 537.61016949153 150.35428571428997 L 538.1581920904 149.16571428571 L 538.70621468927 151.48342857143 L 539.25423728814 145.48114285714001 L 539.80225988701 148.512 L 540.35028248588 145.36228571429 L 540.89830508475 142.74742857143002 L 541.44632768362 145.89714285714 L 541.99435028249 146.31314285714 L 542.54237288136 157.30742857143002 L 543.09039548023 158.55542857143 L 543.6384180791 155.34628571429 L 544.18644067797 154.39542857143 L 544.73446327684 153.50400000000002 L 545.28248587571 155.76228571429 L 545.83050847458 158.07999999999998 L 546.37853107345 157.248 L 546.92655367232 154.63314285714 L 547.47457627119 150.94857142857 L 548.02259887006 147.14514285714 L 548.57062146893 150.05714285713998 L 549.1186440678 151.18628571429002 L 549.66666666667 146.848 L 550.21468926554 153.38514285714 L 550.76271186441 149.22514285713999 L 551.31073446328 153.92000000000002 L 551.85875706215 156.23771428571 L 552.40677966102 156.47542857142997 L 552.95480225989 156.71314285713999 L 553.50282485876 161.52685714286 L 554.05084745763 154.27657142856998 L 554.5988700565 155.46514285714 L 555.14689265537 158.19885714286 L 555.69491525424 161.05142857143 L 556.24293785311 163.66628571429 L 556.79096045198 172.34285714286 L 557.33898305085 176.8 L 557.88700564972 171.808 L 558.43502824859 175.43314285714 L 558.98305084746 172.34285714286 L 559.53107344633 172.75885714286 L 560.0790960452 169.01485714286 L 560.62711864407 170.56 L 561.17514124294 172.224 L 561.72316384181 171.68914285714 L 562.27118644068 179.11771428571 L 562.81920903955 176.62171428571 L 563.36723163842 173.472 L 563.91525423729 170.50057142857 L 564.46327683616 172.99657142857 L 565.01129943503 176.8 L 565.5593220339 179.89028571429 L 566.10734463277 177.15657142857 L 566.65536723164 173.94742857143 L 567.20338983051 177.81028571429 L 567.75141242938 181.55428571429 L 568.29943502825 184.288 L 568.84745762712 188.74514285714 L 569.39548022599 182.80228571429 L 569.94350282486 192.90514285714 L 570.49152542373 190.05257142857 L 571.0395480226 189.51771428571 L 571.58757062147 188.15085714286 L 572.13559322034 188.15085714286 L 572.68361581921 188.92342857143 L 573.23163841808 184.288 L 573.77966101695 179.89028571429 L 574.32768361582 182.208 L 574.87570621469 187.02171428571 L 575.42372881356 188.38857142857 L 575.97175141243 188.032 L 576.5197740113 181.376 L 577.06779661017 182.80228571429 L 577.61581920904 172.04571428571 L 578.16384180791 169.19314285714 L 578.71186440678 169.728 L 579.25988700565 168.18285714286 L 579.80790960452 168.30171428571 L 580.35593220339 168.00457142857 L 580.90395480226 169.96571428571 L 581.45197740113 168.36114285714 L 582 171.62971428571 L 582.54802259887 168.24228571429 L 583.09604519774 170.38171428571 L 583.64406779661 167.88571428571 L 584.19209039548 164.61714285714 L 584.74011299435 165.80571428571 L 585.28813559322 171.51085714286 L 585.83615819209 172.99657142857 L 586.38418079096 171.92685714286 L 586.93220338983 172.81828571429 L 587.4802259887 170.67885714286 L 588.02824858757 173.41257142857 L 588.57627118644 164.43885714286 L 589.12429378531 153.14742857143 L 589.67231638418 153.08800000000002 L 590.22033898305 153.02857142857 L 590.76836158192 149.04685714286 L 591.31638418079 151.06742857143 L 591.86440677966 148.74971428571 L 592.41242937853 147.85828571429 L 592.9604519774 144.35199999999998 L 593.50847457627 144.35199999999998 L 594.05649717514 147.20457142856998 L 594.60451977401 149.52228571428998 L 595.15254237288 146.61028571429 L 595.70056497175 150.77028571429003 L 596.24858757062 153.38514285714 L 596.79661016949 149.64114285713998 L 597.34463276836 148.096 L 597.89265536723 154.87085714286002 L 598.4406779661 158.19885714286 L 598.98870056497 156.65371428571 L 599.53672316384 158.25828571429003 L 600.08474576271 159.86285714285998 L 600.63276836158 163.60685714286 L 601.18079096045 162.83428571429 L 601.72881355932 161.58628571429 L 602.27683615819 157.12914285713998 L 602.82485875706 155.04914285714 L 603.37288135593 159.92228571429 L 603.9209039548 148.928 L 604.46892655367 154.15771428570997 L 605.01694915254 154.09828571429 L 605.56497175141 151.72114285714002 L 606.11299435028 156.89142857143003 L 606.66101694915 157.248 L 607.20903954802 157.96114285713998 L 607.75706214689 159.50628571429002 L 608.30508474576 154.27657142856998 L 608.85310734463 153.97942857143 L 609.4011299435 155.22742857142998 L 609.94915254237 154.57371428571003 L 610.49717514124 149.81942857143002 L 611.04519774011 159.38742857143 L 611.59322033898 157.01028571428998 L 612.14124293785 147.56114285714 L 612.68926553672 145.71885714285997 L 613.23728813559 150.29485714286 L 613.78531073446 144.11428571429002 L 614.33333333333 142.62857142857 L 614.8813559322 140.31085714286002 L 615.42937853107 142.21257142857002 L 615.97740112994 141.024 L 616.52542372881 147.97714285714 L 617.07344632768 143.34171428571 L 617.62146892655 143.99542857143 L 618.16949152542 136.56685714286 L 618.71751412429 136.80457142857 L 619.26553672316 137.51771428570999 L 619.81355932203 137.04228571429002 L 620.3615819209 139.00342857143 L 620.90960451977 134.13028571428998 L 621.45762711864 132.64457142856998 L 622.00564971751 130.92114285714 L 622.55367231638 134.784 L 623.10169491525 136.44799999999998 L 623.64971751412 138.23085714285997 L 624.19774011299 138.11200000000002 L 624.74576271186 129.73257142857 L 625.29378531073 131.15885714285997 L 625.8418079096 132.64457142856998 L 626.38983050847 134.368 L 626.93785310734 136.26971428571 L 627.48587570621 129.91085714285998 L 628.03389830509 131.15885714285997 L 628.58192090395 129.19771428571 L 629.12994350282 123.07657142856999 L 629.6779661017 118.91657142857002 L 630.22598870056 119.68914285713998 L 630.77401129944 120.69942857143002 L 631.3220338983 121.70971428570999 L 631.87005649718 119.74857142857002 L 632.41807909605 125.18628571429002 L 632.96610169491 127.56342857143 L 633.51412429379 132.46628571429 L 634.06214689266 134.96228571428998 L 634.61016949153 137.84457142857002 L 635.1581920904 137.45828571429 L 635.70621468927 140.04342857143 L 636.25423728814 139.152 L 636.80225988701 137.22057142857 L 637.35028248588 138.37942857143003 L 637.89830508475 136.15085714286 L 638.44632768362 139.92457142857 L 638.99435028249 134.96228571428998 L 639.54237288136 132.34742857143 L 640.09039548023 136.656 L 640.6384180791 135.58628571429 L 641.18644067797 136.21028571429002 L 641.73446327684 135.02171428571 L 642.28248587571 128.24685714286 L 642.83050847458 127.14742857143 L 643.37853107345 122.12571428570999 L 643.92655367232 122.39314285713999 L 644.47457627119 122.74971428571001 L 645.02259887006 120.58057142857001 L 645.57062146893 124.32457142856998 L 646.1186440678 126.99885714286 L 646.66666666667 123.73028571429 L 647.21468926554 123.70057142857002 L 647.76271186441 125.39428571428999 L 648.31073446328 133.29828571429 L 648.85875706215 137.16114285714002 L 649.40677966102 132.25828571429003 L 649.95480225989 130.95085714286 L 650.50282485876 136.53714285714 L 651.05084745763 134.63542857143 L 651.5988700565 133.23885714286 L 652.14689265537 142.18285714285997 L 652.69491525424 147.41257142857 L 653.24293785311 144.02514285714 L 653.79096045198 144.53028571429002 L 654.33898305085 144.02514285714 L 654.88700564972 142.39085714286 L 655.43502824859 141.856 L 655.98305084746 140.96457142857003 L 656.53107344633 141.64800000000002 L 657.0790960452 148.928 L 657.62711864407 146.99657142857 L 658.17514124294 145.71885714285997 L 658.72316384181 153.41485714286 L 659.27118644068 154.98971428571002 L 659.81920903955 151.00799999999998 L 660.36723163842 159.80342857143 L 660.91525423729 159.32799999999997 L 661.46327683616 161.28914285714 L 662.01129943503 160.10057142857 L 662.5593220339 162.864 L 663.10734463277 162.50742857143 L 663.65536723164 161.17028571429 L 664.20338983051 165.21142857143 L 664.75141242938 163.45828571429 L 665.29943502825 168.83657142857 L 665.84745762712 168.00457142857 L 666.39548022599 163.488 L 666.94350282486 160.93257142857 L 667.49152542373 158.94171428571002 L 668.0395480226 149.99771428571 L 668.58757062147 145.92685714286 L 669.13559322034 149.87885714286 L 669.68361581921 155.43542857143 L 670.23163841808 151.98857142857003 L 670.77966101695 154.06857142857 L 671.32768361582 158.52571428571002 L 671.87570621469 161.02171428571 L 672.42372881356 161.58628571429 L 672.97175141243 161.34857142857 L 673.5197740113 155.52457142857003 L 674.06779661017 151.18628571429002 L 674.61581920904 158.85257142857 L 675.16384180791 166.57828571429 L 675.71186440678 172.34285714286 L 676.25988700565 162.47771428571" fill="none"></path></g><g clip-path="none" transform="translate(8,40) scale(1 1)" opacity="1" data-z-index="90" class="highcharts-markers highcharts-series-0 highcharts-line-series"></g></g><text y="512" style="color: rgb(211, 211, 211); font-size: 15px; fill: rgb(211, 211, 211);" data-z-index="4" class="highcharts-title" text-anchor="end" x="740"></text><text y="25" style="color: rgb(51, 51, 51); fill: rgb(51, 51, 51); font-size: 15px;" data-z-index="4" class="highcharts-subtitle" text-anchor="start" x="14"><tspan style="color: rgb(211, 211, 211); fill: rgb(211, 211, 211);">Dow Inc</tspan></text><text y="527" style="color: rgb(102, 102, 102); fill: rgb(102, 102, 102);" data-z-index="4" class="highcharts-caption" text-anchor="start" x="0"></text><g data-z-index="7" class="highcharts-axis-labels highcharts-xaxis-labels"><text opacity="1" y="476" style="color: rgb(227, 225, 225); cursor: default; font-size: 15px; font-weight: 400; fill: rgb(227, 225, 225);" transform="translate(0,0)" text-anchor="middle" x="190.08050847458">Jan</text><text opacity="1" y="476" style="color: rgb(227, 225, 225); cursor: default; font-size: 15px; font-weight: 400; fill: rgb(227, 225, 225);" transform="translate(0,0)" text-anchor="middle" x="328.22787193974">2022</text><text opacity="1" y="476" style="color: rgb(227, 225, 225); cursor: default; font-size: 15px; font-weight: 400; fill: rgb(227, 225, 225);" transform="translate(0,0)" text-anchor="middle" x="465.87288135593">2023</text><text opacity="1" y="476" style="color: rgb(227, 225, 225); cursor: default; font-size: 15px; font-weight: 400; fill: rgb(227, 225, 225);" transform="translate(0,0)" text-anchor="middle" x="603.01553672316">2024</text></g><g data-z-index="7" class="highcharts-axis-labels highcharts-yaxis-labels"><text visibility="hidden" style="color: rgb(227, 225, 225); cursor: default; font-size: 15px; fill: rgb(227, 225, 225);" transform="translate(0,0)" text-anchor="start" x="0">10</text><text opacity="1" y="401" style="color: rgb(227, 225, 225); cursor: default; font-size: 15px; fill: rgb(227, 225, 225);" transform="translate(0,0)" text-anchor="start" x="695">20</text><text opacity="1" y="342" style="color: rgb(227, 225, 225); cursor: default; font-size: 15px; fill: rgb(227, 225, 225);" transform="translate(0,0)" text-anchor="start" x="695">30</text><text opacity="1" y="282" style="color: rgb(227, 225, 225); cursor: default; font-size: 15px; fill: rgb(227, 225, 225);" transform="translate(0,0)" text-anchor="start" x="695">40</text><text opacity="1" y="223" style="color: rgb(227, 225, 225); cursor: default; font-size: 15px; fill: rgb(227, 225, 225);" transform="translate(0,0)" text-anchor="start" x="695">50</text><text opacity="1" y="163" style="color: rgb(227, 225, 225); cursor: default; font-size: 15px; fill: rgb(227, 225, 225);" transform="translate(0,0)" text-anchor="start" x="695">60</text><text opacity="1" y="104" style="color: rgb(227, 225, 225); cursor: default; font-size: 15px; fill: rgb(227, 225, 225);" transform="translate(0,0)" text-anchor="start" x="695">70</text><text visibility="hidden" style="color: rgb(227, 225, 225); cursor: default; font-size: 15px; fill: rgb(227, 225, 225);" transform="translate(0,0)" text-anchor="start" x="0">80</text></g><g data-z-index="7" class="highcharts-axis-labels highcharts-yaxis-labels"></g><g data-z-index="7" class="highcharts-axis-labels highcharts-yaxis-labels"></g><g clip-path="url(#highcharts-u3w13ix-5468-)" data-z-index="99" class="highcharts-control-points"></g><g data-z-index="9999" class="highcharts-axis highcharts-yaxis"><path opacity="1" d="M 688 456.5 L 693 456.5" stroke-width="1" stroke="#333333" class="highcharts-tick" fill="none"></path><path opacity="1" d="M 688 397.5 L 693 397.5" stroke-width="1" stroke="#333333" class="highcharts-tick" fill="none"></path><path opacity="1" d="M 688 337.5 L 693 337.5" stroke-width="1" stroke="#333333" class="highcharts-tick" fill="none"></path><path opacity="1" d="M 688 278.5 L 693 278.5" stroke-width="1" stroke="#333333" class="highcharts-tick" fill="none"></path><path opacity="1" d="M 688 218.5 L 693 218.5" stroke-width="1" stroke="#333333" class="highcharts-tick" fill="none"></path><path opacity="1" d="M 688 159.5 L 693 159.5" stroke-width="1" stroke="#333333" class="highcharts-tick" fill="none"></path><path opacity="1" d="M 688 99.5 L 693 99.5" stroke-width="1" stroke="#333333" class="highcharts-tick" fill="none"></path><path opacity="1" d="M 688 39.5 L 693 39.5" stroke-width="1" stroke="#333333" class="highcharts-tick" fill="none"></path><path d="M 688.5 40 L 688.5 456" data-z-index="7" stroke-width="1" stroke="#616161" class="highcharts-axis-line" fill="none"></path></g><path class="crosshair-fix-horizontal" visibility="hidden" data-z-index="6" stroke-dasharray="8,3" stroke-width="1" stroke="#757575" d="M 8 0 L 1800 0" fill="none"></path><path class="crosshair-fix-vertical" visibility="hidden" data-z-index="6" stroke-dasharray="8,3" stroke-width="1" stroke="#757575" d="M 0 40 L 0 1160" fill="none"></path></svg>