<svg viewBox="0 0 750 520" height="520" width="750" xmlns="http://www.w3.org/2000/svg" style="font-family: &quot;Helvetica Neue&quot;, Helvetica, Arial, sans-serif; font-size: 12px;" class="highcharts-root" version="1.1" xmlns:xlink="http://www.w3.org/1999/xlink"><desc>Created with Highcharts 10.1.0</desc><defs><linearGradient id="highcharts-iyamali-1494" gradientUnits="userSpaceOnUse" y2="500" x2="500" y1="0" x1="0"><stop stop-opacity="1" stop-color="rgb(35, 35, 35)" offset="0"></stop></linearGradient><clipPath id="highcharts-iyamali-1495-"><rect fill="none" height="416" width="679" y="0" x="0"></rect></clipPath><clipPath id="highcharts-iyamali-1983-"><rect fill="none" height="416" width="679" y="0" x="0"></rect></clipPath><clipPath id="highcharts-iyamali-2476-"><rect fill="none" height="416" width="679" y="40" x="8"></rect></clipPath></defs><rect ry="0" rx="0" height="520" width="750" y="0" x="0" class="highcharts-background" fill="url(#highcharts-iyamali-1494)"></rect><rect height="416" width="679" y="40" x="8" class="highcharts-plot-background" fill="none"></rect><g data-z-index="1" class="highcharts-grid highcharts-xaxis-grid"><path opacity="1" d="M 22.5 40 L 22.5 456" class="highcharts-grid-line" data-z-index="1" stroke-dasharray="none" stroke-width="1" stroke="#333333" fill="none"></path><path opacity="1" d="M 105.5 40 L 105.5 456" class="highcharts-grid-line" data-z-index="1" stroke-dasharray="none" stroke-width="1" stroke="#333333" fill="none"></path><path opacity="1" d="M 188.5 40 L 188.5 456" class="highcharts-grid-line" data-z-index="1" stroke-dasharray="none" stroke-width="1" stroke="#333333" fill="none"></path><path opacity="1" d="M 271.5 40 L 271.5 456" class="highcharts-grid-line" data-z-index="1" stroke-dasharray="none" stroke-width="1" stroke="#333333" fill="none"></path><path opacity="1" d="M 354.5 40 L 354.5 456" class="highcharts-grid-line" data-z-index="1" stroke-dasharray="none" stroke-width="1" stroke="#333333" fill="none"></path><path opacity="1" d="M 437.5 40 L 437.5 456" class="highcharts-grid-line" data-z-index="1" stroke-dasharray="none" stroke-width="1" stroke="#333333" fill="none"></path><path opacity="1" d="M 520.5 40 L 520.5 456" class="highcharts-grid-line" data-z-index="1" stroke-dasharray="none" stroke-width="1" stroke="#333333" fill="none"></path><path opacity="1" d="M 603.5 40 L 603.5 456" class="highcharts-grid-line" data-z-index="1" stroke-dasharray="none" stroke-width="1" stroke="#333333" fill="none"></path></g><g data-z-index="1" class="highcharts-grid highcharts-yaxis-grid"><path opacity="1" d="M 8 456.5 L 687 456.5" class="highcharts-grid-line" data-z-index="1" stroke-dasharray="none" stroke-width="1" stroke="#333333" fill="none"></path><path opacity="1" d="M 8 414.5 L 687 414.5" class="highcharts-grid-line" data-z-index="1" stroke-dasharray="none" stroke-width="1" stroke="#333333" fill="none"></path><path opacity="1" d="M 8 373.5 L 687 373.5" class="highcharts-grid-line" data-z-index="1" stroke-dasharray="none" stroke-width="1" stroke="#333333" fill="none"></path><path opacity="1" d="M 8 331.5 L 687 331.5" class="highcharts-grid-line" data-z-index="1" stroke-dasharray="none" stroke-width="1" stroke="#333333" fill="none"></path><path opacity="1" d="M 8 290.5 L 687 290.5" class="highcharts-grid-line" data-z-index="1" stroke-dasharray="none" stroke-width="1" stroke="#333333" fill="none"></path><path opacity="1" d="M 8 248.5 L 687 248.5" class="highcharts-grid-line" data-z-index="1" stroke-dasharray="none" stroke-width="1" stroke="#333333" fill="none"></path><path opacity="1" d="M 8 206.5 L 687 206.5" class="highcharts-grid-line" data-z-index="1" stroke-dasharray="none" stroke-width="1" stroke="#333333" fill="none"></path><path opacity="1" d="M 8 165.5 L 687 165.5" class="highcharts-grid-line" data-z-index="1" stroke-dasharray="none" stroke-width="1" stroke="#333333" fill="none"></path><path opacity="1" d="M 8 123.5 L 687 123.5" class="highcharts-grid-line" data-z-index="1" stroke-dasharray="none" stroke-width="1" stroke="#333333" fill="none"></path><path opacity="1" d="M 8 82.5 L 687 82.5" class="highcharts-grid-line" data-z-index="1" stroke-dasharray="none" stroke-width="1" stroke="#333333" fill="none"></path><path opacity="1" d="M 8 39.5 L 687 39.5" class="highcharts-grid-line" data-z-index="1" stroke-dasharray="none" stroke-width="1" stroke="#333333" fill="none"></path></g><g data-z-index="1" class="highcharts-grid highcharts-yaxis-grid"></g><g data-z-index="1" class="highcharts-grid highcharts-yaxis-grid"></g><rect height="416" width="679" y="40" x="8" data-z-index="1" class="highcharts-plot-border" fill="none"></rect><g data-z-index="2" class="highcharts-axis highcharts-xaxis"><path d="M 8 456.5 L 687 456.5" data-z-index="7" stroke-width="1" stroke="#616161" class="highcharts-axis-line" fill="none"></path></g><g data-z-index="2" class="highcharts-axis highcharts-yaxis"><path d="M 720 40 L 720 456" data-z-index="7" class="highcharts-axis-line" fill="none"></path></g><g data-z-index="2" class="highcharts-axis highcharts-yaxis"><path d="M 6.5 40 L 6.5 456" data-z-index="7" class="highcharts-axis-line" fill="none"></path></g><g data-z-index="3" class="highcharts-series-group"><g clip-path="url(#highcharts-iyamali-1983-)" transform="translate(8,40) scale(1 1)" opacity="1" data-z-index="90" class="highcharts-series highcharts-series-0 highcharts-line-series"><path stroke-linecap="round" stroke-linejoin="round" stroke-width="2" stroke="#2962FF" data-z-index="1" class="highcharts-graph" d="M 0 335.712 L 1.3828920570265 340.50432 L 2.7657841140529 363.36768 L 4.1486761710794 375.84767999999997 L 5.5315682281059 376.064 L 6.9144602851324 371.904 L 8.2973523421589 370.24 L 9.6802443991853 365.248 L 11.063136456212 366.08 L 12.446028513238 362.55232 L 13.828920570265 358.592 L 15.211812627291 353.6 L 16.594704684318 350.47168 L 17.977596741344 353.6 L 19.360488798371 352.96768 L 20.743380855397 347.14368 L 22.126272912424 347.36 L 23.50916496945 347.97568 L 24.892057026477 349.44 L 26.274949083503 360.256 L 27.65784114053 351.32032 L 29.040733197556 346.944 L 30.423625254582 340.48768 L 31.806517311609 342.368 L 33.189409368635 336.128 L 34.572301425662 325.11232 L 35.955193482688 327.392 L 37.338085539715 327.17568 L 38.720977596741 330.72 L 40.103869653768 342.98368 L 41.486761710794 334.88 L 42.869653767821 343.83232 L 44.252545824847 342.98368 L 45.635437881874 341.952 L 47.0183299389 345.696 L 48.401221995927 337.99168 L 49.784114052953 338.624 L 51.16700610998 343.2 L 52.549898167006 345.28 L 53.932790224033 346.11199999999997 L 55.315682281059 346.11199999999997 L 56.698574338086 349.856 L 58.081466395112 348.82432 L 59.464358452139 352.56831999999997 L 60.847250509165 371.072 L 62.230142566191 373.152 L 63.613034623218 380.42368 L 64.995926680244 380.224 L 66.378818737271 374.4 L 67.761710794297 380.42368 L 69.144602851324 375.03232 L 70.52749490835 367.94368 L 71.910386965377 365.04832 L 73.293279022403 363.80032 L 74.67617107943 362.752 L 76.059063136456 362.752 L 77.441955193483 362.95168 L 78.824847250509 360.45568000000003 L 80.207739307536 364.416 L 81.590631364562 361.92 L 82.973523421589 364 L 84.356415478615 355.87968 L 85.739307535642 356.096 L 87.122199592668 357.12768 L 88.505091649694 356.31232 L 89.887983706721 351.32032 L 91.270875763747 352.56831999999997 L 92.653767820774 347.97568 L 94.0366598778 360.05632 L 95.419551934827 363.168 L 96.802443991853 366.29632 L 98.18533604888 373.152 L 99.568228105906 373.35168 L 100.95112016293 377.09568 L 102.33401221996 377.09568 L 103.71690427699 370.43968 L 105.09979633401 373.568 L 106.48268839104 377.728 L 107.86558044807 380.02432 L 109.24847250509 390.20799999999997 L 110.63136456212 399.16032 L 112.01425661914 397.06368 L 113.39714867617 398.112 L 114.7800407332 394.16832 L 116.16293279022 388.544 L 117.54582484725 387.07968 L 118.92871690428 381.888 L 120.3116089613 380.42368 L 121.69450101833 380.42368 L 123.07739307536 373.35168 L 124.46028513238 371.904 L 125.84317718941 373.78432 L 127.22606924644 374.81600000000003 L 128.60896130346 380.83968 L 129.99185336049 380.64 L 131.37474541752 369.408 L 132.75763747454 360.05632 L 134.14052953157 361.504 L 135.52342158859 357.56032 L 136.90631364562 355.264 L 138.28920570265 354.23232 L 139.67209775967 357.95968 L 141.0549898167 361.92 L 142.43788187373 361.72032 L 143.82077393075 358.80832 L 145.20366598778 353.6 L 146.58655804481 351.73632 L 147.96945010183 348.39168 L 149.35234215886 348.608 L 150.73523421589 348.82432 L 152.11812627291 352.352 L 153.50101832994 352.13568 L 154.88391038697 347.97568 L 156.26680244399 347.36 L 157.64969450102 348.39168 L 159.03258655804 341.12 L 160.41547861507 349.24032 L 161.7983706721 351.93600000000004 L 163.18126272912 349.24032 L 164.56415478615 350.272 L 165.94704684318 354.016 L 167.3299389002 355.46368 L 168.71283095723 358.176 L 170.09572301426 352.13568 L 171.47861507128 351.93600000000004 L 172.86150712831 352.13568 L 174.24439918534 351.52 L 175.62729124236 357.76 L 177.01018329939 352.76800000000003 L 178.39307535642 355.46368 L 179.77596741344 356.31232 L 181.15885947047 351.104 L 182.54175152749 349.24032 L 183.92464358452 353.18399999999997 L 185.30753564155 346.528 L 186.69042769857 339.25632 L 188.0733197556 337.376 L 189.45621181263 330.10432000000003 L 190.83910386965 319.072 L 192.22199592668 314.69568 L 193.60488798371 321.36832 L 194.98778004073 316.15999999999997 L 196.37067209776 318.24 L 197.75356415479 304.512 L 199.13645621181 296.82432 L 200.51934826884 298.688 L 201.90224032587 301.18399999999997 L 203.28513238289 299.52 L 204.66802443992 298.47168 L 206.05091649694 300.352 L 207.43380855397 292.23168 L 208.816700611 282.68032 L 210.19959266802 273.312 L 211.58248472505 258.752 L 212.96537678208 267.27168 L 214.3482688391 262.08000000000004 L 215.73116089613 249.40032 L 217.11405295316 259.78368 L 218.49694501018 262.71232 L 219.87983706721 258.752 L 221.26272912424 254.49216 L 222.64562118126 227.03616 L 224.02851323829 230.97984 L 225.41140529532 219.648 L 226.79429735234 223.90784 L 228.17718940937 235.04 L 229.5600814664 233.792 L 230.94297352342 237.63584 L 232.32586558045 209.56416 L 233.70875763747 191.57632 L 235.0916496945 185.43616 L 236.47454175153 189.79584 L 237.85743380855 290.368 L 239.24032586558 290.15168 L 240.62321792261 328.64 L 242.00610997963 344.24832000000004 L 243.38900203666 321.46816 L 244.77189409369 310.43584 L 246.15478615071 297.856 L 247.53767820774 287.97184 L 248.92057026477 283.51232 L 250.30346232179 280.58367999999996 L 251.68635437882 278.72 L 253.06924643585 295.55968 L 254.45213849287 272.06399999999996 L 255.8350305499 287.77216 L 257.21792260692 276.73983999999996 L 258.60081466395 290.56768 L 259.98370672098 270.81600000000003 L 261.366598778 287.456 L 262.74949083503 286.72384 L 264.13238289206 281.73184000000003 L 265.51527494908 283.51232 L 266.89816700611 270.91584 L 268.28105906314 295.99232 L 269.66395112016 291.71584 L 271.04684317719 339.352 L 272.42973523422 333.11199999999997 L 273.81262729124 323.024 L 275.19551934827 339.144 L 276.5784114053 340.288 L 277.96130346232 354.64 L 279.34419551935 340.392 L 280.72708757637 324.49664 L 282.1099796334 338.35776 L 283.49287169043 341.2864 L 284.87576374745 336.16128000000003 L 286.25865580448 334.2144 L 287.64154786151 341.2864 L 289.02443991853 342.88384 L 290.40733197556 350.08896 L 291.79022403259 358.29248 L 293.17311608961 356.32896 L 294.55600814664 352.50176 L 295.93890020367 355.21408 L 297.32179226069 360.7552 L 298.70468431772 367.26144 L 300.08757637475 356.54528 L 301.47046843177 357.31072 L 302.8533604888 354.9312 L 304.23625254582 360.65536 L 305.61914460285 374.43328 L 307.00203665988 371.42144 L 308.3849287169 384.56704 L 309.76782077393 381.056 L 311.15071283096 373.9008 L 312.53360488798 376.24703999999997 L 313.91649694501 377.59488 L 315.29938900204 377.76128 L 316.68228105906 376.41344 L 318.06517311609 367.64416 L 319.44806517312 361.28768 L 320.83095723014 359.95648 L 322.21384928717 356.77824 L 323.5967413442 359.35744 L 324.97963340122 359.07456 L 326.36252545825 356.16256 L 327.74541751527 357.12768 L 329.1283095723 355.03104 L 330.51120162933 351.2704 L 331.89409368635 348.192 L 333.27698574338 346.24512 L 334.65987780041 353.05088 L 336.04276985743 354.83136 L 337.42566191446 352.08576 L 338.80855397149 354.24896 L 340.19144602851 351.104 L 341.57433808554 350.30528 L 342.95723014257 352.55168 L 344.34012219959 353.98272 L 345.72301425662 350.688 L 347.10590631365 353.83296 L 348.48879837067 354.44864 L 349.8716904277 358.42560000000003 L 351.25458248473 356.94464 L 352.63747454175 356.512 L 354.02036659878 357.22752 L 355.4032586558 357.52704 L 356.78615071283 359.60704 L 358.16904276986 359.54048 L 359.55193482688 355.06432 L 360.93482688391 352.352 L 362.31771894094 349.95583999999997 L 363.70061099796 349.856 L 365.08350305499 347.54304 L 366.46639511202 346.71104 L 367.84928716904 340.48768 L 369.23217922607 345.04704 L 370.6150712831 346.11199999999997 L 371.99796334012 340.08832 L 373.38085539715 340.02176 L 374.76374745418 337.85856 L 376.1466395112 337.05984 L 377.52953156823 338.99008000000003 L 378.91242362525 335.6288 L 380.29531568228 331.25248 L 381.67820773931 333.81504 L 383.06109979633 335.49568 L 384.44399185336 329.3056 L 385.82688391039 329.75488 L 387.20977596741 335.37919999999997 L 388.59266802444 342.76736 L 389.97556008147 341.91872 L 391.35845213849 339.75552 L 392.74134419552 337.79200000000003 L 394.12423625255 340.08832 L 395.50712830957 343.3664 L 396.8900203666 337.1264 L 398.27291242363 348.3584 L 399.65580448065 344.5312 L 401.03869653768 336.7104 L 402.4215885947 344.448 L 403.80448065173 358.90816 L 405.18737270876 348.39168 L 406.57026476578 351.95264 L 407.95315682281 338.2912 L 409.33604887984 347.36 L 410.71894093686 363.31776 L 412.10183299389 363.53408 L 413.48472505092 373.55136 L 414.86761710794 377.9776 L 416.25050916497 371.77088 L 417.633401222 361.088 L 419.01629327902 354.59839999999997 L 420.39918533605 359.24096 L 421.78207739308 351.6864 L 423.1649694501 343.68255999999997 L 424.54786150713 343.08352 L 425.93075356415 346.49472000000003 L 427.31364562118 345.29664 L 428.69653767821 346.66112 L 430.07942973523 351.20384 L 431.46232179226 346.16192 L 432.84521384929 341.536 L 434.22810590631 345.14688 L 435.61099796334 350.13888 L 436.99389002037 355.08096 L 438.37678207739 348.97408 L 439.75967413442 355.49696 L 441.14256619145 352.66816 L 442.52545824847 353.38368 L 443.9083503055 353.7664 L 445.29124236253 345.41312 L 446.67413441955 341.21984 L 448.05702647658 338.30784 L 449.4399185336 339.2896 L 450.82281059063 340.07168 L 452.20570264766 344.04864 L 453.58859470468 347.87584 L 454.97148676171 348.6912 L 456.35437881874 353.50016 L 457.73727087576 365.88032 L 459.12016293279 358.15936 L 460.50305498982 364.46592 L 461.88594704684 360.672 L 463.26883910387 353.9328 L 464.6517311609 350.70464 L 466.03462321792 339.48928 L 467.41751527495 344.48127999999997 L 468.80040733198 360.8384 L 470.183299389 356.54528 L 471.56619144603 356.096 L 472.94908350306 354.19903999999997 L 474.33197556008 348.64128 L 475.71486761711 346.64448 L 477.09775967413 347.64288 L 478.48065173116 342.8354176 L 479.86354378819 337.7088 L 481.24643584521 334.59712 L 482.62932790224 337.02656 L 484.01221995927 334.44736 L 485.39511201629 325.16224 L 486.77800407332 328.15744 L 488.16089613035 323.26528 L 489.54378818737 331.91808000000003 L 490.9266802444 329.98784 L 492.30957230143 330.23744 L 493.69246435845 320.78592000000003 L 495.07535641548 318.68928 L 496.45824847251 323.88096 L 497.84114052953 321.45152 L 499.22403258656 314.97856 L 500.60692464358 322.84928 L 501.98981670061 323.53152 L 503.37270875764 320.12032 L 504.75560081466 320.03712 L 506.13849287169 317.0752 L 507.52138492872 315.76063999999997 L 508.90427698574 315.36127999999997 L 510.28716904277 315.89376 L 511.6700610998 311.86688 L 513.05295315682 325.51168 L 514.43584521385 314.03008 L 515.81873727088 315.19488 L 517.2016293279 310.73536 L 518.58452138493 306.54208 L 519.96741344196 303.24736 L 521.35030549898 301.96608000000003 L 522.73319755601 309.3376 L 524.11608961303 314.54592 L 525.49898167006 309.08799999999997 L 526.88187372709 305.04448 L 528.26476578411 306.12608 L 529.64765784114 316.992 L 531.03054989817 322.3168 L 532.41344195519 317.45792 L 533.79633401222 310.8352 L 535.17922606925 307.39072 L 536.56211812627 312.59904 L 537.9450101833 309.55392 L 539.32790224033 303.68 L 540.71079429735 305.19424 L 542.09368635438 300.75136 L 543.47657841141 282.59712 L 544.85947046843 272.41344000000004 L 546.24236252546 275.17568 L 547.62525458248 265.20831999999996 L 549.00814663951 269.83424 L 550.39103869654 271.23199999999997 L 551.77393075356 279.30240000000003 L 553.15682281059 263.9104 L 554.53971486762 263.2448 L 555.92260692464 264.88483840000004 L 557.30549898167 257.27936 L 558.6883910387 248.6016 L 560.07128309572 242.1306368 L 561.45417515275 237.26976 L 562.83706720978 223.59168 L 564.2199592668 223.69152 L 565.60285132383 232.86848 L 566.98574338086 234.84032 L 568.36863543788 237.91872 L 569.75152749491 242.29504 L 571.13441955193 224.5568 L 572.51731160896 225.45536 L 573.90020366599 228.45056 L 575.28309572301 234.26624 L 576.66598778004 231.36256 L 578.04887983707 254.79168 L 579.43177189409 243.776 L 580.81466395112 242.34496 L 582.19755600815 247.55328 L 583.58044806517 222.8928 L 584.9633401222 239.68256 L 586.34623217923 229.9648 L 587.72912423625 222.976 L 589.11201629328 233.19296 L 590.49490835031 220.16384 L 591.87780040733 208.13312 L 593.26069246436 196.75136 L 594.64358452138 184.0384 L 596.02647657841 195.75296 L 597.40936863544 222.79296 L 598.79226069246 266.19007999999997 L 600.17515274949 256.65536 L 601.55804480652 254.07616 L 602.94093686354 259.48416 L 604.32382892057 255.19104 L 605.7067209776 249.28384 L 607.08961303462 255.80672 L 608.47250509165 252.86144 L 609.85539714868 219.84768 L 611.2382892057 204.55552 L 612.62118126273 201.89312 L 614.00407331976 171.10912 L 615.38696537678 162.68928 L 616.76985743381 160.06016 L 618.15274949083 142.70463999999998 L 619.53564154786 157.18144 L 620.91853360489 163.43808 L 622.30142566191 149.84320000000002 L 623.68431771894 143.61984 L 625.06720977597 133.30304 L 626.45010183299 151.70688 L 627.83299389002 152.50560000000002 L 629.21588594705 168.7296 L 630.59877800407 180.0448 L 631.9816700611 189.16352 L 633.36456211813 217.38496 L 634.74745417515 195.96928 L 636.13034623218 228.61696 L 637.51323828921 224.04096 L 638.89613034623 226.75328 L 640.27902240326 242.112 L 641.66191446029 206.53568 L 643.04480651731 186.06848 L 644.42769857434 192.8576 L 645.81059063136 183.10656 L 647.19348268839 177.4656 L 648.57637474542 199.16416 L 649.95926680244 185.96864 L 651.34215885947 190.17856 L 652.7250509165 173.98784 L 654.10794297352 153.15456 L 655.49083503055 172.50688 L 656.87372708758 174.68672 L 658.2566191446 184.60416 L 659.63951120163 156.28287999999998 L 661.02240325866 132.9536 L 662.40529531568 125.86496 L 663.78818737271 106.39616000000001 L 665.17107942974 82.70080000000002 L 666.55397148676 96.79487999999998 L 667.93686354379 78.34111999999999 L 669.31975560081 79.57247999999998 L 670.70264765784 61.95071999999999 L 672.08553971487 85.84575999999998" fill="none"></path></g><g clip-path="none" transform="translate(8,40) scale(1 1)" opacity="1" data-z-index="90" class="highcharts-markers highcharts-series-0 highcharts-line-series"></g></g><text y="512" style="color: rgb(211, 211, 211); font-size: 15px; fill: rgb(211, 211, 211);" data-z-index="4" class="highcharts-title" text-anchor="end" x="740"></text><text y="25" style="color: rgb(51, 51, 51); fill: rgb(51, 51, 51); font-size: 15px;" data-z-index="4" class="highcharts-subtitle" text-anchor="start" x="14"><tspan style="color: rgb(211, 211, 211); fill: rgb(211, 211, 211);">J.P. Morgan Chase</tspan></text><text y="527" style="color: rgb(102, 102, 102); fill: rgb(102, 102, 102);" data-z-index="4" class="highcharts-caption" text-anchor="start" x="0"></text><g data-z-index="7" class="highcharts-axis-labels highcharts-xaxis-labels"><text opacity="1" y="476" style="color: rgb(227, 225, 225); cursor: default; font-size: 15px; font-weight: 400; fill: rgb(227, 225, 225);" transform="translate(0,0)" text-anchor="middle" x="23.211812627291">1985</text><text opacity="1" y="476" style="color: rgb(227, 225, 225); cursor: default; font-size: 15px; font-weight: 400; fill: rgb(227, 225, 225);" transform="translate(0,0)" text-anchor="middle" x="106.18533604888">1990</text><text opacity="1" y="476" style="color: rgb(227, 225, 225); cursor: default; font-size: 15px; font-weight: 400; fill: rgb(227, 225, 225);" transform="translate(0,0)" text-anchor="middle" x="189.15885947047">1995</text><text opacity="1" y="476" style="color: rgb(227, 225, 225); cursor: default; font-size: 15px; font-weight: 400; fill: rgb(227, 225, 225);" transform="translate(0,0)" text-anchor="middle" x="272.13238289206">2000</text><text opacity="1" y="476" style="color: rgb(227, 225, 225); cursor: default; font-size: 15px; font-weight: 400; fill: rgb(227, 225, 225);" transform="translate(0,0)" text-anchor="middle" x="355.10590631365">2005</text><text opacity="1" y="476" style="color: rgb(227, 225, 225); cursor: default; font-size: 15px; font-weight: 400; fill: rgb(227, 225, 225);" transform="translate(0,0)" text-anchor="middle" x="438.07942973523">2010</text><text opacity="1" y="476" style="color: rgb(227, 225, 225); cursor: default; font-size: 15px; font-weight: 400; fill: rgb(227, 225, 225);" transform="translate(0,0)" text-anchor="middle" x="521.05295315682">2015</text><text opacity="1" y="476" style="color: rgb(227, 225, 225); cursor: default; font-size: 15px; font-weight: 400; fill: rgb(227, 225, 225);" transform="translate(0,0)" text-anchor="middle" x="604.02647657841">2020</text></g><g data-z-index="7" class="highcharts-axis-labels highcharts-yaxis-labels"><text visibility="hidden" style="color: rgb(227, 225, 225); cursor: default; font-size: 15px; fill: rgb(227, 225, 225);" transform="translate(0,0)" text-anchor="start" x="0"><tspan>0</tspan></text><text opacity="1" y="419" style="color: rgb(227, 225, 225); cursor: default; font-size: 15px; fill: rgb(227, 225, 225);" transform="translate(0,0)" text-anchor="start" x="695">25</text><text opacity="1" y="377" style="color: rgb(227, 225, 225); cursor: default; font-size: 15px; fill: rgb(227, 225, 225);" transform="translate(0,0)" text-anchor="start" x="695">50</text><text opacity="1" y="336" style="color: rgb(227, 225, 225); cursor: default; font-size: 15px; fill: rgb(227, 225, 225);" transform="translate(0,0)" text-anchor="start" x="695">75</text><text opacity="1" y="294" style="color: rgb(227, 225, 225); cursor: default; font-size: 15px; fill: rgb(227, 225, 225);" transform="translate(0,0)" text-anchor="start" x="695">100</text><text opacity="1" y="253" style="color: rgb(227, 225, 225); cursor: default; font-size: 15px; fill: rgb(227, 225, 225);" transform="translate(0,0)" text-anchor="start" x="695">125</text><text opacity="1" y="211" style="color: rgb(227, 225, 225); cursor: default; font-size: 15px; fill: rgb(227, 225, 225);" transform="translate(0,0)" text-anchor="start" x="695">150</text><text opacity="1" y="169" style="color: rgb(227, 225, 225); cursor: default; font-size: 15px; fill: rgb(227, 225, 225);" transform="translate(0,0)" text-anchor="start" x="695">175</text><text opacity="1" y="128" style="color: rgb(227, 225, 225); cursor: default; font-size: 15px; fill: rgb(227, 225, 225);" transform="translate(0,0)" text-anchor="start" x="695">200</text><text opacity="1" y="86" style="color: rgb(227, 225, 225); cursor: default; font-size: 15px; fill: rgb(227, 225, 225);" transform="translate(0,0)" text-anchor="start" x="695">225</text><text visibility="hidden" style="color: rgb(227, 225, 225); cursor: default; font-size: 15px; fill: rgb(227, 225, 225);" transform="translate(0,0)" text-anchor="start" x="0">250</text></g><g data-z-index="7" class="highcharts-axis-labels highcharts-yaxis-labels"></g><g data-z-index="7" class="highcharts-axis-labels highcharts-yaxis-labels"></g><g clip-path="url(#highcharts-iyamali-2476-)" data-z-index="99" class="highcharts-control-points"></g><g data-z-index="9999" class="highcharts-axis highcharts-yaxis"><path opacity="1" d="M 688 456.5 L 693 456.5" stroke-width="1" stroke="#333333" class="highcharts-tick" fill="none"></path><path opacity="1" d="M 688 414.5 L 693 414.5" stroke-width="1" stroke="#333333" class="highcharts-tick" fill="none"></path><path opacity="1" d="M 688 373.5 L 693 373.5" stroke-width="1" stroke="#333333" class="highcharts-tick" fill="none"></path><path opacity="1" d="M 688 331.5 L 693 331.5" stroke-width="1" stroke="#333333" class="highcharts-tick" fill="none"></path><path opacity="1" d="M 688 290.5 L 693 290.5" stroke-width="1" stroke="#333333" class="highcharts-tick" fill="none"></path><path opacity="1" d="M 688 248.5 L 693 248.5" stroke-width="1" stroke="#333333" class="highcharts-tick" fill="none"></path><path opacity="1" d="M 688 206.5 L 693 206.5" stroke-width="1" stroke="#333333" class="highcharts-tick" fill="none"></path><path opacity="1" d="M 688 165.5 L 693 165.5" stroke-width="1" stroke="#333333" class="highcharts-tick" fill="none"></path><path opacity="1" d="M 688 123.5 L 693 123.5" stroke-width="1" stroke="#333333" class="highcharts-tick" fill="none"></path><path opacity="1" d="M 688 82.5 L 693 82.5" stroke-width="1" stroke="#333333" class="highcharts-tick" fill="none"></path><path opacity="1" d="M 688 39.5 L 693 39.5" stroke-width="1" stroke="#333333" class="highcharts-tick" fill="none"></path><path d="M 688.5 40 L 688.5 456" data-z-index="7" stroke-width="1" stroke="#616161" class="highcharts-axis-line" fill="none"></path></g><path class="crosshair-fix-horizontal" visibility="hidden" data-z-index="6" stroke-dasharray="8,3" stroke-width="1" stroke="#757575" d="M 8 0 L 1800 0" fill="none"></path><path class="crosshair-fix-vertical" visibility="hidden" data-z-index="6" stroke-dasharray="8,3" stroke-width="1" stroke="#757575" d="M 0 40 L 0 1160" fill="none"></path></svg>