<?xml version="1.0" standalone="no"?><!DOCTYPE svg PUBLIC "-//W3C//DTD SVG 1.1//EN" "http://www.w3.org/Graphics/SVG/1.1/DTD/svg11.dtd"><svg xmlns:xlink="http://www.w3.org/1999/xlink" version="1.1" class="highcharts-root" style="font-family: &quot;Helvetica Neue&quot;, Helvetica, Arial, sans-serif; font-size: 12px;" xmlns="http://www.w3.org/2000/svg" width="750" height="520" viewBox="0 0 750 520"><desc>Created with Highcharts 10.1.0</desc><defs><linearGradient x1="0" y1="0" x2="500" y2="500" gradientUnits="userSpaceOnUse" id="highcharts-s6xo9dj-4422"><stop offset="0" stop-color="rgb(35, 35, 35)" stop-opacity="1"></stop></linearGradient><clipPath id="highcharts-s6xo9dj-4423-"><rect x="0" y="0" width="679" height="416" fill="none"></rect></clipPath><clipPath id="highcharts-s6xo9dj-4903-"><rect x="0" y="0" width="679" height="416" fill="none"></rect></clipPath><clipPath id="highcharts-s6xo9dj-5388-"><rect x="8" y="40" width="679" height="416" fill="none"></rect></clipPath></defs><rect fill="url(#highcharts-s6xo9dj-4422)" class="highcharts-background" x="0" y="0" width="750" height="520" rx="0" ry="0"></rect><rect fill="none" class="highcharts-plot-background" x="8" y="40" width="679" height="416"></rect><g class="highcharts-grid highcharts-xaxis-grid" data-z-index="1"><path fill="none" stroke="#333333" stroke-width="1" stroke-dasharray="none" data-z-index="1" class="highcharts-grid-line" d="M 93.5 40 L 93.5 456" opacity="1"></path><path fill="none" stroke="#333333" stroke-width="1" stroke-dasharray="none" data-z-index="1" class="highcharts-grid-line" d="M 211.5 40 L 211.5 456" opacity="1"></path><path fill="none" stroke="#333333" stroke-width="1" stroke-dasharray="none" data-z-index="1" class="highcharts-grid-line" d="M 329.5 40 L 329.5 456" opacity="1"></path><path fill="none" stroke="#333333" stroke-width="1" stroke-dasharray="none" data-z-index="1" class="highcharts-grid-line" d="M 447.5 40 L 447.5 456" opacity="1"></path><path fill="none" stroke="#333333" stroke-width="1" stroke-dasharray="none" data-z-index="1" class="highcharts-grid-line" d="M 565.5 40 L 565.5 456" opacity="1"></path><path fill="none" stroke="#333333" stroke-width="1" stroke-dasharray="none" data-z-index="1" class="highcharts-grid-line" d="M 683.5 40 L 683.5 456" opacity="1"></path></g><g class="highcharts-grid highcharts-yaxis-grid" data-z-index="1"><path fill="none" stroke="#333333" stroke-width="1" stroke-dasharray="none" data-z-index="1" class="highcharts-grid-line" d="M 8 456.5 L 687 456.5" opacity="1"></path><path fill="none" stroke="#333333" stroke-width="1" stroke-dasharray="none" data-z-index="1" class="highcharts-grid-line" d="M 8 404.5 L 687 404.5" opacity="1"></path><path fill="none" stroke="#333333" stroke-width="1" stroke-dasharray="none" data-z-index="1" class="highcharts-grid-line" d="M 8 352.5 L 687 352.5" opacity="1"></path><path fill="none" stroke="#333333" stroke-width="1" stroke-dasharray="none" data-z-index="1" class="highcharts-grid-line" d="M 8 300.5 L 687 300.5" opacity="1"></path><path fill="none" stroke="#333333" stroke-width="1" stroke-dasharray="none" data-z-index="1" class="highcharts-grid-line" d="M 8 248.5 L 687 248.5" opacity="1"></path><path fill="none" stroke="#333333" stroke-width="1" stroke-dasharray="none" data-z-index="1" class="highcharts-grid-line" d="M 8 196.5 L 687 196.5" opacity="1"></path><path fill="none" stroke="#333333" stroke-width="1" stroke-dasharray="none" data-z-index="1" class="highcharts-grid-line" d="M 8 144.5 L 687 144.5" opacity="1"></path><path fill="none" stroke="#333333" stroke-width="1" stroke-dasharray="none" data-z-index="1" class="highcharts-grid-line" d="M 8 92.5 L 687 92.5" opacity="1"></path><path fill="none" stroke="#333333" stroke-width="1" stroke-dasharray="none" data-z-index="1" class="highcharts-grid-line" d="M 8 39.5 L 687 39.5" opacity="1"></path></g><g class="highcharts-grid highcharts-yaxis-grid" data-z-index="1"></g><g class="highcharts-grid highcharts-yaxis-grid" data-z-index="1"></g><rect fill="none" class="highcharts-plot-border" data-z-index="1" x="8" y="40" width="679" height="416"></rect><g class="highcharts-axis highcharts-xaxis" data-z-index="2"><path fill="none" class="highcharts-axis-line" stroke="#616161" stroke-width="1" data-z-index="7" d="M 8 456.5 L 687 456.5"></path></g><g class="highcharts-axis highcharts-yaxis" data-z-index="2"><path fill="none" class="highcharts-axis-line" data-z-index="7" d="M 720 40 L 720 456"></path></g><g class="highcharts-axis highcharts-yaxis" data-z-index="2"><path fill="none" class="highcharts-axis-line" data-z-index="7" d="M 6.5 40 L 6.5 456"></path></g><g class="highcharts-series-group" data-z-index="3"><g class="highcharts-series highcharts-series-0 highcharts-line-series" data-z-index="90" opacity="1" transform="translate(8,40) scale(1 1)" clip-path="url(#highcharts-s6xo9dj-4903-)"><path fill="none" d="M 0 324.48 L 1.4057971014493 310.96 L 2.8115942028986 315.64 L 4.2173913043478 321.6304 L 5.6231884057971 350.2096 L 7.0289855072464 365.8096 L 8.4347826086957 366.08 L 9.8405797101449 360.88 L 11.246376811594 358.8 L 12.652173913043 352.56 L 14.057971014493 353.6 L 15.463768115942 349.1904 L 16.869565217391 344.24 L 18.275362318841 338 L 19.68115942029 334.0896 L 21.086956521739 338 L 22.492753623188 337.2096 L 23.898550724638 329.9296 L 25.304347826087 330.2 L 26.710144927536 330.9696 L 28.115942028986 332.8 L 29.521739130435 346.32 L 30.927536231884 335.1504 L 32.333333333333 329.68 L 33.739130434783 321.6096 L 35.144927536232 323.96 L 36.550724637681 316.15999999999997 L 37.95652173913 302.3904 L 39.36231884058 305.24 L 40.768115942029 304.9696 L 42.173913043478 309.4 L 43.579710144928 324.7296 L 44.985507246377 314.6 L 46.391304347826 325.7904 L 47.797101449275 324.7296 L 49.202898550725 323.44 L 50.608695652174 328.12 L 52.014492753623 318.4896 L 53.420289855072 319.28 L 54.826086956522 325 L 56.231884057971 327.6 L 57.63768115942 328.64 L 59.04347826087 328.64 L 60.449275362319 333.32 L 61.855072463768 332.0304 L 63.260869565217 336.7104 L 64.666666666667 359.84000000000003 L 66.072463768116 362.44 L 67.478260869565 371.5296 L 68.884057971014 371.28 L 70.289855072464 364 L 71.695652173913 371.5296 L 73.101449275362 364.7904 L 74.507246376812 355.9296 L 75.913043478261 352.3104 L 77.31884057971 350.7504 L 78.724637681159 349.44 L 80.130434782609 349.44 L 81.536231884058 349.6896 L 82.942028985507 346.5696 L 84.347826086957 351.52 L 85.753623188406 348.4 L 87.159420289855 351 L 88.565217391304 340.8496 L 89.971014492754 341.12 L 91.376811594203 342.4096 L 92.782608695652 341.3904 L 94.188405797101 335.1504 L 95.594202898551 336.7104 L 97 330.9696 L 98.405797101449 346.0704 L 99.811594202899 349.96 L 101.21739130435 353.8704 L 102.6231884058 362.44 L 104.02898550725 362.6896 L 105.4347826087 367.3696 L 106.84057971014 367.3696 L 108.24637681159 359.0496 L 109.65217391304 362.96 L 111.05797101449 368.15999999999997 L 112.46376811594 371.0304 L 113.86956521739 383.76 L 115.27536231884 394.9504 L 116.68115942029 392.3296 L 118.08695652174 393.64 L 119.49275362319 388.7104 L 120.89855072464 381.68 L 122.30434782609 379.8496 L 123.71014492754 373.36 L 125.11594202899 371.5296 L 126.52173913043 371.5296 L 127.92753623188 362.6896 L 129.33333333333 360.88 L 130.73913043478 363.23040000000003 L 132.14492753623 364.52 L 133.55072463768 372.0496 L 134.95652173913 371.8 L 136.36231884058 357.76 L 137.76811594203 346.0704 L 139.17391304348 347.88 L 140.57971014493 342.9504 L 141.98550724638 340.08 L 143.39130434783 338.7904 L 144.79710144928 343.44960000000003 L 146.20289855072 348.4 L 147.60869565217 348.1504 L 149.01449275362 344.5104 L 150.42028985507 338 L 151.82608695652 335.6704 L 153.23188405797 331.4896 L 154.63768115942 331.76 L 156.04347826087 332.0304 L 157.44927536232 336.44 L 158.85507246377 336.1696 L 160.26086956522 330.9696 L 161.66666666667 330.2 L 163.07246376812 331.4896 L 164.47826086957 322.4 L 165.88405797101 332.55039999999997 L 167.28985507246 335.92 L 168.69565217391 332.55039999999997 L 170.10144927536 333.84000000000003 L 171.50724637681 338.52 L 172.91304347826 340.3296 L 174.31884057971 343.72 L 175.72463768116 336.1696 L 177.13043478261 335.92 L 178.53623188406 336.1696 L 179.94202898551 335.4 L 181.34782608696 343.2 L 182.75362318841 336.96 L 184.15942028986 340.3296 L 185.5652173913 341.3904 L 186.97101449275 334.88 L 188.3768115942 332.55039999999997 L 189.78260869565 337.48 L 191.1884057971 329.15999999999997 L 192.59420289855 320.0704 L 194 317.72 L 195.40579710145 308.6304 L 196.8115942029 294.84000000000003 L 198.21739130435 289.3696 L 199.6231884058 297.7104 L 201.02898550725 291.2 L 202.4347826087 293.8 L 203.84057971014 276.64 L 205.24637681159 267.0304 L 206.65217391304 269.36 L 208.05797101449 272.48 L 209.46376811594 270.4 L 210.86956521739 269.0896 L 212.27536231884 271.44 L 213.68115942029 261.2896 L 215.08695652174 249.3504 L 216.49275362319 237.64 L 217.89855072464 219.44 L 219.30434782609 230.0896 L 220.71014492754 223.6 L 222.11594202899 207.7504 L 223.52173913043 220.7296 L 224.92753623188 224.3904 L 226.33333333333 219.44 L 227.73913043478 214.1152 L 229.14492753623 179.7952 L 230.55072463768 184.7248 L 231.95652173913 170.56 L 233.36231884058 175.8848 L 234.76811594203 189.8 L 236.17391304348 188.24 L 237.57971014493 193.0448 L 238.98550724638 157.9552 L 240.39130434783 135.47039999999998 L 241.79710144928 127.79520000000002 L 243.20289855072 133.2448 L 244.60869565217 258.96000000000004 L 246.01449275362 258.68960000000004 L 247.42028985507 306.8 L 248.82608695652 326.3104 L 250.23188405797 297.8352 L 251.63768115942 284.0448 L 253.04347826087 268.32 L 254.44927536232 255.9648 L 255.85507246377 250.3904 L 257.26086956522 246.7296 L 258.66666666667 244.4 L 260.07246376812 265.44960000000003 L 261.47826086957 236.08 L 262.88405797101 255.7152 L 264.28985507246 241.9248 L 265.69565217391 259.2096 L 267.10144927536 234.52 L 268.50724637681 255.32 L 269.91304347826 254.4048 L 271.31884057971 248.1648 L 272.72463768116 250.3904 L 274.13043478261 234.6448 L 275.53623188406 265.9904 L 276.94202898551 260.64480000000003 L 278.34782608696 320.19 L 279.75362318841 312.39 L 281.15942028986 299.78 L 282.5652173913 319.93 L 283.97101449275 321.36 L 285.3768115942 339.3 L 286.78260869565 321.49 L 288.1884057971 301.62080000000003 L 289.59420289855 318.9472 L 291 322.608 L 292.40579710145 316.2016 L 293.8115942029 313.76800000000003 L 295.21739130435 322.608 L 296.6231884058 324.6048 L 298.02898550725 333.6112 L 299.4347826087 343.8656 L 300.84057971014 341.4112 L 302.24637681159 336.6272 L 303.65217391304 340.0176 L 305.05797101449 346.944 L 306.46376811594 355.0768 L 307.86956521739 341.6816 L 309.27536231884 342.6384 L 310.68115942029 339.664 L 312.08695652174 346.8192 L 313.49275362319 364.0416 L 314.89855072464 360.2768 L 316.30434782609 376.7088 L 317.71014492754 372.32 L 319.11594202899 363.376 L 320.52173913043 366.3088 L 321.92753623188 367.9936 L 323.33333333333 368.2016 L 324.73913043478 366.5168 L 326.14492753623 355.5552 L 327.55072463768 347.6096 L 328.95652173913 345.9456 L 330.36231884058 341.9728 L 331.76811594203 345.1968 L 333.17391304348 344.8432 L 334.57971014493 341.2032 L 335.98550724638 342.4096 L 337.39130434783 339.7888 L 338.79710144928 335.08799999999997 L 340.20289855072 331.24 L 341.60869565217 328.8064 L 343.01449275362 337.3136 L 344.42028985507 339.5392 L 345.82608695652 336.10720000000003 L 347.23188405797 338.8112 L 348.63768115942 334.88 L 350.04347826087 333.8816 L 351.44927536232 336.6896 L 352.85507246377 338.47839999999997 L 354.26086956522 334.36 L 355.66666666667 338.2912 L 357.07246376812 339.0608 L 358.47826086957 344.032 L 359.88405797101 342.1808 L 361.28985507246 341.64 L 362.69565217391 342.5344 L 364.10144927536 342.9088 L 365.50724637681 345.5088 L 366.91304347826 345.42560000000003 L 368.31884057971 339.8304 L 369.72463768116 336.44 L 371.13043478261 333.4448 L 372.53623188406 333.32 L 373.94202898551 330.4288 L 375.34782608696 329.3888 L 376.75362318841 321.6096 L 378.15942028985 327.3088 L 379.5652173913 328.64 L 380.97101449275 321.1104 L 382.3768115942 321.0272 L 383.78260869565 318.3232 L 385.1884057971 317.3248 L 386.59420289855 319.7376 L 388 315.536 L 389.40579710145 310.0656 L 390.8115942029 313.2688 L 392.21739130435 315.3696 L 393.6231884058 307.632 L 395.02898550725 308.1936 L 396.4347826087 315.224 L 397.84057971014 324.4592 L 399.24637681159 323.3984 L 400.65217391304 320.6944 L 402.05797101449 318.24 L 403.46376811594 321.1104 L 404.86956521739 325.20799999999997 L 406.27536231884 317.408 L 407.68115942029 331.448 L 409.08695652174 326.664 L 410.49275362319 316.88800000000003 L 411.89855072464 326.56 L 413.30434782609 344.6352 L 414.71014492754 331.4896 L 416.11594202899 335.94079999999997 L 417.52173913043 318.86400000000003 L 418.92753623188 330.2 L 420.33333333333 350.1472 L 421.73913043478 350.4176 L 423.14492753623 362.9392 L 424.55072463768 368.472 L 425.95652173913 360.7136 L 427.36231884058 347.36 L 428.76811594203 339.248 L 430.17391304348 345.0512 L 431.57971014493 335.608 L 432.98550724638 325.6032 L 434.39130434783 324.8544 L 435.79710144928 329.1184 L 437.20289855072 327.62080000000003 L 438.60869565217 329.32640000000004 L 440.01449275362 335.0048 L 441.42028985507 328.7024 L 442.82608695652 322.92 L 444.23188405797 327.4336 L 445.63768115942 333.67359999999996 L 447.04347826087 339.8512 L 448.44927536232 332.2176 L 449.85507246377 340.3712 L 451.26086956522 336.8352 L 452.66666666667 337.7296 L 454.07246376812 338.20799999999997 L 455.47826086957 327.7664 L 456.88405797101 322.5248 L 458.28985507246 318.8848 L 459.69565217391 320.11199999999997 L 461.10144927536 321.0896 L 462.50724637681 326.0608 L 463.91304347826 330.8448 L 465.31884057971 331.86400000000003 L 466.72463768116 337.8752 L 468.13043478261 353.3504 L 469.53623188406 343.6992 L 470.94202898551 351.5824 L 472.34782608696 346.84000000000003 L 473.75362318841 338.416 L 475.15942028986 334.3808 L 476.5652173913 320.3616 L 477.97101449275 326.6016 L 479.3768115942 347.048 L 480.78260869565 341.6816 L 482.1884057971 341.12 L 483.59420289855 338.7488 L 485 331.8016 L 486.40579710145 329.3056 L 487.8115942029 330.5536 L 489.21739130435 324.544272 L 490.6231884058 318.13599999999997 L 492.02898550725 314.2464 L 493.4347826087 317.28319999999997 L 494.84057971014 314.05920000000003 L 496.24637681159 302.4528 L 497.65217391304 306.1968 L 499.05797101449 300.0816 L 500.46376811594 310.8976 L 501.86956521739 308.4848 L 503.27536231884 308.7968 L 504.68115942029 296.9824 L 506.08695652174 294.3616 L 507.49275362319 300.8512 L 508.89855072464 297.8144 L 510.30434782609 289.7232 L 511.71014492754 299.5616 L 513.11594202899 300.4144 L 514.52173913043 296.1504 L 515.92753623188 296.0464 L 517.33333333333 292.344 L 518.73913043478 290.7008 L 520.14492753623 290.2016 L 521.55072463768 290.8672 L 522.95652173913 285.8336 L 524.36231884058 302.8896 L 525.76811594203 288.5376 L 527.17391304348 289.9936 L 528.57971014493 284.4192 L 529.98550724638 279.1776 L 531.39130434783 275.05920000000003 L 532.79710144928 273.4576 L 534.20289855072 282.672 L 535.60869565217 289.18240000000003 L 537.01449275362 282.36 L 538.42028985507 277.3056 L 539.82608695652 278.6576 L 541.23188405797 292.24 L 542.63768115942 298.896 L 544.04347826087 292.8224 L 545.44927536232 284.544 L 546.85507246377 280.2384 L 548.26086956522 286.74879999999996 L 549.66666666667 282.9424 L 551.07246376812 275.6 L 552.47826086957 277.4928 L 553.88405797101 271.9392 L 555.28985507246 249.2464 L 556.69565217391 236.5168 L 558.10144927536 239.9696 L 559.50724637681 227.5104 L 560.91304347826 233.2928 L 562.31884057971 235.04 L 563.72463768116 245.128 L 565.13043478261 225.888 L 566.53623188406 225.056 L 567.94202898551 227.106048 L 569.34782608696 217.5992 L 570.75362318841 206.752 L 572.15942028986 198.663296 L 573.5652173913 192.5872 L 574.97101449275 175.4896 L 576.3768115942 175.6144 L 577.78260869565 187.0856 L 579.1884057971 189.5504 L 580.59420289855 193.3984 L 582 198.8688 L 583.40579710145 176.696 L 584.8115942029 177.8192 L 586.21739130435 181.5632 L 587.6231884058 188.8328 L 589.02898550725 185.2032 L 590.4347826087 214.4896 L 591.84057971014 200.72 L 593.24637681159 198.9312 L 594.65217391304 205.4416 L 596.05797101449 174.616 L 597.46376811594 195.6032 L 598.86956521739 183.456 L 600.27536231884 174.72 L 601.68115942029 187.4912 L 603.08695652174 171.2048 L 604.49275362319 156.1664 L 605.89855072464 141.93920000000003 L 607.30434782609 126.048 L 608.71014492754 140.69119999999998 L 610.11594202899 174.4912 L 611.52173913043 228.7376 L 612.92753623188 216.8192 L 614.33333333333 213.5952 L 615.73913043478 220.3552 L 617.14492753623 214.9888 L 618.55072463768 207.6048 L 619.95652173913 215.7584 L 621.36231884058 212.0768 L 622.76811594203 170.8096 L 624.17391304348 151.69439999999997 L 625.57971014493 148.3664 L 626.98550724638 109.88639999999998 L 628.39130434783 99.36160000000001 L 629.79710144928 96.0752 L 631.20289855072 74.38080000000002 L 632.60869565217 92.47680000000003 L 634.01449275362 100.29759999999999 L 635.42028985507 83.30399999999997 L 636.82608695652 75.52480000000003 L 638.23188405797 62.62880000000001 L 639.63768115942 85.6336 L 641.04347826087 86.632 L 642.44927536232 106.91199999999998 L 643.85507246377 121.05599999999998 L 645.26086956522 132.45440000000002 L 646.66666666667 167.7312 L 648.07246376812 140.96159999999998 L 649.47826086957 181.7712 L 650.88405797101 176.0512 L 652.28985507246 179.4416 L 653.69565217391 198.64 L 655.10144927536 154.1696 L 656.50724637681 128.5856 L 657.91304347826 137.072 L 659.31884057971 124.88319999999999 L 660.72463768116 117.832 L 662.13043478261 144.9552 L 663.53623188406 128.4608 L 664.94202898551 133.72320000000002 L 666.34782608696 113.4848 L 667.75362318841 87.44319999999999 L 669.15942028986 111.6336 L 670.5652173913 114.35840000000002 L 671.97101449275 117.9984" class="highcharts-graph" data-z-index="1" stroke="#2962FF" stroke-width="2" stroke-linejoin="round" stroke-linecap="round"></path></g><g class="highcharts-markers highcharts-series-0 highcharts-line-series" data-z-index="90" opacity="1" transform="translate(8,40) scale(1 1)" clip-path="none"></g></g><text x="740" text-anchor="end" class="highcharts-title" data-z-index="4" style="color: rgb(211, 211, 211); font-size: 15px; fill: rgb(211, 211, 211);" y="512"></text><text x="14" text-anchor="start" class="highcharts-subtitle" data-z-index="4" style="color: rgb(51, 51, 51); fill: rgb(51, 51, 51); font-size: 15px;" y="25"><tspan style="color: rgb(211, 211, 211); fill: rgb(211, 211, 211);">J.P. Morgan Chase</tspan></text><text x="0" text-anchor="start" class="highcharts-caption" data-z-index="4" style="color: rgb(102, 102, 102); fill: rgb(102, 102, 102);" y="527"></text><g class="highcharts-axis-labels highcharts-xaxis-labels" data-z-index="7"><text x="93.668423364076" text-anchor="middle" transform="translate(0,0)" style="color: rgb(227, 225, 225); cursor: default; font-size: 15px; font-weight: 400; fill: rgb(227, 225, 225);" y="476" opacity="1">1989</text><text x="211.79664855072" text-anchor="middle" transform="translate(0,0)" style="color: rgb(227, 225, 225); cursor: default; font-size: 15px; font-weight: 400; fill: rgb(227, 225, 225);" y="476" opacity="1">1996</text><text x="329.88218793829" text-anchor="middle" transform="translate(0,0)" style="color: rgb(227, 225, 225); cursor: default; font-size: 15px; font-weight: 400; fill: rgb(227, 225, 225);" y="476" opacity="1">2003</text><text x="447.89045183291" text-anchor="middle" transform="translate(0,0)" style="color: rgb(227, 225, 225); cursor: default; font-size: 15px; font-weight: 400; fill: rgb(227, 225, 225);" y="476" opacity="1">2010</text><text x="566.01624945103" text-anchor="middle" transform="translate(0,0)" style="color: rgb(227, 225, 225); cursor: default; font-size: 15px; font-weight: 400; fill: rgb(227, 225, 225);" y="476" opacity="1">2017</text><text x="684.23526570048" text-anchor="middle" transform="translate(0,0)" style="color: rgb(227, 225, 225); cursor: default; font-size: 15px; font-weight: 400; fill: rgb(227, 225, 225);" y="476" opacity="1">2024</text></g><g class="highcharts-axis-labels highcharts-yaxis-labels" data-z-index="7"><text x="0" text-anchor="start" transform="translate(0,0)" style="color: rgb(227, 225, 225); cursor: default; font-size: 15px; fill: rgb(227, 225, 225);" visibility="hidden"><tspan>0</tspan></text><text x="695" text-anchor="start" transform="translate(0,0)" style="color: rgb(227, 225, 225); cursor: default; font-size: 15px; fill: rgb(227, 225, 225);" y="409" opacity="1">25</text><text x="695" text-anchor="start" transform="translate(0,0)" style="color: rgb(227, 225, 225); cursor: default; font-size: 15px; fill: rgb(227, 225, 225);" y="357" opacity="1">50</text><text x="695" text-anchor="start" transform="translate(0,0)" style="color: rgb(227, 225, 225); cursor: default; font-size: 15px; fill: rgb(227, 225, 225);" y="305" opacity="1">75</text><text x="695" text-anchor="start" transform="translate(0,0)" style="color: rgb(227, 225, 225); cursor: default; font-size: 15px; fill: rgb(227, 225, 225);" y="253" opacity="1">100</text><text x="695" text-anchor="start" transform="translate(0,0)" style="color: rgb(227, 225, 225); cursor: default; font-size: 15px; fill: rgb(227, 225, 225);" y="201" opacity="1">125</text><text x="695" text-anchor="start" transform="translate(0,0)" style="color: rgb(227, 225, 225); cursor: default; font-size: 15px; fill: rgb(227, 225, 225);" y="149" opacity="1">150</text><text x="695" text-anchor="start" transform="translate(0,0)" style="color: rgb(227, 225, 225); cursor: default; font-size: 15px; fill: rgb(227, 225, 225);" y="97" opacity="1">175</text><text x="0" text-anchor="start" transform="translate(0,0)" style="color: rgb(227, 225, 225); cursor: default; font-size: 15px; fill: rgb(227, 225, 225);" visibility="hidden">200</text></g><g class="highcharts-axis-labels highcharts-yaxis-labels" data-z-index="7"></g><g class="highcharts-axis-labels highcharts-yaxis-labels" data-z-index="7"></g><g class="highcharts-control-points" data-z-index="99" clip-path="url(#highcharts-s6xo9dj-5388-)"></g><g class="highcharts-axis highcharts-yaxis" data-z-index="9999"><path fill="none" class="highcharts-tick" stroke="#333333" stroke-width="1" d="M 688 456.5 L 693 456.5" opacity="1"></path><path fill="none" class="highcharts-tick" stroke="#333333" stroke-width="1" d="M 688 404.5 L 693 404.5" opacity="1"></path><path fill="none" class="highcharts-tick" stroke="#333333" stroke-width="1" d="M 688 352.5 L 693 352.5" opacity="1"></path><path fill="none" class="highcharts-tick" stroke="#333333" stroke-width="1" d="M 688 300.5 L 693 300.5" opacity="1"></path><path fill="none" class="highcharts-tick" stroke="#333333" stroke-width="1" d="M 688 248.5 L 693 248.5" opacity="1"></path><path fill="none" class="highcharts-tick" stroke="#333333" stroke-width="1" d="M 688 196.5 L 693 196.5" opacity="1"></path><path fill="none" class="highcharts-tick" stroke="#333333" stroke-width="1" d="M 688 144.5 L 693 144.5" opacity="1"></path><path fill="none" class="highcharts-tick" stroke="#333333" stroke-width="1" d="M 688 92.5 L 693 92.5" opacity="1"></path><path fill="none" class="highcharts-tick" stroke="#333333" stroke-width="1" d="M 688 39.5 L 693 39.5" opacity="1"></path><path fill="none" class="highcharts-axis-line" stroke="#616161" stroke-width="1" data-z-index="7" d="M 688.5 40 L 688.5 456"></path></g><path fill="none" d="M 8 0 L 1800 0" stroke="#757575" stroke-width="1" stroke-dasharray="8,3" data-z-index="6" visibility="hidden" class="crosshair-fix-horizontal"></path><path fill="none" d="M 0 40 L 0 1160" stroke="#757575" stroke-width="1" stroke-dasharray="8,3" data-z-index="6" visibility="hidden" class="crosshair-fix-vertical"></path></svg>