<?xml version="1.0" standalone="no"?><!DOCTYPE svg PUBLIC "-//W3C//DTD SVG 1.1//EN" "http://www.w3.org/Graphics/SVG/1.1/DTD/svg11.dtd"><svg xmlns:xlink="http://www.w3.org/1999/xlink" version="1.1" class="highcharts-root" style="font-family: &quot;Helvetica Neue&quot;, Helvetica, Arial, sans-serif; font-size: 12px;" xmlns="http://www.w3.org/2000/svg" width="750" height="520" viewBox="0 0 750 520"><desc>Created with Highcharts 10.1.0</desc><defs><linearGradient x1="0" y1="0" x2="500" y2="500" gradientUnits="userSpaceOnUse" id="highcharts-5w5xkcm-2260"><stop offset="0" stop-color="rgb(35, 35, 35)" stop-opacity="1"></stop></linearGradient><clipPath id="highcharts-5w5xkcm-2261-"><rect x="0" y="0" width="679" height="416" fill="none"></rect></clipPath><clipPath id="highcharts-5w5xkcm-2624-"><rect x="0" y="0" width="679" height="416" fill="none"></rect></clipPath><clipPath id="highcharts-5w5xkcm-2992-"><rect x="8" y="40" width="679" height="416" fill="none"></rect></clipPath></defs><rect fill="url(#highcharts-5w5xkcm-2260)" class="highcharts-background" x="0" y="0" width="750" height="520" rx="0" ry="0"></rect><rect fill="none" class="highcharts-plot-background" x="8" y="40" width="679" height="416"></rect><g class="highcharts-grid highcharts-xaxis-grid" data-z-index="1"><path fill="none" stroke="#333333" stroke-width="1" stroke-dasharray="none" data-z-index="1" class="highcharts-grid-line" d="M 37.5 40 L 37.5 456" opacity="1"></path><path fill="none" stroke="#333333" stroke-width="1" stroke-dasharray="none" data-z-index="1" class="highcharts-grid-line" d="M 148.5 40 L 148.5 456" opacity="1"></path><path fill="none" stroke="#333333" stroke-width="1" stroke-dasharray="none" data-z-index="1" class="highcharts-grid-line" d="M 259.5 40 L 259.5 456" opacity="1"></path><path fill="none" stroke="#333333" stroke-width="1" stroke-dasharray="none" data-z-index="1" class="highcharts-grid-line" d="M 370.5 40 L 370.5 456" opacity="1"></path><path fill="none" stroke="#333333" stroke-width="1" stroke-dasharray="none" data-z-index="1" class="highcharts-grid-line" d="M 482.5 40 L 482.5 456" opacity="1"></path><path fill="none" stroke="#333333" stroke-width="1" stroke-dasharray="none" data-z-index="1" class="highcharts-grid-line" d="M 593.5 40 L 593.5 456" opacity="1"></path></g><g class="highcharts-grid highcharts-yaxis-grid" data-z-index="1"><path fill="none" stroke="#333333" stroke-width="1" stroke-dasharray="none" data-z-index="1" class="highcharts-grid-line" d="M 8 456.5 L 687 456.5" opacity="1"></path><path fill="none" stroke="#333333" stroke-width="1" stroke-dasharray="none" data-z-index="1" class="highcharts-grid-line" d="M 8 397.5 L 687 397.5" opacity="1"></path><path fill="none" stroke="#333333" stroke-width="1" stroke-dasharray="none" data-z-index="1" class="highcharts-grid-line" d="M 8 337.5 L 687 337.5" opacity="1"></path><path fill="none" stroke="#333333" stroke-width="1" stroke-dasharray="none" data-z-index="1" class="highcharts-grid-line" d="M 8 278.5 L 687 278.5" opacity="1"></path><path fill="none" stroke="#333333" stroke-width="1" stroke-dasharray="none" data-z-index="1" class="highcharts-grid-line" d="M 8 218.5 L 687 218.5" opacity="1"></path><path fill="none" stroke="#333333" stroke-width="1" stroke-dasharray="none" data-z-index="1" class="highcharts-grid-line" d="M 8 159.5 L 687 159.5" opacity="1"></path><path fill="none" stroke="#333333" stroke-width="1" stroke-dasharray="none" data-z-index="1" class="highcharts-grid-line" d="M 8 99.5 L 687 99.5" opacity="1"></path><path fill="none" stroke="#333333" stroke-width="1" stroke-dasharray="none" data-z-index="1" class="highcharts-grid-line" d="M 8 39.5 L 687 39.5" opacity="1"></path></g><g class="highcharts-grid highcharts-yaxis-grid" data-z-index="1"></g><g class="highcharts-grid highcharts-yaxis-grid" data-z-index="1"></g><rect fill="none" class="highcharts-plot-border" data-z-index="1" x="8" y="40" width="679" height="416"></rect><g class="highcharts-axis highcharts-xaxis" data-z-index="2"><path fill="none" class="highcharts-axis-line" stroke="#616161" stroke-width="1" data-z-index="7" d="M 8 456.5 L 687 456.5"></path></g><g class="highcharts-axis highcharts-yaxis" data-z-index="2"><path fill="none" class="highcharts-axis-line" data-z-index="7" d="M 720 40 L 720 456"></path></g><g class="highcharts-axis highcharts-yaxis" data-z-index="2"><path fill="none" class="highcharts-axis-line" data-z-index="7" d="M 6.5 40 L 6.5 456"></path></g><g class="highcharts-series-group" data-z-index="3"><g class="highcharts-series highcharts-series-0 highcharts-line-series" data-z-index="90" opacity="1" transform="translate(8,40) scale(1 1)" clip-path="url(#highcharts-5w5xkcm-2624-)"><path fill="none" d="M 0 388.962733714286 L 1.8551912568306 389.755035428571 L 3.7103825136612 389.160749714286 L 5.5655737704918 388.071305142857 L 7.4207650273224 386.833408 L 9.275956284153 388.665590857143 L 11.131147540984 390.398765714286 L 12.986338797814 390.695908571429 L 14.841530054645 390.794916571429 L 16.696721311475 391.042496 L 18.551912568306 391.042496 L 20.407103825137 390.497773714286 L 22.262295081967 391.339638857143 L 24.117486338798 391.042496 L 25.972677595628 392.032932571429 L 27.827868852459 391.983369142857 L 29.68306010929 391.438646857143 L 31.53825136612 389.80448 L 33.393442622951 389.507456 L 35.248633879781 389.309321142857 L 37.103825136612 388.863725714286 L 38.959016393443 389.309321142857 L 40.814207650273 387.179995428571 L 42.669398907104 387.972297142857 L 44.524590163934 386.387693714286 L 46.379781420765 385.397376 L 48.234972677596 384.803090285714 L 50.090163934426 384.555510857143 L 51.945355191257 384.753645714286 L 53.800546448087 383.713764571429 L 55.655737704918 382.277613714286 L 57.510928961749 382.723328 L 59.366120218579 381.832018285714 L 61.22131147541 382.426185142857 L 63.07650273224 383.961344 L 64.931693989071 382.970907428571 L 66.786885245902 379.801700571429 L 68.642076502732 380.693010285714 L 70.497267759563 380.346422857143 L 72.352459016393 381.138724571429 L 74.207650273224 380.891145142857 L 76.062841530055 379.900827428571 L 77.918032786885 382.228169142857 L 79.773224043716 380.395986285714 L 81.628415300546 377.523922285714 L 83.483606557377 376.087771428571 L 85.338797814208 372.126381714286 L 87.193989071038 377.177216 L 89.049180327869 375.097453714286 L 90.904371584699 377.817142857143 L 92.75956284153 378.188571428571 L 94.614754098361 379.748571428571 L 96.469945355191 378.485714285714 L 98.325136612022 375.068571428571 L 100.18032786885 371.57714285714303 L 102.03551912568 376.257142857143 L 103.89071038251 378.634285714286 L 105.74590163934 380.565714285714 L 107.60109289617 380.49142857142897 L 109.45628415301 382.497142857143 L 111.31147540984 381.457142857143 L 113.16666666667 376.851428571429 L 115.0218579235 379.897142857143 L 116.87704918033 378.337142857143 L 118.73224043716 383.24 L 120.58743169399 383.165714285714 L 122.44262295082 384.651428571429 L 124.29781420765 376.777142857143 L 126.15300546448 376.925714285714 L 128.00819672131 380.194285714286 L 129.86338797814 381.234285714286 L 131.71857923497 384.874285714286 L 133.5737704918 386.88 L 135.42896174863 386.954285714286 L 137.28415300546 390.594285714286 L 139.1393442623 391.634285714286 L 140.99453551913 395.794285714286 L 142.84972677596 399.88 L 144.70491803279 399.062857142857 L 146.56010928962 395.051428571429 L 148.41530054645 394.828571428571 L 150.27049180328 398.32 L 152.12568306011 393.862857142857 L 153.98087431694 396.908571428571 L 155.83606557377 398.617142857143 L 157.6912568306 399.211428571429 L 159.54644808743 398.914285714286 L 161.40163934426 400.177142857143 L 163.25683060109 396.590628571429 L 165.11202185792 394.498742857143 L 166.96721311475 396.103314285714 L 168.82240437158 392.5376 L 170.67759562842 389.649371428571 L 172.53278688525 391.337142857143 L 174.38797814208 392.085942857143 L 176.24316939891 393.8688 L 178.09836065574 396.840228571429 L 179.95355191257 396.091428571429 L 181.8087431694 392.9536 L 183.66393442623 394.213485714286 L 185.51912568306 389.197714285714 L 187.37431693989 387.723885714286 L 189.22950819672 387.5456 L 191.08469945355 390.528914285714 L 192.93989071038 390.837942857143 L 194.79508196721 388.2112 L 196.65027322404 391.931428571429 L 198.50546448087 391.1232 L 200.3606557377 392.002742857143 L 202.21584699454 391.990857142857 L 204.07103825137 392.549485714286 L 205.9262295082 392.240457142857 L 207.78142076503 392.585142857143 L 209.63661202186 393.345828571429 L 211.49180327869 393.940114285714 L 213.34699453552 390.7904 L 215.20218579235 389.946514285714 L 217.05737704918 393.179428571429 L 218.91256830601 393.143771428571 L 220.76775956284 393.3696 L 222.62295081967 394.011428571429 L 224.4781420765 392.050285714286 L 226.33333333333 390.552685714286 L 228.18852459016 387.890285714286 L 230.04371584699 389.494857142857 L 231.89890710383 389.661257142857 L 233.75409836066 389.744457142857 L 235.60928961749 387.688228571429 L 237.46448087432 387.200914285714 L 239.31967213115 384.479085714286 L 241.17486338798 384.277028571429 L 243.03005464481 382.244571428571 L 244.88524590164 380.651885714286 L 246.74043715847 375.648 L 248.5956284153 375.196342857143 L 250.45081967213 372.9856 L 252.30601092896 374.495085714286 L 254.16120218579 373.342171428571 L 256.01639344262 371.963428571429 L 257.87158469945 378.678857142857 L 259.72677595628 378.0608 L 261.58196721311 379.201828571429 L 263.43715846995 371.773257142857 L 265.29234972678 373.674971428571 L 267.14754098361 367.791542857143 L 269.00273224044 368.219428571429 L 270.85792349727 363.4176 L 272.7131147541 362.716342857143 L 274.56830601093 356.7616 L 276.42349726776 355.168914285714 L 278.27868852459 351.733942857143 L 280.13387978142 351.817142857143 L 281.98907103825 353.29097142857097 L 283.84426229508 352.744228571429 L 285.69945355191 364.392228571429 L 287.55464480874 365.21234285714297 L 289.40983606557 363.643428571429 L 291.2650273224 353.5168 L 293.12021857924 357.462857142857 L 294.97540983607 356.226742857143 L 296.8306010929 356.987428571429 L 298.68579234973 359.637942857143 L 300.54098360656 355.858285714286 L 302.39617486339 352.708571428571 L 304.25136612022 347.205485714286 L 306.10655737705 353.5168 L 307.96174863388 352.078628571429 L 309.81693989071 355.133257142857 L 311.67213114754 354.301257142857 L 313.52732240437 354.610285714286 L 315.3825136612 355.133257142857 L 317.23770491803 356.048457142857 L 319.09289617486 351.35360000000003 L 320.94808743169 353.136457142857 L 322.80327868852 351.4368 L 324.65846994536 345.184914285714 L 326.51366120219 335.914057142857 L 328.36885245902 341.512228571429 L 330.22404371585 330.517942857143 L 332.07923497268 328.604342857143 L 333.93442622951 337.304685714286 L 335.78961748634 344.75702857142903 L 337.64480874317 357.201371428571 L 339.5 360.077714285714 L 341.35519125683 370.4064 L 343.21038251366 378.298514285714 L 345.06557377049 375.885714285714 L 346.92076502732 373.591771428571 L 348.77595628415 371.785142857143 L 350.63114754098 371.226514285714 L 352.48633879781 364.594285714286 L 354.34153005464 361.480228571429 L 356.19672131148 364.760685714286 L 358.05191256831 360.5888 L 359.90710382514 354.907428571429 L 361.76229508197 353.695085714286 L 363.6174863388 360.065828571429 L 365.47267759563 354.871771428571 L 367.32786885246 349.570742857143 L 369.18306010929 345.482057142857 L 371.03825136612 348.893257142857 L 372.89344262295 352.946285714286 L 374.74863387978 349.11908571428603 L 376.60382513661 352.197485714286 L 378.45901639344 345.268114285714 L 380.31420765027 342.914742857143 L 382.1693989071 344.483657142857 L 384.02459016393 341.33394285714303 L 385.87978142077 343.27131428571397 L 387.7349726776 338.053485714286 L 389.59016393443 333.667657142857 L 391.44535519126 327.237485714286 L 393.30054644809 328.865828571429 L 395.15573770492 326.940342857143 L 397.01092896175 326.025142857143 L 398.86612021858 335.55748571428603 L 400.72131147541 343.473371428571 L 402.57650273224 328.0576 L 404.43169398907 326.215314285714 L 406.2868852459 329.400685714286 L 408.14207650273 330.185142857143 L 409.99726775956 334.107428571429 L 411.85245901639 337.756342857143 L 413.70765027322 329.317485714286 L 415.56284153005 338.1248 L 417.41803278689 330.696228571429 L 419.27322404372 327.986285714286 L 421.12841530055 329.876114285714 L 422.98360655738 340.3712 L 424.83879781421 343.081142857143 L 426.69398907104 344.234057142857 L 428.54918032787 342.498742857143 L 430.4043715847 334.14308571428603 L 432.25956284153 329.174857142857 L 434.11475409836 324.384914285714 L 435.96994535519 323.9808 L 437.82513661202 324.967314285714 L 439.68032786885 329.650285714286 L 441.53551912568 329.044114285714 L 443.39071038251 330.232685714286 L 445.24590163934 324.06399999999996 L 447.10109289617 313.75908571429 L 448.95628415301 311.77417142857 L 450.81147540984 305.66491428571 L 452.66666666667 305.95017142857 L 454.5218579235 306.7584 L 456.37704918033 300.50651428571 L 458.23224043716 303.64434285714003 L 460.08743169399 296.25142857143 L 461.94262295082 293.54148571429 L 463.79781420765 295.16982857143 L 465.65300546448 288.82285714286 L 467.50819672131 283.35542857143 L 469.36338797814 284.49645714286 L 471.21857923497 283.30788571429 L 473.0737704918 285.72068571428997 L 474.92896174863 294.80137142857 L 476.78415300546 286.25554285714 L 478.6393442623 293.67222857142997 L 480.49453551913 296.13257142857003 L 482.34972677596 306.65142857143 L 484.20491803279 312.1664 L 486.06010928962 315.76777142857 L 487.91530054645 323.3984 L 489.77049180328 325.193142857143 L 491.62568306011 320.878628571429 L 493.48087431694 303.0144 L 495.33606557377 315.45874285714 L 497.1912568306 332.205714285714 L 499.04644808743 329.032228571429 L 500.90163934426 317.051428571429 L 502.75683060109 308.89782857143 L 504.61202185792 316.088685714286 L 506.46721311475 314.81691428571 L 508.32240437158 309.29005714286 L 510.17759562842 304.39314285714 L 512.03278688525 300.63725714286 L 513.88797814208 305.46285714286 L 515.74316939891 289.46468571429 L 517.59836065574 287.55108571429 L 519.45355191257 276.3904 L 521.3087431694 272.1472 L 523.16393442623 282.91565714286 L 525.01912568306 276.35474285713997 L 526.87431693989 268.52205714286004 L 528.72950819672 271.35085714286004 L 530.58469945355 282.19062857143 L 532.43989071038 272.83657142857 L 534.29508196721 258.76388571429004 L 536.15027322404 259.77417142857 L 538.00546448087 254.6752 L 539.8606557377 248.67291428571 L 541.71584699454 236.54948571429 L 543.57103825137 250.72914285714 L 545.4262295082 254.61577142857 L 547.28142076503 245.3568 L 549.13661202186 233.7088 L 550.99180327869 236.63268571429 L 552.84699453552 213.2416 L 554.70218579235 209.456 L 556.55737704918 201.36777142857 L 558.41256830601 215.15674514286 L 560.26775956284 213.03954285714 L 562.12295081967 239.00982857143 L 563.9781420765 216.62902857143 L 565.83333333333 202.88914285714 L 567.68852459016 193.86788571429 L 569.54371584699 173.50765714286 L 571.39890710383 184.06217142857 L 573.25409836066 179.08205714286 L 575.10928961749 188.84022857143 L 576.96448087432 209.12914285714 L 578.81967213115 202.46125714286 L 580.67486338798 199.68 L 582.53005464481 186.01142857143 L 584.38524590164 185.26262857143 L 586.24043715847 168.52754285714 L 588.0956284153 199.264 L 589.95081967213 242.46857142857 L 591.80601092896 212.63542857143 L 593.66120218579 204.0896 L 595.51639344262 207.32251428571 L 597.37158469945 187.54468571429 L 599.22677595628 163.39291428571 L 601.08196721311 161.6576 L 602.93715846995 167.44594285714 L 604.79234972678 134.28480000000002 L 606.64754098361 133.58354285714 L 608.50273224044 134.76022857143 L 610.35792349727 116.40868571429002 L 612.2131147541 96.84480000000002 L 614.06830601093 84.10331428570998 L 615.92349726776 82.13028571428998 L 617.77868852459 100.54125714285999 L 619.63387978142 109.55062857143002 L 621.48907103825 114.64960000000002 L 623.34426229508 131.63428571429 L 625.19945355191 67.68914285713998 L 627.05464480874 100.70765714286 L 628.90983606557 62.15039999999999 L 630.7650273224 92.72045714286003 L 632.62021857924 111.10765714285998 L 634.47540983607 76.99565714286001 L 636.3306010929 109.49119999999999 L 638.18579234973 131.14697142857 L 640.04098360656 145.8496 L 641.89617486339 117.46651428570999 L 643.75136612022 127.02262857143 L 645.60655737705 166.816 L 647.46174863388 144.92251428571 L 649.31693989071 111.13142857142998 L 651.17213114754 123.11222857143002 L 653.02732240437 123.83725714285998 L 654.8825136612 148.78537142857 L 656.73770491803 164.02285714286 L 658.59289617486 174.68434285714 L 660.44808743169 168.5632 L 662.30327868852 146.47954285714002 L 664.15846994536 138.3616 L 666.01366120219 172.33097142857 L 667.86885245902 181.93462857143 L 669.72404371585 176.41371428571" class="highcharts-graph" data-z-index="1" stroke="#2962FF" stroke-width="2" stroke-linejoin="round" stroke-linecap="round"></path></g><g class="highcharts-markers highcharts-series-0 highcharts-line-series" data-z-index="90" opacity="1" transform="translate(8,40) scale(1 1)" clip-path="none"></g></g><text x="740" text-anchor="end" class="highcharts-title" data-z-index="4" style="color: rgb(211, 211, 211); font-size: 15px; fill: rgb(211, 211, 211);" y="512">source: tradingeconomics.com</text><text x="14" text-anchor="start" class="highcharts-subtitle" data-z-index="4" style="color: rgb(51, 51, 51); fill: rgb(51, 51, 51); font-size: 15px;" y="25"><tspan style="color: rgb(211, 211, 211); fill: rgb(211, 211, 211);">Norfolk Southern</tspan></text><text x="0" text-anchor="start" class="highcharts-caption" data-z-index="4" style="color: rgb(102, 102, 102); fill: rgb(102, 102, 102);" y="527"></text><g class="highcharts-axis-labels highcharts-xaxis-labels" data-z-index="7"><text x="37.570624275542" text-anchor="middle" transform="translate(0,0)" style="color: rgb(227, 225, 225); cursor: default; font-size: 15px; font-weight: 400; fill: rgb(227, 225, 225);" y="476" opacity="1">1995</text><text x="148.88209968538" text-anchor="middle" transform="translate(0,0)" style="color: rgb(227, 225, 225); cursor: default; font-size: 15px; font-weight: 400; fill: rgb(227, 225, 225);" y="476" opacity="1">2000</text><text x="260.19357509521" text-anchor="middle" transform="translate(0,0)" style="color: rgb(227, 225, 225); cursor: default; font-size: 15px; font-weight: 400; fill: rgb(227, 225, 225);" y="476" opacity="1">2005</text><text x="371.45379299261" text-anchor="middle" transform="translate(0,0)" style="color: rgb(227, 225, 225); cursor: default; font-size: 15px; font-weight: 400; fill: rgb(227, 225, 225);" y="476" opacity="1">2010</text><text x="482.87098702186" text-anchor="middle" transform="translate(0,0)" style="color: rgb(227, 225, 225); cursor: default; font-size: 15px; font-weight: 400; fill: rgb(227, 225, 225);" y="476" opacity="1">2015</text><text x="594.18059227922" text-anchor="middle" transform="translate(0,0)" style="color: rgb(227, 225, 225); cursor: default; font-size: 15px; font-weight: 400; fill: rgb(227, 225, 225);" y="476" opacity="1">2020</text></g><g class="highcharts-axis-labels highcharts-yaxis-labels" data-z-index="7"><text x="0" text-anchor="start" transform="translate(0,0)" style="color: rgb(227, 225, 225); cursor: default; font-size: 15px; fill: rgb(227, 225, 225);" visibility="hidden"><tspan>0</tspan></text><text x="695" text-anchor="start" transform="translate(0,0)" style="color: rgb(227, 225, 225); cursor: default; font-size: 15px; fill: rgb(227, 225, 225);" y="401" opacity="1">50</text><text x="695" text-anchor="start" transform="translate(0,0)" style="color: rgb(227, 225, 225); cursor: default; font-size: 15px; fill: rgb(227, 225, 225);" y="342" opacity="1">100</text><text x="695" text-anchor="start" transform="translate(0,0)" style="color: rgb(227, 225, 225); cursor: default; font-size: 15px; fill: rgb(227, 225, 225);" y="282" opacity="1">150</text><text x="695" text-anchor="start" transform="translate(0,0)" style="color: rgb(227, 225, 225); cursor: default; font-size: 15px; fill: rgb(227, 225, 225);" y="223" opacity="1">200</text><text x="695" text-anchor="start" transform="translate(0,0)" style="color: rgb(227, 225, 225); cursor: default; font-size: 15px; fill: rgb(227, 225, 225);" y="163" opacity="1">250</text><text x="695" text-anchor="start" transform="translate(0,0)" style="color: rgb(227, 225, 225); cursor: default; font-size: 15px; fill: rgb(227, 225, 225);" y="104" opacity="1">300</text><text x="0" text-anchor="start" transform="translate(0,0)" style="color: rgb(227, 225, 225); cursor: default; font-size: 15px; fill: rgb(227, 225, 225);" visibility="hidden">350</text></g><g class="highcharts-axis-labels highcharts-yaxis-labels" data-z-index="7"></g><g class="highcharts-axis-labels highcharts-yaxis-labels" data-z-index="7"></g><g class="highcharts-control-points" data-z-index="99" clip-path="url(#highcharts-5w5xkcm-2992-)"></g><g class="highcharts-axis highcharts-yaxis" data-z-index="9999"><path fill="none" class="highcharts-tick" stroke="#333333" stroke-width="1" d="M 688 456.5 L 693 456.5" opacity="1"></path><path fill="none" class="highcharts-tick" stroke="#333333" stroke-width="1" d="M 688 397.5 L 693 397.5" opacity="1"></path><path fill="none" class="highcharts-tick" stroke="#333333" stroke-width="1" d="M 688 337.5 L 693 337.5" opacity="1"></path><path fill="none" class="highcharts-tick" stroke="#333333" stroke-width="1" d="M 688 278.5 L 693 278.5" opacity="1"></path><path fill="none" class="highcharts-tick" stroke="#333333" stroke-width="1" d="M 688 218.5 L 693 218.5" opacity="1"></path><path fill="none" class="highcharts-tick" stroke="#333333" stroke-width="1" d="M 688 159.5 L 693 159.5" opacity="1"></path><path fill="none" class="highcharts-tick" stroke="#333333" stroke-width="1" d="M 688 99.5 L 693 99.5" opacity="1"></path><path fill="none" class="highcharts-tick" stroke="#333333" stroke-width="1" d="M 688 39.5 L 693 39.5" opacity="1"></path><path fill="none" class="highcharts-axis-line" stroke="#616161" stroke-width="1" data-z-index="7" d="M 688.5 40 L 688.5 456"></path></g><path fill="none" d="M 8 0 L 1800 0" stroke="#757575" stroke-width="1" stroke-dasharray="8,3" data-z-index="6" visibility="hidden" class="crosshair-fix-horizontal"></path><path fill="none" d="M 0 40 L 0 1160" stroke="#757575" stroke-width="1" stroke-dasharray="8,3" data-z-index="6" visibility="hidden" class="crosshair-fix-vertical"></path></svg>