<svg viewBox="0 0 750 520" height="520" width="750" xmlns="http://www.w3.org/2000/svg" style="font-family: &quot;Helvetica Neue&quot;, Helvetica, Arial, sans-serif; font-size: 12px;" class="highcharts-root" version="1.1" xmlns:xlink="http://www.w3.org/1999/xlink"><desc>Created with Highcharts 10.1.0</desc><defs><linearGradient id="highcharts-sym4otg-1444" gradientUnits="userSpaceOnUse" y2="500" x2="500" y1="0" x1="0"><stop stop-opacity="1" stop-color="rgb(35, 35, 35)" offset="0"></stop></linearGradient><clipPath id="highcharts-sym4otg-1445-"><rect fill="none" height="416" width="679" y="0" x="0"></rect></clipPath><clipPath id="highcharts-sym4otg-1908-"><rect fill="none" height="416" width="679" y="0" x="0"></rect></clipPath><clipPath id="highcharts-sym4otg-2376-"><rect fill="none" height="416" width="679" y="40" x="8"></rect></clipPath></defs><rect ry="0" rx="0" height="520" width="750" y="0" x="0" class="highcharts-background" fill="url(#highcharts-sym4otg-1444)"></rect><rect height="416" width="679" y="40" x="8" class="highcharts-plot-background" fill="none"></rect><g data-z-index="1" class="highcharts-grid highcharts-xaxis-grid"><path opacity="1" d="M 52.5 40 L 52.5 456" class="highcharts-grid-line" data-z-index="1" stroke-dasharray="none" stroke-width="1" stroke="#333333" fill="none"></path><path opacity="1" d="M 163.5 40 L 163.5 456" class="highcharts-grid-line" data-z-index="1" stroke-dasharray="none" stroke-width="1" stroke="#333333" fill="none"></path><path opacity="1" d="M 250.5 40 L 250.5 456" class="highcharts-grid-line" data-z-index="1" stroke-dasharray="none" stroke-width="1" stroke="#333333" fill="none"></path><path opacity="1" d="M 338.5 40 L 338.5 456" class="highcharts-grid-line" data-z-index="1" stroke-dasharray="none" stroke-width="1" stroke="#333333" fill="none"></path><path opacity="1" d="M 425.5 40 L 425.5 456" class="highcharts-grid-line" data-z-index="1" stroke-dasharray="none" stroke-width="1" stroke="#333333" fill="none"></path><path opacity="1" d="M 513.5 40 L 513.5 456" class="highcharts-grid-line" data-z-index="1" stroke-dasharray="none" stroke-width="1" stroke="#333333" fill="none"></path><path opacity="1" d="M 599.5 40 L 599.5 456" class="highcharts-grid-line" data-z-index="1" stroke-dasharray="none" stroke-width="1" stroke="#333333" fill="none"></path></g><g data-z-index="1" class="highcharts-grid highcharts-yaxis-grid"><path opacity="1" d="M 8 456.5 L 687 456.5" class="highcharts-grid-line" data-z-index="1" stroke-dasharray="none" stroke-width="1" stroke="#333333" fill="none"></path><path opacity="1" d="M 8 410.5 L 687 410.5" class="highcharts-grid-line" data-z-index="1" stroke-dasharray="none" stroke-width="1" stroke="#333333" fill="none"></path><path opacity="1" d="M 8 364.5 L 687 364.5" class="highcharts-grid-line" data-z-index="1" stroke-dasharray="none" stroke-width="1" stroke="#333333" fill="none"></path><path opacity="1" d="M 8 317.5 L 687 317.5" class="highcharts-grid-line" data-z-index="1" stroke-dasharray="none" stroke-width="1" stroke="#333333" fill="none"></path><path opacity="1" d="M 8 271.5 L 687 271.5" class="highcharts-grid-line" data-z-index="1" stroke-dasharray="none" stroke-width="1" stroke="#333333" fill="none"></path><path opacity="1" d="M 8 225.5 L 687 225.5" class="highcharts-grid-line" data-z-index="1" stroke-dasharray="none" stroke-width="1" stroke="#333333" fill="none"></path><path opacity="1" d="M 8 179.5 L 687 179.5" class="highcharts-grid-line" data-z-index="1" stroke-dasharray="none" stroke-width="1" stroke="#333333" fill="none"></path><path opacity="1" d="M 8 132.5 L 687 132.5" class="highcharts-grid-line" data-z-index="1" stroke-dasharray="none" stroke-width="1" stroke="#333333" fill="none"></path><path opacity="1" d="M 8 86.5 L 687 86.5" class="highcharts-grid-line" data-z-index="1" stroke-dasharray="none" stroke-width="1" stroke="#333333" fill="none"></path><path opacity="1" d="M 8 39.5 L 687 39.5" class="highcharts-grid-line" data-z-index="1" stroke-dasharray="none" stroke-width="1" stroke="#333333" fill="none"></path></g><g data-z-index="1" class="highcharts-grid highcharts-yaxis-grid"></g><g data-z-index="1" class="highcharts-grid highcharts-yaxis-grid"></g><rect height="416" width="679" y="40" x="8" data-z-index="1" class="highcharts-plot-border" fill="none"></rect><g data-z-index="2" class="highcharts-axis highcharts-xaxis"><path d="M 8 456.5 L 687 456.5" data-z-index="7" stroke-width="1" stroke="#616161" class="highcharts-axis-line" fill="none"></path></g><g data-z-index="2" class="highcharts-axis highcharts-yaxis"><path d="M 720 40 L 720 456" data-z-index="7" class="highcharts-axis-line" fill="none"></path></g><g data-z-index="2" class="highcharts-axis highcharts-yaxis"><path d="M 6.5 40 L 6.5 456" data-z-index="7" class="highcharts-axis-line" fill="none"></path></g><g data-z-index="3" class="highcharts-series-group"><g clip-path="url(#highcharts-sym4otg-1908-)" transform="translate(8,40) scale(1 1)" opacity="1" data-z-index="90" class="highcharts-series highcharts-series-0 highcharts-line-series"><path stroke-linecap="round" stroke-linejoin="round" stroke-width="2" stroke="#2962FF" data-z-index="1" class="highcharts-graph" d="M 0 260.93368888889 L 1.4570815450644 254.44408888889 L 2.9141630901288 256.53333333333 L 4.3712446351931 261.85813333333 L 5.8283261802575 261.61777777778 L 7.2854077253219 254.90631111111 L 8.7424892703863 254.90631111111 L 10.199570815451 261.85813333333 L 11.656652360515 263.46666666667 L 13.113733905579 261.85813333333 L 14.570815450644 261.15555555556 L 16.027896995708 262.78257777778003 L 17.484978540773 263.92888888889 L 18.942060085837 258.38222222222 L 20.399141630901 267.16444444444 L 21.856223175966 258.38222222222 L 23.31330472103 255.14666666667 L 24.770386266094 292.12444444444 L 26.227467811159 287.74257777778 L 27.684549356223 294.43555555556 L 29.141630901288 297.67111111111 L 30.598712446352 305.28853333333 L 32.055793991416 306.21297777778 L 33.512875536481 312.70257777778 L 34.969957081545 302.99591111111 L 36.427038626609 324.720355555556 L 37.884120171674 338.808888888889 L 39.341201716738 358.444088888889 L 40.798283261803 337.884444444444 L 42.255364806867 342.044444444444 L 43.712446351931 341.12 L 45.169527896996 323.555555555556 L 46.62660944206 320.32 L 48.083690987124 305.28853333333 L 49.540772532189 297.67111111111 L 50.997854077253 292.12444444444 L 52.454935622318 292.12444444444 L 53.912017167382 298.59555555556 L 55.369098712446 306.21297777778 L 56.826180257511 308.52408888889 L 58.283261802575 287.74257777778 L 59.740343347639 284.48853333333 L 61.197424892704 285.65333333333 L 62.654506437768 274.80035555556003 L 64.111587982833 284.48853333333 L 65.568669527897 278.03591111111 L 67.025751072961 280.10666666667 L 68.482832618026 280.10666666667 L 69.93991416309 278.03591111111 L 71.396995708154 267.16444444444 L 72.854077253219 260.69333333333 L 74.311158798283 258.38222222222 L 75.768240343348 262.78257777778003 L 77.225321888412 266.01813333333 L 78.682403433476 269.23519999999996 L 80.139484978541 283.34222222222 L 81.596566523605 278.94186666666997 L 83.05364806867 284.26666666667 L 84.510729613734 286.81813333333 L 85.967811158798 374.4 L 87.424892703863 374.4 L 88.881974248927 370.924088888889 L 90.339055793991 369.093688888889 L 91.796137339056 369.093688888889 L 93.25321888412 369.555911111111 L 94.710300429185 367.466666666667 L 96.167381974249 364.231111111111 L 97.624463519313 368.391111111111 L 99.081545064378 370.461866666667 L 100.53862660944 367.688533333333 L 101.99570815451 361.698133333333 L 103.45278969957 359.368533333333 L 104.90987124464 360.995555555556 L 106.3669527897 359.146666666667 L 107.82403433476 357.297777777778 L 109.28111587983 363.306666666667 L 110.73819742489 367.688533333333 L 112.19527896996 367.928888888889 L 113.65236051502 368.631466666667 L 115.10944206009 369.555911111111 L 116.56652360515 371.848533333333 L 118.02360515021 369.555911111111 L 119.48068669528 370.924088888889 L 120.93776824034 373.013333333333 L 122.39484978541 369.093688888889 L 123.85193133047 368.391111111111 L 125.30901287554 364.47146666666697 L 126.7660944206 364.47146666666697 L 128.22317596567 372.088888888889 L 129.68025751073 368.631466666667 L 131.13733905579 370.018133333333 L 132.59442060086 382.627185777778 L 134.05150214592 382.414563555556 L 135.50858369099 381.776881777778 L 136.96566523605 381.245511111111 L 138.42274678112 381.670570666667 L 139.87982832618 382.733496888889 L 141.33690987124 384.859164444444 L 142.79399141631 384.965475555556 L 144.25107296137 385.390535111111 L 145.70815450644 389.960618666667 L 147.1652360515 390.066929777778 L 148.62231759657 387.834951111111 L 150.07939914163 387.834951111111 L 151.5364806867 386.240839111111 L 152.99356223176 386.028216888889 L 154.45064377682 385.177912888889 L 155.90772532189 384.646542222222 L 157.36480686695 382.733496888889 L 158.82188841202 382.733496888889 L 160.27896995708 380.60782933333303 L 161.73605150215 374.337137777778 L 163.19313304721 377.313109333333 L 164.65021459227 376.143872 L 166.10729613734 377.52554666666697 L 167.5643776824 372.636529777778 L 169.02145922747 371.254855111111 L 170.47854077253 368.916750222222 L 171.9356223176 368.491505777778 L 173.39270386266 365.303096888889 L 174.84978540773 362.220814222222 L 176.30686695279 362.220814222222 L 177.76394849785 362.008376888889 L 179.22103004292 359.457464888889 L 180.67811158798 355.631374222222 L 182.13519313305 362.008376888889 L 183.59227467811 367.109831111111 L 185.04935622318 367.960135111111 L 186.50643776824 365.621845333333 L 187.9635193133 364.559104 L 189.42060085837 366.259712 L 190.87768240343 356.694115555556 L 192.3347639485 359.88270933333297 L 193.79184549356 360.945450666667 L 195.24892703863 356.694115555556 L 196.70600858369 353.505706666667 L 198.16309012876 352.124032 L 199.62017167382 350.954794666667 L 201.07725321888 354.781070222222 L 202.53433476395 347.022392888889 L 203.99141630901 347.82222222222197 L 205.44849785408 347.82222222222197 L 206.90557939914 348.977777777778 L 208.36266094421 349.208888888889 L 209.81974248927 348.51555555555603 L 211.27682403433 337.075555555556 L 212.7339055794 342.62222222222204 L 214.19098712446 340.542222222222 L 215.64806866953 339.848888888889 L 217.10515021459 344.00888888888903 L 218.56223175966 364.462222222222 L 220.01931330472 361.573333333333 L 221.47639484979 353.6 L 222.93347639485 344.471111111111 L 224.39055793991 340.426666666667 L 225.84763948498 343.893333333333 L 227.30472103004 346.551111111111 L 228.76180257511 343.54666666666697 L 230.21888412017 347.706666666667 L 231.67596566524 350.364444444444 L 233.1330472103 344.471111111111 L 234.59012875536 344.00888888888903 L 236.04721030043 352.906666666667 L 237.50429184549 359.608888888889 L 238.96137339056 351.866666666667 L 240.41845493562 352.097777777778 L 241.87553648069 350.826666666667 L 243.33261802575 352.906666666667 L 244.78969957082 356.60444444444397 L 246.24678111588 351.52 L 247.70386266094 348.168888888889 L 249.16094420601 340.426666666667 L 250.61802575107 333.84000000000003 L 252.07510729614 331.297777777778 L 253.5321888412 337.191111111111 L 254.98927038627 330.951111111111 L 256.44635193133 326.444444444444 L 257.90343347639 332.106666666667 L 259.36051502146 324.364444444444 L 260.81759656652 334.519466666667 L 262.27467811159 330.8032 L 263.73175965665 334.741333333333 L 265.18884120172 335.000177777778 L 266.64592274678 333.243733333333 L 268.10300429185 334.279111111111 L 269.56008583691 329.786311111111 L 271.01716738197 329.102222222222 L 272.47424892704 326.32888888888897 L 273.9313304721 325.94062222222203 L 275.38841201717 326.088533333333 L 276.84549356223 325.9776 L 278.3025751073 323.389155555556 L 279.75965665236 322.631111111111 L 281.21673819742 320.782222222222 L 282.67381974249 320.042666666667 L 284.13090128755 319.894755555556 L 285.58798283262 326.883555555556 L 287.04506437768 336.608711111111 L 288.50214592275 342.876444444444 L 289.95922746781 347.683555555556 L 291.41630901288 334.464 L 292.87339055794 337.4592 L 294.330472103 337.939911111111 L 295.78755364807 341.156977777778 L 297.24463519313 345.150577777778 L 298.7017167382 342.044444444444 L 300.15879828326 335.980088888889 L 301.61587982833 334.279111111111 L 303.07296137339 333.724444444444 L 304.53004291845 330.821688888889 L 305.98712446352 333.650488888889 L 307.44420600858 331.265422222222 L 308.90128755365 327.586133333333 L 310.35836909871 327.03146666666703 L 311.81545064378 329.8048 L 313.27253218884 328.621511111111 L 314.72961373391 320.042666666667 L 316.18669527897 316.437333333333 L 317.64377682403 315.25404444444 L 319.1008583691 317.3248 L 320.55793991416 316.381866666667 L 322.01502145923 323.555555555556 L 323.47210300429 323.555555555556 L 324.92918454936 326.051555555556 L 326.38626609442 324.332088888889 L 327.84334763948 323.721955555556 L 329.30042918455 319.488 L 330.75751072961 316.714666666667 L 332.21459227468 316.418844444444 L 333.67167381974 317.953422222222 L 335.12875536481 313.12782222222 L 336.58583690987 311.98151111110997 L 338.04291845494 316.289422222222 L 339.5 315.18008888889 L 340.95708154506 314.58844444444003 L 342.41416309013 311.14951111111 L 343.87124463519 306.76764444444 L 345.32832618026 306.54577777778 L 346.78540772532 306.76764444444 L 348.24248927039 310.28053333333 L 349.69957081545 306.71217777777997 L 351.15665236052 309.15271111110997 L 352.61373390558 308.32071111111 L 354.07081545064 304.21617777778 L 355.52789699571 304.99271111111 L 356.98497854077 298.81742222222 L 358.44206008584 295.30453333333 L 359.8991416309 295.34151111111 L 361.35622317597 298.70648888889 L 362.81330472103 301.42435555556 L 364.27038626609 300.352 L 365.72746781116 295.37848888889 L 367.18454935622 299.24266666667 L 368.64163090129 298.48462222221997 L 370.09871244635 293.80693333333 L 371.55579399142 289.66542222222 L 373.01287553648 296.09955555556 L 374.46995708155 294.67591111111 L 375.92703862661 290.22008888889 L 377.38412017167 280.55039999999997 L 378.84120171674 279.69991111111 L 380.2982832618 273.30275555556 L 381.75536480687 275.66933333333 L 383.21244635193 290.18311111111 L 384.669527897 287.39128888889 L 386.12660944206 282.51022222222 L 387.58369098712 289.29564444444 L 389.04077253219 289.72088888889 L 390.49785407725 298.42915555556 L 391.95493562232 292.93795555556 L 393.41201716738 289.38808888889 L 394.86909871245 284.22968888889 L 396.32618025751 310.59484444444 L 397.78326180258 311.168 L 399.24034334764 314.73635555556 L 400.6974248927 323.130311111111 L 402.15450643777 326.994488888889 L 403.61158798283 320.8192 L 405.0686695279 323.999288888889 L 406.52575107296 319.765333333333 L 407.98283261803 314.38506666667 L 409.43991416309 311.07555555556 L 410.89699570815 311.22346666667 L 412.35407725322 307.54417777778 L 413.81115879828 304.04977777778 L 415.26824034335 300.96213333333003 L 416.72532188841 303.58755555556 L 418.18240343348 305.76924444444 L 419.63948497854 300.49991111111 L 421.09656652361 293.67751111111 L 422.55364806867 295.41546666667 L 424.01072961373 299.72337777778 L 425.4678111588 303.31022222222 L 426.92489270386 295.98862222222 L 428.38197424893 297.33831111111 L 429.83905579399 293.15982222222 L 431.29613733906 295.26755555555997 L 432.75321888412 296.50631111111 L 434.21030042918 295.21208888889 L 435.66738197425 297.09795555556 L 437.12446351931 298.74346666667 L 438.58154506438 296.91306666667003 L 440.03862660944 288.63004444444 L 441.49570815451 284.50702222222003 L 442.95278969957 285.78275555556 L 444.40987124464 297.59715555556 L 445.8669527897 296.87608888888997 L 447.32403433476 301.55377777778 L 448.78111587983 299.61244444444003 L 450.23819742489 297.67111111111 L 451.69527896996 293.32622222222 L 453.15236051502 294.58346666667 L 454.60944206009 299.63093333333 L 456.06652360515 293.32622222222 L 457.52360515021 293.97333333333 L 458.98068669528 290.55288888889 L 460.43776824034 285.35751111111 L 461.89484978541 281.53031111111 L 463.35193133047 282.08497777778 L 464.80901287554 285.15413333333004 L 466.2660944206 287.98293333333004 L 467.72317596567 286.18951111111 L 469.18025751073 289.48053333333 L 470.63733905579 281.30844444444 L 472.09442060086 275.90968888889 L 473.55150214592 269.7344 L 475.00858369099 263.52213333333 L 476.46566523605 266.66524444443996 L 477.92274678112 264.77937777778004 L 479.37982832618 261.54382222222 L 480.83690987124 268.58808888889 L 482.29399141631 269.01333333333 L 483.75107296137 260.52693333333 L 485.20815450644 259.84284444444 L 486.6652360515 262.65315555556003 L 488.12231759657 267.42328888889 L 489.57939914163 267.95946666667 L 491.0364806867 261.61777777778 L 492.49356223176 257.19893333333 L 493.95064377682 252.68764444444 L 495.40772532189 250.82026666667 L 496.86480686695 253.11288888889 L 498.32188841202 244.99626666667 L 499.77896995708 243.88693333333 L 501.23605150215 238.19235555556 L 502.69313304721 230.92622222222 L 504.15021459227 241.16906666667 L 505.60729613734 242.6112 L 507.0643776824 232.99697777778 L 508.52145922747 239.20924444444 L 509.97854077253 240.13368888889 L 511.4356223176 237.71164444444 L 512.89270386266 243.42471111111 L 514.34978540773 237.85955555556 L 515.80686695279 244.18275555556 L 517.26394849785 241.64977777778 L 518.72103004292 227.06204444444 L 520.17811158798 230.81528888889 L 521.63519313305 231.25902222222 L 523.09227467811 232.40533333333 L 524.54935622318 235.14168888889 L 526.00643776824 226.52586666667 L 527.4635193133 225.6384 L 528.92060085837 228.94791111111 L 530.37768240343 220.12871111111 L 531.8347639485 214.61902222222 L 533.29184549356 218.63111111111 L 534.74892703863 214.89635555556 L 536.20600858369 217.79911111111 L 537.66309012876 230.92622222222 L 539.12017167382 222.55075555556 L 540.57725321888 224.12231111111 L 542.03433476395 211.91964444444 L 543.49141630901 209.18328888889 L 544.94849785408 206.55786666667 L 546.40557939914 199.92035555556 L 547.86266094421 202.47182222222 L 549.31974248927 200.40106666667 L 550.77682403433 202.19448888889 L 552.2339055794 210.07075555556 L 553.69098712446 212.16 L 555.14806866953 200.39644444444 L 556.60515021459 194.15182222222 L 558.06223175966 193.56017777778 L 559.51931330472 213.10293333333 L 560.97639484979 214.11982222222 L 562.43347639485 229.31768888889 L 563.89055793991 230.53795555556 L 565.34763948498 214.69297777778 L 566.80472103004 203.32231111111 L 568.26180257511 208.81351111111 L 569.71888412017 209.25724444444 L 571.17596566524 207.89831111111 L 572.6330472103 190.76835555556 L 574.09012875536 212.30791111111 L 575.54721030043 202.26844444444 L 577.00429184549 189.1968 L 578.46137339056 179.26826666667 L 579.91845493562 179.13884444444 L 581.37553648069 173.61066666667 L 582.83261802575 179.56408888889 L 584.28969957082 162.99804444444 L 585.74678111588 162.53582222222 L 587.20386266094 162.31395555556 L 588.66094420601 164.86542222222 L 590.11802575107 162.9056 L 591.57510729614 153.30986666667002 L 593.0321888412 172.26097777778 L 594.48927038627 194.26275555556 L 595.94635193133 171.2071296 L 597.40343347639 173.04655217778 L 598.86051502146 171.15166293333 L 600.31759656652 161.87022222222 L 601.77467811159 156.64082488889 L 603.23175965665 159.11537777778 L 604.68884120172 170.24568888889 L 606.14592274678 149.33475555555998 L 607.60300429185 141.80977777778003 L 609.06008583691 163.49724444444 L 610.51716738197 177.14204444444 L 611.97424892704 154.47466666666998 L 613.4313304721 149.46417777777998 L 614.88841201717 142.47537777778 L 616.34549356223 142.05013333333 L 617.8025751073 125.81688888888999 L 619.25965665236 126.85226666667 L 620.71673819742 137.90862222222 L 622.17381974249 117.21955555556002 L 623.63090128755 120.58453333333 L 625.08798283262 94.82951111110998 L 626.54506437768 95.18079999999998 L 628.00214592275 113.26293333333001 L 629.45922746781 106.53297777777999 L 630.91630901288 98.52728888888998 L 632.37339055794 105.84888888888997 L 633.830472103 107.86417777778001 L 635.28755364807 92.51839999999999 L 636.74463519313 97.49191111111003 L 638.2017167382 114.15039999999999 L 639.65879828326 80.27875555556 L 641.11587982833 73.01262222221999 L 642.57296137339 81.97973333332999 L 644.03004291845 99.80302222222002 L 645.48712446352 95.16231111111 L 646.94420600858 78.94755555555997 L 648.40128755365 63.06560000000002 L 649.85836909871 78.85511111110998 L 651.31545064378 73.54880000000003 L 652.77253218884 69.40728888888998 L 654.22961373391 87.04568888889003 L 655.68669527897 102.72426666667002 L 657.14377682403 114.11342222221998 L 658.6008583691 104.85048888889003 L 660.05793991416 101.98471111111002 L 661.51502145923 104.40675555555998 L 662.97210300429 110.30471111111001 L 664.42918454936 92.42595555556 L 665.88626609442 90.76195555556001 L 667.34334763948 96.62293333333002 L 668.80042918455 110.98880000000003 L 670.25751072961 96.64142222222 L 671.71459227468 92.37048888889001" fill="none"></path></g><g clip-path="none" transform="translate(8,40) scale(1 1)" opacity="1" data-z-index="90" class="highcharts-markers highcharts-series-0 highcharts-line-series"></g></g><text y="512" style="color: rgb(211, 211, 211); font-size: 15px; fill: rgb(211, 211, 211);" data-z-index="4" class="highcharts-title" text-anchor="end" x="740"></text><text y="25" style="color: rgb(51, 51, 51); fill: rgb(51, 51, 51); font-size: 15px;" data-z-index="4" class="highcharts-subtitle" text-anchor="start" x="14"><tspan style="color: rgb(211, 211, 211); fill: rgb(211, 211, 211);">PepsiCo</tspan></text><text y="527" style="color: rgb(102, 102, 102); fill: rgb(102, 102, 102);" data-z-index="4" class="highcharts-caption" text-anchor="start" x="0"></text><g data-z-index="7" class="highcharts-axis-labels highcharts-xaxis-labels"><text opacity="1" y="476" style="color: rgb(227, 225, 225); cursor: default; font-size: 15px; font-weight: 400; fill: rgb(227, 225, 225);" transform="translate(0,0)" text-anchor="middle" x="53.169527896996">1975</text><text opacity="1" y="476" style="color: rgb(227, 225, 225); cursor: default; font-size: 15px; font-weight: 400; fill: rgb(227, 225, 225);" transform="translate(0,0)" text-anchor="middle" x="163.90772532189">1995</text><text opacity="1" y="476" style="color: rgb(227, 225, 225); cursor: default; font-size: 15px; font-weight: 400; fill: rgb(227, 225, 225);" transform="translate(0,0)" text-anchor="middle" x="251.33261802575">2000</text><text opacity="1" y="476" style="color: rgb(227, 225, 225); cursor: default; font-size: 15px; font-weight: 400; fill: rgb(227, 225, 225);" transform="translate(0,0)" text-anchor="middle" x="338.75751072961">2005</text><text opacity="1" y="476" style="color: rgb(227, 225, 225); cursor: default; font-size: 15px; font-weight: 400; fill: rgb(227, 225, 225);" transform="translate(0,0)" text-anchor="middle" x="426.18240343348">2010</text><text opacity="1" y="476" style="color: rgb(227, 225, 225); cursor: default; font-size: 15px; font-weight: 400; fill: rgb(227, 225, 225);" transform="translate(0,0)" text-anchor="middle" x="513.60729613734">2015</text><text opacity="1" y="476" style="color: rgb(227, 225, 225); cursor: default; font-size: 15px; font-weight: 400; fill: rgb(227, 225, 225);" transform="translate(0,0)" text-anchor="middle" x="599.57510729614">2020</text></g><g data-z-index="7" class="highcharts-axis-labels highcharts-yaxis-labels"><text visibility="hidden" style="color: rgb(227, 225, 225); cursor: default; font-size: 15px; fill: rgb(227, 225, 225);" transform="translate(0,0)" text-anchor="start" x="0"><tspan>0</tspan></text><text opacity="1" y="414" style="color: rgb(227, 225, 225); cursor: default; font-size: 15px; fill: rgb(227, 225, 225);" transform="translate(0,0)" text-anchor="start" x="695">25</text><text opacity="1" y="368" style="color: rgb(227, 225, 225); cursor: default; font-size: 15px; fill: rgb(227, 225, 225);" transform="translate(0,0)" text-anchor="start" x="695">50</text><text opacity="1" y="322" style="color: rgb(227, 225, 225); cursor: default; font-size: 15px; fill: rgb(227, 225, 225);" transform="translate(0,0)" text-anchor="start" x="695">75</text><text opacity="1" y="276" style="color: rgb(227, 225, 225); cursor: default; font-size: 15px; fill: rgb(227, 225, 225);" transform="translate(0,0)" text-anchor="start" x="695">100</text><text opacity="1" y="229" style="color: rgb(227, 225, 225); cursor: default; font-size: 15px; fill: rgb(227, 225, 225);" transform="translate(0,0)" text-anchor="start" x="695">125</text><text opacity="1" y="183" style="color: rgb(227, 225, 225); cursor: default; font-size: 15px; fill: rgb(227, 225, 225);" transform="translate(0,0)" text-anchor="start" x="695">150</text><text opacity="1" y="137" style="color: rgb(227, 225, 225); cursor: default; font-size: 15px; fill: rgb(227, 225, 225);" transform="translate(0,0)" text-anchor="start" x="695">175</text><text opacity="1" y="91" style="color: rgb(227, 225, 225); cursor: default; font-size: 15px; fill: rgb(227, 225, 225);" transform="translate(0,0)" text-anchor="start" x="695">200</text><text visibility="hidden" style="color: rgb(227, 225, 225); cursor: default; font-size: 15px; fill: rgb(227, 225, 225);" transform="translate(0,0)" text-anchor="start" x="0">225</text></g><g data-z-index="7" class="highcharts-axis-labels highcharts-yaxis-labels"></g><g data-z-index="7" class="highcharts-axis-labels highcharts-yaxis-labels"></g><g clip-path="url(#highcharts-sym4otg-2376-)" data-z-index="99" class="highcharts-control-points"></g><g data-z-index="9999" class="highcharts-axis highcharts-yaxis"><path opacity="1" d="M 688 456.5 L 693 456.5" stroke-width="1" stroke="#333333" class="highcharts-tick" fill="none"></path><path opacity="1" d="M 688 410.5 L 693 410.5" stroke-width="1" stroke="#333333" class="highcharts-tick" fill="none"></path><path opacity="1" d="M 688 364.5 L 693 364.5" stroke-width="1" stroke="#333333" class="highcharts-tick" fill="none"></path><path opacity="1" d="M 688 317.5 L 693 317.5" stroke-width="1" stroke="#333333" class="highcharts-tick" fill="none"></path><path opacity="1" d="M 688 271.5 L 693 271.5" stroke-width="1" stroke="#333333" class="highcharts-tick" fill="none"></path><path opacity="1" d="M 688 225.5 L 693 225.5" stroke-width="1" stroke="#333333" class="highcharts-tick" fill="none"></path><path opacity="1" d="M 688 179.5 L 693 179.5" stroke-width="1" stroke="#333333" class="highcharts-tick" fill="none"></path><path opacity="1" d="M 688 132.5 L 693 132.5" stroke-width="1" stroke="#333333" class="highcharts-tick" fill="none"></path><path opacity="1" d="M 688 86.5 L 693 86.5" stroke-width="1" stroke="#333333" class="highcharts-tick" fill="none"></path><path opacity="1" d="M 688 39.5 L 693 39.5" stroke-width="1" stroke="#333333" class="highcharts-tick" fill="none"></path><path d="M 688.5 40 L 688.5 456" data-z-index="7" stroke-width="1" stroke="#616161" class="highcharts-axis-line" fill="none"></path></g><path class="crosshair-fix-horizontal" visibility="hidden" data-z-index="6" stroke-dasharray="8,3" stroke-width="1" stroke="#757575" d="M 8 0 L 1800 0" fill="none"></path><path class="crosshair-fix-vertical" visibility="hidden" data-z-index="6" stroke-dasharray="8,3" stroke-width="1" stroke="#757575" d="M 0 40 L 0 1160" fill="none"></path></svg>