<?xml version="1.0" standalone="no"?><!DOCTYPE svg PUBLIC "-//W3C//DTD SVG 1.1//EN" "http://www.w3.org/Graphics/SVG/1.1/DTD/svg11.dtd"><svg xmlns:xlink="http://www.w3.org/1999/xlink" version="1.1" class="highcharts-root" style="font-family: &quot;Helvetica Neue&quot;, Helvetica, Arial, sans-serif; font-size: 12px;" xmlns="http://www.w3.org/2000/svg" width="750" height="520" viewBox="0 0 750 520"><desc>Created with Highcharts 10.1.0</desc><defs><linearGradient x1="0" y1="0" x2="500" y2="500" gradientUnits="userSpaceOnUse" id="highcharts-awchpl0-2440"><stop offset="0" stop-color="rgb(35, 35, 35)" stop-opacity="1"></stop></linearGradient><clipPath id="highcharts-awchpl0-2441-"><rect x="0" y="0" width="679" height="416" fill="none"></rect></clipPath><clipPath id="highcharts-awchpl0-2894-"><rect x="0" y="0" width="679" height="416" fill="none"></rect></clipPath><clipPath id="highcharts-awchpl0-3352-"><rect x="8" y="40" width="679" height="416" fill="none"></rect></clipPath></defs><rect fill="url(#highcharts-awchpl0-2440)" class="highcharts-background" x="0" y="0" width="750" height="520" rx="0" ry="0"></rect><rect fill="none" class="highcharts-plot-background" x="8" y="40" width="679" height="416"></rect><g class="highcharts-grid highcharts-xaxis-grid" data-z-index="1"><path fill="none" stroke="#333333" stroke-width="1" stroke-dasharray="none" data-z-index="1" class="highcharts-grid-line" d="M 35.5 40 L 35.5 456" opacity="1"></path><path fill="none" stroke="#333333" stroke-width="1" stroke-dasharray="none" data-z-index="1" class="highcharts-grid-line" d="M 148.5 40 L 148.5 456" opacity="1"></path><path fill="none" stroke="#333333" stroke-width="1" stroke-dasharray="none" data-z-index="1" class="highcharts-grid-line" d="M 256.5 40 L 256.5 456" opacity="1"></path><path fill="none" stroke="#333333" stroke-width="1" stroke-dasharray="none" data-z-index="1" class="highcharts-grid-line" d="M 363.5 40 L 363.5 456" opacity="1"></path><path fill="none" stroke="#333333" stroke-width="1" stroke-dasharray="none" data-z-index="1" class="highcharts-grid-line" d="M 470.5 40 L 470.5 456" opacity="1"></path><path fill="none" stroke="#333333" stroke-width="1" stroke-dasharray="none" data-z-index="1" class="highcharts-grid-line" d="M 577.5 40 L 577.5 456" opacity="1"></path><path fill="none" stroke="#333333" stroke-width="1" stroke-dasharray="none" data-z-index="1" class="highcharts-grid-line" d="M 683.5 40 L 683.5 456" opacity="1"></path></g><g class="highcharts-grid highcharts-yaxis-grid" data-z-index="1"><path fill="none" stroke="#333333" stroke-width="1" stroke-dasharray="none" data-z-index="1" class="highcharts-grid-line" d="M 8 456.5 L 687 456.5" opacity="1"></path><path fill="none" stroke="#333333" stroke-width="1" stroke-dasharray="none" data-z-index="1" class="highcharts-grid-line" d="M 8 410.5 L 687 410.5" opacity="1"></path><path fill="none" stroke="#333333" stroke-width="1" stroke-dasharray="none" data-z-index="1" class="highcharts-grid-line" d="M 8 364.5 L 687 364.5" opacity="1"></path><path fill="none" stroke="#333333" stroke-width="1" stroke-dasharray="none" data-z-index="1" class="highcharts-grid-line" d="M 8 317.5 L 687 317.5" opacity="1"></path><path fill="none" stroke="#333333" stroke-width="1" stroke-dasharray="none" data-z-index="1" class="highcharts-grid-line" d="M 8 271.5 L 687 271.5" opacity="1"></path><path fill="none" stroke="#333333" stroke-width="1" stroke-dasharray="none" data-z-index="1" class="highcharts-grid-line" d="M 8 225.5 L 687 225.5" opacity="1"></path><path fill="none" stroke="#333333" stroke-width="1" stroke-dasharray="none" data-z-index="1" class="highcharts-grid-line" d="M 8 179.5 L 687 179.5" opacity="1"></path><path fill="none" stroke="#333333" stroke-width="1" stroke-dasharray="none" data-z-index="1" class="highcharts-grid-line" d="M 8 132.5 L 687 132.5" opacity="1"></path><path fill="none" stroke="#333333" stroke-width="1" stroke-dasharray="none" data-z-index="1" class="highcharts-grid-line" d="M 8 86.5 L 687 86.5" opacity="1"></path><path fill="none" stroke="#333333" stroke-width="1" stroke-dasharray="none" data-z-index="1" class="highcharts-grid-line" d="M 8 39.5 L 687 39.5" opacity="1"></path></g><g class="highcharts-grid highcharts-yaxis-grid" data-z-index="1"></g><g class="highcharts-grid highcharts-yaxis-grid" data-z-index="1"></g><rect fill="none" class="highcharts-plot-border" data-z-index="1" x="8" y="40" width="679" height="416"></rect><g class="highcharts-axis highcharts-xaxis" data-z-index="2"><path fill="none" class="highcharts-axis-line" stroke="#616161" stroke-width="1" data-z-index="7" d="M 8 456.5 L 687 456.5"></path></g><g class="highcharts-axis highcharts-yaxis" data-z-index="2"><path fill="none" class="highcharts-axis-line" data-z-index="7" d="M 720 40 L 720 456"></path></g><g class="highcharts-axis highcharts-yaxis" data-z-index="2"><path fill="none" class="highcharts-axis-line" data-z-index="7" d="M 6.5 40 L 6.5 456"></path></g><g class="highcharts-series-group" data-z-index="3"><g class="highcharts-series highcharts-series-0 highcharts-line-series" data-z-index="90" opacity="1" transform="translate(8,40) scale(1 1)" clip-path="url(#highcharts-awchpl0-2894-)"><path fill="none" d="M 0 260.93368888889 L 1.4890350877193 254.44408888889 L 2.9780701754386 256.53333333333 L 4.4671052631579 261.85813333333 L 5.9561403508772 261.61777777778 L 7.4451754385965 254.90631111111 L 8.9342105263158 254.90631111111 L 10.423245614035 261.85813333333 L 11.912280701754 263.46666666667 L 13.401315789474 261.85813333333 L 14.890350877193 261.15555555556 L 16.379385964912 262.78257777778003 L 17.868421052632 263.92888888889 L 19.357456140351 258.38222222222 L 20.84649122807 267.16444444444 L 22.335526315789 258.38222222222 L 23.824561403509 255.14666666667 L 25.313596491228 292.12444444444 L 26.802631578947 287.74257777778 L 28.291666666667 294.43555555556 L 29.780701754386 297.67111111111 L 31.269736842105 305.28853333333 L 32.758771929825 306.21297777778 L 34.247807017544 312.70257777778 L 35.736842105263 302.99591111111 L 37.225877192982 324.720355555556 L 38.714912280702 338.808888888889 L 40.203947368421 358.444088888889 L 41.69298245614 337.884444444444 L 43.18201754386 342.044444444444 L 44.671052631579 341.12 L 46.160087719298 323.555555555556 L 47.649122807018 320.32 L 49.138157894737 305.28853333333 L 50.627192982456 297.67111111111 L 52.116228070175 292.12444444444 L 53.605263157895 292.12444444444 L 55.094298245614 298.59555555556 L 56.583333333333 306.21297777778 L 58.072368421053 308.52408888889 L 59.561403508772 287.74257777778 L 61.050438596491 284.48853333333 L 62.539473684211 285.65333333333 L 64.02850877193 274.80035555556003 L 65.517543859649 284.48853333333 L 67.006578947368 278.03591111111 L 68.495614035088 280.10666666667 L 69.984649122807 280.10666666667 L 71.473684210526 278.03591111111 L 72.962719298246 267.16444444444 L 74.451754385965 260.69333333333 L 75.940789473684 258.38222222222 L 77.429824561404 262.78257777778003 L 78.918859649123 266.01813333333 L 80.407894736842 269.23519999999996 L 81.896929824561 283.34222222222 L 83.385964912281 278.94186666666997 L 84.875 284.26666666667 L 86.364035087719 286.81813333333 L 87.853070175439 374.4 L 89.342105263158 374.4 L 90.831140350877 370.924088888889 L 92.320175438597 369.093688888889 L 93.809210526316 369.093688888889 L 95.298245614035 369.555911111111 L 96.787280701754 367.466666666667 L 98.276315789474 364.231111111111 L 99.765350877193 368.391111111111 L 101.25438596491 370.461866666667 L 102.74342105263 367.688533333333 L 104.23245614035 361.698133333333 L 105.72149122807 359.368533333333 L 107.21052631579 360.995555555556 L 108.69956140351 359.146666666667 L 110.18859649123 357.297777777778 L 111.67763157895 363.306666666667 L 113.16666666667 367.688533333333 L 114.65570175439 367.928888888889 L 116.14473684211 368.631466666667 L 117.63377192982 369.555911111111 L 119.12280701754 371.848533333333 L 120.61184210526 369.555911111111 L 122.10087719298 370.924088888889 L 123.5899122807 373.013333333333 L 125.07894736842 369.093688888889 L 126.56798245614 368.391111111111 L 128.05701754386 364.47146666666697 L 129.54605263158 364.47146666666697 L 131.0350877193 372.088888888889 L 132.52412280702 368.631466666667 L 134.01315789474 370.018133333333 L 135.50219298246 382.627185777778 L 136.99122807018 382.414563555556 L 138.48026315789 381.776881777778 L 139.96929824561 381.245511111111 L 141.45833333333 381.670570666667 L 142.94736842105 382.733496888889 L 144.43640350877 384.859164444444 L 145.92543859649 384.965475555556 L 147.41447368421 385.390535111111 L 148.90350877193 389.960618666667 L 150.39254385965 390.066929777778 L 151.88157894737 387.834951111111 L 153.37061403509 387.834951111111 L 154.85964912281 386.240839111111 L 156.34868421053 386.028216888889 L 157.83771929825 385.177912888889 L 159.32675438596 384.646542222222 L 160.81578947368 382.733496888889 L 162.3048245614 382.733496888889 L 163.79385964912 380.60782933333303 L 165.28289473684 374.337137777778 L 166.77192982456 377.313109333333 L 168.26096491228 376.143872 L 169.75 377.52554666666697 L 171.23903508772 372.636529777778 L 172.72807017544 371.254855111111 L 174.21710526316 368.916750222222 L 175.70614035088 368.491505777778 L 177.1951754386 365.303096888889 L 178.68421052632 362.220814222222 L 180.17324561404 362.220814222222 L 181.66228070175 362.008376888889 L 183.15131578947 359.457464888889 L 184.64035087719 355.631374222222 L 186.12938596491 362.008376888889 L 187.61842105263 367.109831111111 L 189.10745614035 367.960135111111 L 190.59649122807 365.621845333333 L 192.08552631579 364.559104 L 193.57456140351 366.259712 L 195.06359649123 356.694115555556 L 196.55263157895 359.88270933333297 L 198.04166666667 360.945450666667 L 199.53070175439 356.694115555556 L 201.01973684211 353.505706666667 L 202.50877192982 352.124032 L 203.99780701754 350.954794666667 L 205.48684210526 354.781070222222 L 206.97587719298 347.022392888889 L 208.4649122807 347.82222222222197 L 209.95394736842 347.82222222222197 L 211.44298245614 348.977777777778 L 212.93201754386 349.208888888889 L 214.42105263158 348.51555555555603 L 215.9100877193 337.075555555556 L 217.39912280702 342.62222222222204 L 218.88815789474 340.542222222222 L 220.37719298246 339.848888888889 L 221.86622807018 344.00888888888903 L 223.35526315789 364.462222222222 L 224.84429824561 361.573333333333 L 226.33333333333 353.6 L 227.82236842105 344.471111111111 L 229.31140350877 340.426666666667 L 230.80043859649 343.893333333333 L 232.28947368421 346.551111111111 L 233.77850877193 343.54666666666697 L 235.26754385965 347.706666666667 L 236.75657894737 350.364444444444 L 238.24561403509 344.471111111111 L 239.73464912281 344.00888888888903 L 241.22368421053 352.906666666667 L 242.71271929825 359.608888888889 L 244.20175438596 351.866666666667 L 245.69078947368 352.097777777778 L 247.1798245614 350.826666666667 L 248.66885964912 352.906666666667 L 250.15789473684 356.60444444444397 L 251.64692982456 351.52 L 253.13596491228 348.168888888889 L 254.625 340.426666666667 L 256.11403508772 333.84000000000003 L 257.60307017544 331.297777777778 L 259.09210526316 337.191111111111 L 260.58114035088 330.951111111111 L 262.0701754386 326.444444444444 L 263.55921052632 332.106666666667 L 265.04824561404 324.364444444444 L 266.53728070175 334.519466666667 L 268.02631578947 330.8032 L 269.51535087719 334.741333333333 L 271.00438596491 335.000177777778 L 272.49342105263 333.243733333333 L 273.98245614035 334.279111111111 L 275.47149122807 329.786311111111 L 276.96052631579 329.102222222222 L 278.44956140351 326.32888888888897 L 279.93859649123 325.94062222222203 L 281.42763157895 326.088533333333 L 282.91666666667 325.9776 L 284.40570175439 323.389155555556 L 285.89473684211 322.631111111111 L 287.38377192982 320.782222222222 L 288.87280701754 320.042666666667 L 290.36184210526 319.894755555556 L 291.85087719298 326.883555555556 L 293.3399122807 336.608711111111 L 294.82894736842 342.876444444444 L 296.31798245614 347.683555555556 L 297.80701754386 334.464 L 299.29605263158 337.4592 L 300.7850877193 337.939911111111 L 302.27412280702 341.156977777778 L 303.76315789474 345.150577777778 L 305.25219298246 342.044444444444 L 306.74122807018 335.980088888889 L 308.23026315789 334.279111111111 L 309.71929824561 333.724444444444 L 311.20833333333 330.821688888889 L 312.69736842105 333.650488888889 L 314.18640350877 331.265422222222 L 315.67543859649 327.586133333333 L 317.16447368421 327.03146666666703 L 318.65350877193 329.8048 L 320.14254385965 328.621511111111 L 321.63157894737 320.042666666667 L 323.12061403509 316.437333333333 L 324.60964912281 315.25404444444 L 326.09868421053 317.3248 L 327.58771929825 316.381866666667 L 329.07675438596 323.555555555556 L 330.56578947368 323.555555555556 L 332.0548245614 326.051555555556 L 333.54385964912 324.332088888889 L 335.03289473684 323.721955555556 L 336.52192982456 319.488 L 338.01096491228 316.714666666667 L 339.5 316.418844444444 L 340.98903508772 317.953422222222 L 342.47807017544 313.12782222222 L 343.96710526316 311.98151111110997 L 345.45614035088 316.289422222222 L 346.9451754386 315.18008888889 L 348.43421052632 314.58844444444003 L 349.92324561404 311.14951111111 L 351.41228070175 306.76764444444 L 352.90131578947 306.54577777778 L 354.39035087719 306.76764444444 L 355.87938596491 310.28053333333 L 357.36842105263 306.71217777777997 L 358.85745614035 309.15271111110997 L 360.34649122807 308.32071111111 L 361.83552631579 304.21617777778 L 363.32456140351 304.99271111111 L 364.81359649123 298.81742222222 L 366.30263157895 295.30453333333 L 367.79166666667 295.34151111111 L 369.28070175439 298.70648888889 L 370.76973684211 301.42435555556 L 372.25877192982 300.352 L 373.74780701754 295.37848888889 L 375.23684210526 299.24266666667 L 376.72587719298 298.48462222221997 L 378.2149122807 293.80693333333 L 379.70394736842 289.66542222222 L 381.19298245614 296.09955555556 L 382.68201754386 294.67591111111 L 384.17105263158 290.22008888889 L 385.6600877193 280.55039999999997 L 387.14912280702 279.69991111111 L 388.63815789474 273.30275555556 L 390.12719298246 275.66933333333 L 391.61622807018 290.18311111111 L 393.10526315789 287.39128888889 L 394.59429824561 282.51022222222 L 396.08333333333 289.29564444444 L 397.57236842105 289.72088888889 L 399.06140350877 298.42915555556 L 400.55043859649 292.93795555556 L 402.03947368421 289.38808888889 L 403.52850877193 284.22968888889 L 405.01754385965 310.59484444444 L 406.50657894737 311.168 L 407.99561403509 314.73635555556 L 409.48464912281 323.130311111111 L 410.97368421053 326.994488888889 L 412.46271929825 320.8192 L 413.95175438596 323.999288888889 L 415.44078947368 319.765333333333 L 416.9298245614 314.38506666667 L 418.41885964912 311.07555555556 L 419.90789473684 311.22346666667 L 421.39692982456 307.54417777778 L 422.88596491228 304.04977777778 L 424.375 300.96213333333003 L 425.86403508772 303.58755555556 L 427.35307017544 305.76924444444 L 428.84210526316 300.49991111111 L 430.33114035088 293.67751111111 L 431.8201754386 295.41546666667 L 433.30921052632 299.72337777778 L 434.79824561404 303.31022222222 L 436.28728070175 295.98862222222 L 437.77631578947 297.33831111111 L 439.26535087719 293.15982222222 L 440.75438596491 295.26755555555997 L 442.24342105263 296.50631111111 L 443.73245614035 295.21208888889 L 445.22149122807 297.09795555556 L 446.71052631579 298.74346666667 L 448.19956140351 296.91306666667003 L 449.68859649123 288.63004444444 L 451.17763157895 284.50702222222003 L 452.66666666667 285.78275555556 L 454.15570175439 297.59715555556 L 455.64473684211 296.87608888888997 L 457.13377192982 301.55377777778 L 458.62280701754 299.61244444444003 L 460.11184210526 297.67111111111 L 461.60087719298 293.32622222222 L 463.0899122807 294.58346666667 L 464.57894736842 299.63093333333 L 466.06798245614 293.32622222222 L 467.55701754386 293.97333333333 L 469.04605263158 290.55288888889 L 470.5350877193 285.35751111111 L 472.02412280702 281.53031111111 L 473.51315789474 282.08497777778 L 475.00219298246 285.15413333333004 L 476.49122807018 287.98293333333004 L 477.98026315789 286.18951111111 L 479.46929824561 289.48053333333 L 480.95833333333 281.30844444444 L 482.44736842105 275.90968888889 L 483.93640350877 269.7344 L 485.42543859649 263.52213333333 L 486.91447368421 266.66524444443996 L 488.40350877193 264.77937777778004 L 489.89254385965 261.54382222222 L 491.38157894737 268.58808888889 L 492.87061403509 269.01333333333 L 494.35964912281 260.52693333333 L 495.84868421053 259.84284444444 L 497.33771929825 262.65315555556003 L 498.82675438596 267.42328888889 L 500.31578947368 267.95946666667 L 501.8048245614 261.61777777778 L 503.29385964912 257.19893333333 L 504.78289473684 252.68764444444 L 506.27192982456 250.82026666667 L 507.76096491228 253.11288888889 L 509.25 244.99626666667 L 510.73903508772 243.88693333333 L 512.22807017544 238.19235555556 L 513.71710526316 230.92622222222 L 515.20614035088 241.16906666667 L 516.6951754386 242.6112 L 518.18421052632 232.99697777778 L 519.67324561404 239.20924444444 L 521.16228070175 240.13368888889 L 522.65131578947 237.71164444444 L 524.14035087719 243.42471111111 L 525.62938596491 237.85955555556 L 527.11842105263 244.18275555556 L 528.60745614035 241.64977777778 L 530.09649122807 227.06204444444 L 531.58552631579 230.81528888889 L 533.07456140351 231.25902222222 L 534.56359649123 232.40533333333 L 536.05263157895 235.14168888889 L 537.54166666667 226.52586666667 L 539.03070175439 225.6384 L 540.51973684211 228.94791111111 L 542.00877192982 220.12871111111 L 543.49780701754 214.61902222222 L 544.98684210526 218.63111111111 L 546.47587719298 214.89635555556 L 547.9649122807 217.79911111111 L 549.45394736842 230.92622222222 L 550.94298245614 222.55075555556 L 552.43201754386 224.12231111111 L 553.92105263158 211.91964444444 L 555.4100877193 209.18328888889 L 556.89912280702 206.55786666667 L 558.38815789474 199.92035555556 L 559.87719298246 202.47182222222 L 561.36622807018 200.40106666667 L 562.85526315789 202.19448888889 L 564.34429824561 210.07075555556 L 565.83333333333 212.16 L 567.32236842105 200.39644444444 L 568.81140350877 194.15182222222 L 570.30043859649 193.56017777778 L 571.78947368421 213.10293333333 L 573.27850877193 214.11982222222 L 574.76754385965 229.31768888889 L 576.25657894737 230.53795555556 L 577.74561403509 214.69297777778 L 579.23464912281 203.32231111111 L 580.72368421053 208.81351111111 L 582.21271929825 209.25724444444 L 583.70175438596 207.89831111111 L 585.19078947368 190.76835555556 L 586.6798245614 212.30791111111 L 588.16885964912 202.26844444444 L 589.65789473684 189.1968 L 591.14692982456 179.26826666667 L 592.63596491228 179.13884444444 L 594.125 173.61066666667 L 595.61403508772 179.56408888889 L 597.10307017544 162.99804444444 L 598.59210526316 162.53582222222 L 600.08114035088 162.31395555556 L 601.5701754386 164.86542222222 L 603.05921052632 162.9056 L 604.54824561404 153.30986666667002 L 606.03728070175 172.26097777778 L 607.52631578947 194.26275555556 L 609.01535087719 171.2071296 L 610.50438596491 173.04655217778 L 611.99342105263 171.15166293333 L 613.48245614035 161.87022222222 L 614.97149122807 156.64082488889 L 616.46052631579 159.11537777778 L 617.94956140351 170.24568888889 L 619.43859649123 149.33475555555998 L 620.92763157895 141.80977777778003 L 622.41666666667 163.49724444444 L 623.90570175439 177.14204444444 L 625.39473684211 154.47466666666998 L 626.88377192982 149.46417777777998 L 628.37280701754 142.47537777778 L 629.86184210526 142.05013333333 L 631.35087719298 125.81688888888999 L 632.8399122807 126.85226666667 L 634.32894736842 137.90862222222 L 635.81798245614 117.21955555556002 L 637.30701754386 120.58453333333 L 638.79605263158 94.82951111110998 L 640.2850877193 95.18079999999998 L 641.77412280702 113.26293333333001 L 643.26315789474 106.53297777777999 L 644.75219298246 98.52728888888998 L 646.24122807018 105.84888888888997 L 647.73026315789 107.86417777778001 L 649.21929824561 92.51839999999999 L 650.70833333333 97.49191111111003 L 652.19736842105 114.15039999999999 L 653.68640350877 80.27875555556 L 655.17543859649 73.01262222221999 L 656.66447368421 81.97973333332999 L 658.15350877193 99.80302222222002 L 659.64254385965 95.16231111111 L 661.13157894737 78.94755555555997 L 662.62061403509 63.06560000000002 L 664.10964912281 78.85511111110998 L 665.59868421053 73.54880000000003 L 667.08771929825 69.40728888888998 L 668.57675438596 87.04568888889003 L 670.06578947368 102.72426666667002 L 671.5548245614 119.86346666666998" class="highcharts-graph" data-z-index="1" stroke="#2962FF" stroke-width="2" stroke-linejoin="round" stroke-linecap="round"></path></g><g class="highcharts-markers highcharts-series-0 highcharts-line-series" data-z-index="90" opacity="1" transform="translate(8,40) scale(1 1)" clip-path="none"></g></g><text x="740" text-anchor="end" class="highcharts-title" data-z-index="4" style="color: rgb(211, 211, 211); font-size: 15px; fill: rgb(211, 211, 211);" y="512"></text><text x="14" text-anchor="start" class="highcharts-subtitle" data-z-index="4" style="color: rgb(51, 51, 51); fill: rgb(51, 51, 51); font-size: 15px;" y="25"><tspan style="color: rgb(211, 211, 211); fill: rgb(211, 211, 211);">PepsiCo</tspan></text><text x="0" text-anchor="start" class="highcharts-caption" data-z-index="4" style="color: rgb(102, 102, 102); fill: rgb(102, 102, 102);" y="527"></text><g class="highcharts-axis-labels highcharts-xaxis-labels" data-z-index="7"><text x="36.242032163743" text-anchor="middle" transform="translate(0,0)" style="color: rgb(227, 225, 225); cursor: default; font-size: 15px; font-weight: 400; fill: rgb(227, 225, 225);" y="476" opacity="1">1974</text><text x="149.36808878256" text-anchor="middle" transform="translate(0,0)" style="color: rgb(227, 225, 225); cursor: default; font-size: 15px; font-weight: 400; fill: rgb(227, 225, 225);" y="476" opacity="1">1994</text><text x="256.57861509835" text-anchor="middle" transform="translate(0,0)" style="color: rgb(227, 225, 225); cursor: default; font-size: 15px; font-weight: 400; fill: rgb(227, 225, 225);" y="476" opacity="1">2000</text><text x="363.78914141414" text-anchor="middle" transform="translate(0,0)" style="color: rgb(227, 225, 225); cursor: default; font-size: 15px; font-weight: 400; fill: rgb(227, 225, 225);" y="476" opacity="1">2006</text><text x="470.99966772993" text-anchor="middle" transform="translate(0,0)" style="color: rgb(227, 225, 225); cursor: default; font-size: 15px; font-weight: 400; fill: rgb(227, 225, 225);" y="476" opacity="1">2012</text><text x="578.25390625" text-anchor="middle" transform="translate(0,0)" style="color: rgb(227, 225, 225); cursor: default; font-size: 15px; font-weight: 400; fill: rgb(227, 225, 225);" y="476" opacity="1">2018</text><text x="684.07156432749" text-anchor="middle" transform="translate(0,0)" style="color: rgb(227, 225, 225); cursor: default; font-size: 15px; font-weight: 400; fill: rgb(227, 225, 225);" y="476" opacity="1">2024</text></g><g class="highcharts-axis-labels highcharts-yaxis-labels" data-z-index="7"><text x="0" text-anchor="start" transform="translate(0,0)" style="color: rgb(227, 225, 225); cursor: default; font-size: 15px; fill: rgb(227, 225, 225);" visibility="hidden"><tspan>0</tspan></text><text x="695" text-anchor="start" transform="translate(0,0)" style="color: rgb(227, 225, 225); cursor: default; font-size: 15px; fill: rgb(227, 225, 225);" y="414" opacity="1">25</text><text x="695" text-anchor="start" transform="translate(0,0)" style="color: rgb(227, 225, 225); cursor: default; font-size: 15px; fill: rgb(227, 225, 225);" y="368" opacity="1">50</text><text x="695" text-anchor="start" transform="translate(0,0)" style="color: rgb(227, 225, 225); cursor: default; font-size: 15px; fill: rgb(227, 225, 225);" y="322" opacity="1">75</text><text x="695" text-anchor="start" transform="translate(0,0)" style="color: rgb(227, 225, 225); cursor: default; font-size: 15px; fill: rgb(227, 225, 225);" y="276" opacity="1">100</text><text x="695" text-anchor="start" transform="translate(0,0)" style="color: rgb(227, 225, 225); cursor: default; font-size: 15px; fill: rgb(227, 225, 225);" y="229" opacity="1">125</text><text x="695" text-anchor="start" transform="translate(0,0)" style="color: rgb(227, 225, 225); cursor: default; font-size: 15px; fill: rgb(227, 225, 225);" y="183" opacity="1">150</text><text x="695" text-anchor="start" transform="translate(0,0)" style="color: rgb(227, 225, 225); cursor: default; font-size: 15px; fill: rgb(227, 225, 225);" y="137" opacity="1">175</text><text x="695" text-anchor="start" transform="translate(0,0)" style="color: rgb(227, 225, 225); cursor: default; font-size: 15px; fill: rgb(227, 225, 225);" y="91" opacity="1">200</text><text x="0" text-anchor="start" transform="translate(0,0)" style="color: rgb(227, 225, 225); cursor: default; font-size: 15px; fill: rgb(227, 225, 225);" visibility="hidden">225</text></g><g class="highcharts-axis-labels highcharts-yaxis-labels" data-z-index="7"></g><g class="highcharts-axis-labels highcharts-yaxis-labels" data-z-index="7"></g><g class="highcharts-control-points" data-z-index="99" clip-path="url(#highcharts-awchpl0-3352-)"></g><g class="highcharts-axis highcharts-yaxis" data-z-index="9999"><path fill="none" class="highcharts-tick" stroke="#333333" stroke-width="1" d="M 688 456.5 L 693 456.5" opacity="1"></path><path fill="none" class="highcharts-tick" stroke="#333333" stroke-width="1" d="M 688 410.5 L 693 410.5" opacity="1"></path><path fill="none" class="highcharts-tick" stroke="#333333" stroke-width="1" d="M 688 364.5 L 693 364.5" opacity="1"></path><path fill="none" class="highcharts-tick" stroke="#333333" stroke-width="1" d="M 688 317.5 L 693 317.5" opacity="1"></path><path fill="none" class="highcharts-tick" stroke="#333333" stroke-width="1" d="M 688 271.5 L 693 271.5" opacity="1"></path><path fill="none" class="highcharts-tick" stroke="#333333" stroke-width="1" d="M 688 225.5 L 693 225.5" opacity="1"></path><path fill="none" class="highcharts-tick" stroke="#333333" stroke-width="1" d="M 688 179.5 L 693 179.5" opacity="1"></path><path fill="none" class="highcharts-tick" stroke="#333333" stroke-width="1" d="M 688 132.5 L 693 132.5" opacity="1"></path><path fill="none" class="highcharts-tick" stroke="#333333" stroke-width="1" d="M 688 86.5 L 693 86.5" opacity="1"></path><path fill="none" class="highcharts-tick" stroke="#333333" stroke-width="1" d="M 688 39.5 L 693 39.5" opacity="1"></path><path fill="none" class="highcharts-axis-line" stroke="#616161" stroke-width="1" data-z-index="7" d="M 688.5 40 L 688.5 456"></path></g><path fill="none" d="M 8 0 L 1800 0" stroke="#757575" stroke-width="1" stroke-dasharray="8,3" data-z-index="6" visibility="hidden" class="crosshair-fix-horizontal"></path><path fill="none" d="M 0 40 L 0 1160" stroke="#757575" stroke-width="1" stroke-dasharray="8,3" data-z-index="6" visibility="hidden" class="crosshair-fix-vertical"></path></svg>