<?xml version="1.0" standalone="no"?><!DOCTYPE svg PUBLIC "-//W3C//DTD SVG 1.1//EN" "http://www.w3.org/Graphics/SVG/1.1/DTD/svg11.dtd"><svg xmlns:xlink="http://www.w3.org/1999/xlink" version="1.1" class="highcharts-root" style="font-family: &quot;Helvetica Neue&quot;, Helvetica, Arial, sans-serif; font-size: 12px;" xmlns="http://www.w3.org/2000/svg" width="750" height="520" viewBox="0 0 750 520"><desc>Created with Highcharts 10.1.0</desc><defs><linearGradient x1="0" y1="0" x2="500" y2="500" gradientUnits="userSpaceOnUse" id="highcharts-fkk373m-2442"><stop offset="0" stop-color="rgb(35, 35, 35)" stop-opacity="1"></stop></linearGradient><clipPath id="highcharts-fkk373m-2443-"><rect x="0" y="0" width="679" height="416" fill="none"></rect></clipPath><clipPath id="highcharts-fkk373m-2897-"><rect x="0" y="0" width="679" height="416" fill="none"></rect></clipPath><clipPath id="highcharts-fkk373m-3356-"><rect x="8" y="40" width="679" height="416" fill="none"></rect></clipPath></defs><rect fill="url(#highcharts-fkk373m-2442)" class="highcharts-background" x="0" y="0" width="750" height="520" rx="0" ry="0"></rect><rect fill="none" class="highcharts-plot-background" x="8" y="40" width="679" height="416"></rect><g class="highcharts-grid highcharts-xaxis-grid" data-z-index="1"><path fill="none" stroke="#333333" stroke-width="1" stroke-dasharray="none" data-z-index="1" class="highcharts-grid-line" d="M 53.5 40 L 53.5 456" opacity="1"></path><path fill="none" stroke="#333333" stroke-width="1" stroke-dasharray="none" data-z-index="1" class="highcharts-grid-line" d="M 166.5 40 L 166.5 456" opacity="1"></path><path fill="none" stroke="#333333" stroke-width="1" stroke-dasharray="none" data-z-index="1" class="highcharts-grid-line" d="M 255.5 40 L 255.5 456" opacity="1"></path><path fill="none" stroke="#333333" stroke-width="1" stroke-dasharray="none" data-z-index="1" class="highcharts-grid-line" d="M 344.5 40 L 344.5 456" opacity="1"></path><path fill="none" stroke="#333333" stroke-width="1" stroke-dasharray="none" data-z-index="1" class="highcharts-grid-line" d="M 433.5 40 L 433.5 456" opacity="1"></path><path fill="none" stroke="#333333" stroke-width="1" stroke-dasharray="none" data-z-index="1" class="highcharts-grid-line" d="M 523.5 40 L 523.5 456" opacity="1"></path><path fill="none" stroke="#333333" stroke-width="1" stroke-dasharray="none" data-z-index="1" class="highcharts-grid-line" d="M 612.5 40 L 612.5 456" opacity="1"></path></g><g class="highcharts-grid highcharts-yaxis-grid" data-z-index="1"><path fill="none" stroke="#333333" stroke-width="1" stroke-dasharray="none" data-z-index="1" class="highcharts-grid-line" d="M 8 456.5 L 687 456.5" opacity="1"></path><path fill="none" stroke="#333333" stroke-width="1" stroke-dasharray="none" data-z-index="1" class="highcharts-grid-line" d="M 8 397.5 L 687 397.5" opacity="1"></path><path fill="none" stroke="#333333" stroke-width="1" stroke-dasharray="none" data-z-index="1" class="highcharts-grid-line" d="M 8 337.5 L 687 337.5" opacity="1"></path><path fill="none" stroke="#333333" stroke-width="1" stroke-dasharray="none" data-z-index="1" class="highcharts-grid-line" d="M 8 278.5 L 687 278.5" opacity="1"></path><path fill="none" stroke="#333333" stroke-width="1" stroke-dasharray="none" data-z-index="1" class="highcharts-grid-line" d="M 8 218.5 L 687 218.5" opacity="1"></path><path fill="none" stroke="#333333" stroke-width="1" stroke-dasharray="none" data-z-index="1" class="highcharts-grid-line" d="M 8 159.5 L 687 159.5" opacity="1"></path><path fill="none" stroke="#333333" stroke-width="1" stroke-dasharray="none" data-z-index="1" class="highcharts-grid-line" d="M 8 99.5 L 687 99.5" opacity="1"></path><path fill="none" stroke="#333333" stroke-width="1" stroke-dasharray="none" data-z-index="1" class="highcharts-grid-line" d="M 8 39.5 L 687 39.5" opacity="1"></path></g><g class="highcharts-grid highcharts-yaxis-grid" data-z-index="1"></g><g class="highcharts-grid highcharts-yaxis-grid" data-z-index="1"></g><rect fill="none" class="highcharts-plot-border" data-z-index="1" x="8" y="40" width="679" height="416"></rect><g class="highcharts-axis highcharts-xaxis" data-z-index="2"><path fill="none" class="highcharts-axis-line" stroke="#616161" stroke-width="1" data-z-index="7" d="M 8 456.5 L 687 456.5"></path></g><g class="highcharts-axis highcharts-yaxis" data-z-index="2"><path fill="none" class="highcharts-axis-line" data-z-index="7" d="M 712 40 L 712 456"></path></g><g class="highcharts-axis highcharts-yaxis" data-z-index="2"><path fill="none" class="highcharts-axis-line" data-z-index="7" d="M 6.5 40 L 6.5 456"></path></g><g class="highcharts-series-group" data-z-index="3"><g class="highcharts-series highcharts-series-0 highcharts-line-series" data-z-index="90" opacity="1" transform="translate(8,40) scale(1 1)" clip-path="url(#highcharts-fkk373m-2897-)"><path fill="none" d="M 0 164.20114285714 L 1.4857768052516 160.45714285714 L 2.9715536105033 161.94285714286 L 4.4573304157549 161.17028571429 L 5.9431072210066 172.34285714286 L 7.4288840262582 156 L 8.9146608315098 161.17028571429 L 10.400437636761 167.11314285714 L 11.886214442013 164.20114285714 L 13.371991247265 170.85714285714 L 14.857768052516 181.25714285714 L 16.343544857768 167.88571428571 L 17.82932166302 139.65714285714 L 19.315098468271 121.82857142857 L 20.800875273523 139.65714285714 L 22.286652078775 150.77028571429003 L 23.772428884026 124.80000000000001 L 25.258205689278 161.94285714286 L 26.74398249453 158.97142857143 L 28.229759299781 190.944 L 29.715536105033 187.91314285714 L 31.201312910284 193.14285714286 L 32.687089715536 213.17028571429 L 34.172866520788 208 L 35.658643326039 199.08571428571 L 37.144420131291 245.14285714286 L 38.630196936543 270.4 L 40.115973741794 279.31428571429 L 41.601750547046 225.11542857143 L 43.087527352298 225.11542857143 L 44.573304157549 222.08457142857 L 46.059080962801 247.34171428571 L 47.544857768053 213.17028571429 L 49.030634573304 225.11542857143 L 50.516411378556 225.11542857143 L 52.002188183807 213.17028571429 L 53.487964989059 216.20114285714 L 54.973741794311 253.344 L 56.459518599562 253.344 L 57.945295404814 267.42857142856997 L 59.431072210066 245.14285714286 L 60.916849015317 250.31314285714 L 62.402625820569 250.31314285714 L 63.888402625821 239.2 L 65.374179431072 256.256 L 66.859956236324 239.2 L 68.345733041575 253.344 L 69.831509846827 250.31314285714 L 71.317286652079 242.17142857143 L 72.80306345733 245.14285714286 L 74.288840262582 247.34171428571 L 75.774617067834 236.22857142857 L 77.260393873085 239.2 L 78.746170678337 259.22742857143 L 80.231947483589 242.17142857143 L 81.71772428884 256.256 L 83.203501094092 250.31314285714 L 84.689277899344 247.34171428571 L 86.175054704595 262.25828571428997 L 87.660831509847 267.42857142856997 L 89.146608315098 262.25828571428997 L 90.63238512035 262.25828571428997 L 92.118161925602 259.22742857143 L 93.603938730853 256.256 L 95.089715536105 267.42857142856997 L 96.575492341357 253.344 L 98.061269146608 253.344 L 99.54704595186 253.344 L 101.03282275711 262.25828571428997 L 102.51859956236 250.31314285714 L 104.00437636761 236.22857142857 L 105.49015317287 222.08457142857 L 106.97592997812 216.20114285714 L 108.46170678337 205.02857142857 L 109.94748358862 208 L 111.43326039387 205.02857142857 L 112.91903719912 225.11542857143 L 114.40481400438 225.11542857143 L 115.89059080963 219.17257142857 L 117.37636761488 228.08685714286 L 118.86214442013 236.22857142857 L 120.34792122538 228.08685714286 L 121.83369803063 236.22857142857 L 123.31947483589 239.2 L 124.80525164114 233.25714285714 L 126.29102844639 230.28571428571 L 127.77680525164 208 L 129.26258205689 210.97142857143 L 130.74835886214 210.97142857143 L 132.2341356674 178.99885714286 L 133.71991247265 182.02971428571 L 135.2056892779 386.533531428571 L 136.69146608315 385.171428571429 L 138.1772428884 383.066468571429 L 139.66301969365 381.828571428571 L 141.14879649891 383.995337142857 L 142.63457330416 387.276388571429 L 144.12035010941 389.257142857143 L 145.60612691466 386.780754285714 L 147.09190371991 384.428571428571 L 148.57768052516 384.738194285714 L 150.06345733042 385.29504 L 151.54923413567 382.2 L 153.03501094092 381.766765714286 L 154.52078774617 379.290377142857 L 156.00656455142 377.681051428571 L 157.49234135667 377.742857142857 L 158.97811816193 375.514285714286 L 160.46389496718 374.89504 L 161.94967177243 373.533531428571 L 163.43544857768 373.100297142857 L 164.92122538293 372.35744 L 166.40700218818 370.376091428571 L 167.89277899344 365.857142857143 L 169.37855579869 367.09504 L 170.86433260394 363.133531428571 L 172.35010940919 359.171428571429 L 173.83588621444 358.552182857143 L 175.32166301969 353.6 L 176.80743982495 348.152182857143 L 178.2932166302 350.752182857143 L 179.77899343545 349.390674285714 L 181.2647702407 347.780754285714 L 182.75054704595 345.923611428571 L 184.2363238512 345.30496 L 185.72210065646 346.790674285714 L 187.20787746171 345.676388571429 L 188.69365426696 337.628571428571 L 190.17943107221 334.037897142857 L 191.66520787746 327.228571428571 L 193.15098468271 333.790674285714 L 194.63676148796 324.38075428571403 L 196.12253829322 325.247817142857 L 197.60831509847 332.676388571429 L 199.09409190372 320.914285714286 L 200.57986870897 313.98075428571 L 202.06564551422 297.63789714285997 L 203.55142231947 297.88571428571 L 205.03719912473 306.18075428571 L 206.52297592998 296.89504 L 208.00875273523 275.35218285714 L 209.49452954048 271.88571428571004 L 210.98030634573 268.29504 L 212.46608315098 254.05714285714 L 213.95185995624 240.68571428571 L 215.43763676149 218.52361142857 L 216.92341356674 190.54285714286 L 218.40919037199 208.37142857143 L 219.89496717724 200.69504 L 221.38074398249 198.46646857143 L 222.86652078775 231.77142857143 L 224.352297593 206.51428571429 L 225.83807439825 203.41924571429 L 227.3238512035 194.25714285714 L 228.80962800875 168.38075428571 L 230.295404814 161.2 L 231.78118161926 154.63789714286003 L 233.26695842451 141.14285714286 L 234.75273522976 188.06646857143 L 236.23851203501 204.03789714286 L 237.72428884026 200.07638857143 L 239.21006564551 214.68571428571 L 240.69584245077 191.65714285714 L 242.18161925602 202.8 L 243.66739606127 180.14285714286 L 245.15317286652 200.57142857143 L 246.63894967177 223.22857142857 L 248.12472647702 200.94285714286 L 249.61050328228 225.08571428571 L 251.09628008753 198.71428571429 L 252.58205689278 165.65714285714 L 254.06783369803 151.17142857143 L 255.55361050328 130.74285714285998 L 257.03938730853 159.71428571428999 L 258.52516411379 158.97142857143 L 260.01094091904 148.94285714286002 L 261.49671772429 159.34285714286 L 262.98249452954 152.65714285714 L 264.46827133479 142.62857142857 L 265.95404814004 147.68 L 267.4398249453 148.57142857142998 L 268.92560175055 172.64 L 270.4113785558 158.67428571429002 L 271.89715536105 161.11085714286 L 273.3829321663 177.98857142857 L 274.86870897155 171.03542857143 L 276.35448577681 188.32914285714 L 277.84026258206 177.69142857143 L 279.32603938731 166.99428571429 L 280.81181619256 158.61485714286 L 282.29759299781 179.17714285714 L 283.78336980306 168.36114285714 L 285.26914660832 172.58057142857 L 286.75492341357 179.83085714286 L 288.24070021882 199.97714285714 L 289.72647702407 210.37714285714 L 291.21225382932 208 L 292.69803063457 223.74857142857 L 294.18380743982 219.41028571429 L 295.66958424508 243.53828571429 L 297.15536105033 227.19542857143 L 298.64113785558 228.62171428571 L 300.12691466083 234.32685714286 L 301.61269146608 235.57485714286 L 303.09846827133 238.784 L 304.58424507659 230.82057142857 L 306.07002188184 233.25714285714 L 307.55579868709 231.65257142857 L 309.04157549234 213.05142857143 L 310.52735229759 217.74628571429 L 312.01312910284 238.18971428571 L 313.4989059081 235.456 L 314.98468271335 228.20571428571 L 316.4704595186 216.49828571429 L 317.95623632385 206.03885714286 L 319.4420131291 198.31314285714 L 320.92778993435 198.19428571429 L 322.41356673961 207.70285714286 L 323.89934354486 203.48342857143 L 325.38512035011 205.97942857143 L 326.87089715536 212.27885714286 L 328.35667396061 226.06628571429 L 329.84245076586 221.84685714286 L 331.32822757112 234.14857142857 L 332.81400437637 243.95428571429 L 334.29978118162 250.96685714286 L 335.78555798687 256.19657142857 L 337.27133479212 272.42057142857004 L 338.75711159737 259.76228571429 L 340.24288840263 259.88114285714 L 341.72866520788 254.53257142857 L 343.21444201313 250.19428571429 L 344.70021881838 252.096 L 346.18599562363 258.51428571429 L 347.67177242888 264.576 L 349.15754923414 267.60685714286 L 350.64332603939 286.80228571429 L 352.12910284464 290.01142857143 L 353.61487964989 277.41257142857 L 355.10065645514 263.38742857143 L 356.58643326039 260.35657142856996 L 358.07221006565 267.904 L 359.5579868709 265.46742857143 L 361.04376367615 275.392 L 362.5295404814 276.52114285714003 L 364.01531728665 261.54514285714004 L 365.5010940919 252.21485714286 L 366.98687089716 247.46057142857 L 368.47264770241 257.62285714285997 L 369.95842450766 252.63085714286 L 371.44420131291 262.08000000000004 L 372.92997811816 260.05942857143 L 374.41575492341 267.66628571429 L 375.90153172867 265.88342857143 L 377.38730853392 258.752 L 378.87308533917 252.63085714286 L 380.35886214442 264.04114285714 L 381.84463894967 276.28342857143 L 383.33041575492 268.37942857143 L 384.81619256018 270.81600000000003 L 386.30196936543 269.74628571429 L 387.78774617068 274.79771428570996 L 389.27352297593 280.91885714286 L 390.75929978118 277.17485714286 L 392.24507658643 283.59314285714004 L 393.73085339168 291.616 L 395.21663019694 296.48914285714 L 396.70240700219 300.94628571429 L 398.18818380744 312.17828571429 L 399.67396061269 305.04685714286 L 401.15973741794 302.432 L 402.64551422319 306.41371428571 L 404.13129102845 310.752 L 405.6170678337 318.358857142857 L 407.10284463895 310.752 L 408.5886214442 329.353142857143 L 410.07439824945 342.843428571429 L 411.5601750547 335.058285714286 L 413.04595185996 336.603428571429 L 414.53172866521 325.728 L 416.01750547046 326.857142857143 L 417.50328227571 321.330285714286 L 418.98905908096 316.75428571428597 L 420.47483588621 317.645714285714 L 421.96061269147 314.79314285713997 L 423.44638949672 308.01828571429 L 424.93216630197 307.89942857143 L 426.41794310722 305.10628571429 L 427.90371991247 311.70285714286 L 429.38949671772 314.08 L 430.87527352298 316.635428571429 L 432.36105032823 325.490285714286 L 433.84682713348 331.254857142857 L 435.33260393873 326.857142857143 L 436.81838074398 321.449142857143 L 438.30415754923 313.96114285714 L 439.78993435449 312.50514285714 L 441.27571115974 319.131428571429 L 442.76148796499 311.94057142857 L 444.24726477024 307.72114285713997 L 445.73304157549 301.65942857143 L 447.21881838074 295.30057142857 L 448.704595186 291.37828571429 L 450.19037199125 288.52571428571 L 451.6761487965 293.57714285714 L 453.16192560175 301.60594285714 L 454.647702407 303.20457142857003 L 456.13347921225 310.93028571429 L 457.61925601751 301.54057142857 L 459.10503282276 296.72685714286 L 460.59080962801 287.39657142857004 L 462.07658643326 288.82285714286 L 463.56236323851 290.45714285714 L 465.04814004376 281.424 L 466.53391684902 279.90857142857 L 468.01969365427 286.02971428571004 L 469.50547045952 279.31428571429 L 470.99124726477 273.13371428570997 L 472.47702407002 274.20342857143 L 473.96280087527 268.32 L 475.44857768053 268.20114285714 L 476.93435448578 267.30971428571 L 478.42013129103 266.95730285714 L 479.90590809628 253.87885714286 L 481.39168490153 253.344 L 482.87746170678 244.48914285714 L 484.36323851204 243.24114285714 L 485.84901531729 254.176 L 487.33479212254 249.54057142857 L 488.82056892779 242.29028571429 L 490.30634573304 248.352 L 491.79212253829 245.29142857143 L 493.27789934354 233.64342857143 L 494.7636761488 227.43314285714 L 496.24945295405 233.97028571429 L 497.7352297593 235.33714285714 L 499.22100656455 225.17485714286 L 500.7067833698 225.11542857143 L 502.19256017505 230.10742857143 L 503.67833698031 239.91314285714 L 505.16411378556 239.616 L 506.64989059081 245.44 L 508.13566739606 241.33942857143 L 509.62144420131 240.26971428571 L 511.10722100656 238.01142857143 L 512.59299781182 230.88 L 514.07877461707 230.88 L 515.56455142232 230.28571428571 L 517.05032822757 212.04114285714 L 518.53610503282 209.248 L 520.02188183807 214.35885714286 L 521.50765864333 209.48571428571 L 522.99343544858 216.736 L 524.47921225383 201.70057142857 L 525.96498905908 224.52114285714 L 527.45076586433 229.33485714286 L 528.93654266958 215.01257142857 L 530.42231947484 221.25257142857 L 531.90809628009 224.16457142857 L 533.39387308534 234.80228571429 L 534.87964989059 239.67542857143 L 536.36542669584 239.85371428571 L 537.85120350109 221.60914285714 L 539.33698030635 209.78285714286 L 540.8227571116 206.752 L 542.30853391685 196.768 L 543.7943107221 209.18857142857 L 545.28008752735 214.71542857143 L 546.7658643326 227.552 L 548.25164113786 224.99657142857 L 549.73741794311 222.976 L 551.22319474836 227.43314285714 L 552.70897155361 213.22971428571 L 554.19474835886 212.69485714286 L 555.68052516411 214.41828571429 L 557.16630196937 221.96571428571 L 558.65207877462 216.37942857143 L 560.13785557987 218.93485714286 L 561.62363238512 214.35885714286 L 563.10940919037 204.01828571429 L 564.59518599562 207.64342857143 L 566.08096280088 201.08251428571 L 567.56673960613 200.15542857143 L 569.05251641138 195.49028571429 L 570.53829321663 199.79885714286 L 572.02407002188 204.70171428571 L 573.50984682713 197.57028571429 L 574.99562363239 202.26514285714 L 576.48140043764 200.096 L 577.96717724289 178.52342857143 L 579.45295404814 169.43085714286 L 580.93873085339 154.36571428571 L 582.42450765864 159.98171428570998 L 583.91028446389 141.41028571429 L 585.39606126915 160.576 L 586.8818380744 163.72571428571 L 588.36761487965 158.37714285713997 L 589.8533916849 163.60685714286 L 591.33916849015 174.66057142857 L 592.8249452954 169.25257142857 L 594.31072210066 158.55542857143 L 595.79649890591 185.17942857143 L 597.28227571116 204.73142857143 L 598.76805251641 202.47314285714 L 600.25382932166 187.97257142857 L 601.73960612691 187.08114285714 L 603.22538293217 183.15885714286 L 604.71115973742 194.688 L 606.19693654267 217.38971428571 L 607.68271334792 222.02514285714 L 609.16849015317 188.032 L 610.65426695842 189.04228571429 L 612.14004376368 221.66857142857 L 613.62582056893 187.31885714286 L 615.11159737418 191.41942857143 L 616.59737417943 197.89714285714 L 618.08315098468 205.14742857143 L 619.56892778993 188.32914285714 L 621.05470459519 197.24342857143 L 622.54048140044 202.65142857143 L 624.02625820569 216.97371428571 L 625.51203501094 200.69028571429 L 626.99781181619 186.30857142857 L 628.48358862144 185.83314285714 L 629.9693654267 183.27771428571 L 631.45514223195 161.58628571429 L 632.9409190372 142.21257142857002 L 634.42669584245 160.39771428571 L 635.9124726477 156.05942857142998 L 637.39824945295 96.69028571428998 L 638.88402625821 65.07428571429 L 640.36980306346 102.87085714286002 L 641.85557986871 137.04228571429002 L 643.34135667396 108.33828571429001 L 644.82713347921 124.38400000000001 L 646.31291028446 100.79085714285998 L 647.79868708972 104.416 L 649.28446389497 115.82628571429001 L 650.77024070022 147.20457142856998 L 652.25601750547 155.94057142857002 L 653.74179431072 139.36 L 655.22757111597 118.08457142856997 L 656.71334792123 111.488 L 658.19912472648 153.56342857143 L 659.68490153173 174.89828571429 L 661.17067833698 173.53142857143 L 662.65645514223 184.88228571429 L 664.14223194748 190.05257142857 L 665.62800875274 198.016 L 667.11378555799 201.70057142857 L 668.59956236324 205.74171428571 L 670.08533916849 218.87542857143 L 671.57111597374 233.25714285714" class="highcharts-graph" data-z-index="1" stroke="#2962FF" stroke-width="2" stroke-linejoin="round" stroke-linecap="round"></path></g><g class="highcharts-markers highcharts-series-0 highcharts-line-series" data-z-index="90" opacity="1" transform="translate(8,40) scale(1 1)" clip-path="none"></g></g><text x="740" text-anchor="end" class="highcharts-title" data-z-index="4" style="color: rgb(211, 211, 211); font-size: 15px; fill: rgb(211, 211, 211);" y="512"></text><text x="14" text-anchor="start" class="highcharts-subtitle" data-z-index="4" style="color: rgb(51, 51, 51); fill: rgb(51, 51, 51); font-size: 15px;" y="25"><tspan style="color: rgb(211, 211, 211); fill: rgb(211, 211, 211);">Pfizer</tspan></text><text x="0" text-anchor="start" class="highcharts-caption" data-z-index="4" style="color: rgb(102, 102, 102); fill: rgb(102, 102, 102);" y="527"></text><g class="highcharts-axis-labels highcharts-xaxis-labels" data-z-index="7"><text x="54.01115267876" text-anchor="middle" transform="translate(0,0)" style="color: rgb(227, 225, 225); cursor: default; font-size: 15px; font-weight: 400; fill: rgb(227, 225, 225);" y="476" opacity="1">1975</text><text x="166.88807108282" text-anchor="middle" transform="translate(0,0)" style="color: rgb(227, 225, 225); cursor: default; font-size: 15px; font-weight: 400; fill: rgb(227, 225, 225);" y="476" opacity="1">1995</text><text x="256.03467939792" text-anchor="middle" transform="translate(0,0)" style="color: rgb(227, 225, 225); cursor: default; font-size: 15px; font-weight: 400; fill: rgb(227, 225, 225);" y="476" opacity="1">2000</text><text x="345.18128771302" text-anchor="middle" transform="translate(0,0)" style="color: rgb(227, 225, 225); cursor: default; font-size: 15px; font-weight: 400; fill: rgb(227, 225, 225);" y="476" opacity="1">2005</text><text x="434.28684515382" text-anchor="middle" transform="translate(0,0)" style="color: rgb(227, 225, 225); cursor: default; font-size: 15px; font-weight: 400; fill: rgb(227, 225, 225);" y="476" opacity="1">2010</text><text x="523.51812089716" text-anchor="middle" transform="translate(0,0)" style="color: rgb(227, 225, 225); cursor: default; font-size: 15px; font-weight: 400; fill: rgb(227, 225, 225);" y="476" opacity="1">2015</text><text x="612.66323145338" text-anchor="middle" transform="translate(0,0)" style="color: rgb(227, 225, 225); cursor: default; font-size: 15px; font-weight: 400; fill: rgb(227, 225, 225);" y="476" opacity="1">2020</text></g><g class="highcharts-axis-labels highcharts-yaxis-labels" data-z-index="7"><text x="0" text-anchor="start" transform="translate(0,0)" style="color: rgb(227, 225, 225); cursor: default; font-size: 15px; fill: rgb(227, 225, 225);" visibility="hidden"><tspan>0</tspan></text><text x="695" text-anchor="start" transform="translate(0,0)" style="color: rgb(227, 225, 225); cursor: default; font-size: 15px; fill: rgb(227, 225, 225);" y="401" opacity="1">10</text><text x="695" text-anchor="start" transform="translate(0,0)" style="color: rgb(227, 225, 225); cursor: default; font-size: 15px; fill: rgb(227, 225, 225);" y="342" opacity="1">20</text><text x="695" text-anchor="start" transform="translate(0,0)" style="color: rgb(227, 225, 225); cursor: default; font-size: 15px; fill: rgb(227, 225, 225);" y="282" opacity="1">30</text><text x="695" text-anchor="start" transform="translate(0,0)" style="color: rgb(227, 225, 225); cursor: default; font-size: 15px; fill: rgb(227, 225, 225);" y="223" opacity="1">40</text><text x="695" text-anchor="start" transform="translate(0,0)" style="color: rgb(227, 225, 225); cursor: default; font-size: 15px; fill: rgb(227, 225, 225);" y="163" opacity="1">50</text><text x="695" text-anchor="start" transform="translate(0,0)" style="color: rgb(227, 225, 225); cursor: default; font-size: 15px; fill: rgb(227, 225, 225);" y="104" opacity="1">60</text><text x="0" text-anchor="start" transform="translate(0,0)" style="color: rgb(227, 225, 225); cursor: default; font-size: 15px; fill: rgb(227, 225, 225);" visibility="hidden">70</text></g><g class="highcharts-axis-labels highcharts-yaxis-labels" data-z-index="7"></g><g class="highcharts-axis-labels highcharts-yaxis-labels" data-z-index="7"></g><g class="highcharts-control-points" data-z-index="99" clip-path="url(#highcharts-fkk373m-3356-)"></g><g class="highcharts-axis highcharts-yaxis" data-z-index="9999"><path fill="none" class="highcharts-tick" stroke="#333333" stroke-width="1" d="M 688 456.5 L 693 456.5" opacity="1"></path><path fill="none" class="highcharts-tick" stroke="#333333" stroke-width="1" d="M 688 397.5 L 693 397.5" opacity="1"></path><path fill="none" class="highcharts-tick" stroke="#333333" stroke-width="1" d="M 688 337.5 L 693 337.5" opacity="1"></path><path fill="none" class="highcharts-tick" stroke="#333333" stroke-width="1" d="M 688 278.5 L 693 278.5" opacity="1"></path><path fill="none" class="highcharts-tick" stroke="#333333" stroke-width="1" d="M 688 218.5 L 693 218.5" opacity="1"></path><path fill="none" class="highcharts-tick" stroke="#333333" stroke-width="1" d="M 688 159.5 L 693 159.5" opacity="1"></path><path fill="none" class="highcharts-tick" stroke="#333333" stroke-width="1" d="M 688 99.5 L 693 99.5" opacity="1"></path><path fill="none" class="highcharts-tick" stroke="#333333" stroke-width="1" d="M 688 39.5 L 693 39.5" opacity="1"></path><path fill="none" class="highcharts-axis-line" stroke="#616161" stroke-width="1" data-z-index="7" d="M 688.5 40 L 688.5 456"></path></g><path fill="none" d="M 8 0 L 1800 0" stroke="#757575" stroke-width="1" stroke-dasharray="8,3" data-z-index="6" visibility="hidden" class="crosshair-fix-horizontal"></path><path fill="none" d="M 0 40 L 0 1160" stroke="#757575" stroke-width="1" stroke-dasharray="8,3" data-z-index="6" visibility="hidden" class="crosshair-fix-vertical"></path></svg>