<svg viewBox="0 0 750 520" height="520" width="750" xmlns="http://www.w3.org/2000/svg" style="font-family: &quot;Helvetica Neue&quot;, Helvetica, Arial, sans-serif; font-size: 12px;" class="highcharts-root" version="1.1" xmlns:xlink="http://www.w3.org/1999/xlink"><desc>Created with Highcharts 10.1.0</desc><defs><linearGradient id="highcharts-rxw9zs4-2888" gradientUnits="userSpaceOnUse" y2="500" x2="500" y1="0" x1="0"><stop stop-opacity="1" stop-color="rgb(35, 35, 35)" offset="0"></stop></linearGradient><clipPath id="highcharts-rxw9zs4-2889-"><rect fill="none" height="416" width="679" y="0" x="0"></rect></clipPath><clipPath id="highcharts-rxw9zs4-3353-"><rect fill="none" height="416" width="679" y="0" x="0"></rect></clipPath><clipPath id="highcharts-rxw9zs4-3822-"><rect fill="none" height="416" width="679" y="40" x="8"></rect></clipPath></defs><rect ry="0" rx="0" height="520" width="750" y="0" x="0" class="highcharts-background" fill="url(#highcharts-rxw9zs4-2888)"></rect><rect height="416" width="679" y="40" x="8" class="highcharts-plot-background" fill="none"></rect><g data-z-index="1" class="highcharts-grid highcharts-xaxis-grid"><path opacity="1" d="M 52.5 40 L 52.5 456" class="highcharts-grid-line" data-z-index="1" stroke-dasharray="none" stroke-width="1" stroke="#333333" fill="none"></path><path opacity="1" d="M 163.5 40 L 163.5 456" class="highcharts-grid-line" data-z-index="1" stroke-dasharray="none" stroke-width="1" stroke="#333333" fill="none"></path><path opacity="1" d="M 250.5 40 L 250.5 456" class="highcharts-grid-line" data-z-index="1" stroke-dasharray="none" stroke-width="1" stroke="#333333" fill="none"></path><path opacity="1" d="M 337.5 40 L 337.5 456" class="highcharts-grid-line" data-z-index="1" stroke-dasharray="none" stroke-width="1" stroke="#333333" fill="none"></path><path opacity="1" d="M 424.5 40 L 424.5 456" class="highcharts-grid-line" data-z-index="1" stroke-dasharray="none" stroke-width="1" stroke="#333333" fill="none"></path><path opacity="1" d="M 512.5 40 L 512.5 456" class="highcharts-grid-line" data-z-index="1" stroke-dasharray="none" stroke-width="1" stroke="#333333" fill="none"></path><path opacity="1" d="M 599.5 40 L 599.5 456" class="highcharts-grid-line" data-z-index="1" stroke-dasharray="none" stroke-width="1" stroke="#333333" fill="none"></path></g><g data-z-index="1" class="highcharts-grid highcharts-yaxis-grid"><path opacity="1" d="M 8 456.5 L 687 456.5" class="highcharts-grid-line" data-z-index="1" stroke-dasharray="none" stroke-width="1" stroke="#333333" fill="none"></path><path opacity="1" d="M 8 397.5 L 687 397.5" class="highcharts-grid-line" data-z-index="1" stroke-dasharray="none" stroke-width="1" stroke="#333333" fill="none"></path><path opacity="1" d="M 8 337.5 L 687 337.5" class="highcharts-grid-line" data-z-index="1" stroke-dasharray="none" stroke-width="1" stroke="#333333" fill="none"></path><path opacity="1" d="M 8 278.5 L 687 278.5" class="highcharts-grid-line" data-z-index="1" stroke-dasharray="none" stroke-width="1" stroke="#333333" fill="none"></path><path opacity="1" d="M 8 218.5 L 687 218.5" class="highcharts-grid-line" data-z-index="1" stroke-dasharray="none" stroke-width="1" stroke="#333333" fill="none"></path><path opacity="1" d="M 8 159.5 L 687 159.5" class="highcharts-grid-line" data-z-index="1" stroke-dasharray="none" stroke-width="1" stroke="#333333" fill="none"></path><path opacity="1" d="M 8 99.5 L 687 99.5" class="highcharts-grid-line" data-z-index="1" stroke-dasharray="none" stroke-width="1" stroke="#333333" fill="none"></path><path opacity="1" d="M 8 39.5 L 687 39.5" class="highcharts-grid-line" data-z-index="1" stroke-dasharray="none" stroke-width="1" stroke="#333333" fill="none"></path></g><g data-z-index="1" class="highcharts-grid highcharts-yaxis-grid"></g><g data-z-index="1" class="highcharts-grid highcharts-yaxis-grid"></g><rect height="416" width="679" y="40" x="8" data-z-index="1" class="highcharts-plot-border" fill="none"></rect><g data-z-index="2" class="highcharts-axis highcharts-xaxis"><path d="M 8 456.5 L 687 456.5" data-z-index="7" stroke-width="1" stroke="#616161" class="highcharts-axis-line" fill="none"></path></g><g data-z-index="2" class="highcharts-axis highcharts-yaxis"><path d="M 712 40 L 712 456" data-z-index="7" class="highcharts-axis-line" fill="none"></path></g><g data-z-index="2" class="highcharts-axis highcharts-yaxis"><path d="M 6.5 40 L 6.5 456" data-z-index="7" class="highcharts-axis-line" fill="none"></path></g><g data-z-index="3" class="highcharts-series-group"><g clip-path="url(#highcharts-rxw9zs4-3353-)" transform="translate(8,40) scale(1 1)" opacity="1" data-z-index="90" class="highcharts-series highcharts-series-0 highcharts-line-series"><path stroke-linecap="round" stroke-linejoin="round" stroke-width="2" stroke="#2962FF" data-z-index="1" class="highcharts-graph" d="M 0 164.20114285714 L 1.4539614561028 160.45714285714 L 2.9079229122056 161.94285714286 L 4.3618843683083 161.17028571429 L 5.8158458244111 172.34285714286 L 7.2698072805139 156 L 8.7237687366167 161.17028571429 L 10.177730192719 167.11314285714 L 11.631691648822 164.20114285714 L 13.085653104925 170.85714285714 L 14.539614561028 181.25714285714 L 15.993576017131 167.88571428571 L 17.447537473233 139.65714285714 L 18.901498929336 121.82857142857 L 20.355460385439 139.65714285714 L 21.809421841542 150.77028571429003 L 23.263383297645 124.80000000000001 L 24.717344753747 161.94285714286 L 26.17130620985 158.97142857143 L 27.625267665953 190.944 L 29.079229122056 187.91314285714 L 30.533190578158 193.14285714286 L 31.987152034261 213.17028571429 L 33.441113490364 208 L 34.895074946467 199.08571428571 L 36.34903640257 245.14285714286 L 37.802997858672 270.4 L 39.256959314775 279.31428571429 L 40.710920770878 225.11542857143 L 42.164882226981 225.11542857143 L 43.618843683084 222.08457142857 L 45.072805139186 247.34171428571 L 46.526766595289 213.17028571429 L 47.980728051392 225.11542857143 L 49.434689507495 225.11542857143 L 50.888650963597 213.17028571429 L 52.3426124197 216.20114285714 L 53.796573875803 253.344 L 55.250535331906 253.344 L 56.704496788009 267.42857142856997 L 58.158458244111 245.14285714286 L 59.612419700214 250.31314285714 L 61.066381156317 250.31314285714 L 62.52034261242 239.2 L 63.974304068522 256.256 L 65.428265524625 239.2 L 66.882226980728 253.344 L 68.336188436831 250.31314285714 L 69.790149892934 242.17142857143 L 71.244111349036 245.14285714286 L 72.698072805139 247.34171428571 L 74.152034261242 236.22857142857 L 75.605995717345 239.2 L 77.059957173448 259.22742857143 L 78.51391862955 242.17142857143 L 79.967880085653 256.256 L 81.421841541756 250.31314285714 L 82.875802997859 247.34171428571 L 84.329764453961 262.25828571428997 L 85.783725910064 267.42857142856997 L 87.237687366167 262.25828571428997 L 88.69164882227 262.25828571428997 L 90.145610278373 259.22742857143 L 91.599571734475 256.256 L 93.053533190578 267.42857142856997 L 94.507494646681 253.344 L 95.961456102784 253.344 L 97.415417558887 253.344 L 98.869379014989 262.25828571428997 L 100.32334047109 250.31314285714 L 101.77730192719 236.22857142857 L 103.2312633833 222.08457142857 L 104.6852248394 216.20114285714 L 106.1391862955 205.02857142857 L 107.59314775161 208 L 109.04710920771 205.02857142857 L 110.50107066381 225.11542857143 L 111.95503211991 225.11542857143 L 113.40899357602 219.17257142857 L 114.86295503212 228.08685714286 L 116.31691648822 236.22857142857 L 117.77087794433 228.08685714286 L 119.22483940043 236.22857142857 L 120.67880085653 239.2 L 122.13276231263 233.25714285714 L 123.58672376874 230.28571428571 L 125.04068522484 208 L 126.49464668094 210.97142857143 L 127.94860813704 210.97142857143 L 129.40256959315 178.99885714286 L 130.85653104925 182.02971428571 L 132.31049250535 386.533531428571 L 133.76445396146 385.171428571429 L 135.21841541756 383.066468571429 L 136.67237687366 381.828571428571 L 138.12633832976 383.995337142857 L 139.58029978587 387.276388571429 L 141.03426124197 389.257142857143 L 142.48822269807 386.780754285714 L 143.94218415418 384.428571428571 L 145.39614561028 384.738194285714 L 146.85010706638 385.29504 L 148.30406852248 382.2 L 149.75802997859 381.766765714286 L 151.21199143469 379.290377142857 L 152.66595289079 377.681051428571 L 154.1199143469 377.742857142857 L 155.573875803 375.514285714286 L 157.0278372591 374.89504 L 158.4817987152 373.533531428571 L 159.93576017131 373.100297142857 L 161.38972162741 372.35744 L 162.84368308351 370.376091428571 L 164.29764453961 365.857142857143 L 165.75160599572 367.09504 L 167.20556745182 363.133531428571 L 168.65952890792 359.171428571429 L 170.11349036403 358.552182857143 L 171.56745182013 353.6 L 173.02141327623 348.152182857143 L 174.47537473233 350.752182857143 L 175.92933618844 349.390674285714 L 177.38329764454 347.780754285714 L 178.83725910064 345.923611428571 L 180.29122055675 345.30496 L 181.74518201285 346.790674285714 L 183.19914346895 345.676388571429 L 184.65310492505 337.628571428571 L 186.10706638116 334.037897142857 L 187.56102783726 327.228571428571 L 189.01498929336 333.790674285714 L 190.46895074946 324.38075428571403 L 191.92291220557 325.247817142857 L 193.37687366167 332.676388571429 L 194.83083511777 320.914285714286 L 196.28479657388 313.98075428571 L 197.73875802998 297.63789714285997 L 199.19271948608 297.88571428571 L 200.64668094218 306.18075428571 L 202.10064239829 296.89504 L 203.55460385439 275.35218285714 L 205.00856531049 271.88571428571004 L 206.4625267666 268.29504 L 207.9164882227 254.05714285714 L 209.3704496788 240.68571428571 L 210.8244111349 218.52361142857 L 212.27837259101 190.54285714286 L 213.73233404711 208.37142857143 L 215.18629550321 200.69504 L 216.64025695931 198.46646857143 L 218.09421841542 231.77142857143 L 219.54817987152 206.51428571429 L 221.00214132762 203.41924571429 L 222.45610278373 194.25714285714 L 223.91006423983 168.38075428571 L 225.36402569593 161.2 L 226.81798715203 154.63789714286003 L 228.27194860814 141.14285714286 L 229.72591006424 188.06646857143 L 231.17987152034 204.03789714286 L 232.63383297645 200.07638857143 L 234.08779443255 214.68571428571 L 235.54175588865 191.65714285714 L 236.99571734475 202.8 L 238.44967880086 180.14285714286 L 239.90364025696 200.57142857143 L 241.35760171306 223.22857142857 L 242.81156316916 200.94285714286 L 244.26552462527 225.08571428571 L 245.71948608137 198.71428571429 L 247.17344753747 165.65714285714 L 248.62740899358 151.17142857143 L 250.08137044968 130.74285714285998 L 251.53533190578 159.71428571428999 L 252.98929336188 158.97142857143 L 254.44325481799 148.94285714286002 L 255.89721627409 159.34285714286 L 257.35117773019 152.65714285714 L 258.8051391863 142.62857142857 L 260.2591006424 147.68 L 261.7130620985 148.57142857142998 L 263.1670235546 172.64 L 264.62098501071 158.67428571429002 L 266.07494646681 161.11085714286 L 267.52890792291 177.98857142857 L 268.98286937901 171.03542857143 L 270.43683083512 188.32914285714 L 271.89079229122 177.69142857143 L 273.34475374732 166.99428571429 L 274.79871520343 158.61485714286 L 276.25267665953 179.17714285714 L 277.70663811563 168.36114285714 L 279.16059957173 172.58057142857 L 280.61456102784 179.83085714286 L 282.06852248394 199.97714285714 L 283.52248394004 210.37714285714 L 284.97644539615 208 L 286.43040685225 223.74857142857 L 287.88436830835 219.41028571429 L 289.33832976445 243.53828571429 L 290.79229122056 227.19542857143 L 292.24625267666 228.62171428571 L 293.70021413276 234.32685714286 L 295.15417558887 235.57485714286 L 296.60813704497 238.784 L 298.06209850107 230.82057142857 L 299.51605995717 233.25714285714 L 300.97002141328 231.65257142857 L 302.42398286938 213.05142857143 L 303.87794432548 217.74628571429 L 305.33190578158 238.18971428571 L 306.78586723769 235.456 L 308.23982869379 228.20571428571 L 309.69379014989 216.49828571429 L 311.147751606 206.03885714286 L 312.6017130621 198.31314285714 L 314.0556745182 198.19428571429 L 315.5096359743 207.70285714286 L 316.96359743041 203.48342857143 L 318.41755888651 205.97942857143 L 319.87152034261 212.27885714286 L 321.32548179872 226.06628571429 L 322.77944325482 221.84685714286 L 324.23340471092 234.14857142857 L 325.68736616702 243.95428571429 L 327.14132762313 250.96685714286 L 328.59528907923 256.19657142857 L 330.04925053533 272.42057142857004 L 331.50321199143 259.76228571429 L 332.95717344754 259.88114285714 L 334.41113490364 254.53257142857 L 335.86509635974 250.19428571429 L 337.31905781585 252.096 L 338.77301927195 258.51428571429 L 340.22698072805 264.576 L 341.68094218415 267.60685714286 L 343.13490364026 286.80228571429 L 344.58886509636 290.01142857143 L 346.04282655246 277.41257142857 L 347.49678800857 263.38742857143 L 348.95074946467 260.35657142856996 L 350.40471092077 267.904 L 351.85867237687 265.46742857143 L 353.31263383298 275.392 L 354.76659528908 276.52114285714003 L 356.22055674518 261.54514285714004 L 357.67451820128 252.21485714286 L 359.12847965739 247.46057142857 L 360.58244111349 257.62285714285997 L 362.03640256959 252.63085714286 L 363.4903640257 262.08000000000004 L 364.9443254818 260.05942857143 L 366.3982869379 267.66628571429 L 367.852248394 265.88342857143 L 369.30620985011 258.752 L 370.76017130621 252.63085714286 L 372.21413276231 264.04114285714 L 373.66809421842 276.28342857143 L 375.12205567452 268.37942857143 L 376.57601713062 270.81600000000003 L 378.02997858672 269.74628571429 L 379.48394004283 274.79771428570996 L 380.93790149893 280.91885714286 L 382.39186295503 277.17485714286 L 383.84582441113 283.59314285714004 L 385.29978586724 291.616 L 386.75374732334 296.48914285714 L 388.20770877944 300.94628571429 L 389.66167023555 312.17828571429 L 391.11563169165 305.04685714286 L 392.56959314775 302.432 L 394.02355460385 306.41371428571 L 395.47751605996 310.752 L 396.93147751606 318.358857142857 L 398.38543897216 310.752 L 399.83940042827 329.353142857143 L 401.29336188437 342.843428571429 L 402.74732334047 335.058285714286 L 404.20128479657 336.603428571429 L 405.65524625268 325.728 L 407.10920770878 326.857142857143 L 408.56316916488 321.330285714286 L 410.01713062099 316.75428571428597 L 411.47109207709 317.645714285714 L 412.92505353319 314.79314285713997 L 414.37901498929 308.01828571429 L 415.8329764454 307.89942857143 L 417.2869379015 305.10628571429 L 418.7408993576 311.70285714286 L 420.1948608137 314.08 L 421.64882226981 316.635428571429 L 423.10278372591 325.490285714286 L 424.55674518201 331.254857142857 L 426.01070663812 326.857142857143 L 427.46466809422 321.449142857143 L 428.91862955032 313.96114285714 L 430.37259100642 312.50514285714 L 431.82655246253 319.131428571429 L 433.28051391863 311.94057142857 L 434.73447537473 307.72114285713997 L 436.18843683084 301.65942857143 L 437.64239828694 295.30057142857 L 439.09635974304 291.37828571429 L 440.55032119914 288.52571428571 L 442.00428265525 293.57714285714 L 443.45824411135 301.60594285714 L 444.91220556745 303.20457142857003 L 446.36616702355 310.93028571429 L 447.82012847966 301.54057142857 L 449.27408993576 296.72685714286 L 450.72805139186 287.39657142857004 L 452.18201284797 288.82285714286 L 453.63597430407 290.45714285714 L 455.08993576017 281.424 L 456.54389721627 279.90857142857 L 457.99785867238 286.02971428571004 L 459.45182012848 279.31428571429 L 460.90578158458 273.13371428570997 L 462.35974304069 274.20342857143 L 463.81370449679 268.32 L 465.26766595289 268.20114285714 L 466.72162740899 267.30971428571 L 468.1755888651 266.95730285714 L 469.6295503212 253.87885714286 L 471.0835117773 253.344 L 472.5374732334 244.48914285714 L 473.99143468951 243.24114285714 L 475.44539614561 254.176 L 476.89935760171 249.54057142857 L 478.35331905782 242.29028571429 L 479.80728051392 248.352 L 481.26124197002 245.29142857143 L 482.71520342612 233.64342857143 L 484.16916488223 227.43314285714 L 485.62312633833 233.97028571429 L 487.07708779443 235.33714285714 L 488.53104925054 225.17485714286 L 489.98501070664 225.11542857143 L 491.43897216274 230.10742857143 L 492.89293361884 239.91314285714 L 494.34689507495 239.616 L 495.80085653105 245.44 L 497.25481798715 241.33942857143 L 498.70877944325 240.26971428571 L 500.16274089936 238.01142857143 L 501.61670235546 230.88 L 503.07066381156 230.88 L 504.52462526767 230.28571428571 L 505.97858672377 212.04114285714 L 507.43254817987 209.248 L 508.88650963597 214.35885714286 L 510.34047109208 209.48571428571 L 511.79443254818 216.736 L 513.24839400428 201.70057142857 L 514.70235546039 224.52114285714 L 516.15631691649 229.33485714286 L 517.61027837259 215.01257142857 L 519.06423982869 221.25257142857 L 520.5182012848 224.16457142857 L 521.9721627409 234.80228571429 L 523.426124197 239.67542857143 L 524.8800856531 239.85371428571 L 526.33404710921 221.60914285714 L 527.78800856531 209.78285714286 L 529.24197002141 206.752 L 530.69593147752 196.768 L 532.14989293362 209.18857142857 L 533.60385438972 214.71542857143 L 535.05781584582 227.552 L 536.51177730193 224.99657142857 L 537.96573875803 222.976 L 539.41970021413 227.43314285714 L 540.87366167024 213.22971428571 L 542.32762312634 212.69485714286 L 543.78158458244 214.41828571429 L 545.23554603854 221.96571428571 L 546.68950749465 216.37942857143 L 548.14346895075 218.93485714286 L 549.59743040685 214.35885714286 L 551.05139186296 204.01828571429 L 552.50535331906 207.64342857143 L 553.95931477516 201.08251428571 L 555.41327623126 200.15542857143 L 556.86723768737 195.49028571429 L 558.32119914347 199.79885714286 L 559.77516059957 204.70171428571 L 561.22912205567 197.57028571429 L 562.68308351178 202.26514285714 L 564.13704496788 200.096 L 565.59100642398 178.52342857143 L 567.04496788009 169.43085714286 L 568.49892933619 154.36571428571 L 569.95289079229 159.98171428570998 L 571.40685224839 141.41028571429 L 572.8608137045 160.576 L 574.3147751606 163.72571428571 L 575.7687366167 158.37714285713997 L 577.22269807281 163.60685714286 L 578.67665952891 174.66057142857 L 580.13062098501 169.25257142857 L 581.58458244111 158.55542857143 L 583.03854389722 185.17942857143 L 584.49250535332 204.73142857143 L 585.94646680942 202.47314285714 L 587.40042826552 187.97257142857 L 588.85438972163 187.08114285714 L 590.30835117773 183.15885714286 L 591.76231263383 194.688 L 593.21627408994 217.38971428571 L 594.67023554604 222.02514285714 L 596.12419700214 188.032 L 597.57815845824 189.04228571429 L 599.03211991435 221.66857142857 L 600.48608137045 187.31885714286 L 601.94004282655 191.41942857143 L 603.39400428266 197.89714285714 L 604.84796573876 205.14742857143 L 606.30192719486 188.32914285714 L 607.75588865096 197.24342857143 L 609.20985010707 202.65142857143 L 610.66381156317 216.97371428571 L 612.11777301927 200.69028571429 L 613.57173447537 186.30857142857 L 615.02569593148 185.83314285714 L 616.47965738758 183.27771428571 L 617.93361884368 161.58628571429 L 619.38758029979 142.21257142857002 L 620.84154175589 160.39771428571 L 622.29550321199 156.05942857142998 L 623.74946466809 96.69028571428998 L 625.2034261242 65.07428571429 L 626.6573875803 102.87085714286002 L 628.1113490364 137.04228571429002 L 629.56531049251 108.33828571429001 L 631.01927194861 124.38400000000001 L 632.47323340471 100.79085714285998 L 633.92719486081 104.416 L 635.38115631692 115.82628571429001 L 636.83511777302 147.20457142856998 L 638.28907922912 155.94057142857002 L 639.74304068522 139.36 L 641.19700214133 118.08457142856997 L 642.65096359743 111.488 L 644.10492505353 153.56342857143 L 645.55888650964 174.89828571429 L 647.01284796574 173.53142857143 L 648.46680942184 184.88228571429 L 649.92077087794 190.05257142857 L 651.37473233405 198.016 L 652.82869379015 201.70057142857 L 654.28265524625 205.74171428571 L 655.73661670236 218.87542857143 L 657.19057815846 234.38628571429 L 658.64453961456 234.92114285714 L 660.09850107066 244.90514285714 L 661.55246252677 255.06742857143 L 663.00642398287 258.15771428571 L 664.46038543897 251.08571428571 L 665.91434689507 263.62514285713996 L 667.36830835118 246.09371428571 L 668.82226980728 249.77828571429 L 670.27623126338 234.624 L 671.73019271949 237.952" fill="none"></path></g><g clip-path="none" transform="translate(8,40) scale(1 1)" opacity="1" data-z-index="90" class="highcharts-markers highcharts-series-0 highcharts-line-series"></g></g><text y="512" style="color: rgb(211, 211, 211); font-size: 15px; fill: rgb(211, 211, 211);" data-z-index="4" class="highcharts-title" text-anchor="end" x="740"></text><text y="25" style="color: rgb(51, 51, 51); fill: rgb(51, 51, 51); font-size: 15px;" data-z-index="4" class="highcharts-subtitle" text-anchor="start" x="14"><tspan style="color: rgb(211, 211, 211); fill: rgb(211, 211, 211);">Pfizer</tspan></text><text y="527" style="color: rgb(102, 102, 102); fill: rgb(102, 102, 102);" data-z-index="4" class="highcharts-caption" text-anchor="start" x="0"></text><g data-z-index="7" class="highcharts-axis-labels highcharts-xaxis-labels"><text opacity="1" y="476" style="color: rgb(227, 225, 225); cursor: default; font-size: 15px; font-weight: 400; fill: rgb(227, 225, 225);" transform="translate(0,0)" text-anchor="middle" x="53.072805139186">1975</text><text opacity="1" y="476" style="color: rgb(227, 225, 225); cursor: default; font-size: 15px; font-weight: 400; fill: rgb(227, 225, 225);" transform="translate(0,0)" text-anchor="middle" x="163.573875803">1995</text><text opacity="1" y="476" style="color: rgb(227, 225, 225); cursor: default; font-size: 15px; font-weight: 400; fill: rgb(227, 225, 225);" transform="translate(0,0)" text-anchor="middle" x="250.81156316916">2000</text><text opacity="1" y="476" style="color: rgb(227, 225, 225); cursor: default; font-size: 15px; font-weight: 400; fill: rgb(227, 225, 225);" transform="translate(0,0)" text-anchor="middle" x="338.04925053533">2005</text><text opacity="1" y="476" style="color: rgb(227, 225, 225); cursor: default; font-size: 15px; font-weight: 400; fill: rgb(227, 225, 225);" transform="translate(0,0)" text-anchor="middle" x="425.2869379015">2010</text><text opacity="1" y="476" style="color: rgb(227, 225, 225); cursor: default; font-size: 15px; font-weight: 400; fill: rgb(227, 225, 225);" transform="translate(0,0)" text-anchor="middle" x="512.52462526767">2015</text><text opacity="1" y="476" style="color: rgb(227, 225, 225); cursor: default; font-size: 15px; font-weight: 400; fill: rgb(227, 225, 225);" transform="translate(0,0)" text-anchor="middle" x="599.76231263383">2020</text></g><g data-z-index="7" class="highcharts-axis-labels highcharts-yaxis-labels"><text visibility="hidden" style="color: rgb(227, 225, 225); cursor: default; font-size: 15px; fill: rgb(227, 225, 225);" transform="translate(0,0)" text-anchor="start" x="0"><tspan>0</tspan></text><text opacity="1" y="401" style="color: rgb(227, 225, 225); cursor: default; font-size: 15px; fill: rgb(227, 225, 225);" transform="translate(0,0)" text-anchor="start" x="695">10</text><text opacity="1" y="342" style="color: rgb(227, 225, 225); cursor: default; font-size: 15px; fill: rgb(227, 225, 225);" transform="translate(0,0)" text-anchor="start" x="695">20</text><text opacity="1" y="282" style="color: rgb(227, 225, 225); cursor: default; font-size: 15px; fill: rgb(227, 225, 225);" transform="translate(0,0)" text-anchor="start" x="695">30</text><text opacity="1" y="223" style="color: rgb(227, 225, 225); cursor: default; font-size: 15px; fill: rgb(227, 225, 225);" transform="translate(0,0)" text-anchor="start" x="695">40</text><text opacity="1" y="163" style="color: rgb(227, 225, 225); cursor: default; font-size: 15px; fill: rgb(227, 225, 225);" transform="translate(0,0)" text-anchor="start" x="695">50</text><text opacity="1" y="104" style="color: rgb(227, 225, 225); cursor: default; font-size: 15px; fill: rgb(227, 225, 225);" transform="translate(0,0)" text-anchor="start" x="695">60</text><text visibility="hidden" style="color: rgb(227, 225, 225); cursor: default; font-size: 15px; fill: rgb(227, 225, 225);" transform="translate(0,0)" text-anchor="start" x="0">70</text></g><g data-z-index="7" class="highcharts-axis-labels highcharts-yaxis-labels"></g><g data-z-index="7" class="highcharts-axis-labels highcharts-yaxis-labels"></g><g clip-path="url(#highcharts-rxw9zs4-3822-)" data-z-index="99" class="highcharts-control-points"></g><g data-z-index="9999" class="highcharts-axis highcharts-yaxis"><path opacity="1" d="M 688 456.5 L 693 456.5" stroke-width="1" stroke="#333333" class="highcharts-tick" fill="none"></path><path opacity="1" d="M 688 397.5 L 693 397.5" stroke-width="1" stroke="#333333" class="highcharts-tick" fill="none"></path><path opacity="1" d="M 688 337.5 L 693 337.5" stroke-width="1" stroke="#333333" class="highcharts-tick" fill="none"></path><path opacity="1" d="M 688 278.5 L 693 278.5" stroke-width="1" stroke="#333333" class="highcharts-tick" fill="none"></path><path opacity="1" d="M 688 218.5 L 693 218.5" stroke-width="1" stroke="#333333" class="highcharts-tick" fill="none"></path><path opacity="1" d="M 688 159.5 L 693 159.5" stroke-width="1" stroke="#333333" class="highcharts-tick" fill="none"></path><path opacity="1" d="M 688 99.5 L 693 99.5" stroke-width="1" stroke="#333333" class="highcharts-tick" fill="none"></path><path opacity="1" d="M 688 39.5 L 693 39.5" stroke-width="1" stroke="#333333" class="highcharts-tick" fill="none"></path><path d="M 688.5 40 L 688.5 456" data-z-index="7" stroke-width="1" stroke="#616161" class="highcharts-axis-line" fill="none"></path></g><path class="crosshair-fix-horizontal" visibility="hidden" data-z-index="6" stroke-dasharray="8,3" stroke-width="1" stroke="#757575" d="M 8 0 L 1800 0" fill="none"></path><path class="crosshair-fix-vertical" visibility="hidden" data-z-index="6" stroke-dasharray="8,3" stroke-width="1" stroke="#757575" d="M 0 40 L 0 1160" fill="none"></path></svg>