<svg viewBox="0 0 750 520" height="520" width="750" xmlns="http://www.w3.org/2000/svg" style="font-family: &quot;Helvetica Neue&quot;, Helvetica, Arial, sans-serif; font-size: 12px;" class="highcharts-root" version="1.1" xmlns:xlink="http://www.w3.org/1999/xlink"><desc>Created with Highcharts 10.1.0</desc><defs><linearGradient id="highcharts-qb6jxqn-1164" gradientUnits="userSpaceOnUse" y2="500" x2="500" y1="0" x1="0"><stop stop-opacity="1" stop-color="rgb(35, 35, 35)" offset="0"></stop></linearGradient><clipPath id="highcharts-qb6jxqn-1165-"><rect fill="none" height="416" width="679" y="0" x="0"></rect></clipPath><clipPath id="highcharts-qb6jxqn-1488-"><rect fill="none" height="416" width="679" y="0" x="0"></rect></clipPath><clipPath id="highcharts-qb6jxqn-1816-"><rect fill="none" height="416" width="679" y="40" x="8"></rect></clipPath></defs><rect ry="0" rx="0" height="520" width="750" y="0" x="0" class="highcharts-background" fill="url(#highcharts-qb6jxqn-1164)"></rect><rect height="416" width="679" y="40" x="8" class="highcharts-plot-background" fill="none"></rect><g data-z-index="1" class="highcharts-grid highcharts-xaxis-grid"><path opacity="1" d="M 63.5 40 L 63.5 456" class="highcharts-grid-line" data-z-index="1" stroke-dasharray="none" stroke-width="1" stroke="#333333" fill="none"></path><path opacity="1" d="M 188.5 40 L 188.5 456" class="highcharts-grid-line" data-z-index="1" stroke-dasharray="none" stroke-width="1" stroke="#333333" fill="none"></path><path opacity="1" d="M 313.5 40 L 313.5 456" class="highcharts-grid-line" data-z-index="1" stroke-dasharray="none" stroke-width="1" stroke="#333333" fill="none"></path><path opacity="1" d="M 438.5 40 L 438.5 456" class="highcharts-grid-line" data-z-index="1" stroke-dasharray="none" stroke-width="1" stroke="#333333" fill="none"></path><path opacity="1" d="M 561.5 40 L 561.5 456" class="highcharts-grid-line" data-z-index="1" stroke-dasharray="none" stroke-width="1" stroke="#333333" fill="none"></path></g><g data-z-index="1" class="highcharts-grid highcharts-yaxis-grid"><path opacity="1" d="M 8 456.5 L 687 456.5" class="highcharts-grid-line" data-z-index="1" stroke-dasharray="none" stroke-width="1" stroke="#333333" fill="none"></path><path opacity="1" d="M 8 397.5 L 687 397.5" class="highcharts-grid-line" data-z-index="1" stroke-dasharray="none" stroke-width="1" stroke="#333333" fill="none"></path><path opacity="1" d="M 8 337.5 L 687 337.5" class="highcharts-grid-line" data-z-index="1" stroke-dasharray="none" stroke-width="1" stroke="#333333" fill="none"></path><path opacity="1" d="M 8 278.5 L 687 278.5" class="highcharts-grid-line" data-z-index="1" stroke-dasharray="none" stroke-width="1" stroke="#333333" fill="none"></path><path opacity="1" d="M 8 218.5 L 687 218.5" class="highcharts-grid-line" data-z-index="1" stroke-dasharray="none" stroke-width="1" stroke="#333333" fill="none"></path><path opacity="1" d="M 8 159.5 L 687 159.5" class="highcharts-grid-line" data-z-index="1" stroke-dasharray="none" stroke-width="1" stroke="#333333" fill="none"></path><path opacity="1" d="M 8 99.5 L 687 99.5" class="highcharts-grid-line" data-z-index="1" stroke-dasharray="none" stroke-width="1" stroke="#333333" fill="none"></path><path opacity="1" d="M 8 39.5 L 687 39.5" class="highcharts-grid-line" data-z-index="1" stroke-dasharray="none" stroke-width="1" stroke="#333333" fill="none"></path></g><g data-z-index="1" class="highcharts-grid highcharts-yaxis-grid"></g><g data-z-index="1" class="highcharts-grid highcharts-yaxis-grid"></g><rect height="416" width="679" y="40" x="8" data-z-index="1" class="highcharts-plot-border" fill="none"></rect><g data-z-index="2" class="highcharts-axis highcharts-xaxis"><path d="M 8 456.5 L 687 456.5" data-z-index="7" stroke-width="1" stroke="#616161" class="highcharts-axis-line" fill="none"></path></g><g data-z-index="2" class="highcharts-axis highcharts-yaxis"><path d="M 720 40 L 720 456" data-z-index="7" class="highcharts-axis-line" fill="none"></path></g><g data-z-index="2" class="highcharts-axis highcharts-yaxis"><path d="M 6.5 40 L 6.5 456" data-z-index="7" class="highcharts-axis-line" fill="none"></path></g><g data-z-index="3" class="highcharts-series-group"><g clip-path="url(#highcharts-qb6jxqn-1488-)" transform="translate(8,40) scale(1 1)" opacity="1" data-z-index="90" class="highcharts-series highcharts-series-0 highcharts-line-series"><path stroke-linecap="round" stroke-linejoin="round" stroke-width="2" stroke="#2962FF" data-z-index="1" class="highcharts-graph" d="M 0 397.985773714286 L 2.0828220858896 395.905773714286 L 4.1656441717792 398.728630857143 L 6.2484662576687 399.768630857143 L 8.3312883435583 399.062857142857 L 10.414110429448 398.134345142857 L 12.496932515337 397.131428571429 L 14.579754601227 397.540059428571 L 16.662576687117 397.168512 L 18.745398773006 394.977261714286 L 20.828220858896 393.974345142857 L 22.911042944785 392.748690285714 L 24.993865030675 390.148571428571 L 27.076687116564 388.811428571429 L 29.159509202454 386.211547428571 L 31.242331288344 387.734345142857 L 33.325153374233 379.080118857143 L 35.407975460123 374.251428571429 L 37.490797546012 377.742976 L 39.573619631902 381.382857142857 L 41.656441717791 383.834404571429 L 43.739263803681 391.819940571429 L 45.822085889571 391.857261714286 L 47.90490797546 391.671369142857 L 49.98773006135 392.117083428571 L 52.070552147239 391.337142857143 L 54.153374233129 393.045833142857 L 56.236196319018 398.98869028571403 L 58.319018404908 400.177261714286 L 60.401840490798 397.540059428571 L 62.484662576687 395.868690285714 L 64.567484662577 398.580059428571 L 66.650306748466 399.211428571429 L 68.733128834356 401.625654857143 L 70.815950920245 398.69154742857097 L 72.898773006135 397.800118857143 L 74.981595092025 398.171428571429 L 77.064417177914 394.605714285714 L 79.147239263804 396.388571428571 L 81.230061349693 394.593828571429 L 83.312883435583 393.12 L 85.395705521472 393.304228571429 L 87.478527607362 389.364114285714 L 89.561349693252 388.841142857143 L 91.644171779141 389.910857142857 L 93.726993865031 388.811428571429 L 95.80981595092 390.671542857143 L 97.89263803681 392.692114285714 L 99.975460122699 385.935085714286 L 102.05828220859 387.801142857143 L 104.14110429448 386.761142857143 L 106.22392638037 382.838857142857 L 108.30674846626 380.859885714286 L 110.38957055215 381.067885714286 L 112.47239263804 378.524342857143 L 114.55521472393 378.025142857143 L 116.63803680982 381.234285714286 L 118.72085889571 379.273142857143 L 120.8036809816 379.950628571429 L 122.88650306748 383.064685714286 L 124.96932515337 389.221485714286 L 127.05214723926 387.581257142857 L 129.13496932515 387.2128 L 131.21779141104 388.448914285714 L 133.30061349693 387.700114285714 L 135.38343558282 387.082057142857 L 137.46625766871 386.642285714286 L 139.5490797546 382.767542857143 L 141.63190184049 380.865828571429 L 143.71472392638 380.426057142857 L 145.79754601227 380.758857142857 L 147.88036809816 380.794514285714 L 149.96319018405 375.422171428571 L 152.04601226994 375.006171428571 L 154.12883435583 375.113142857143 L 156.21165644172 375.695542857143 L 158.29447852761 371.98720000000003 L 160.3773006135 370.846171428571 L 162.46012269939 369.895314285714 L 164.54294478528 371.428571428571 L 166.62576687117 371.761371428571 L 168.70858895706 370.370742857143 L 170.79141104294 368.801828571429 L 172.87423312883 367.672685714286 L 174.95705521472 364.297142857143 L 177.03987730061 362.038857142857 L 179.1226993865 359.9232 L 181.20552147239 360.909714285714 L 183.28834355828 358.021485714286 L 185.37116564417 371.720722285714 L 187.45398773006 375.865746285714 L 189.53680981595 372.165248 L 191.61963190184 371.489901714286 L 193.70245398773 371.259318857143 L 195.78527607362 375.506797714286 L 197.86809815951 374.626541714286 L 199.9509202454 372.524196571429 L 202.03374233129 374.301824 L 204.11656441718 375.934208 L 206.19938650307 373.720612571429 L 208.28220858896 375.233426285714 L 210.36503067485 374.24192 L 212.44785276074 371.831734857143 L 214.53067484663 372.925696 L 216.61349693252 373.036946285714 L 218.6963190184 377.54091885714297 L 220.77914110429 374.224804571429 L 222.86196319018 371.515574857143 L 224.94478527607 365.182628571429 L 227.02760736196 363.704045714286 L 229.11042944785 365.746724571429 L 231.19325153374 364.712667428571 L 233.27607361963 366.481737142857 L 235.35889570552 366.635538285714 L 237.44171779141 363.131629714286 L 239.5245398773 358.123227428571 L 241.60736196319 360.072009142857 L 243.69018404908 361.234194285714 L 245.77300613497 360.072009142857 L 247.85582822086 358.174573714286 L 249.93865030675 347.166738285714 L 252.02147239264 352.499620571429 L 254.10429447853 350.585307428571 L 256.18711656442 357.610477714286 L 258.26993865031 357.114843428571 L 260.3527607362 352.397165714286 L 262.43558282209 346.465956571429 L 264.51840490798 348.141129142857 L 266.60122699387 356.020882285714 L 268.68404907975 354.77312 L 270.76687116564 355.012498285714 L 272.84969325153 360.259803428571 L 274.93251533742 366.413275428571 L 277.01533742331 369.951652571429 L 279.0981595092 362.157238857143 L 281.18098159509 367.080064 L 283.26380368098 371.079844571429 L 285.34662576687 369.028608 L 287.42944785276 358.994925714286 L 289.51226993865 356.807241142857 L 291.59509202454 359.012041142857 L 293.67791411043 355.388324571429 L 295.76073619632 357.456676571429 L 297.84355828221 358.294144 L 299.9263803681 359.678829714286 L 302.00920245399 355.71328 L 304.09202453988 356.226029714286 L 306.17484662577 357.525138285714 L 308.25766871166 358.362605714286 L 310.34049079755 350.482852571429 L 312.42331288344 343.491675428571 L 314.50613496933 346.004315428571 L 316.58895705521 349.269083428571 L 318.6717791411 345.406226285714 L 320.75460122699 344.722322285714 L 322.83742331288 337.269979428571 L 324.92024539877 331.287424 L 327.00306748466 330.39861028571397 L 329.08588957055 332.15912228571403 L 331.16871165644 336.073325714286 L 333.25153374233 329.9712 L 335.33435582822 328.176457142857 L 337.41717791411 324.313362285714 L 339.5 321.441773714286 L 341.58282208589 321.578697142857 L 343.66564417178 325.71516342857103 L 345.74846625767 323.0656 L 347.83128834356 331.577910857143 L 349.91411042945 324.433170285714 L 351.99693251534 320.211126857143 L 354.07975460123 315.13450057143 L 356.16257668712 307.75038171429003 L 358.24539877301 302.776448 L 360.3282208589 294.33236114286 L 362.41104294479 291.68303542857 L 364.49386503067 295.73416228571 L 366.57668711656 305.88717714285997 L 368.65950920245 305.16928 L 370.74233128834 307.08383085714 L 372.82515337423 302.60553142857 L 374.90797546012 296.16133485714 L 376.99079754601 301.34065371429 L 379.0736196319 302.50283885714 L 381.15644171779 304.99836342857 L 383.23926380368 304.07531885714 L 385.32208588957 293.03349028571 L 387.40490797546 299.56278857143 L 389.48773006135 300.19534628571 L 391.57055214724 297.47755885714 L 393.65337423313 291.35831771429 L 395.73619631902 296.315136 L 397.81901840491 293.97341257143 L 399.9018404908 300.41760914286 L 401.98466257669 283.22207085714 L 404.06748466258 286.76021028571 L 406.15030674847 301.22084571429 L 408.23312883436 289.37554285714 L 410.31595092025 287.13627428571 L 412.39877300613 284.40137142857 L 414.48159509202 283.85439085714 L 416.56441717791 277.20528457143 L 418.6472392638 297.37510399999996 L 420.73006134969 292.19578514286 L 422.81288343558 292.96502857143 L 424.89570552147 293.22152228570997 L 426.97852760736 283.95708342857 L 429.06134969325 291.477888 L 431.14417177914 292.45227885714 L 433.22699386503 277.35908571429 L 435.30981595092 281.44444342857 L 437.39263803681 269.06903771429 L 439.4754601227 261.97540571429 L 441.55828220859 262.026752 L 443.64110429448 265.99230171428997 L 445.72392638037 279.64970057143 L 447.80674846626 279.34186057143 L 449.88957055215 294.79400228571 L 451.97239263804 292.05909942857 L 454.05521472393 291.13605485714 L 456.13803680982 292.29847771429 L 458.22085889571 292.12756114286003 L 460.3036809816 276.094208 L 462.38650306748 280.00864914286 L 464.46932515337 275.68415085714 L 466.55214723926 274.26523428571 L 468.63496932515 263.154944 L 470.71779141104 260.94990628571 L 472.80061349693 260.77898971429 L 474.88343558282 268.52205714286004 L 476.96625766871 265.31291428571 L 479.0490797546 265.45554285714 L 481.13190184049 260.22582857143 L 483.21472392638 260.72502857143 L 485.29754601227 264.10057142857 L 487.38036809816 259.70285714286 L 489.46319018405 243.34217142857 L 491.54601226994 240.56376685714 L 493.62883435583 236.57325714286 L 495.71165644172 233.19177142857 L 497.79447852761 241.08388571429 L 499.8773006135 239.10776685714 L 501.96012269939 226.87736685714 L 504.04294478528 218.10285714286 L 506.12576687117 228.27702857143 L 508.20858895706 213.14580114286 L 510.29141104294 207.44137142857 L 512.37423312883 222.337024 L 514.45705521472 229.98262857143 L 516.53987730061 227.00216685714 L 518.6226993865 209.41130971429 L 520.70552147239 200.41691428571 L 522.78834355828 201.29645714286 L 524.87116564417 198.03382857143 L 526.95398773006 199.77508571429 L 529.03680981595 192.59611428571 L 531.11963190184 191.36 L 533.20245398773 178.73737142857 L 535.28527607362 167.85005714286 L 537.36809815951 172.69942857143 L 539.4509202454 152.9216 L 541.53374233129 148.52388571428997 L 543.61656441718 138.39725714285998 L 545.69938650307 146.36068571429 L 547.78220858896 174.2208 L 549.86503067485 176.69302857143 L 551.94785276074 176.5504 L 554.03067484663 164.5696 L 556.11349693252 203.84 L 558.1963190184 253.0944 L 560.27914110429 210.54354285714 L 562.36196319018 202.69897142857 L 564.44478527607 209.40251428571 L 566.52760736196 199.56114285714 L 568.61042944785 188.15085714286 L 570.69325153374 198.96685714286 L 572.77607361963 194.14125714286 L 574.85889570552 164.49828571429 L 576.94171779141 157.93737142856997 L 579.0245398773 174.74377142857 L 581.10736196319 169.8944 L 583.19018404908 158.84068571428998 L 585.27300613497 131.88388571429 L 587.35582822086 130.81417142856998 L 589.43865030675 142.55725714286 L 591.52147239264 103.66719999999998 L 593.60429447853 104.52297142856997 L 595.68711656442 125.25165714285998 L 597.76993865031 118.99977142857 L 599.8527607362 123.99177142857002 L 601.93558282209 85.90994285713998 L 604.01840490798 118.45302857143002 L 606.10122699387 124.60982857143 L 608.18404907975 134.23725714286002 L 610.26687116564 137.85051428571 L 612.34969325153 127.24845714285999 L 614.43251533742 146.17051428571 L 616.51533742331 124.70491428571 L 618.5981595092 151.56662857143 L 620.68098159509 163.21462857143 L 622.76380368098 134.90285714286 L 624.84662576687 110.15679999999998 L 626.92944785276 111.53554285714 L 629.01226993865 105.75908571429 L 631.09509202454 113.72251428571002 L 633.17791411043 102.02697142857 L 635.26073619632 81.82125714286002 L 637.34355828221 110.08548571428997 L 639.4263803681 86.64685714285997 L 641.50920245399 88.73874285713998 L 643.59202453988 108.44525714285999 L 645.67484662577 118.99977142857 L 647.75766871166 128.69851428571002 L 649.84049079755 117.54971428571002 L 651.92331288344 105.40251428571003 L 654.00613496933 108.18377142857003 L 656.08895705521 86.95588571428999 L 658.1717791411 86.40914285714001 L 660.25460122699 80.27611428570998 L 662.33742331288 89.19040000000001 L 664.42024539877 102.09828571429 L 666.50306748466 100.22034285714 L 668.58588957055 90.46217142857" fill="none"></path></g><g clip-path="none" transform="translate(8,40) scale(1 1)" opacity="1" data-z-index="90" class="highcharts-markers highcharts-series-0 highcharts-line-series"></g></g><text y="512" style="color: rgb(211, 211, 211); font-size: 15px; fill: rgb(211, 211, 211);" data-z-index="4" class="highcharts-title" text-anchor="end" x="740"></text><text y="25" style="color: rgb(51, 51, 51); fill: rgb(51, 51, 51); font-size: 15px;" data-z-index="4" class="highcharts-subtitle" text-anchor="start" x="14"><tspan style="color: rgb(211, 211, 211); fill: rgb(211, 211, 211);">Yum Brands</tspan></text><text y="527" style="color: rgb(102, 102, 102); fill: rgb(102, 102, 102);" data-z-index="4" class="highcharts-caption" text-anchor="start" x="0"></text><g data-z-index="7" class="highcharts-axis-labels highcharts-xaxis-labels"><text opacity="1" y="476" style="color: rgb(227, 225, 225); cursor: default; font-size: 15px; font-weight: 400; fill: rgb(227, 225, 225);" transform="translate(0,0)" text-anchor="middle" x="64.236196319018">2000</text><text opacity="1" y="476" style="color: rgb(227, 225, 225); cursor: default; font-size: 15px; font-weight: 400; fill: rgb(227, 225, 225);" transform="translate(0,0)" text-anchor="middle" x="189.20552147239">2005</text><text opacity="1" y="476" style="color: rgb(227, 225, 225); cursor: default; font-size: 15px; font-weight: 400; fill: rgb(227, 225, 225);" transform="translate(0,0)" text-anchor="middle" x="314.17484662577">2010</text><text opacity="1" y="476" style="color: rgb(227, 225, 225); cursor: default; font-size: 15px; font-weight: 400; fill: rgb(227, 225, 225);" transform="translate(0,0)" text-anchor="middle" x="439.14417177914">2015</text><text opacity="1" y="476" style="color: rgb(227, 225, 225); cursor: default; font-size: 15px; font-weight: 400; fill: rgb(227, 225, 225);" transform="translate(0,0)" text-anchor="middle" x="562.03067484663">2020</text></g><g data-z-index="7" class="highcharts-axis-labels highcharts-yaxis-labels"><text visibility="hidden" style="color: rgb(227, 225, 225); cursor: default; font-size: 15px; fill: rgb(227, 225, 225);" transform="translate(0,0)" text-anchor="start" x="0"><tspan>0</tspan></text><text opacity="1" y="401" style="color: rgb(227, 225, 225); cursor: default; font-size: 15px; fill: rgb(227, 225, 225);" transform="translate(0,0)" text-anchor="start" x="695">25</text><text opacity="1" y="342" style="color: rgb(227, 225, 225); cursor: default; font-size: 15px; fill: rgb(227, 225, 225);" transform="translate(0,0)" text-anchor="start" x="695">50</text><text opacity="1" y="282" style="color: rgb(227, 225, 225); cursor: default; font-size: 15px; fill: rgb(227, 225, 225);" transform="translate(0,0)" text-anchor="start" x="695">75</text><text opacity="1" y="223" style="color: rgb(227, 225, 225); cursor: default; font-size: 15px; fill: rgb(227, 225, 225);" transform="translate(0,0)" text-anchor="start" x="695">100</text><text opacity="1" y="163" style="color: rgb(227, 225, 225); cursor: default; font-size: 15px; fill: rgb(227, 225, 225);" transform="translate(0,0)" text-anchor="start" x="695">125</text><text opacity="1" y="104" style="color: rgb(227, 225, 225); cursor: default; font-size: 15px; fill: rgb(227, 225, 225);" transform="translate(0,0)" text-anchor="start" x="695">150</text><text visibility="hidden" style="color: rgb(227, 225, 225); cursor: default; font-size: 15px; fill: rgb(227, 225, 225);" transform="translate(0,0)" text-anchor="start" x="0">175</text></g><g data-z-index="7" class="highcharts-axis-labels highcharts-yaxis-labels"></g><g data-z-index="7" class="highcharts-axis-labels highcharts-yaxis-labels"></g><g clip-path="url(#highcharts-qb6jxqn-1816-)" data-z-index="99" class="highcharts-control-points"></g><g data-z-index="9999" class="highcharts-axis highcharts-yaxis"><path opacity="1" d="M 688 456.5 L 693 456.5" stroke-width="1" stroke="#333333" class="highcharts-tick" fill="none"></path><path opacity="1" d="M 688 397.5 L 693 397.5" stroke-width="1" stroke="#333333" class="highcharts-tick" fill="none"></path><path opacity="1" d="M 688 337.5 L 693 337.5" stroke-width="1" stroke="#333333" class="highcharts-tick" fill="none"></path><path opacity="1" d="M 688 278.5 L 693 278.5" stroke-width="1" stroke="#333333" class="highcharts-tick" fill="none"></path><path opacity="1" d="M 688 218.5 L 693 218.5" stroke-width="1" stroke="#333333" class="highcharts-tick" fill="none"></path><path opacity="1" d="M 688 159.5 L 693 159.5" stroke-width="1" stroke="#333333" class="highcharts-tick" fill="none"></path><path opacity="1" d="M 688 99.5 L 693 99.5" stroke-width="1" stroke="#333333" class="highcharts-tick" fill="none"></path><path opacity="1" d="M 688 39.5 L 693 39.5" stroke-width="1" stroke="#333333" class="highcharts-tick" fill="none"></path><path d="M 688.5 40 L 688.5 456" data-z-index="7" stroke-width="1" stroke="#616161" class="highcharts-axis-line" fill="none"></path></g><path class="crosshair-fix-horizontal" visibility="hidden" data-z-index="6" stroke-dasharray="8,3" stroke-width="1" stroke="#757575" d="M 8 0 L 1800 0" fill="none"></path><path class="crosshair-fix-vertical" visibility="hidden" data-z-index="6" stroke-dasharray="8,3" stroke-width="1" stroke="#757575" d="M 0 40 L 0 1160" fill="none"></path></svg>