<?xml version="1.0" standalone="no"?><!DOCTYPE svg PUBLIC "-//W3C//DTD SVG 1.1//EN" "http://www.w3.org/Graphics/SVG/1.1/DTD/svg11.dtd"><svg xmlns:xlink="http://www.w3.org/1999/xlink" version="1.1" class="highcharts-root" style="font-family: &quot;Helvetica Neue&quot;, Helvetica, Arial, sans-serif; font-size: 12px;" xmlns="http://www.w3.org/2000/svg" width="750" height="520" viewBox="0 0 750 520"><desc>Created with Highcharts 10.1.0</desc><defs><linearGradient x1="0" y1="0" x2="500" y2="500" gradientUnits="userSpaceOnUse" id="highcharts-c3jgzjs-2162"><stop offset="0" stop-color="rgb(35, 35, 35)" stop-opacity="1"></stop></linearGradient><clipPath id="highcharts-c3jgzjs-2163-"><rect x="0" y="0" width="679" height="416" fill="none"></rect></clipPath><clipPath id="highcharts-c3jgzjs-2477-"><rect x="0" y="0" width="679" height="416" fill="none"></rect></clipPath><clipPath id="highcharts-c3jgzjs-2796-"><rect x="8" y="40" width="679" height="416" fill="none"></rect></clipPath></defs><rect fill="url(#highcharts-c3jgzjs-2162)" class="highcharts-background" x="0" y="0" width="750" height="520" rx="0" ry="0"></rect><rect fill="none" class="highcharts-plot-background" x="8" y="40" width="679" height="416"></rect><g class="highcharts-grid highcharts-xaxis-grid" data-z-index="1"><path fill="none" stroke="#333333" stroke-width="1" stroke-dasharray="none" data-z-index="1" class="highcharts-grid-line" d="M 67.5 40 L 67.5 456" opacity="1"></path><path fill="none" stroke="#333333" stroke-width="1" stroke-dasharray="none" data-z-index="1" class="highcharts-grid-line" d="M 221.5 40 L 221.5 456" opacity="1"></path><path fill="none" stroke="#333333" stroke-width="1" stroke-dasharray="none" data-z-index="1" class="highcharts-grid-line" d="M 375.5 40 L 375.5 456" opacity="1"></path><path fill="none" stroke="#333333" stroke-width="1" stroke-dasharray="none" data-z-index="1" class="highcharts-grid-line" d="M 527.5 40 L 527.5 456" opacity="1"></path><path fill="none" stroke="#333333" stroke-width="1" stroke-dasharray="none" data-z-index="1" class="highcharts-grid-line" d="M 682.5 40 L 682.5 456" opacity="1"></path></g><g class="highcharts-grid highcharts-yaxis-grid" data-z-index="1"><path fill="none" stroke="#333333" stroke-width="1" stroke-dasharray="none" data-z-index="1" class="highcharts-grid-line" d="M 8 456.5 L 687 456.5" opacity="1"></path><path fill="none" stroke="#333333" stroke-width="1" stroke-dasharray="none" data-z-index="1" class="highcharts-grid-line" d="M 8 397.5 L 687 397.5" opacity="1"></path><path fill="none" stroke="#333333" stroke-width="1" stroke-dasharray="none" data-z-index="1" class="highcharts-grid-line" d="M 8 337.5 L 687 337.5" opacity="1"></path><path fill="none" stroke="#333333" stroke-width="1" stroke-dasharray="none" data-z-index="1" class="highcharts-grid-line" d="M 8 278.5 L 687 278.5" opacity="1"></path><path fill="none" stroke="#333333" stroke-width="1" stroke-dasharray="none" data-z-index="1" class="highcharts-grid-line" d="M 8 218.5 L 687 218.5" opacity="1"></path><path fill="none" stroke="#333333" stroke-width="1" stroke-dasharray="none" data-z-index="1" class="highcharts-grid-line" d="M 8 159.5 L 687 159.5" opacity="1"></path><path fill="none" stroke="#333333" stroke-width="1" stroke-dasharray="none" data-z-index="1" class="highcharts-grid-line" d="M 8 99.5 L 687 99.5" opacity="1"></path><path fill="none" stroke="#333333" stroke-width="1" stroke-dasharray="none" data-z-index="1" class="highcharts-grid-line" d="M 8 39.5 L 687 39.5" opacity="1"></path></g><g class="highcharts-grid highcharts-yaxis-grid" data-z-index="1"></g><g class="highcharts-grid highcharts-yaxis-grid" data-z-index="1"></g><rect fill="none" class="highcharts-plot-border" data-z-index="1" x="8" y="40" width="679" height="416"></rect><g class="highcharts-axis highcharts-xaxis" data-z-index="2"><path fill="none" class="highcharts-axis-line" stroke="#616161" stroke-width="1" data-z-index="7" d="M 8 456.5 L 687 456.5"></path></g><g class="highcharts-axis highcharts-yaxis" data-z-index="2"><path fill="none" class="highcharts-axis-line" data-z-index="7" d="M 720 40 L 720 456"></path></g><g class="highcharts-axis highcharts-yaxis" data-z-index="2"><path fill="none" class="highcharts-axis-line" data-z-index="7" d="M 6.5 40 L 6.5 456"></path></g><g class="highcharts-series-group" data-z-index="3"><g class="highcharts-series highcharts-series-0 highcharts-line-series" data-z-index="90" opacity="1" transform="translate(8,40) scale(1 1)" clip-path="url(#highcharts-c3jgzjs-2477-)"><path fill="none" d="M 0 396.76011885714297 L 2.1419558359622 397.985773714286 L 4.2839116719243 395.905773714286 L 6.4258675078864 398.728630857143 L 8.5678233438486 399.768630857143 L 10.709779179811 399.062857142857 L 12.851735015773 398.134345142857 L 14.993690851735 397.131428571429 L 17.135646687697 397.540059428571 L 19.277602523659 397.168512 L 21.419558359621 394.977261714286 L 23.561514195584 393.974345142857 L 25.703470031546 392.748690285714 L 27.845425867508 390.148571428571 L 29.98738170347 388.811428571429 L 32.129337539432 386.211547428571 L 34.271293375394 387.734345142857 L 36.413249211356 379.080118857143 L 38.555205047319 374.251428571429 L 40.697160883281 377.742976 L 42.839116719243 381.382857142857 L 44.981072555205 383.834404571429 L 47.123028391167 391.819940571429 L 49.264984227129 391.857261714286 L 51.406940063091 391.671369142857 L 53.548895899054 392.117083428571 L 55.690851735016 391.337142857143 L 57.832807570978 393.045833142857 L 59.97476340694 398.98869028571403 L 62.116719242902 400.177261714286 L 64.258675078864 397.540059428571 L 66.400630914827 395.868690285714 L 68.542586750789 398.580059428571 L 70.684542586751 399.211428571429 L 72.826498422713 401.625654857143 L 74.968454258675 398.69154742857097 L 77.110410094637 397.800118857143 L 79.252365930599 398.171428571429 L 81.394321766562 394.605714285714 L 83.536277602524 396.388571428571 L 85.678233438486 394.593828571429 L 87.820189274448 393.12 L 89.96214511041 393.304228571429 L 92.104100946372 389.364114285714 L 94.246056782334 388.841142857143 L 96.388012618297 389.910857142857 L 98.529968454259 388.811428571429 L 100.67192429022 390.671542857143 L 102.81388012618 392.692114285714 L 104.95583596215 385.935085714286 L 107.09779179811 387.801142857143 L 109.23974763407 386.761142857143 L 111.38170347003 382.838857142857 L 113.52365930599 380.859885714286 L 115.66561514196 381.067885714286 L 117.80757097792 378.524342857143 L 119.94952681388 378.025142857143 L 122.09148264984 381.234285714286 L 124.2334384858 379.273142857143 L 126.37539432177 379.950628571429 L 128.51735015773 383.064685714286 L 130.65930599369 389.221485714286 L 132.80126182965 387.581257142857 L 134.94321766562 387.2128 L 137.08517350158 388.448914285714 L 139.22712933754 387.700114285714 L 141.3690851735 387.082057142857 L 143.51104100946 386.642285714286 L 145.65299684543 382.767542857143 L 147.79495268139 380.865828571429 L 149.93690851735 380.426057142857 L 152.07886435331 380.758857142857 L 154.22082018927 380.794514285714 L 156.36277602524 375.422171428571 L 158.5047318612 375.006171428571 L 160.64668769716 375.113142857143 L 162.78864353312 375.695542857143 L 164.93059936909 371.98720000000003 L 167.07255520505 370.846171428571 L 169.21451104101 369.895314285714 L 171.35646687697 371.428571428571 L 173.49842271293 371.761371428571 L 175.6403785489 370.370742857143 L 177.78233438486 368.801828571429 L 179.92429022082 367.672685714286 L 182.06624605678 364.297142857143 L 184.20820189274 362.038857142857 L 186.35015772871 359.9232 L 188.49211356467 360.909714285714 L 190.63406940063 358.021485714286 L 192.77602523659 371.720722285714 L 194.91798107256 375.865746285714 L 197.05993690852 372.165248 L 199.20189274448 371.489901714286 L 201.34384858044 371.259318857143 L 203.4858044164 375.506797714286 L 205.62776025237 374.626541714286 L 207.76971608833 372.524196571429 L 209.91167192429 374.301824 L 212.05362776025 375.934208 L 214.19558359621 373.720612571429 L 216.33753943218 375.233426285714 L 218.47949526814 374.24192 L 220.6214511041 371.831734857143 L 222.76340694006 372.925696 L 224.90536277603 373.036946285714 L 227.04731861199 377.54091885714297 L 229.18927444795 374.224804571429 L 231.33123028391 371.515574857143 L 233.47318611987 365.182628571429 L 235.61514195584 363.704045714286 L 237.7570977918 365.746724571429 L 239.89905362776 364.712667428571 L 242.04100946372 366.481737142857 L 244.18296529968 366.635538285714 L 246.32492113565 363.131629714286 L 248.46687697161 358.123227428571 L 250.60883280757 360.072009142857 L 252.75078864353 361.234194285714 L 254.8927444795 360.072009142857 L 257.03470031546 358.174573714286 L 259.17665615142 347.166738285714 L 261.31861198738 352.499620571429 L 263.46056782334 350.585307428571 L 265.60252365931 357.610477714286 L 267.74447949527 357.114843428571 L 269.88643533123 352.397165714286 L 272.02839116719 346.465956571429 L 274.17034700315 348.141129142857 L 276.31230283912 356.020882285714 L 278.45425867508 354.77312 L 280.59621451104 355.012498285714 L 282.738170347 360.259803428571 L 284.88012618297 366.413275428571 L 287.02208201893 369.951652571429 L 289.16403785489 362.157238857143 L 291.30599369085 367.080064 L 293.44794952681 371.079844571429 L 295.58990536278 369.028608 L 297.73186119874 358.994925714286 L 299.8738170347 356.807241142857 L 302.01577287066 359.012041142857 L 304.15772870662 355.388324571429 L 306.29968454259 357.456676571429 L 308.44164037855 358.294144 L 310.58359621451 359.678829714286 L 312.72555205047 355.71328 L 314.86750788644 356.226029714286 L 317.0094637224 357.525138285714 L 319.15141955836 358.362605714286 L 321.29337539432 350.482852571429 L 323.43533123028 343.491675428571 L 325.57728706625 346.004315428571 L 327.71924290221 349.269083428571 L 329.86119873817 345.406226285714 L 332.00315457413 344.722322285714 L 334.14511041009 337.269979428571 L 336.28706624606 331.287424 L 338.42902208202 330.39861028571397 L 340.57097791798 332.15912228571403 L 342.71293375394 336.073325714286 L 344.85488958991 329.9712 L 346.99684542587 328.176457142857 L 349.13880126183 324.313362285714 L 351.28075709779 321.441773714286 L 353.42271293375 321.578697142857 L 355.56466876972 325.71516342857103 L 357.70662460568 323.0656 L 359.84858044164 331.577910857143 L 361.9905362776 324.433170285714 L 364.13249211356 320.211126857143 L 366.27444794953 315.13450057143 L 368.41640378549 307.75038171429003 L 370.55835962145 302.776448 L 372.70031545741 294.33236114286 L 374.84227129338 291.68303542857 L 376.98422712934 295.73416228571 L 379.1261829653 305.88717714285997 L 381.26813880126 305.16928 L 383.41009463722 307.08383085714 L 385.55205047319 302.60553142857 L 387.69400630915 296.16133485714 L 389.83596214511 301.34065371429 L 391.97791798107 302.50283885714 L 394.11987381703 304.99836342857 L 396.261829653 304.07531885714 L 398.40378548896 293.03349028571 L 400.54574132492 299.56278857143 L 402.68769716088 300.19534628571 L 404.82965299685 297.47755885714 L 406.97160883281 291.35831771429 L 409.11356466877 296.315136 L 411.25552050473 293.97341257143 L 413.39747634069 300.41760914286 L 415.53943217666 283.22207085714 L 417.68138801262 286.76021028571 L 419.82334384858 301.22084571429 L 421.96529968454 289.37554285714 L 424.1072555205 287.13627428571 L 426.24921135647 284.40137142857 L 428.39116719243 283.85439085714 L 430.53312302839 277.20528457143 L 432.67507886435 297.37510399999996 L 434.81703470032 292.19578514286 L 436.95899053628 292.96502857143 L 439.10094637224 293.22152228570997 L 441.2429022082 283.95708342857 L 443.38485804416 291.477888 L 445.52681388013 292.45227885714 L 447.66876971609 277.35908571429 L 449.81072555205 281.44444342857 L 451.95268138801 269.06903771429 L 454.09463722397 261.97540571429 L 456.23659305994 262.026752 L 458.3785488959 265.99230171428997 L 460.52050473186 279.64970057143 L 462.66246056782 279.34186057143 L 464.80441640379 294.79400228571 L 466.94637223975 292.05909942857 L 469.08832807571 291.13605485714 L 471.23028391167 292.29847771429 L 473.37223974763 292.12756114286003 L 475.5141955836 276.094208 L 477.65615141956 280.00864914286 L 479.79810725552 275.68415085714 L 481.94006309148 274.26523428571 L 484.08201892744 263.154944 L 486.22397476341 260.94990628571 L 488.36593059937 260.77898971429 L 490.50788643533 268.52205714286004 L 492.64984227129 265.31291428571 L 494.79179810726 265.45554285714 L 496.93375394322 260.22582857143 L 499.07570977918 260.72502857143 L 501.21766561514 264.10057142857 L 503.3596214511 259.70285714286 L 505.50157728707 243.34217142857 L 507.64353312303 240.56376685714 L 509.78548895899 236.57325714286 L 511.92744479495 233.19177142857 L 514.06940063091 241.08388571429 L 516.21135646688 239.10776685714 L 518.35331230284 226.87736685714 L 520.4952681388 218.10285714286 L 522.63722397476 228.27702857143 L 524.77917981073 213.14580114286 L 526.92113564669 207.44137142857 L 529.06309148265 222.337024 L 531.20504731861 229.98262857143 L 533.34700315457 227.00216685714 L 535.48895899054 209.41130971429 L 537.6309148265 200.41691428571 L 539.77287066246 201.29645714286 L 541.91482649842 198.03382857143 L 544.05678233438 199.77508571429 L 546.19873817035 192.59611428571 L 548.34069400631 191.36 L 550.48264984227 178.73737142857 L 552.62460567823 167.85005714286 L 554.7665615142 172.69942857143 L 556.90851735016 152.9216 L 559.05047318612 148.52388571428997 L 561.19242902208 138.39725714285998 L 563.33438485804 146.36068571429 L 565.47634069401 174.2208 L 567.61829652997 176.69302857143 L 569.76025236593 176.5504 L 571.90220820189 164.5696 L 574.04416403786 203.84 L 576.18611987382 253.0944 L 578.32807570978 210.54354285714 L 580.47003154574 202.69897142857 L 582.6119873817 209.40251428571 L 584.75394321767 199.56114285714 L 586.89589905363 188.15085714286 L 589.03785488959 198.96685714286 L 591.17981072555 194.14125714286 L 593.32176656151 164.49828571429 L 595.46372239748 157.93737142856997 L 597.60567823344 174.74377142857 L 599.7476340694 169.8944 L 601.88958990536 158.84068571428998 L 604.03154574132 131.88388571429 L 606.17350157729 130.81417142856998 L 608.31545741325 142.55725714286 L 610.45741324921 103.66719999999998 L 612.59936908517 104.52297142856997 L 614.74132492114 125.25165714285998 L 616.8832807571 118.99977142857 L 619.02523659306 123.99177142857002 L 621.16719242902 85.90994285713998 L 623.30914826498 118.45302857143002 L 625.45110410095 124.60982857143 L 627.59305993691 134.23725714286002 L 629.73501577287 137.85051428571 L 631.87697160883 127.24845714285999 L 634.0189274448 146.17051428571 L 636.16088328076 124.70491428571 L 638.30283911672 151.56662857143 L 640.44479495268 163.21462857143 L 642.58675078864 134.90285714286 L 644.72870662461 110.15679999999998 L 646.87066246057 111.53554285714 L 649.01261829653 105.75908571429 L 651.15457413249 113.72251428571002 L 653.29652996845 102.02697142857 L 655.43848580442 81.82125714286002 L 657.58044164038 110.08548571428997 L 659.72239747634 86.64685714285997 L 661.8643533123 88.73874285713998 L 664.00630914827 108.44525714285999 L 666.14826498423 118.99977142857 L 668.29022082019 130.26742857143" class="highcharts-graph" data-z-index="1" stroke="#2962FF" stroke-width="2" stroke-linejoin="round" stroke-linecap="round"></path></g><g class="highcharts-markers highcharts-series-0 highcharts-line-series" data-z-index="90" opacity="1" transform="translate(8,40) scale(1 1)" clip-path="none"></g></g><text x="740" text-anchor="end" class="highcharts-title" data-z-index="4" style="color: rgb(211, 211, 211); font-size: 15px; fill: rgb(211, 211, 211);" y="512"></text><text x="14" text-anchor="start" class="highcharts-subtitle" data-z-index="4" style="color: rgb(51, 51, 51); fill: rgb(51, 51, 51); font-size: 15px;" y="25"><tspan style="color: rgb(211, 211, 211); fill: rgb(211, 211, 211);">Yum Brands</tspan></text><text x="0" text-anchor="start" class="highcharts-caption" data-z-index="4" style="color: rgb(102, 102, 102); fill: rgb(102, 102, 102);" y="527"></text><g class="highcharts-axis-labels highcharts-xaxis-labels" data-z-index="7"><text x="67.84494790173" text-anchor="middle" transform="translate(0,0)" style="color: rgb(227, 225, 225); cursor: default; font-size: 15px; font-weight: 400; fill: rgb(227, 225, 225);" y="476" opacity="1">2000</text><text x="222.065768091" text-anchor="middle" transform="translate(0,0)" style="color: rgb(227, 225, 225); cursor: default; font-size: 15px; font-weight: 400; fill: rgb(227, 225, 225);" y="476" opacity="1">2006</text><text x="376.28658828028" text-anchor="middle" transform="translate(0,0)" style="color: rgb(227, 225, 225); cursor: default; font-size: 15px; font-weight: 400; fill: rgb(227, 225, 225);" y="476" opacity="1">2012</text><text x="528.39486395899" text-anchor="middle" transform="translate(0,0)" style="color: rgb(227, 225, 225); cursor: default; font-size: 15px; font-weight: 400; fill: rgb(227, 225, 225);" y="476" opacity="1">2018</text><text x="682.78748685594" text-anchor="middle" transform="translate(0,0)" style="color: rgb(227, 225, 225); cursor: default; font-size: 15px; font-weight: 400; fill: rgb(227, 225, 225);" y="476" opacity="1">2024</text></g><g class="highcharts-axis-labels highcharts-yaxis-labels" data-z-index="7"><text x="0" text-anchor="start" transform="translate(0,0)" style="color: rgb(227, 225, 225); cursor: default; font-size: 15px; fill: rgb(227, 225, 225);" visibility="hidden"><tspan>0</tspan></text><text x="695" text-anchor="start" transform="translate(0,0)" style="color: rgb(227, 225, 225); cursor: default; font-size: 15px; fill: rgb(227, 225, 225);" y="401" opacity="1">25</text><text x="695" text-anchor="start" transform="translate(0,0)" style="color: rgb(227, 225, 225); cursor: default; font-size: 15px; fill: rgb(227, 225, 225);" y="342" opacity="1">50</text><text x="695" text-anchor="start" transform="translate(0,0)" style="color: rgb(227, 225, 225); cursor: default; font-size: 15px; fill: rgb(227, 225, 225);" y="282" opacity="1">75</text><text x="695" text-anchor="start" transform="translate(0,0)" style="color: rgb(227, 225, 225); cursor: default; font-size: 15px; fill: rgb(227, 225, 225);" y="223" opacity="1">100</text><text x="695" text-anchor="start" transform="translate(0,0)" style="color: rgb(227, 225, 225); cursor: default; font-size: 15px; fill: rgb(227, 225, 225);" y="163" opacity="1">125</text><text x="695" text-anchor="start" transform="translate(0,0)" style="color: rgb(227, 225, 225); cursor: default; font-size: 15px; fill: rgb(227, 225, 225);" y="104" opacity="1">150</text><text x="0" text-anchor="start" transform="translate(0,0)" style="color: rgb(227, 225, 225); cursor: default; font-size: 15px; fill: rgb(227, 225, 225);" visibility="hidden">175</text></g><g class="highcharts-axis-labels highcharts-yaxis-labels" data-z-index="7"></g><g class="highcharts-axis-labels highcharts-yaxis-labels" data-z-index="7"></g><g class="highcharts-control-points" data-z-index="99" clip-path="url(#highcharts-c3jgzjs-2796-)"></g><g class="highcharts-axis highcharts-yaxis" data-z-index="9999"><path fill="none" class="highcharts-tick" stroke="#333333" stroke-width="1" d="M 688 456.5 L 693 456.5" opacity="1"></path><path fill="none" class="highcharts-tick" stroke="#333333" stroke-width="1" d="M 688 397.5 L 693 397.5" opacity="1"></path><path fill="none" class="highcharts-tick" stroke="#333333" stroke-width="1" d="M 688 337.5 L 693 337.5" opacity="1"></path><path fill="none" class="highcharts-tick" stroke="#333333" stroke-width="1" d="M 688 278.5 L 693 278.5" opacity="1"></path><path fill="none" class="highcharts-tick" stroke="#333333" stroke-width="1" d="M 688 218.5 L 693 218.5" opacity="1"></path><path fill="none" class="highcharts-tick" stroke="#333333" stroke-width="1" d="M 688 159.5 L 693 159.5" opacity="1"></path><path fill="none" class="highcharts-tick" stroke="#333333" stroke-width="1" d="M 688 99.5 L 693 99.5" opacity="1"></path><path fill="none" class="highcharts-tick" stroke="#333333" stroke-width="1" d="M 688 39.5 L 693 39.5" opacity="1"></path><path fill="none" class="highcharts-axis-line" stroke="#616161" stroke-width="1" data-z-index="7" d="M 688.5 40 L 688.5 456"></path></g><path fill="none" d="M 8 0 L 1800 0" stroke="#757575" stroke-width="1" stroke-dasharray="8,3" data-z-index="6" visibility="hidden" class="crosshair-fix-horizontal"></path><path fill="none" d="M 0 40 L 0 1160" stroke="#757575" stroke-width="1" stroke-dasharray="8,3" data-z-index="6" visibility="hidden" class="crosshair-fix-vertical"></path></svg>